<?xml version="1.0" encoding="utf-8"?>
<!-- Generator: Adobe Illustrator 21.0.2, SVG Export Plug-In . SVG Version: 6.00 Build 0)  -->
<svg version="1.1" id="圖層_1" xmlns="http://www.w3.org/2000/svg" xmlns:xlink="http://www.w3.org/1999/xlink" x="0px" y="0px"
	 viewBox="0 0 305.2 265.1" style="enable-background:new 0 0 305.2 265.1;" xml:space="preserve">
<style type="text/css">
	.st0{fill:#E3735C;}
	.st1{fill:#3B2213;}
	.st2{fill:none;}
	.st3{fill:#50392C;}
</style>
<g id="圖層_2">
	<path class="st0" d="M299.3,163.2c-18.4,10.1-44.9,20.2-130,43.2c-68.8,18.6-111-19.4-132-42.2C21.2,146.7,86.6,0,158.4,0
		C230.2,0,321.9,150.8,299.3,163.2z"/>
</g>
<g id="圖層_1_1_">
	<g>
		<path class="st1" d="M33.8,163.3c2.7-1,6.6,1.7,7.4,4.6c-2.1,0.2-3.2-0.6-4.6-1.1c0.2-0.7,1-0.9,1.1-1.7
			C35.5,165.4,36.1,162.9,33.8,163.3z M44.1,169.5c0.5,0.8,0.5,2.2,2.3,1.7c0.2,1.3-0.1,2.1-1.1,2.3c-1.5-1-3.6-1.4-5.1-2.3
			C40.6,169.9,42.4,169.7,44.1,169.5z M252.9,190.6c0.3,1.8-0.5,2.5-2.3,2.3C250.7,191.4,251.4,190.6,252.9,190.6z M258,191.2
			c0.2,1.5-0.8,1.9-2.3,1.7C255.5,191.4,256.5,191,258,191.2z M241.5,193.4c-0.6,2.8-0.3,4.2,0.6,6.8c-0.7-0.1-1,0.1-1.1,0.6
			c-1.7-1.8-2.4-4.5-2.9-7.4C239.1,192.3,240.2,193.2,241.5,193.4z M224.4,196.8c2.6,0.9,2,2,5.7,1.1c-0.2,6-1.5,11-3.4,15.4
			c-0.9-3.4-1.2-6-4-6.3C223.7,204.1,222.4,198.8,224.4,196.8z M72.5,202c1.4,1.1-1.4,2.7-1.7,4C68.9,204.4,72.3,203.3,72.5,202z
			 M218.2,205.4c0.8,2.1,2.7,8.4-1.1,8.5C217.2,209.9,215.9,207.6,218.2,205.4z M212.5,208.2c-0.1,2.9,2.4,4.7,1.7,9.7
			c-1.3,0.2-2.1,0.9-4,0.6C210.1,215.4,207.6,207.9,212.5,208.2z M201.1,208.8c1.7,0.1,2.6,1.2,4,1.7c-0.5,2.7,5.2,11.3-2.8,10.8
			c-0.4-2.4-1.5-4.1-2.8-5.7C201.5,212.3,199.7,211.9,201.1,208.8z M74.2,232.1c5.3-5.7,8.9-13.1,15.4-17.6
			C85.8,221.7,81.7,228.6,74.2,232.1z M193.1,227.6c-6-1,0.1-9.4-2.3-9.7C196.3,210.8,196.3,224.1,193.1,227.6z M223.9,219.6
			c0.6,0,1.1,0,1.7,0c-0.4,2.2,0.2,5.5-2.9,5.1C222.9,222.8,224.2,222,223.9,219.6z M247.2,219.6c0.6,0,1.1,0,1.7,0
			c0.5,0.5,1.6,4.4-0.6,4C250.1,221.8,247,221.6,247.2,219.6z M130,222.4c-0.1,3.7-3,9.5-7.4,10.8C124.8,229.4,127,225.6,130,222.4z
			 M172.7,223.6c1,2.3,1,6.8,0.6,11.9c2.5-2.3,3.1-6.4,4-10.2c5.4-0.1-1.2,7.1,2.8,6.8c-0.2,1.3-0.9,2.1-0.6,4
			c-2.6,1.4-5.5,2.5-6.8,5.1c-2.2-0.1-1.7-2.6-1.1-4C167.1,234.6,172.4,227.1,172.7,223.6z M66.8,227c0.4,0,0.8,0,1.1,0
			c-0.1,0.5,0.2,0.5,0.6,0.6c-1.2,1.1-1.2,3.4-3.4,3.4C65.6,229.6,66.7,228.7,66.8,227z M202.2,227.6c0.6,0,1.1,0,1.7,0
			c0,0.8,0,1.5,0,2.3C202.4,230,202.1,229.1,202.2,227.6z M109.5,230.4c0.9-0.2,1,0.5,1.7,0.6c-5.3,9.4-10,19.6-17.6,26.7
			C97.1,246.8,104.4,239.8,109.5,230.4z M149.9,233.8c0.1,1.7-1.3,1.7-1.1,3.4C146.7,236.9,148,233.6,149.9,233.8z M134.5,235.5
			c1.2,1.6-1.3,4.4-2.3,5.7C129.5,239.7,133.9,237.3,134.5,235.5z M157.9,243.5C161.3,247,154.5,248.8,157.9,243.5L157.9,243.5z
			 M59.4,181.5c1.5,0.7-1.5,1.5-1.7,2.3c1.1,0.2,1.8-0.1,1.7-1.1c3.3,5,10.1,6.6,15.4,9.7c0.8-0.2,0.5-1.4,0.6-2.3
			c1.8-0.1,1.9,1.5,4,1.1c0.1,1-0.7,1.2-0.6,2.3c7.3,1.7,15,4.1,23.3,6.3c4.5,1.1,8.6,3.9,13.1,4.6c2.5,0.3,5.3-0.4,8,0
			c4.1,0.6,7.8,3,11.9,3.4c10.9,1.1,22.9-0.1,34.1-2.3c1.3,0,2.7,0,4,0c1.4-2,4.5-2.4,8-2.3c5.4-4.4,14.1-2.1,18.2-8
			c8.2-2.3,17.6-3.2,22.8-8.5c4.3,1,6.4-0.9,8.5-3.4c4.4,1.2,6.2-2.6,9.1-4.5c1.4-0.1,2.7-0.1,3.4,0.6c3.2-3.8,8.7-4,13.1-5.7
			c1.9-0.7,3.5-3,5.7-3.4c1.3-0.2,1.5,1.5,2.8,1.7c2.3,0.4,6.8-1.2,8.5-4c0.7,0.9,1.4,1.6,2.3,2.3c2.1-0.8,3.1-2.6,5.7-2.9
			c0.2,0.9-0.5,1-0.6,1.7c2.5-0.9,4.4-2.4,6.3-4c1.3,1.2-1.9,3.3,0.6,4.6c1.6-1.5,6.8-1.6,6.8,1.7c1.4-0.7,1.9-2.3,4-2.3
			c-3.7,6.9,6,9.8,6.8,15.9c-4.3-1.7-7.5,0.7-9.7,2.8c-1.9-1.5-6.6-0.2-8-2.3c-0.8,0.2-0.5,1.4-0.6,2.3c-4.6,0.8-11.1,0-15.4,2.3
			c-1-0.3,0-2.7-1.1-2.9c-2.7,1.1,0.9,2.2-0.6,4c-2.2,0.2-1.7-2.4-4-2.3c-3.1,0.7-3.8,6.9,0,6.8c-3.7,2.3,1.1,10.1-4,11.4
			c0,1.9,2.4,1.4,2.3,3.4c-2,1.6-3.6-1-4.5-2.3c-0.1-1.9,2.2-1.2,2.3-2.8c-1.7-3.6-1.9-8.7-4.6-11.4c-3.2,2.8,2.7,9.4-0.6,12.5
			c-2.2-0.1-1-3.6-2.8-4c-1.2-0.2-1.5,0.4-2.3,0.6c0,5.2,3.3,5.8,4,11.4c-2.9,0-3.3-0.7-5.7,0c-1.7-1.8-1.4-5.5-2.3-8
			c-3.7,3.1,0.7,9.8-1.7,12.5c-3-1.4-5.3-3.4-6.3-6.8c1.3-0.8,3.6-6.6-0.6-6.3c0.2-1.9,2.5-1.6,2.8-3.4c-3.6-1.9-3.3,4.5-5.7,5.7
			c-0.5,2.8,0.5,4,1.1,5.7c-10.3,1.2-5.6,17.5-13.1,21.6c0.8-3.4,2.1-7.9,0-9.7c-3.3,1.8-4.6,5.4-4.6,9.1c-4.1,0.8-3.3,6.5-5.1,9.7
			c-1.8-0.3-1.8,1.1-2.8,0c0.4-2.2,0.8-4.5,2.3-5.7c-2.5,0.6-4-1.7-7.4-1.7c-0.1-2.4,0.9-2.7,0-4.6c-1.8-0.5-1.8,0.9-2.8,1.1
			c1.6,2.1,0.8,4.7-1.7,5.7c-0.4-2-2.2-5.9,0.6-7.4c-3.8-5.7-6.3,3.1-9.7,2.3c-0.5,2.6,1.1,7.2-1.1,8c-2.5-0.4-2-1.9-1.7-4
			c-1-3.3-4.7-4-4.6-8.5c-2.2,3.4-1.5,8.9-2.8,14.2c-4.4,1.8-1,11.5-6.3,12.5c0.8-5,2.5-11.1,1.7-15.9c-6.9,2.8-6.7,12.7-10.8,18.2
			c-2.3,0.1,0.2-0.9-1.1-1.7c-2.8,1-2.9,4.7-4,7.4c-0.9-9.6,4.7-21.2-0.6-29.6c2.2,1.2,3.1-1.7,2.3-3.4c2.9-0.6,2,2.5,4,2.8
			c1.7-2.4,2.8-9.7,0.6-12.5c-1.7-0.4-1.7,1-3.4,0.6c2.1-3.3-1.7-3.5,0-6.8c-3.1,0.7-2.9,4.7-4,7.4c-3,1.8-3,6.5-4,10.2
			c-4.2,3.7-4.7,11.2-6.3,17.6c-4.7-10,5.8-17.3,2.3-27.9c-4.9,1.2-3.2,9-8,10.2c0.1-1.4,2.7-5.3,4-7.4c-3.4,0.5-8.2,4.3-9.1,9.1
			c-2.6-2.8-5.7,0.2-9.1,1.1c1.2-2.1,3.2-3.2,4-5.7c-0.6-0.5-3.6,1.3-4,2.9c-1.5-1.4,1.7-2.8,1.1-5.1c-4.5,4.8-11.2,7.4-13.1,14.8
			c4.9-0.3,6.7-6.5,10.8-5.7c-11,9.3-21.8,18.8-33,27.9c1.2-4.3,9.1-6.9,8.5-14.8c7-6.9,12.4-15.3,15.4-26.2
			c-11.5,10.4-17.5,26.1-27.9,37.6c-0.9-2.1-3.4-0.3-4,1.1c3.7-9.6,5.4-23.7,8-33c1.2-0.3,1.1,0.8,1.1,1.7c2.7-0.2,2.5-3.2,4-4.5
			c1,4.6-2.8,9.4-2.3,15.4c4.2-5.3,4.7-14.3,10.8-17.6c-1.4-3.1,1.7-6.1,1.1-10.2c-2.2,0.5-3.3,2-3.4,4.6c-2.2-2.2-3.1,0.2-4,2.3
			c-2.1-0.9,0.1-2.7-1.1-4c-3.3,1.2-3.4,5.7-5.1,8.5c-1.5-0.8,0.3-4.8-1.1-5.7c-1.9,0.2-2.5,1.7-4,2.3c-6.4-1.5-9.4,2.4-11.4,6.8
			c-9.8,5-18.9,10.7-25.6,18.8c-1.6-1.4,1.6-2.9,1.1-5.1c1.7,0.7,2.2,0.4,3.4-0.6c-0.1-1.3-1.4,0.7-2.8,0c1.1-1.6,2.3-3,3.4-4.6
			c11.6-3.6,13.9-16.4,20.5-25c-1.7-1.1-5.9,0.1-6.8,1.7c-0.6-1.2-3.1-1.5-5.1,0c-0.3-3,5-5.3,5.1-9.7c-6.7,2.2-7.8,10-14.2,12.5
			c-1.8-5,7.4-4,6.8-9.7c-2.3,0.3-3.9,1.5-5.1,2.8c0-3.6,3.9-8.3,5.7-11.9c-1-0.7-2.6-2-1.1-3.4c-5.2,2.9-8.2,8.1-13.1,11.4
			c1.8-3.9,8.5-7.8,10.2-13.6c-0.3-2.6-5.2-2.1-4-4.6c-2.5,0.2-4.7,0.7-6.8,1.1c1.5-1.6,3.9-2.2,5.7-3.4c-0.5-1.7-1.8,0.3-2.8,0
			c0.3-1.8-0.4-2.6-0.6-4C56.3,180.4,58.5,183.3,59.4,181.5z M89.6,214.5c-6.5,4.5-10.1,11.9-15.4,17.6
			C81.7,228.6,85.8,221.7,89.6,214.5z M250.6,192.9c1.8,0.3,2.5-0.5,2.3-2.3C251.4,190.6,250.7,191.4,250.6,192.9z M255.7,192.9
			c1.5,0.2,2.4-0.2,2.3-1.7C256.5,191,255.5,191.4,255.7,192.9z M238.1,193.4c0.5,2.9,1.2,5.6,2.9,7.4c0.1-0.4,0.5-0.7,1.1-0.6
			c-0.9-2.6-1.2-4-0.6-6.8C240.2,193.2,239.1,192.3,238.1,193.4z M222.7,207.1c2.8,0.3,3.1,2.9,4,6.3c1.9-4.4,3.2-9.3,3.4-15.4
			c-3.7,0.8-3.1-0.2-5.7-1.1C222.4,198.8,223.7,204.1,222.7,207.1z M70.8,205.9c0.3-1.3,3.1-2.9,1.7-4
			C72.3,203.3,68.9,204.4,70.8,205.9z M217,213.9c3.9-0.2,1.9-6.4,1.1-8.5C215.9,207.6,217.2,209.9,217,213.9z M210.2,218.5
			c1.8,0.3,2.6-0.4,4-0.6c0.7-5-1.8-6.8-1.7-9.7C207.6,207.9,210.1,215.4,210.2,218.5z M199.4,215.6c1.3,1.5,2.4,3.3,2.8,5.7
			c8.1,0.5,2.4-8.1,2.8-10.8c-1.4-0.5-2.2-1.6-4-1.7C199.7,211.9,201.5,212.3,199.4,215.6z M190.9,217.9c2.4,0.3-3.7,8.7,2.3,9.7
			C196.3,224.1,196.3,210.8,190.9,217.9z M222.7,224.7c3.1,0.4,2.4-2.9,2.8-5.1c-0.6,0-1.1,0-1.7,0
			C224.2,222,222.9,222.8,222.7,224.7z M122.6,233.3c4.4-1.3,7.3-7.1,7.4-10.8C127,225.6,124.8,229.4,122.6,233.3z M171.5,237.2
			c-0.5,1.4-1.1,3.9,1.1,4c1.4-2.6,4.2-3.7,6.8-5.1c-0.3-1.9,0.4-2.6,0.6-4c-4,0.3,2.5-6.9-2.9-6.8c-0.9,3.9-1.5,8-4,10.2
			c0.5-5.1,0.5-9.7-0.6-11.9C172.4,227.1,167.1,234.6,171.5,237.2z M203.9,229.8c0-0.8,0-1.5,0-2.3c-0.6,0-1.1,0-1.7,0
			C202.1,229.1,202.4,230,203.9,229.8z M93.6,257.7c7.7-7.1,12.3-17.3,17.6-26.7c-0.7,0-0.8-0.7-1.7-0.6
			C104.4,239.8,97.1,246.8,93.6,257.7z M73.1,217.3c-0.3,3.3-2.5,4.7-4,6.8C68.7,222.5,70.6,218,73.1,217.3z M143.6,235
			c-5.4,11.8-14.6,19.9-23.9,27.9c4-7.7,13.6-14.8,17.6-24.5C139.8,237.6,140.7,235.3,143.6,235z M145.9,239.5
			c-3.9,4.4-3.9,12.8-9.1,15.9C140.6,250.9,140.2,242.1,145.9,239.5z"/>
		<g>
			<g>
				<g>
					<path class="st2" d="M278.7,47.9c-2.2-4.8-5.4-8.7-9.7-12.5"/>
					<g>
						<path class="st3" d="M279,47.8c-0.7-1-4.9-5.5-5.7-6c-0.5-0.7-3.7-6.4-4.1-6.5c-0.2-0.3,5.6,3.9,6.1,4.7
							C276.2,40.5,279.2,47.8,279,47.8z"/>
					</g>
				</g>
			</g>
			<g>
				<g>
					<path class="st2" d="M269,48.9c-5.4-10.6-17.3-18.3-28.1-24"/>
					<g>
						<path class="st3" d="M269.2,48.8c-0.9-2.7-11.8-12.4-14-13.3c-1.5-1.6-13.4-10.7-14.2-10.9c-0.6-0.5,14.2,6.8,15.7,8.5
							C259.2,33.7,270.2,48.2,269.2,48.8z"/>
					</g>
				</g>
			</g>
			<g>
				<g>
					<path class="st2" d="M257.1,48.9c-5.4-5.8-10.8-11.5-17.3-15.4"/>
					<g>
						<path class="st3" d="M257.3,48.7c-1.3-0.9-8.5-6.6-9.6-7.4c-0.9-1-7.2-7.9-7.7-8c-0.3-0.4,8.6,4.7,9.5,5.9
							C250.5,40,257.4,48.7,257.3,48.7z"/>
					</g>
				</g>
			</g>
			<g>
				<g>
					<path class="st2" d="M276.6,67.2c-7.6-6.7-17.3-12.5-25.9-18.3"/>
					<g>
						<path class="st3" d="M276.7,67c-1.8-1.3-12.4-7.7-14.2-8.6c-1.6-1-11.3-9.4-11.8-9.7c-0.5-0.3,11.6,6.3,13.1,7.3
							C265.6,56.7,276.9,66.8,276.7,67z"/>
					</g>
				</g>
			</g>
			<g>
				<g>
					<path class="st2" d="M255,61.4c-6.5-3.8-15.1-13.5-21.6-19.2"/>
					<g>
						<path class="st3" d="M255.1,61.2c-2-0.3-11.4-7.1-12.7-8.4c-1.3-1.2-8.4-10.5-8.9-10.8c-0.3-0.4,9.5,7.5,10.6,8.6
							C245.2,51.9,254.8,61.5,255.1,61.2z"/>
					</g>
				</g>
			</g>
			<g>
				<g>
					<path class="st2" d="M245.2,61.4c-15.1-7.7-28.1-20.2-46.4-27.9"/>
					<g>
						<path class="st3" d="M245.4,61.2c-3.6-0.9-21.9-11.9-24.7-13.8c-2.4-2.2-20.4-14.1-21.7-14.1c-0.7-0.9,20.7,9.3,22.9,11.6
							C224.2,46.7,245,61.7,245.4,61.2z"/>
					</g>
				</g>
			</g>
			<g>
				<g>
					<path class="st2" d="M248.5,51.8c-13-4.8-24.8-17.3-38.9-22.1"/>
					<g>
						<path class="st3" d="M248.6,51.5c-3.2-0.1-18.8-8.7-21-10.4c-1.9-1.9-16.7-11.9-17.9-11.7c-0.6-1,17.4,7.3,19.1,9.2
							C230.7,40.5,248.1,52.3,248.6,51.5z"/>
					</g>
				</g>
			</g>
			<g>
				<g>
					<path class="st2" d="M249.6,48.9c-8.6-7.7-15.1-17.3-28.1-20.2"/>
					<g>
						<path class="st3" d="M249.7,48.7c-2-1.2-12.6-10.2-14.3-11.3c-1-2-12.7-9.3-13.8-8.9c-0.5-0.9,14.4,4.3,15.4,6.6
							C238.8,36.2,249.6,48.8,249.7,48.7z"/>
					</g>
				</g>
			</g>
			<g>
				<g>
					<path class="st2" d="M249.6,51.8c-10.8-8.7-22.7-18.3-35.6-23.1"/>
					<g>
						<path class="st3" d="M249.7,51.6c-2.4-1.6-16.3-10.8-18.7-12.1c-1.8-1.8-16-11.1-17-11c-0.6-0.8,16.7,6.6,18.3,8.6
							C234.6,38.2,249.8,51.5,249.7,51.6z"/>
					</g>
				</g>
			</g>
			<g>
				<g>
					<path class="st2" d="M240.9,53.7c-6.5-5.8-13-11.5-21.6-15.4"/>
					<g>
						<path class="st3" d="M241.1,53.5c-1.5-1-10.2-6.8-11.7-7.6c-1.1-1.1-9.4-7.8-10-7.9c-0.4-0.4,10.4,4.3,11.5,5.5
							C232.3,44.3,241.2,53.5,241.1,53.5z"/>
					</g>
				</g>
			</g>
			<g>
				<g>
					<path class="st2" d="M234.4,52.7c-7.6-4.8-14-10.6-21.6-14.4"/>
					<g>
						<path class="st3" d="M234.6,52.5c-1.7-0.6-10.7-5.5-12-6.4c-1.2-1-9-7.9-9.6-8c-0.4-0.4,9.9,4.6,11,5.6
							C225.1,44.6,234.5,52.6,234.6,52.5z"/>
					</g>
				</g>
			</g>
			<g>
				<g>
					<path class="st2" d="M216.1,46c1.1,0,5.4,2.9,2.2,1.9c-3.2-2.9-6.5-5.8-9.7-7.7"/>
					<g>
						<path class="st3" d="M216.1,46.3c-0.3,0.2,4.4-0.5,2.6,2.4c-2.7-0.8-3.7-2-4.4-2.3c-0.7-0.8-5.3-6.1-5.7-6.4
							c-0.3-0.2,6.8,3.4,7.4,4.2c0.2,0,2.3,2.7,3.1,3.1C217.9,48.5,216,45.5,216.1,46.3z"/>
					</g>
				</g>
			</g>
			<g>
				<g>
					<path class="st2" d="M210.7,46c-4.3-2.9-7.6-5.8-10.8-9.6"/>
					<g>
						<path class="st3" d="M210.8,45.8c-1-0.2-6.3-2.7-7.1-3.4c-0.8-0.5-3.6-6-3.7-6.2c-0.2-0.1,4.8,3.6,5.5,4.1
							C206,40.9,210.7,45.8,210.8,45.8z"/>
					</g>
				</g>
			</g>
			<g>
				<g>
					<path class="st2" d="M194.5,37.4c1.1,1,5.4,2.9,2.2,1.9c-5.4-3.8-9.7-7.7-15.1-10.6"/>
					<g>
						<path class="st3" d="M194.3,37.6c0.4,0.2,1.2,0.6,2.3,1c0.2,0.5,1.7-0.2,1.1,1.4c-0.8,0.1-1.6-0.3-2.2-0.7
							c-2.4-1.3-4.8-2.7-5.4-3.1c-1-1-7.9-7.5-8.4-7.6c-0.3-0.4,9.1,4.3,10,5.3c0.5,0.4,2.9,2.5,5.1,4.5c0.7,0.9,0.9-0.3,0.5,1.5
							l-1.5-1.1C194.8,38.1,194.3,37.6,194.3,37.6z"/>
					</g>
				</g>
			</g>
			<g>
				<g>
					<path class="st2" d="M190.2,38.3c5.4,1.9-7.6-5.8-10.8-7.7"/>
					<g>
						<path class="st3" d="M190.1,38.6c0.1-0.1,1.4,0.2,1.1-0.2c-0.6-0.4-1.5-0.7-2.3-1.1c-1.7-0.7-3.4-1.4-3.8-1.6
							c-0.8-0.5-5.3-5.2-5.6-5.3c-0.3-0.2,6.2,2.4,7,2.9c0.4,0.2,2,1.6,3.5,2.9c0.5,1,2.1,0.7,1.3,2.8
							C190.4,38.8,190.1,38.5,190.1,38.6z"/>
					</g>
				</g>
			</g>
			<g>
				<g>
					<path class="st2" d="M212.8,35.4c-3.2-1.9-5.4-3.9-8.6-4.8"/>
					<g>
						<path class="st3" d="M213,35.2c-0.7,0-4.7-1.1-5.2-1.4c-0.4-0.3-3.1-3.4-3.5-3.5c-0.2-0.2,4.4,0.6,4.9,1.1
							C209.6,31.8,213,35.2,213,35.2z"/>
					</g>
				</g>
			</g>
			<g>
				<g>
					<path class="st2" d="M223.6,38.3c-13-3.8-25.9-9.6-37.8-15.4"/>
					<g>
						<path class="st3" d="M223.7,38.1c-2.7-0.3-18.2-4.6-20.6-5.7c-2.3-0.8-16.5-9.2-17.1-9.6c-0.7-0.2,15.8,6.2,17.9,7
							C205.8,30.8,223.6,38.2,223.7,38.1z"/>
					</g>
				</g>
			</g>
			<g>
				<g>
					<path class="st2" d="M199.9,38.3c-8.6-5.8-18.4-11.5-28.1-15.4"/>
					<g>
						<path class="st3" d="M200,38.1c-2-1-13.3-6.5-15.1-7.3c-1.6-1-12.4-8-13-8.1c-0.5-0.4,12.7,4.5,14.2,5.6
							C187.8,29,200.1,38,200,38.1z"/>
					</g>
				</g>
			</g>
			<g>
				<g>
					<path class="st2" d="M185.8,37.4c-5.4-2.9-11.9-5.8-17.3-7.7"/>
					<g>
						<path class="st3" d="M186,37.1c-1.3-0.3-8.4-2.4-9.6-2.8c-1-0.4-7.4-4.8-7.7-4.9c-0.3-0.2,7.8,1.8,8.7,2.3
							C178.4,32.1,186,37.1,186,37.1z"/>
					</g>
				</g>
			</g>
			<g>
				<g>
					<path class="st2" d="M183.7,41.2c0,0-7.6-3.8-10.8-4.8"/>
					<g>
						<path class="st3" d="M183.8,41c-0.9-0.1-5.6-0.9-6.3-1.2c-0.6-0.3-4.3-3.6-4.6-3.6c-0.2-0.2,5.1,0.8,5.7,1.1
							C179.2,37.5,183.8,40.9,183.8,41z"/>
					</g>
				</g>
			</g>
			<g>
				<g>
					<path class="st2" d="M176.1,41.2c-8.6-5.8-19.4-9.6-29.2-13.5"/>
					<g>
						<path class="st3" d="M176.3,41c-2-1.1-13.6-5.7-15.6-6.2c-1.7-0.7-13.1-7.1-13.6-7.2c-0.6-0.3,12.9,3.9,14.5,4.6
							C163.4,32.5,176.4,40.7,176.3,41z"/>
					</g>
				</g>
			</g>
			<g>
				<g>
					<path class="st2" d="M172.9,41.2c-6.5-4.8-14-8.6-21.6-11.5"/>
					<g>
						<path class="st3" d="M173,41c-1.5-0.8-10.2-4.8-11.7-5.3c-1.2-0.7-9.5-6.2-10-6.3c-0.4-0.3,9.9,3,11.1,3.8
							C163.9,33.6,173.2,40.9,173,41z"/>
					</g>
				</g>
			</g>
			<g>
				<g>
					<path class="st2" d="M169.6,31.6c-6.5-2.9-14-4.8-20.5-6.7"/>
					<g>
						<path class="st3" d="M169.7,31.3c-1.5-0.3-9.8-2-11.1-2.3c-1.2-0.3-9-4.4-9.4-4.5c-0.4-0.1,8.9,1.4,10.1,1.8
							C160.5,26.6,169.8,31.2,169.7,31.3z"/>
					</g>
				</g>
			</g>
			<g>
				<g>
					<path class="st2" d="M155.6,30.6"/>
					<g>
						<path class="st3" d="M155.6,30.6L155.6,30.6L155.6,30.6z"/>
					</g>
				</g>
			</g>
			<g>
				<g>
					<path class="st2" d="M139.4,27.7c2.2,1,3.2,1.9,4.3,2.9c-6.5-1-14-3.8-20.5-6.7"/>
					<g>
						<path class="st3" d="M139.3,28c0.4,0.1,1.4,0.4,2.5,1c0.6,0.3,1.2,0.7,1.8,1.1c0.2,2.1-1.3,0.5-1.8,0.9
							c-3.1-0.2-6.2-0.9-7-1.1c-1.7-0.2-11.1-5.9-11.5-6.2c-0.5-0.1,10.7,3.3,12.1,3.5c0.7,0.2,3.9,1.6,7.1,2.4l1.2,0.4
							c-1.2,2.4-0.8,0.2-1.3,0.5c-0.5-0.5-1.1-1-1.5-1.3C140,28.4,139.3,28,139.3,28z"/>
					</g>
				</g>
			</g>
			<g>
				<g>
					<path class="st2" d="M148,35.4c-10.8-2.9-20.5-7.7-30.2-11.5"/>
					<g>
						<path class="st3" d="M148.1,35.2c-2.2-0.1-14.6-3.1-16.5-4c-1.8-0.7-13.1-7.3-13.7-7.5c-0.6-0.2,12.9,4.1,14.5,4.8
							C134,29.4,148,35.3,148.1,35.2z"/>
					</g>
				</g>
			</g>
			<g>
				<g>
					<path class="st2" d="M161,31.6c-7.6-3.8-16.2-6.7-24.8-10.6"/>
					<g>
						<path class="st3" d="M161.1,31.3c-1.8-0.6-11.9-3.6-13.5-4.1c-1.5-0.5-10.9-6.2-11.3-6.5c-0.5-0.2,10.8,3.3,12.2,3.8
							C149.9,25,161.2,31.2,161.1,31.3z"/>
					</g>
				</g>
			</g>
			<g>
				<g>
					<path class="st2" d="M155.6,30.6c-10.8-3.8-21.6-9.6-32.4-13.5"/>
					<g>
						<path class="st3" d="M155.7,30.4c-2.3-0.4-15.5-4.6-17.5-5.5c-1.9-0.9-14.2-7.8-14.8-7.9c-0.6-0.3,14,4.4,15.7,5.3
							C140.8,23.1,155.6,30.5,155.7,30.4z"/>
					</g>
				</g>
			</g>
			<g>
				<g>
					<path class="st2" d="M141.6,28.7c-8.6-1.9-19.4-6.7-28.1-9.6"/>
					<g>
						<path class="st3" d="M141.6,28.4c-2,0-13.5-2.4-15.3-3.1c-1.7-0.6-12.2-6.3-12.8-6.5c-0.5-0.2,12,3.2,13.5,3.8
							C128.6,23.4,141.5,28.6,141.6,28.4z"/>
					</g>
				</g>
			</g>
			<g>
				<g>
					<path class="st2" d="M124.3,24.9c-4.3-1.9-9.7-3.8-14-5.8"/>
					<g>
						<path class="st3" d="M124.4,24.6c-1.1-0.1-7-1.2-7.9-1.5c-0.9-0.3-5.9-4.2-6.1-4.3c-0.3-0.1,6.2,1.4,7,1.7
							C118.1,20.8,124.4,24.6,124.4,24.6z"/>
					</g>
				</g>
			</g>
			<g>
				<g>
					<path class="st2" d="M116.7,23.9c-6.5-1-13-3.8-20.5-5.8"/>
					<g>
						<path class="st3" d="M116.8,23.6c-1.4,0.2-9.9-0.7-11.2-1.2c-1.2-0.4-8.8-4.5-9.3-4.5c-0.4-0.1,8.9,1.4,10,1.9
							C107.3,20.3,116.7,23.8,116.8,23.6z"/>
					</g>
				</g>
			</g>
			<g>
				<g>
					<path class="st2" d="M118.9,24.9c-9.7-2.9-18.4-6.7-28.1-8.7"/>
					<g>
						<path class="st3" d="M118.9,24.6c-2-0.2-13.3-2.7-15.1-3.3c-1.6-0.7-12.4-5.4-13-5.4c-0.5-0.3,12.2,2,13.7,2.7
							C106.1,19.2,118.9,24.7,118.9,24.6z"/>
					</g>
				</g>
			</g>
			<g>
				<g>
					<path class="st2" d="M118.9,29.7C105.9,23.9,94,21,80,17.2"/>
					<g>
						<path class="st3" d="M119,29.4c-2.6-0.9-18-5.2-20.5-5.7c-2.3-0.7-17.6-6.7-18.4-6.8C79.3,16.7,96.8,20.3,99,21
							C101.3,21.3,119.1,29.2,119,29.4z"/>
					</g>
				</g>
			</g>
			<g>
				<g>
					<path class="st2" d="M87.5,22.9C83.2,22,80,21,75.7,20"/>
					<g>
						<path class="st3" d="M87.6,22.7c-0.9,0.2-5.8,0.2-6.6,0.1c-0.7-0.1-5-2.9-5.3-3c-0.2-0.1,5.2,0.1,5.9,0.3
							C82.3,20.2,87.6,22.7,87.6,22.7z"/>
					</g>
				</g>
			</g>
			<g>
				<g>
					<path class="st2" d="M88.6,23.9c-5.4,1-15.1-2.9-22.7-4.8"/>
					<g>
						<path class="st3" d="M88.6,23.6c-1.4,1.2-10.9,0.4-12.3-0.1c-1.4-0.3-9.8-4.6-10.3-4.7c-0.4-0.2,9.7,1.6,10.9,2
							C78,21.5,88.5,24.4,88.6,23.6z"/>
					</g>
				</g>
			</g>
			<g>
				<g>
					<path class="st2" d="M78.9,28.7c-8.6-2.9-16.2-5.8-24.8-6.7"/>
					<g>
						<path class="st3" d="M79,28.4c-1.7-0.2-11.7-2.2-13.3-2.6c-1.4-0.6-11-4.2-11.6-4.1c-0.5-0.2,10.9,0.8,12.2,1.4
							C67.8,23.5,79,28.4,79,28.4z"/>
					</g>
				</g>
			</g>
			<g>
				<g>
					<path class="st2" d="M63.8,24.9C54.1,22,42.2,20,31.4,19.1"/>
					<g>
						<path class="st3" d="M63.9,24.6c-2.2-0.4-15-2-17.1-2.1c-1.9-0.4-14.7-3.7-15.4-3.6c-0.6-0.2,13.8,0.4,15.6,0.9
							C48.9,19.7,63.9,24.4,63.9,24.6z"/>
					</g>
				</g>
			</g>
			<g>
				<g>
					<path class="st2" d="M46.5,24.9c-8.6,0-17.3,0-27,0"/>
					<g>
						<path class="st3" d="M46.5,24.6c-1.8,0.4-12.4,1.6-14.1,1.7c-1.6,0.1-12.4-1.7-12.9-1.7c-0.5,0,11.2-1.1,12.7-1.1
							C33.7,23.5,46.5,24.6,46.5,24.6z"/>
					</g>
				</g>
			</g>
			<g>
				<g>
					<path class="st2" d="M30.3,24.9c-5.4,0-11.9,0-17.3,1.9"/>
					<g>
						<path class="st3" d="M30.3,24.6c-1.2,0.3-8,1.7-9,1.9c-1-0.1-8-0.3-8.4,0c-0.4,0,6.9-2.9,8-2.7C22,23.6,30.3,24.5,30.3,24.6z"
							/>
					</g>
				</g>
			</g>
			<g>
				<g>
					<path class="st2" d="M84.3,22.9c-10.8-4.8-22.7-6.7-34.6-6.7"/>
					<g>
						<path class="st3" d="M84.4,22.7c-2.3-0.9-15.8-3.7-18-3.7c-2-0.6-15.9-3.3-16.6-3.1c-0.7-0.2,14.9-0.3,16.9,0.3
							C68.8,16,84.6,22.3,84.4,22.7z"/>
					</g>
				</g>
			</g>
			<g>
				<g>
					<path class="st2" d="M91.9,18.1c-7.6-3.8-16.2-5.8-24.8-5.8"/>
					<g>
						<path class="st3" d="M92,17.9c-1.7-0.7-11.4-2.9-13-2.8c-1.4-0.5-11.3-3.1-11.9-3c-0.5-0.2,10.9-0.4,12.3,0.2
							C81,12.2,92.2,17.6,92,17.9z"/>
					</g>
				</g>
			</g>
			<g>
				<g>
					<path class="st2" d="M113.5,20c-8.6-1.9-15.1-4.8-23.8-6.7"/>
					<g>
						<path class="st3" d="M113.5,19.8c-1.7,0.1-11.4-1.4-12.9-1.9c-1.4-0.5-10.4-4.7-10.9-4.8c-0.5-0.2,10.3,1.6,11.6,2.1
							C102.6,15.7,113.5,19.9,113.5,19.8z"/>
					</g>
				</g>
			</g>
			<g>
				<g>
					<path class="st2" d="M120,23.9c-5.4-3.8-13-5.8-19.4-6.7"/>
					<g>
						<path class="st3" d="M120.1,23.7c-1.4-0.7-9-3-10.3-3c-1.1-0.4-8.7-3.8-9.2-3.8c-0.4-0.2,8.8,0.6,9.9,1.1
							C111.8,17.9,120.3,23.4,120.1,23.7z"/>
					</g>
				</g>
			</g>
			<g>
				<g>
					<path class="st2" d="M128.6,24.9c2.2-1,2.2,1,4.3-1c-5.4-1.9-11.9-3.8-17.3-4.8"/>
					<g>
						<path class="st3" d="M128.7,25.1c0.3-0.1,1-0.7,2.1-0.5c0.5,0,1-0.2,1.4-0.7l0.3-0.3l0.1-0.1c0.3,1.6,0,0.4,0.1,0.8l-0.2,0
							l-1-0.2c-2.5-0.5-5.1-0.9-5.7-1.1c-1.2-0.5-9.5-4.2-10-4.2c-0.4-0.2,9.5,0.9,10.7,1.5c0.6,0.2,3.4,1.3,6,2.5
							c2.6,3.1-2,2.4-2.2,2.3C129.3,24.9,128.7,25.2,128.7,25.1z"/>
					</g>
				</g>
			</g>
			<g>
				<g>
					<path class="st2" d="M136.2,24.9c-9.7-2.9-19.4-5.8-29.2-9.6"/>
					<g>
						<path class="st3" d="M136.2,24.6c-2.1-0.3-13.9-2.5-15.8-3.1c-1.8-0.6-12.8-6.3-13.3-6.5c-0.5-0.2,12.4,3.2,14,3.8
							C122.6,19.3,136.2,24.6,136.2,24.6z"/>
					</g>
				</g>
			</g>
			<g>
				<g>
					<path class="st2" d="M126.4,24.9c-6.5-2.9-14-4.8-21.6-6.7"/>
					<g>
						<path class="st3" d="M126.5,24.6c-1.6-0.4-10.2-2.1-11.6-2.4c-1.3-0.3-9.6-4.3-10-4.4c-0.4-0.1,9.4,1.3,10.6,1.7
							C116.8,19.7,126.6,24.5,126.5,24.6z"/>
					</g>
				</g>
			</g>
			<g>
				<g>
					<path class="st2" d="M171.8,36.4c-6.5-2.9-14-5.8-20.5-7.7"/>
					<g>
						<path class="st3" d="M171.9,36.1c-1.5-0.3-9.9-2.4-11.2-2.8c-1.2-0.5-8.9-4.8-9.4-4.9c-0.4-0.2,9.1,1.8,10.2,2.3
							C162.7,31.1,171.9,36.1,171.9,36.1z"/>
					</g>
				</g>
			</g>
			<g>
				<g>
					<line class="st2" x1="185.8" y1="40.2" x2="186.9" y2="41.2"/>
					<g>
						<path class="st3" d="M185.7,40.4c0.3-0.2,1.6-0.8,1.7-0.7c0.1,0-0.6,1.7-0.6,1.7c0,0-1.2,0.4-1.2,0.4
							C185.4,41.7,185.7,40.4,185.7,40.4z"/>
					</g>
				</g>
			</g>
			<g>
				<g>
					<path class="st2" d="M185.8,40.2c-6.5-6.7-15.1-11.5-23.8-14.4"/>
					<g>
						<path class="st3" d="M186,40c-1.5-1.3-10.8-7-12.4-7.5c-1.3-0.9-10.8-7-11.4-7c-0.5-0.4,11.3,3.4,12.6,4.5
							C176.5,30.5,186.3,39.8,186,40z"/>
					</g>
				</g>
			</g>
			<g>
				<g>
					<path class="st2" d="M205.3,44.1c-6.5-2.9-13-6.7-18.4-9.6"/>
					<g>
						<path class="st3" d="M205.4,43.8c-1.4-0.2-9.3-2.7-10.4-3.4c-1.1-0.6-7.6-6-7.9-6.2c-0.3-0.2,8.1,3.2,9.1,3.7
							C197.1,38.6,205.3,43.9,205.4,43.8z"/>
					</g>
				</g>
			</g>
			<g>
				<g>
					<path class="st2" d="M209.6,39.3c-2.2-1-4.3-2.9-5.4-3.8"/>
					<g>
						<path class="st3" d="M209.7,39c-0.5,0.2-3.5-0.2-3.9-0.5c-0.4-0.2-1.4-3.3-1.4-3.3c-0.1,0,2.8,0.9,3.1,1.1
							C207.6,36.6,209.6,39,209.7,39z"/>
					</g>
				</g>
			</g>
			<g>
				<g>
					<path class="st2" d="M236.6,49.9c-13-1.9-25.9-10.6-37.8-15.4"/>
					<g>
						<path class="st3" d="M236.6,49.6c-2.9,0.6-18.5-4-20.7-5.5c-2.3-1.1-16.1-9.8-17-9.9c-0.6-0.5,16,6.2,17.9,7.3
							C218.6,43.1,236.3,50.4,236.6,49.6z"/>
					</g>
				</g>
			</g>
			<g>
				<g>
					<path class="st2" d="M203.1,43.1c-4.3-2.9-9.7-5.8-15.1-8.7"/>
					<g>
						<path class="st3" d="M203.3,42.9c-1.2-0.4-7.6-2.8-8.6-3.2c-0.9-0.5-6.2-5.3-6.5-5.4c-0.3-0.2,6.9,2.5,7.8,2.9
							C196.8,37.6,203.3,42.9,203.3,42.9z"/>
					</g>
				</g>
			</g>
			<g>
				<g>
					<path class="st2" d="M196.6,40.2c-5.4-1-9.7-3.8-14-6.7"/>
					<g>
						<path class="st3" d="M196.7,40c-1,0.3-7.4-0.6-8.4-1.3c-1-0.4-5.4-5.2-5.6-5.4c-0.3-0.1,6.1,2.6,6.8,2.9
							C190.1,36.8,196.5,40.2,196.7,40z"/>
					</g>
				</g>
			</g>
			<g>
				<g>
					<path class="st2" d="M226.9,50.8c-7.6-1.9-14-5.8-20.5-8.7"/>
					<g>
						<path class="st3" d="M226.9,50.6c-1.5,0.1-10.2-1.8-11.5-2.6c-1.2-0.6-8.5-5.9-8.9-6.1c-0.4-0.2,8.9,3,10,3.5
							C217.4,46.1,226.8,50.7,226.9,50.6z"/>
					</g>
				</g>
			</g>
			<g>
				<g>
					<path class="st2" d="M242,59.5c-4.3-3.8-7.6-6.7-11.9-10.6"/>
					<g>
						<path class="st3" d="M242.2,59.3c-1-0.4-6.5-3.7-7.3-4.3c-0.7-0.6-4.4-6.1-4.6-6.3c-0.2-0.2,5.7,3.6,6.3,4.2
							C237.3,53.4,242.2,59.3,242.2,59.3z"/>
					</g>
				</g>
			</g>
			<g>
				<g>
					<path class="st2" d="M255,62.4c-8.6-3.8-16.2-8.7-23.8-14.4"/>
					<g>
						<path class="st3" d="M255.1,62.1c-1.9-0.3-12.2-4.3-13.6-5.4c-1.6-0.8-9.7-8.6-10-9c-0.5-0.2,10,5.8,11.3,6.5
							C243.9,55.3,255,62.2,255.1,62.1z"/>
					</g>
				</g>
			</g>
			<g>
				<g>
					<path class="st2" d="M261.4,59.5c-5.4-1-10.8-3.8-14-7.7"/>
					<g>
						<path class="st3" d="M261.5,59.2c-1.1,0.3-7.7-0.7-8.7-1.4c-1.2-0.3-5.2-5.9-5.2-6.2c-0.3,0,5.6,3.6,6.4,3.7
							C254.6,56,261.3,59.4,261.5,59.2z"/>
					</g>
				</g>
			</g>
			<g>
				<g>
					<path class="st2" d="M276.6,66.2c-3.2,1.9-19.4-13.5-25.9-19.2"/>
					<g>
						<path class="st3" d="M276.4,66c-2.3,1.7-13.6-6.4-15-7.5c-1.6-1.2-10.2-11.3-10.6-11.7c-0.4-0.4,10.8,8.3,12.2,9.4
							C264.2,57.5,276,68.1,276.4,66z"/>
					</g>
				</g>
			</g>
			<g>
				<g>
					<path class="st2" d="M263.6,56.6c-9.7-3.8-18.4-9.6-27-14.4"/>
					<g>
						<path class="st3" d="M263.7,56.3c-2-0.3-13.4-4.5-15.1-5.6c-1.6-0.9-11.4-8.5-11.9-8.8c-0.5-0.3,11.6,5.4,13,6.3
							C251.1,49.2,263.6,56.5,263.7,56.3z"/>
					</g>
				</g>
			</g>
			<g>
				<g>
					<path class="st2" d="M216.1,41.2c-8.6-1-16.2-6.7-23.8-9.6"/>
					<g>
						<path class="st3" d="M216.1,40.9c-1.8,0.7-11.9-1.8-13.3-2.8c-1.4-0.7-9.8-6.8-10.4-6.8c-0.4-0.4,10.3,3.6,11.4,4.3
							C204.9,36.7,215.9,41.5,216.1,40.9z"/>
					</g>
				</g>
			</g>
			<g>
				<g>
					<path class="st2" d="M186.9,32.5c1.1,0,2.2,1,2.2,1"/>
					<g>
						<path class="st3" d="M186.9,32.8c0-0.4,1.6-1.3,1.8-1.2c0.3,0.1,0.2,2.1,0.2,2.1c0,0-1.4,0.4-1.4,0.4
							C187.5,34.1,187.1,32.8,186.9,32.8z"/>
					</g>
				</g>
			</g>
			<g>
				<g>
					<path class="st2" d="M226.9,34.5c5.4,0,10.8,1,15.1,2.9"/>
					<g>
						<path class="st3" d="M226.9,34.7c1-0.5,7.2-1.1,8.3-0.9c1.1,0,6.6,3.5,6.7,3.7c0.2-0.1-6.3-1-7.1-1
							C234,36.3,226.9,34.6,226.9,34.7z"/>
					</g>
				</g>
			</g>
			<g>
				<g>
					<path class="st2" d="M230.1,32.5c-10.8-2.9-23.8-6.7-33.5-11.5"/>
					<g>
						<path class="st3" d="M230.2,32.3c-2.4-0.2-16.1-2.9-18.2-3.7c-2.2-0.5-14.7-7.4-15.2-7.8c-0.6-0.1,13.9,4.7,15.8,5.1
							C214.4,26.6,230.1,32.4,230.2,32.3z"/>
					</g>
				</g>
			</g>
			<g>
				<g>
					<path class="st2" d="M220.4,37.4c-5.4-1-10.8-3.8-16.2-5.8"/>
					<g>
						<path class="st3" d="M220.4,37.1c-1.1,0.3-8.1-0.6-9.1-1.2c-1-0.4-6.7-4.5-7-4.6c-0.3-0.1,7.1,1.6,8,2
							C213,33.9,220.3,37.2,220.4,37.1z"/>
					</g>
				</g>
			</g>
			<g>
				<g>
					<path class="st2" d="M209.6,36.4c-3.2-1-15.1-6.7-21.6-8.7"/>
					<g>
						<path class="st3" d="M209.7,36.1c-1.6,0-10.5-2.6-11.8-3.1c-1.2-0.6-9.2-5.5-9.8-5.5c-0.4-0.3,9.6,2.3,10.7,2.9
							C200,30.9,209.6,36.3,209.7,36.1z"/>
					</g>
				</g>
			</g>
			<g>
				<g>
					<path class="st2" d="M196.6,31.6c-4.3,0-19.4-6.7-27-9.6"/>
					<g>
						<path class="st3" d="M196.6,31.3c-1.9,0.6-13.1-2.3-14.7-2.9c-1.6-0.6-11.6-6.5-12.1-6.6c-0.5-0.2,11.5,3.4,13,4
							C184.1,26.4,196.5,32.1,196.6,31.3z"/>
					</g>
				</g>
			</g>
			<g>
				<g>
					<path class="st2" d="M163.2,24.9c-10.8-1.9-20.5-5.8-30.2-8.7"/>
					<g>
						<path class="st3" d="M163.2,24.6c-2.1,0.1-14.4-1.8-16.3-2.5c-1.8-0.6-13.3-6-13.8-6.1c-0.6-0.2,12.8,2.9,14.5,3.4
							C149,20.1,163.1,24.8,163.2,24.6z"/>
					</g>
				</g>
			</g>
			<g>
				<g>
					<path class="st2" d="M153.4,25.8c-9.7-1.9-19.4-4.8-29.2-7.7"/>
					<g>
						<path class="st3" d="M153.5,25.5c-2-0.1-13.8-1.6-15.7-2.1c-1.8-0.4-12.9-5.4-13.4-5.6c-0.5-0.2,12.4,2.4,13.9,2.9
							C139.9,21.2,153.5,25.5,153.5,25.5z"/>
					</g>
				</g>
			</g>
			<g>
				<g>
					<path class="st2" d="M135.1,26.8c-10.8-4.8-21.6-7.7-33.5-10.6"/>
					<g>
						<path class="st3" d="M135.2,26.5c-2.3-0.8-15.6-4.3-17.7-4.7c-2-0.6-15.1-5.8-15.8-5.9c-0.6-0.2,14.5,2.5,16.3,3.2
							C120,19.4,135.3,26.3,135.2,26.5z"/>
					</g>
				</g>
			</g>
			<g>
				<g>
					<path class="st2" d="M99.4,23.9C90.8,21,82.2,20,73.5,19.1"/>
					<g>
						<path class="st3" d="M99.5,23.6c-1.8-0.4-12-1.5-13.7-1.6c-1.5-0.2-11.8-3.2-12.3-3.3c-0.5-0.1,11.1,0.2,12.5,0.5
							C87.6,19.3,99.6,23.5,99.5,23.6z"/>
					</g>
				</g>
			</g>
			<g>
				<g>
					<path class="st2" d="M82.1,22c-8.6-1.9-17.3-3.8-25.9-3.8"/>
					<g>
						<path class="st3" d="M82.2,21.7c-1.8-0.1-12.1-0.9-13.7-1.1c-1.5-0.4-11.7-2.9-12.3-2.8c-0.5-0.2,11.1-0.4,12.5,0
							C70.3,18,82.2,21.7,82.2,21.7z"/>
					</g>
				</g>
			</g>
			<g>
				<g>
					<path class="st2" d="M70.3,22c-10.8,0-22.7,0-33.5,0"/>
					<g>
						<path class="st3" d="M70.3,21.7c-2.2,0.4-15.3,1.6-17.5,1.7c-2,0.1-15.4-1.7-16-1.7c-0.6,0,13.9-1.1,15.8-1.1
							C54.4,20.6,70.3,21.7,70.3,21.7z"/>
					</g>
				</g>
			</g>
			<g>
				<g>
					<path class="st2" d="M58.4,24.9c-11.9,0-24.8-1-36.7-1"/>
					<g>
						<path class="st3" d="M58.4,24.6c-2.4,0.4-16.9,1.2-19.2,1.1c-2.2-0.1-16.8-2.2-17.5-2.1C21,23.6,37,22.8,39,23
							C41.1,23.1,58.4,24.7,58.4,24.6z"/>
					</g>
				</g>
			</g>
			<g>
				<g>
					<path class="st2" d="M24.9,23.9c-4.3,0-8.6,1-13,2.9"/>
					<g>
						<path class="st3" d="M24.9,23.6c-1,0.5-5.9,2.2-6.6,2.5c-0.6,0.3-6.2,0.3-6.5,0.4c-0.3,0.1,5-2.8,5.8-3.1
							C18.4,23.1,25,23.7,24.9,23.6z"/>
					</g>
				</g>
			</g>
			<g>
				<g>
					<path class="st2" d="M23.8,21c-4.3,5.8-11.9,8.7-19.4,9.6"/>
					<g>
						<path class="st3" d="M23.6,20.8c-0.3,1.5-6.7,8.1-8.4,8.3c-1.3,0.9-10.5,1.4-10.8,1.2c-0.3,0.2,8.7-3,9.6-3.7
							C15.4,26.9,23.8,21.4,23.6,20.8z"/>
					</g>
				</g>
			</g>
		</g>
		<g>
			<g>
				<g>
					<path class="st2" d="M274.4,52.1c-2.2-4.8-5.4-8.7-9.7-12.5"/>
					<g>
						<path class="st3" d="M274.6,52c-0.7-1-4.9-5.5-5.7-6c-0.5-0.7-3.7-6.4-4.1-6.5c-0.2-0.3,5.6,3.9,6.1,4.7
							C271.8,44.8,274.8,52,274.6,52z"/>
					</g>
				</g>
			</g>
			<g>
				<g>
					<path class="st2" d="M264.7,53.1c-5.4-10.6-17.3-18.3-28.1-24"/>
					<g>
						<path class="st3" d="M264.9,53c-0.9-2.7-11.8-12.4-14-13.3c-1.5-1.6-13.4-10.7-14.2-10.9c-0.6-0.5,14.2,6.8,15.7,8.5
							C254.8,38,265.8,52.4,264.9,53z"/>
					</g>
				</g>
			</g>
			<g>
				<g>
					<path class="st2" d="M252.8,53.1c-5.4-5.8-10.8-11.5-17.3-15.4"/>
					<g>
						<path class="st3" d="M253,52.9c-1.3-0.9-8.5-6.6-9.6-7.4c-0.9-1-7.2-7.9-7.7-8c-0.3-0.4,8.6,4.7,9.5,5.9
							C246.2,44.2,253,52.9,253,52.9z"/>
					</g>
				</g>
			</g>
			<g>
				<g>
					<path class="st2" d="M272.2,71.4c-7.6-6.7-17.3-12.5-25.9-18.3"/>
					<g>
						<path class="st3" d="M272.4,71.2c-1.8-1.3-12.4-7.7-14.2-8.6c-1.6-1-11.3-9.4-11.8-9.7c-0.5-0.3,11.6,6.3,13.1,7.3
							C261.2,60.9,272.6,71,272.4,71.2z"/>
					</g>
				</g>
			</g>
			<g>
				<g>
					<path class="st2" d="M250.6,65.6c-6.5-3.8-15.1-13.5-21.6-19.2"/>
					<g>
						<path class="st3" d="M250.8,65.4c-2-0.3-11.4-7.1-12.7-8.4c-1.3-1.2-8.4-10.4-8.9-10.8c-0.3-0.4,9.5,7.5,10.6,8.6
							C240.8,56.1,250.4,65.7,250.8,65.4z"/>
					</g>
				</g>
			</g>
			<g>
				<g>
					<path class="st2" d="M240.9,65.6c-15.1-7.7-28.1-20.2-46.4-27.9"/>
					<g>
						<path class="st3" d="M241,65.4c-3.6-0.9-21.9-11.9-24.7-13.8c-2.4-2.2-20.4-14.1-21.7-14.1c-0.7-0.9,20.7,9.3,22.9,11.6
							C219.9,51,240.7,65.9,241,65.4z"/>
					</g>
				</g>
			</g>
			<g>
				<g>
					<path class="st2" d="M244.1,56c-13-4.8-24.8-17.3-38.9-22.1"/>
					<g>
						<path class="st3" d="M244.2,55.7c-3.2-0.1-18.8-8.7-21-10.4c-1.9-1.9-16.7-11.9-17.9-11.7c-0.6-1,17.4,7.3,19.1,9.2
							C226.4,44.7,243.8,56.5,244.2,55.7z"/>
					</g>
				</g>
			</g>
			<g>
				<g>
					<path class="st2" d="M245.2,53.1c-8.6-7.7-15.1-17.3-28.1-20.2"/>
					<g>
						<path class="st3" d="M245.4,52.9c-2-1.2-12.6-10.2-14.3-11.3c-1-2-12.7-9.3-13.8-8.9c-0.5-0.9,14.4,4.3,15.4,6.6
							C234.4,40.4,245.3,53,245.4,52.9z"/>
					</g>
				</g>
			</g>
			<g>
				<g>
					<path class="st2" d="M245.2,56c-10.8-8.6-22.7-18.3-35.6-23.1"/>
					<g>
						<path class="st3" d="M245.4,55.8c-2.4-1.6-16.3-10.8-18.6-12.1c-1.8-1.8-16-11.1-17-11c-0.6-0.8,16.7,6.6,18.3,8.6
							C230.2,42.4,245.5,55.7,245.4,55.8z"/>
					</g>
				</g>
			</g>
			<g>
				<g>
					<path class="st2" d="M236.6,57.9c-6.5-5.8-13-11.5-21.6-15.4"/>
					<g>
						<path class="st3" d="M236.8,57.7c-1.5-1-10.2-6.8-11.7-7.6c-1.1-1.1-9.4-7.8-10-7.9c-0.4-0.4,10.4,4.3,11.5,5.5
							C228,48.6,236.8,57.7,236.8,57.7z"/>
					</g>
				</g>
			</g>
			<g>
				<g>
					<path class="st2" d="M230.1,57c-7.6-4.8-14-10.6-21.6-14.4"/>
					<g>
						<path class="st3" d="M230.2,56.7c-1.7-0.6-10.7-5.5-12-6.4c-1.2-1-9-7.9-9.6-8c-0.4-0.4,9.9,4.6,11,5.6
							C220.8,48.9,230.2,56.8,230.2,56.7z"/>
					</g>
				</g>
			</g>
			<g>
				<g>
					<path class="st2" d="M211.7,50.2c1.1,0,5.4,2.9,2.2,1.9c-3.2-2.9-6.5-5.8-9.7-7.7"/>
					<g>
						<path class="st3" d="M211.7,50.5c-0.3,0.2,4.4-0.5,2.6,2.4c-2.7-0.8-3.7-2-4.4-2.3c-0.7-0.8-5.3-6.1-5.7-6.4
							c-0.3-0.2,6.8,3.4,7.4,4.2c0.2,0,2.3,2.7,3.1,3.1C213.6,52.8,211.7,49.8,211.7,50.5z"/>
					</g>
				</g>
			</g>
			<g>
				<g>
					<path class="st2" d="M206.3,50.2c-4.3-2.9-7.6-5.8-10.8-9.6"/>
					<g>
						<path class="st3" d="M206.5,50c-1-0.2-6.3-2.7-7.1-3.4c-0.8-0.5-3.6-6-3.7-6.2c-0.2-0.1,4.8,3.7,5.5,4.1
							C201.6,45.1,206.4,50,206.5,50z"/>
					</g>
				</g>
			</g>
			<g>
				<g>
					<path class="st2" d="M190.1,41.6c1.1,1,5.4,2.9,2.2,1.9c-5.4-3.8-9.7-7.7-15.1-10.6"/>
					<g>
						<path class="st3" d="M189.9,41.8c0.4,0.2,1.2,0.6,2.3,1c0.2,0.5,1.7-0.2,1.1,1.4c-0.8,0.1-1.6-0.3-2.2-0.7
							c-2.4-1.3-4.8-2.7-5.4-3.1c-1-1-7.9-7.5-8.4-7.7c-0.3-0.4,9.1,4.3,10,5.3c0.5,0.4,2.9,2.5,5.1,4.5c0.7,0.9,0.9-0.3,0.5,1.5
							l-1.5-1.1C190.5,42.3,189.9,41.8,189.9,41.8z"/>
					</g>
				</g>
			</g>
			<g>
				<g>
					<path class="st2" d="M185.8,42.5c5.4,1.9-7.6-5.8-10.8-7.7"/>
					<g>
						<path class="st3" d="M185.7,42.8c0.1-0.1,1.4,0.2,1.1-0.2c-0.6-0.4-1.5-0.7-2.3-1.1c-1.7-0.7-3.4-1.4-3.8-1.6
							c-0.8-0.5-5.4-5.2-5.6-5.3c-0.3-0.2,6.2,2.4,7,2.9c0.4,0.2,2,1.6,3.5,2.9c0.5,1,2.1,0.7,1.3,2.8
							C186,43.1,185.8,42.8,185.7,42.8z"/>
					</g>
				</g>
			</g>
			<g>
				<g>
					<path class="st2" d="M208.5,39.7c-3.2-1.9-5.4-3.8-8.6-4.8"/>
					<g>
						<path class="st3" d="M208.6,39.4c-0.7,0-4.7-1.1-5.2-1.4c-0.4-0.3-3.1-3.4-3.5-3.5c-0.2-0.2,4.4,0.6,4.9,1.1
							C205.3,36,208.6,39.4,208.6,39.4z"/>
					</g>
				</g>
			</g>
			<g>
				<g>
					<path class="st2" d="M219.3,42.5c-13-3.8-25.9-9.6-37.8-15.4"/>
					<g>
						<path class="st3" d="M219.4,42.3c-2.7-0.3-18.2-4.6-20.6-5.7c-2.3-0.8-16.5-9.2-17.1-9.6c-0.7-0.2,15.8,6.2,17.9,7
							C201.5,35,219.3,42.5,219.4,42.3z"/>
					</g>
				</g>
			</g>
			<g>
				<g>
					<path class="st2" d="M195.5,42.5c-8.6-5.8-18.4-11.5-28.1-15.4"/>
					<g>
						<path class="st3" d="M195.7,42.3c-2-1-13.2-6.5-15.1-7.3c-1.6-1-12.4-8-13-8.1c-0.5-0.4,12.7,4.5,14.2,5.6
							C183.4,33.2,195.8,42.2,195.7,42.3z"/>
					</g>
				</g>
			</g>
			<g>
				<g>
					<path class="st2" d="M181.5,41.6c-5.4-2.9-11.9-5.8-17.3-7.7"/>
					<g>
						<path class="st3" d="M181.6,41.3c-1.3-0.3-8.4-2.4-9.6-2.8c-1-0.4-7.4-4.8-7.7-4.9c-0.3-0.2,7.8,1.8,8.7,2.3
							C174.1,36.3,181.7,41.3,181.6,41.3z"/>
					</g>
				</g>
			</g>
			<g>
				<g>
					<path class="st2" d="M179.3,45.4c0,0-7.6-3.8-10.8-4.8"/>
					<g>
						<path class="st3" d="M179.4,45.2c-0.9-0.1-5.6-0.9-6.3-1.2c-0.6-0.3-4.3-3.6-4.6-3.6c-0.2-0.2,5.1,0.8,5.7,1.1
							C174.9,41.7,179.5,45.2,179.4,45.2z"/>
					</g>
				</g>
			</g>
			<g>
				<g>
					<path class="st2" d="M171.8,45.4c-8.6-5.8-19.4-9.6-29.2-13.5"/>
					<g>
						<path class="st3" d="M171.9,45.2c-2-1.1-13.6-5.7-15.6-6.2c-1.7-0.7-13.1-7.1-13.6-7.2c-0.6-0.3,12.9,3.9,14.5,4.6
							C159.1,36.7,172.1,45,171.9,45.2z"/>
					</g>
				</g>
			</g>
			<g>
				<g>
					<path class="st2" d="M168.5,45.4c-6.5-4.8-14-8.7-21.6-11.5"/>
					<g>
						<path class="st3" d="M168.7,45.2c-1.5-0.8-10.2-4.8-11.7-5.3c-1.2-0.7-9.5-6.2-10-6.3c-0.4-0.3,9.9,3,11.1,3.8
							C159.5,37.8,168.8,45.1,168.7,45.2z"/>
					</g>
				</g>
			</g>
			<g>
				<g>
					<path class="st2" d="M165.3,35.8c-6.5-2.9-14-4.8-20.5-6.7"/>
					<g>
						<path class="st3" d="M165.4,35.6c-1.5-0.3-9.8-2-11.1-2.3c-1.2-0.3-9-4.4-9.4-4.5c-0.4-0.1,8.9,1.4,10.1,1.8
							C156.2,30.8,165.5,35.4,165.4,35.6z"/>
					</g>
				</g>
			</g>
			<g>
				<g>
					<path class="st2" d="M151.2,34.8"/>
					<g>
						<path class="st3" d="M151.2,34.8L151.2,34.8L151.2,34.8z"/>
					</g>
				</g>
			</g>
			<g>
				<g>
					<path class="st2" d="M135,32c2.2,1,3.2,1.9,4.3,2.9c-6.5-1-14-3.8-20.5-6.7"/>
					<g>
						<path class="st3" d="M134.9,32.2c0.4,0.1,1.4,0.4,2.5,1c0.6,0.3,1.2,0.7,1.8,1.1c0.2,2.1-1.3,0.5-1.8,0.9
							c-3.1-0.2-6.2-0.9-7-1.1c-1.7-0.2-11.1-5.9-11.5-6.2c-0.5-0.1,10.7,3.3,12.1,3.5c0.7,0.2,3.9,1.6,7.1,2.4l1.2,0.4
							c-1.2,2.4-0.8,0.2-1.3,0.5c-0.5-0.5-1.1-1-1.5-1.3C135.6,32.6,134.9,32.2,134.9,32.2z"/>
					</g>
				</g>
			</g>
			<g>
				<g>
					<path class="st2" d="M143.7,39.7c-10.8-2.9-20.5-7.7-30.2-11.5"/>
					<g>
						<path class="st3" d="M143.8,39.4c-2.2-0.1-14.6-3.1-16.5-4c-1.8-0.7-13.1-7.3-13.7-7.5c-0.6-0.2,12.9,4.1,14.5,4.8
							C129.6,33.6,143.7,39.6,143.8,39.4z"/>
					</g>
				</g>
			</g>
			<g>
				<g>
					<path class="st2" d="M156.6,35.8c-7.6-3.9-16.2-6.7-24.8-10.6"/>
					<g>
						<path class="st3" d="M156.8,35.6c-1.8-0.6-11.9-3.6-13.5-4.1c-1.5-0.5-10.9-6.2-11.3-6.5c-0.5-0.2,10.8,3.3,12.2,3.8
							C145.5,29.2,156.8,35.5,156.8,35.6z"/>
					</g>
				</g>
			</g>
			<g>
				<g>
					<path class="st2" d="M151.2,34.8c-10.8-3.8-21.6-9.6-32.4-13.5"/>
					<g>
						<path class="st3" d="M151.3,34.6c-2.3-0.4-15.5-4.6-17.5-5.5c-1.9-0.9-14.2-7.8-14.8-7.9c-0.6-0.3,14,4.4,15.7,5.3
							C136.4,27.4,151.3,34.7,151.3,34.6z"/>
					</g>
				</g>
			</g>
			<g>
				<g>
					<path class="st2" d="M137.2,32.9c-8.6-1.9-19.4-6.7-28.1-9.6"/>
					<g>
						<path class="st3" d="M137.3,32.7c-2,0-13.5-2.4-15.3-3.1c-1.7-0.6-12.2-6.3-12.8-6.5c-0.5-0.2,12,3.2,13.5,3.8
							C124.2,27.6,137.2,32.8,137.3,32.7z"/>
					</g>
				</g>
			</g>
			<g>
				<g>
					<path class="st2" d="M119.9,29.1c-4.3-1.9-9.7-3.8-14-5.8"/>
					<g>
						<path class="st3" d="M120,28.8c-1.1-0.1-7-1.2-7.9-1.5c-0.9-0.3-5.9-4.2-6.1-4.3c-0.3-0.1,6.2,1.4,7,1.7
							C113.8,25,120.1,28.8,120,28.8z"/>
					</g>
				</g>
			</g>
			<g>
				<g>
					<path class="st2" d="M112.4,28.1c-6.5-1-13-3.8-20.5-5.8"/>
					<g>
						<path class="st3" d="M112.4,27.8c-1.4,0.2-9.9-0.7-11.2-1.2c-1.2-0.4-8.8-4.5-9.3-4.5c-0.4-0.1,8.9,1.4,10,1.9
							C103,24.5,112.3,28,112.4,27.8z"/>
					</g>
				</g>
			</g>
			<g>
				<g>
					<path class="st2" d="M114.5,29.1c-9.7-2.9-18.4-6.7-28.1-8.6"/>
					<g>
						<path class="st3" d="M114.6,28.8c-2-0.2-13.3-2.7-15.1-3.3c-1.6-0.7-12.4-5.4-13-5.4c-0.5-0.3,12.2,2,13.7,2.7
							C101.8,23.4,114.6,28.9,114.6,28.8z"/>
					</g>
				</g>
			</g>
			<g>
				<g>
					<path class="st2" d="M114.5,33.9c-13-5.8-24.8-8.7-38.9-12.5"/>
					<g>
						<path class="st3" d="M114.6,33.6c-2.6-0.9-18-5.2-20.5-5.7c-2.3-0.7-17.6-6.7-18.4-6.8c-0.7-0.2,16.7,3.4,18.9,4.1
							C96.9,25.5,114.8,33.4,114.6,33.6z"/>
					</g>
				</g>
			</g>
			<g>
				<g>
					<path class="st2" d="M83.2,27.2c-4.3-1-7.6-1.9-11.9-2.9"/>
					<g>
						<path class="st3" d="M83.3,26.9c-0.9,0.2-5.8,0.2-6.6,0.1c-0.7-0.1-5-2.9-5.3-3c-0.2-0.1,5.2,0.1,5.9,0.3
							C77.9,24.5,83.2,26.9,83.3,26.9z"/>
					</g>
				</g>
			</g>
			<g>
				<g>
					<path class="st2" d="M84.3,28.1c-5.4,1-15.1-2.9-22.7-4.8"/>
					<g>
						<path class="st3" d="M84.2,27.8C82.9,29,73.3,28.2,72,27.7c-1.4-0.3-9.8-4.6-10.3-4.7c-0.4-0.2,9.7,1.6,10.9,2
							C73.7,25.7,84.1,28.6,84.2,27.8z"/>
					</g>
				</g>
			</g>
			<g>
				<g>
					<path class="st2" d="M74.6,32.9c-8.6-2.9-16.2-5.8-24.8-6.7"/>
					<g>
						<path class="st3" d="M74.6,32.7c-1.7-0.2-11.7-2.2-13.3-2.6c-1.4-0.6-11-4.2-11.6-4.1c-0.5-0.2,10.9,0.8,12.2,1.4
							C63.4,27.7,74.7,32.6,74.6,32.7z"/>
					</g>
				</g>
			</g>
			<g>
				<g>
					<path class="st2" d="M59.4,29.1c-9.7-2.9-21.6-4.8-32.4-5.8"/>
					<g>
						<path class="st3" d="M59.5,28.8c-2.2-0.4-15-2-17.1-2.1C40.6,26.3,27.7,23,27.1,23c-0.6-0.2,13.8,0.4,15.6,0.9
							C44.6,24,59.6,28.6,59.5,28.8z"/>
					</g>
				</g>
			</g>
			<g>
				<g>
					<path class="st2" d="M42.2,29.1c-8.6,0-17.3,0-27,0"/>
					<g>
						<path class="st3" d="M42.2,28.8c-1.8,0.4-12.4,1.6-14.1,1.7c-1.6,0.1-12.4-1.7-12.9-1.7c-0.5,0,11.2-1.1,12.7-1.1
							S42.2,28.8,42.2,28.8z"/>
					</g>
				</g>
			</g>
			<g>
				<g>
					<path class="st2" d="M26,29.1c-5.4,0-11.9,0-17.3,1.9"/>
					<g>
						<path class="st3" d="M26,28.8c-1.2,0.3-8,1.7-9,1.9c-1-0.1-8-0.3-8.4,0c-0.4,0,6.9-2.9,8-2.7C17.6,27.8,26,28.7,26,28.8z"/>
					</g>
				</g>
			</g>
			<g>
				<g>
					<path class="st2" d="M80,27.2c-10.8-4.8-22.7-6.7-34.6-6.7"/>
					<g>
						<path class="st3" d="M80.1,26.9c-2.3-0.9-15.8-3.7-18-3.7c-2-0.6-15.9-3.3-16.6-3.1c-0.7-0.2,14.9-0.3,16.9,0.3
							C64.5,20.3,80.3,26.5,80.1,26.9z"/>
					</g>
				</g>
			</g>
			<g>
				<g>
					<path class="st2" d="M87.5,22.3c-7.6-3.8-16.2-5.8-24.8-5.8"/>
					<g>
						<path class="st3" d="M87.6,22.1c-1.7-0.7-11.4-2.9-13-2.8c-1.4-0.5-11.3-3.1-11.9-3c-0.5-0.2,10.9-0.4,12.3,0.2
							C76.6,16.4,87.8,21.8,87.6,22.1z"/>
					</g>
				</g>
			</g>
			<g>
				<g>
					<path class="st2" d="M109.1,24.3c-8.6-1.9-15.1-4.8-23.8-6.7"/>
					<g>
						<path class="st3" d="M109.2,24c-1.7,0.1-11.4-1.4-12.9-1.9c-1.4-0.5-10.4-4.7-10.9-4.8C85,17.1,95.7,18.8,97,19.4
							C98.2,19.9,109.1,24.1,109.2,24z"/>
					</g>
				</g>
			</g>
			<g>
				<g>
					<path class="st2" d="M115.6,28.1c-5.4-3.8-13-5.8-19.4-6.7"/>
					<g>
						<path class="st3" d="M115.8,27.9c-1.4-0.7-9-3-10.3-3c-1.1-0.4-8.7-3.8-9.2-3.8c-0.4-0.2,8.8,0.6,9.9,1.1
							C107.5,22.2,116,27.6,115.8,27.9z"/>
					</g>
				</g>
			</g>
			<g>
				<g>
					<path class="st2" d="M124.2,29.1c2.2-1,2.2,1,4.3-1c-5.4-1.9-11.9-3.8-17.3-4.8"/>
					<g>
						<path class="st3" d="M124.4,29.3c0.3-0.1,1-0.7,2.1-0.5c0.5,0,1-0.2,1.4-0.7l0.3-0.3l0.1-0.1c0.3,1.6,0,0.4,0.1,0.8l-0.2,0
							l-1-0.2c-2.5-0.5-5.1-0.9-5.8-1.1c-1.2-0.5-9.5-4.2-10-4.2c-0.4-0.2,9.5,0.9,10.7,1.5c0.6,0.2,3.4,1.3,6,2.5
							c2.6,3.1-2,2.4-2.2,2.3C125,29.1,124.4,29.4,124.4,29.3z"/>
					</g>
				</g>
			</g>
			<g>
				<g>
					<path class="st2" d="M131.8,29.1c-9.7-2.9-19.4-5.8-29.2-9.6"/>
					<g>
						<path class="st3" d="M131.9,28.8c-2.1-0.3-13.9-2.5-15.8-3.1c-1.8-0.6-12.8-6.3-13.3-6.5c-0.5-0.2,12.4,3.2,14,3.8
							C118.3,23.6,131.9,28.8,131.9,28.8z"/>
					</g>
				</g>
			</g>
			<g>
				<g>
					<path class="st2" d="M122.1,29.1c-6.5-2.9-14-4.8-21.6-6.7"/>
					<g>
						<path class="st3" d="M122.2,28.8c-1.6-0.4-10.2-2.1-11.6-2.4c-1.3-0.4-9.6-4.3-10-4.4c-0.4-0.1,9.4,1.3,10.6,1.7
							C112.5,23.9,122.3,28.7,122.2,28.8z"/>
					</g>
				</g>
			</g>
			<g>
				<g>
					<path class="st2" d="M167.4,40.6c-6.5-2.9-14-5.8-20.5-7.7"/>
					<g>
						<path class="st3" d="M167.6,40.4c-1.5-0.3-9.9-2.4-11.2-2.8c-1.2-0.5-8.9-4.8-9.4-4.9c-0.4-0.2,9.1,1.8,10.2,2.3
							C158.4,35.3,167.6,40.3,167.6,40.4z"/>
					</g>
				</g>
			</g>
			<g>
				<g>
					<line class="st2" x1="181.5" y1="44.5" x2="182.6" y2="45.4"/>
					<g>
						<path class="st3" d="M181.3,44.7c0.3-0.2,1.6-0.8,1.7-0.7c0.1,0-0.6,1.7-0.6,1.7c0,0-1.2,0.4-1.2,0.4
							C181.1,45.9,181.3,44.7,181.3,44.7z"/>
					</g>
				</g>
			</g>
			<g>
				<g>
					<path class="st2" d="M181.5,44.5c-6.5-6.7-15.1-11.5-23.8-14.4"/>
					<g>
						<path class="st3" d="M181.7,44.3c-1.5-1.3-10.8-7-12.4-7.5c-1.3-0.9-10.8-6.9-11.4-7c-0.5-0.4,11.3,3.4,12.6,4.5
							C172.2,34.7,182,44,181.7,44.3z"/>
					</g>
				</g>
			</g>
			<g>
				<g>
					<path class="st2" d="M200.9,48.3c-6.5-2.9-13-6.7-18.4-9.6"/>
					<g>
						<path class="st3" d="M201,48.1c-1.4-0.2-9.3-2.7-10.4-3.4c-1.1-0.6-7.6-6-7.9-6.2c-0.3-0.2,8.1,3.2,9.1,3.7
							C192.7,42.8,201,48.1,201,48.1z"/>
					</g>
				</g>
			</g>
			<g>
				<g>
					<path class="st2" d="M205.2,43.5c-2.2-1-4.3-2.9-5.4-3.8"/>
					<g>
						<path class="st3" d="M205.4,43.2c-0.5,0.2-3.5-0.2-3.9-0.5c-0.4-0.2-1.4-3.3-1.4-3.3c-0.1,0,2.8,0.9,3.1,1.1
							C203.3,40.8,205.3,43.3,205.4,43.2z"/>
					</g>
				</g>
			</g>
			<g>
				<g>
					<path class="st2" d="M232.2,54.1c-13-1.9-25.9-10.6-37.8-15.4"/>
					<g>
						<path class="st3" d="M232.3,53.8c-2.8,0.6-18.5-4-20.7-5.5c-2.3-1.1-16.1-9.8-17-9.9c-0.6-0.5,16,6.2,17.9,7.3
							C214.3,47.3,232,54.6,232.3,53.8z"/>
					</g>
				</g>
			</g>
			<g>
				<g>
					<path class="st2" d="M198.8,47.3c-4.3-2.9-9.7-5.8-15.1-8.7"/>
					<g>
						<path class="st3" d="M198.9,47.1c-1.2-0.4-7.6-2.8-8.6-3.2c-0.9-0.5-6.2-5.3-6.5-5.4c-0.3-0.2,6.9,2.5,7.8,2.9
							C192.4,41.8,199,47.1,198.9,47.1z"/>
					</g>
				</g>
			</g>
			<g>
				<g>
					<path class="st2" d="M192.3,44.5c-5.4-1-9.7-3.8-14-6.7"/>
					<g>
						<path class="st3" d="M192.3,44.2c-1,0.3-7.4-0.6-8.4-1.3c-1-0.4-5.4-5.2-5.6-5.4c-0.3-0.1,6.1,2.6,6.8,2.9
							C185.8,41,192.2,44.4,192.3,44.2z"/>
					</g>
				</g>
			</g>
			<g>
				<g>
					<path class="st2" d="M222.5,55c-7.6-1.9-14-5.8-20.5-8.7"/>
					<g>
						<path class="st3" d="M222.6,54.8c-1.5,0.1-10.2-1.8-11.5-2.6c-1.2-0.6-8.5-5.9-8.9-6.1c-0.4-0.2,8.9,3,10,3.5
							C213.1,50.4,222.5,54.9,222.6,54.8z"/>
					</g>
				</g>
			</g>
			<g>
				<g>
					<path class="st2" d="M237.7,63.7c-4.3-3.8-7.6-6.7-11.9-10.6"/>
					<g>
						<path class="st3" d="M237.8,63.5c-1-0.4-6.5-3.7-7.3-4.3c-0.7-0.6-4.4-6.1-4.6-6.3c-0.2-0.2,5.7,3.6,6.3,4.2
							S237.8,63.5,237.8,63.5z"/>
					</g>
				</g>
			</g>
			<g>
				<g>
					<path class="st2" d="M250.6,66.6c-8.6-3.8-16.2-8.6-23.8-14.4"/>
					<g>
						<path class="st3" d="M250.7,66.3c-1.9-0.3-12.2-4.3-13.6-5.4c-1.6-0.8-9.7-8.6-10-9c-0.5-0.2,10,5.8,11.3,6.5
							C239.5,59.5,250.6,66.5,250.7,66.3z"/>
					</g>
				</g>
			</g>
			<g>
				<g>
					<path class="st2" d="M257.1,63.7c-5.4-1-10.8-3.8-14-7.7"/>
					<g>
						<path class="st3" d="M257.1,63.4c-1.1,0.3-7.7-0.7-8.7-1.4c-1.2-0.3-5.2-5.9-5.2-6.2c-0.3,0,5.6,3.6,6.4,3.7
							C250.3,60.2,257,63.6,257.1,63.4z"/>
					</g>
				</g>
			</g>
			<g>
				<g>
					<path class="st2" d="M272.2,70.4c-3.2,1.9-19.4-13.5-25.9-19.2"/>
					<g>
						<path class="st3" d="M272.1,70.2c-2.3,1.7-13.6-6.4-15-7.5c-1.6-1.2-10.2-11.3-10.6-11.7c-0.4-0.4,10.8,8.3,12.2,9.4
							C259.8,61.7,271.7,72.3,272.1,70.2z"/>
					</g>
				</g>
			</g>
			<g>
				<g>
					<path class="st2" d="M259.3,60.8c-9.7-3.9-18.4-9.6-27-14.4"/>
					<g>
						<path class="st3" d="M259.4,60.6c-2-0.3-13.4-4.5-15.1-5.6c-1.6-0.9-11.4-8.5-11.9-8.8c-0.5-0.3,11.6,5.4,13,6.3
							C246.8,53.5,259.2,60.7,259.4,60.6z"/>
					</g>
				</g>
			</g>
			<g>
				<g>
					<path class="st2" d="M211.7,45.4c-8.6-1-16.2-6.7-23.8-9.6"/>
					<g>
						<path class="st3" d="M211.8,45.1c-1.8,0.7-11.9-1.8-13.3-2.8c-1.4-0.7-9.8-6.8-10.4-6.8c-0.4-0.4,10.3,3.6,11.4,4.3
							C200.6,40.9,211.5,45.7,211.8,45.1z"/>
					</g>
				</g>
			</g>
			<g>
				<g>
					<path class="st2" d="M182.6,36.8c1.1,0,2.2,1,2.2,1"/>
					<g>
						<path class="st3" d="M182.6,37c0-0.4,1.6-1.3,1.8-1.2c0.3,0.1,0.2,2.1,0.2,2.1c0,0-1.4,0.4-1.4,0.4
							C183.2,38.3,182.7,37.1,182.6,37z"/>
					</g>
				</g>
			</g>
			<g>
				<g>
					<path class="st2" d="M222.5,38.7c5.4,0,10.8,1,15.1,2.9"/>
					<g>
						<path class="st3" d="M222.5,39c1-0.5,7.2-1.1,8.3-0.9c1.1,0,6.6,3.5,6.7,3.8c0.3-0.1-6.3-1-7.1-1
							C229.7,40.5,222.6,38.8,222.5,39z"/>
					</g>
				</g>
			</g>
			<g>
				<g>
					<path class="st2" d="M225.8,36.8C215,33.9,202,30,192.3,25.2"/>
					<g>
						<path class="st3" d="M225.8,36.5c-2.4-0.2-16.1-2.9-18.2-3.7c-2.2-0.5-14.7-7.4-15.2-7.8c-0.6-0.1,13.9,4.7,15.8,5.1
							C210,30.9,225.8,36.6,225.8,36.5z"/>
					</g>
				</g>
			</g>
			<g>
				<g>
					<path class="st2" d="M216.1,41.6c-5.4-1-10.8-3.8-16.2-5.8"/>
					<g>
						<path class="st3" d="M216.1,41.3c-1.2,0.3-8.1-0.7-9.1-1.2c-1-0.4-6.7-4.5-7-4.6c-0.3-0.1,7.1,1.6,8,2
							C208.7,38.1,216,41.5,216.1,41.3z"/>
					</g>
				</g>
			</g>
			<g>
				<g>
					<path class="st2" d="M205.2,40.6c-3.2-1-15.1-6.7-21.6-8.7"/>
					<g>
						<path class="st3" d="M205.3,40.3c-1.6,0-10.5-2.6-11.8-3.1c-1.3-0.6-9.2-5.5-9.8-5.5c-0.4-0.3,9.6,2.3,10.7,2.9
							C195.6,35.1,205.3,40.6,205.3,40.3z"/>
					</g>
				</g>
			</g>
			<g>
				<g>
					<path class="st2" d="M192.3,35.8c-4.3,0-19.4-6.7-27-9.6"/>
					<g>
						<path class="st3" d="M192.3,35.5c-1.9,0.6-13.1-2.3-14.7-2.9c-1.6-0.6-11.6-6.5-12.1-6.6c-0.5-0.2,11.5,3.4,13,4
							C179.8,30.7,192.1,36.3,192.3,35.5z"/>
					</g>
				</g>
			</g>
			<g>
				<g>
					<path class="st2" d="M158.8,29.1c-10.8-1.9-20.5-5.8-30.2-8.6"/>
					<g>
						<path class="st3" d="M158.9,28.8c-2.1,0.1-14.4-1.8-16.4-2.5c-1.8-0.6-13.3-6-13.8-6.1c-0.6-0.2,12.8,2.9,14.5,3.4
							C144.7,24.3,158.8,29,158.9,28.8z"/>
					</g>
				</g>
			</g>
			<g>
				<g>
					<path class="st2" d="M149.1,30c-9.7-1.9-19.4-4.8-29.2-7.7"/>
					<g>
						<path class="st3" d="M149.1,29.8c-2-0.1-13.8-1.6-15.7-2.1c-1.8-0.4-12.9-5.4-13.4-5.6c-0.5-0.2,12.4,2.4,13.9,2.9
							C135.5,25.4,149.1,29.7,149.1,29.8z"/>
					</g>
				</g>
			</g>
			<g>
				<g>
					<path class="st2" d="M130.7,31c-10.8-4.8-21.6-7.7-33.5-10.6"/>
					<g>
						<path class="st3" d="M130.8,30.7c-2.3-0.8-15.6-4.3-17.7-4.7c-2-0.6-15.1-5.8-15.8-5.9c-0.6-0.2,14.5,2.5,16.3,3.2
							C115.7,23.6,130.9,30.6,130.8,30.7z"/>
					</g>
				</g>
			</g>
			<g>
				<g>
					<path class="st2" d="M95.1,28.1c-8.6-2.9-17.3-3.8-25.9-4.8"/>
					<g>
						<path class="st3" d="M95.2,27.9c-1.8-0.3-12-1.5-13.7-1.6C80,26.1,69.7,23,69.2,23c-0.5-0.1,11.1,0.2,12.5,0.5
							C83.3,23.5,95.3,27.7,95.2,27.9z"/>
					</g>
				</g>
			</g>
			<g>
				<g>
					<path class="st2" d="M77.8,26.2c-8.6-1.9-17.3-3.8-25.9-3.8"/>
					<g>
						<path class="st3" d="M77.9,25.9c-1.8-0.1-12.1-0.9-13.7-1.1c-1.5-0.4-11.7-2.9-12.3-2.8c-0.5-0.2,11.1-0.4,12.5,0
							C65.9,22.2,77.9,25.9,77.9,25.9z"/>
					</g>
				</g>
			</g>
			<g>
				<g>
					<path class="st2" d="M65.9,26.2c-10.8,0-22.7,0-33.5,0"/>
					<g>
						<path class="st3" d="M65.9,25.9c-2.2,0.4-15.3,1.6-17.5,1.7c-2,0.1-15.4-1.7-16-1.7s13.9-1.1,15.8-1.1
							C50.1,24.8,65.9,25.9,65.9,25.9z"/>
					</g>
				</g>
			</g>
			<g>
				<g>
					<path class="st2" d="M54,29.1c-11.9,0-24.8-1-36.7-1"/>
					<g>
						<path class="st3" d="M54,28.8c-2.4,0.4-16.9,1.2-19.2,1.1c-2.2-0.1-16.8-2.1-17.5-2.1c-0.7-0.1,15.3-0.8,17.4-0.7
							C36.7,27.3,54,28.9,54,28.8z"/>
					</g>
				</g>
			</g>
			<g>
				<g>
					<path class="st2" d="M20.6,28.1c-4.3,0-8.6,1-13,2.9"/>
					<g>
						<path class="st3" d="M20.6,27.8c-1,0.5-5.9,2.2-6.6,2.5c-0.6,0.3-6.2,0.3-6.5,0.4c-0.3,0.1,5-2.8,5.8-3.1
							C14,27.3,20.6,27.9,20.6,27.8z"/>
					</g>
				</g>
			</g>
			<g>
				<g>
					<path class="st2" d="M19.5,25.2C15.2,31,7.6,33.9,0,34.8"/>
					<g>
						<path class="st3" d="M19.3,25.1c-0.3,1.5-6.7,8.1-8.4,8.3C9.5,34.3,0.4,34.7,0,34.6c-0.3,0.2,8.7-3,9.6-3.7
							C11,31.1,19.5,25.6,19.3,25.1z"/>
					</g>
				</g>
			</g>
		</g>
	</g>
</g>
</svg>
