<?xml version="1.0" encoding="iso-8859-1"?>
<!-- Generator: Adobe Illustrator 13.0.0, SVG Export Plug-In . SVG Version: 6.00 Build 14948)  -->
<!DOCTYPE svg PUBLIC "-//W3C//DTD SVG 1.0//EN" "http://www.w3.org/TR/2001/REC-SVG-20010904/DTD/svg10.dtd">
<svg version="1.0" id="&#x5716;&#x5C64;_1" xmlns="http://www.w3.org/2000/svg" xmlns:xlink="http://www.w3.org/1999/xlink" x="0px"
	 y="0px" width="305.221px" height="253.221px" viewBox="-16.273 0 305.221 253.221"
	 enable-background="new -16.273 0 305.221 253.221" xml:space="preserve">
<g>
	<path fill="#3B2213" d="M17.547,151.382c2.698-0.978,6.616,1.717,7.396,4.551c-2.085,0.187-3.163-0.635-4.552-1.138
		c0.199-0.749,1.001-0.895,1.138-1.703C19.178,153.544,19.804,151.021,17.547,151.382z M27.789,157.64
		c0.495,0.831,0.452,2.204,2.276,1.705c0.161,1.297-0.137,2.136-1.137,2.278c-1.495-0.972-3.553-1.378-5.123-2.278
		C24.325,157.969,26.093,157.84,27.789,157.64z M236.601,178.692c0.264,1.781-0.494,2.538-2.278,2.28
		C234.396,179.521,235.152,178.76,236.601,178.692z M241.725,179.262c0.174,1.496-0.787,1.867-2.278,1.707
		C239.275,179.469,240.234,179.099,241.725,179.262z M225.223,181.535c-0.641,2.832-0.342,4.21,0.57,6.83
		c-0.663-0.092-1.014,0.125-1.137,0.569c-1.662-1.756-2.372-4.453-2.848-7.399C222.872,180.422,223.893,181.359,225.223,181.535z
		 M208.151,184.951c2.596,0.925,1.956,1.954,5.689,1.138c-0.224,6.035-1.527,10.988-3.414,15.364
		c-0.911-3.358-1.157-6.014-3.984-6.263C207.471,192.234,206.122,186.905,208.151,184.951z M56.237,190.07
		c1.437,1.11-1.45,2.684-1.708,3.983C52.625,192.478,56.005,191.396,56.237,190.07z M201.896,193.485
		c0.777,2.124,2.729,8.373-1.139,8.532C200.919,198,199.589,195.664,201.896,193.485z M196.203,196.327
		c-0.087,2.867,2.416,4.707,1.706,9.674c-1.34,0.181-2.137,0.9-3.982,0.571C193.862,203.508,191.351,196.021,196.203,196.327z
		 M184.83,196.898c1.746,0.15,2.56,1.235,3.979,1.706c-0.495,2.694,5.246,11.261-2.845,10.813c-0.424-2.421-1.546-4.145-2.846-5.69
		C185.196,200.448,183.435,199.969,184.83,196.898z M57.944,220.228c5.296-5.705,8.859-13.14,15.363-17.64
		C69.555,209.836,65.426,216.707,57.944,220.228z M176.862,215.673c-6.011-0.991,0.1-9.407-2.277-9.672
		C180.068,198.939,180.061,212.241,176.862,215.673z M207.584,207.709c0.566,0,1.137,0,1.708,0c-0.436,2.222,0.207,5.521-2.851,5.12
		C206.59,210.889,207.885,210.094,207.584,207.709z M230.913,207.709c0.569,0,1.139,0,1.705,0c0.484,0.475,1.557,4.449-0.566,3.983
		C233.807,209.866,230.714,209.688,230.913,207.709z M113.706,210.552c-0.139,3.662-2.997,9.521-7.396,10.815
		C108.565,217.553,110.751,213.671,113.706,210.552z M156.378,211.692c1.036,2.264,1.036,6.82,0.571,11.948
		c2.486-2.254,3.125-6.356,3.979-10.241c5.368-0.099-1.195,7.126,2.847,6.828c-0.182,1.333-0.9,2.134-0.567,3.979
		c-2.618,1.371-5.452,2.518-6.83,5.12c-2.229-0.077-1.662-2.548-1.135-3.979C150.856,222.732,156.145,215.213,156.378,211.692z
		 M50.547,215.105c0.379,0,0.759,0,1.137,0c-0.103,0.482,0.223,0.54,0.57,0.567c-1.161,1.116-1.192,3.362-3.414,3.417
		C49.314,217.666,50.4,216.854,50.547,215.105z M185.964,215.673c0.569,0,1.137,0,1.705,0c0,0.763,0,1.517,0,2.277
		C186.17,218.123,185.803,217.164,185.964,215.673z M93.221,218.517c0.918-0.156,0.979,0.543,1.706,0.573
		c-5.344,9.447-9.965,19.617-17.638,26.741C80.795,234.923,88.175,227.891,93.221,218.517z M133.618,221.936
		c0.147,1.666-1.285,1.747-1.138,3.414C130.441,224.997,131.725,221.706,133.618,221.936z M118.256,223.641
		c1.227,1.636-1.313,4.356-2.276,5.687C113.226,227.784,117.653,225.421,118.256,223.641z M141.583,231.604
		C145.057,235.089,138.217,236.867,141.583,231.604L141.583,231.604z M43.151,169.587c1.521,0.664-1.482,1.485-1.706,2.279
		c1.141,0.188,1.779-0.113,1.706-1.136c3.335,5.009,10.136,6.552,15.361,9.67c0.771-0.178,0.471-1.423,0.569-2.279
		c1.802-0.093,1.902,1.515,3.984,1.14c0.071,1.02-0.697,1.197-0.57,2.274c7.268,1.701,14.992,4.113,23.328,6.262
		c4.477,1.149,8.564,3.933,13.085,4.551c2.496,0.342,5.278-0.398,7.967,0c4.111,0.603,7.771,3.002,11.948,3.413
		c10.931,1.076,22.875-0.143,34.138-2.276c1.327,0,2.655,0,3.984,0c1.445-1.969,4.466-2.362,7.964-2.277
		c5.416-4.365,14.146-2.073,18.207-7.968c8.176-2.254,17.637-3.228,22.762-8.535c4.303,1.005,6.393-0.901,8.534-3.414
		c4.452,1.216,6.183-2.636,9.102-4.549c1.404-0.076,2.741-0.089,3.413,0.569c3.243-3.787,8.653-3.971,13.088-5.69
		c1.908-0.744,3.536-3.04,5.688-3.414c1.347-0.237,1.485,1.456,2.847,1.707c2.282,0.417,6.83-1.222,8.535-3.984
		c0.668,0.849,1.428,1.605,2.274,2.277c2.075-0.77,3.089-2.603,5.688-2.847c0.163,0.919-0.539,0.98-0.566,1.706
		c2.542-0.869,4.446-2.378,6.258-3.979c1.302,1.184-1.892,3.301,0.57,4.551c1.602-1.505,6.8-1.562,6.827,1.703
		c1.427-0.658,1.907-2.268,3.983-2.28c-3.675,6.892,6.038,9.766,6.828,15.935c-4.283-1.659-7.52,0.692-9.671,2.844
		c-1.917-1.49-6.606-0.218-7.965-2.277c-0.771,0.178-0.472,1.426-0.57,2.277c-4.61,0.805-11.127,0.007-15.361,2.28
		c-0.98-0.346,0.04-2.701-1.134-2.847c-2.671,1.091,0.922,2.186-0.569,3.983c-2.243,0.159-1.741-2.429-3.984-2.277
		c-3.092,0.688-3.763,6.896,0,6.828c-3.74,2.253,1.09,10.064-3.983,11.379c0.027,1.872,2.43,1.363,2.276,3.416
		c-2.046,1.629-3.638-0.994-4.55-2.28c-0.151-1.853,2.209-1.201,2.276-2.848c-1.699-3.604-1.873-8.744-4.554-11.378
		c-3.171,2.783,2.735,9.417-0.565,12.516c-2.213-0.059-0.979-3.574-2.849-3.98c-1.187-0.241-1.506,0.394-2.274,0.569
		c0.028,5.227,3.316,5.844,3.982,11.379c-2.875,0.04-3.255-0.72-5.688,0c-1.663-1.752-1.361-5.467-2.277-7.968
		c-3.662,3.118,0.692,9.804-1.707,12.518c-2.979-1.38-5.293-3.43-6.26-6.827c1.333-0.827,3.596-6.65-0.568-6.257
		c0.171-1.92,2.521-1.649,2.845-3.414c-3.589-1.896-3.292,4.536-5.686,5.685c-0.478,2.754,0.526,4.021,1.135,5.687
		c-10.331,1.238-5.616,17.52-13.088,21.622c0.842-3.362,2.057-7.879,0-9.674c-3.294,1.768-4.609,5.442-4.548,9.104
		c-4.096,0.835-3.324,6.547-5.12,9.672c-1.815-0.337-1.763,1.069-2.845,0c0.442-2.209,0.774-4.531,2.274-5.688
		c-2.525,0.611-4.001-1.656-7.396-1.703c-0.126-2.38,0.925-2.691,0-4.551c-1.815-0.488-1.761,0.895-2.846,1.134
		c1.636,2.127,0.751,4.742-1.706,5.687c-0.396-1.968-2.199-5.863,0.57-7.394c-3.811-5.749-6.309,3.061-9.671,2.273
		c-0.468,2.572,1.096,7.166-1.137,7.968c-2.478-0.359-2.043-1.931-1.707-3.984c-1.049-3.308-4.74-3.983-4.551-8.534
		c-2.205,3.353-1.548,8.881-2.847,14.227c-4.436,1.828-1.002,11.515-6.258,12.516c0.801-4.996,2.524-11.092,1.703-15.929
		c-6.873,2.797-6.678,12.667-10.813,18.207c-2.251,0.098,0.181-0.873-1.137-1.707c-2.754,1.042-2.899,4.687-3.981,7.397
		c-0.924-9.593,4.699-21.16-0.57-29.586c2.175,1.153,3.103-1.745,2.28-3.414c2.851-0.574,1.999,2.548,3.979,2.843
		c1.714-2.396,2.817-9.741,0.57-12.515c-1.741-0.41-1.672,0.981-3.413,0.567c2.145-3.294-1.702-3.509,0-6.828
		c-3.067,0.729-2.929,4.662-3.983,7.397c-2.974,1.775-3.005,6.478-3.984,10.245c-4.219,3.746-4.715,11.218-6.26,17.635
		c-4.689-9.969,5.758-17.252,2.276-27.88c-4.847,1.222-3.151,8.986-7.964,10.245c0.083-1.449,2.66-5.298,3.982-7.4
		c-3.382,0.491-8.153,4.309-9.104,9.104c-2.558-2.773-5.677,0.216-9.103,1.137c1.154-2.07,3.201-3.245,3.982-5.691
		c-0.559-0.516-3.628,1.279-3.982,2.851c-1.541-1.398,1.736-2.786,1.138-5.121c-4.47,4.825-11.159,7.428-13.085,14.796
		c4.867-0.322,6.689-6.489,10.81-5.688c-11.024,9.271-21.834,18.751-33.001,27.88c1.184-4.323,9.072-6.858,8.535-14.795
		c6.985-6.858,12.416-15.271,15.362-26.174c-11.46,10.354-17.519,26.105-27.879,37.555c-0.875-2.107-3.375-0.322-3.982,1.137
		c3.682-9.627,5.353-23.713,7.967-33.001c1.214-0.265,1.083,0.812,1.138,1.705c2.651-0.191,2.458-3.228,3.982-4.548
		c0.984,4.594-2.755,9.374-2.276,15.361c4.185-5.297,4.711-14.252,10.811-17.639c-1.398-3.095,1.701-6.131,1.137-10.241
		c-2.167,0.485-3.279,2.033-3.414,4.551c-2.217-2.24-3.081,0.209-3.982,2.276c-2.057-0.919,0.08-2.738-1.138-3.983
		c-3.302,1.249-3.358,5.748-5.12,8.534c-1.487-0.787,0.277-4.825-1.138-5.688c-1.868,0.218-2.509,1.663-3.982,2.273
		c-6.429-1.496-9.391,2.358-11.38,6.831c-9.846,4.953-18.876,10.713-25.604,18.781c-1.591-1.444,1.569-2.95,1.137-5.122
		c1.733,0.716,2.214,0.437,3.415-0.567c-0.084-1.27-1.434,0.739-2.845,0c1.087-1.567,2.325-2.985,3.414-4.555
		c11.571-3.6,13.912-16.431,20.484-25.032c-1.716-1.123-5.913,0.139-6.827,1.707c-0.65-1.16-3.063-1.504-5.123,0
		c-0.332-3,4.952-5.283,5.123-9.671c-6.716,2.199-7.838,9.989-14.226,12.515c-1.762-4.992,7.361-4.011,6.827-9.671
		c-2.347,0.309-3.855,1.455-5.121,2.844c0.019-3.587,3.877-8.257,5.689-11.948c-1.011-0.654-2.597-1.965-1.138-3.414
		c-5.241,2.915-8.18,8.131-13.086,11.378c1.828-3.864,8.485-7.818,10.242-13.647c-0.345-2.641-5.151-2.084-3.982-4.555
		c-2.478,0.181-4.655,0.658-6.829,1.137c1.472-1.561,3.878-2.195,5.69-3.417c-0.482-1.666-1.833,0.343-2.845,0
		c0.33-1.846-0.388-2.642-0.57-3.979C40.063,168.549,42.216,171.44,43.151,169.587z M73.307,202.588
		c-6.503,4.5-10.066,11.935-15.363,17.64C65.426,216.707,69.555,209.836,73.307,202.588z M234.327,180.97
		c1.78,0.261,2.543-0.495,2.278-2.277C235.152,178.76,234.396,179.521,234.327,180.97z M239.447,180.97
		c1.487,0.16,2.448-0.21,2.278-1.704C240.234,179.099,239.275,179.469,239.447,180.97z M221.809,181.535
		c0.473,2.942,1.186,5.644,2.848,7.399c0.123-0.444,0.474-0.661,1.137-0.569c-0.911-2.62-1.211-3.998-0.57-6.83
		C223.893,181.359,222.872,180.422,221.809,181.535z M206.447,195.19c2.825,0.251,3.072,2.904,3.983,6.263
		c1.887-4.376,3.189-9.329,3.414-15.364c-3.734,0.816-3.094-0.213-5.689-1.138C206.122,186.905,207.471,192.234,206.447,195.19z
		 M54.529,194.054c0.258-1.3,3.145-2.873,1.708-3.983C56.005,191.396,52.625,192.478,54.529,194.054z M200.757,202.018
		c3.87-0.159,1.919-6.408,1.139-8.532C199.589,195.664,200.919,198,200.757,202.018z M193.929,206.572
		c1.847,0.326,2.647-0.39,3.982-0.571c0.707-4.966-1.793-6.807-1.705-9.672C191.351,196.021,193.862,203.508,193.929,206.572z
		 M183.119,203.725c1.3,1.548,2.422,3.271,2.846,5.69c8.088,0.451,2.35-8.116,2.845-10.811c-1.42-0.473-2.233-1.558-3.979-1.708
		C183.435,199.969,185.196,200.448,183.119,203.725z M174.584,206.001c2.372,0.265-3.733,8.681,2.277,9.67
		C180.061,212.241,180.068,198.939,174.584,206.001z M206.447,212.831c3.059,0.399,2.413-2.897,2.846-5.121
		c-0.567,0-1.138,0-1.704,0C207.885,210.094,206.59,210.889,206.447,212.831z M106.308,221.365c4.397-1.293,7.259-7.15,7.396-10.813
		C110.751,213.671,108.565,217.553,106.308,221.365z M155.239,225.35c-0.526,1.43-1.094,3.901,1.137,3.979
		c1.377-2.603,4.211-3.749,6.827-5.121c-0.327-1.847,0.389-2.644,0.57-3.979c-4.045,0.301,2.521-6.924-2.85-6.828
		c-0.853,3.884-1.49,7.988-3.978,10.244c0.465-5.128,0.465-9.686-0.57-11.949C156.145,215.213,150.856,222.732,155.239,225.35z
		 M187.669,217.95c0-0.762,0-1.515,0-2.279c-0.568,0-1.136,0-1.705,0C185.803,217.164,186.17,218.123,187.669,217.95z
		 M77.291,245.831c7.672-7.124,12.293-17.292,17.638-26.741c-0.729-0.032-0.789-0.729-1.706-0.573
		C88.175,227.891,80.795,234.923,77.291,245.831z M56.807,205.433c-0.293,3.308-2.477,4.731-3.982,6.828
		C52.469,210.563,54.281,206.145,56.807,205.433z M127.36,223.07c-5.413,11.846-14.592,19.926-23.896,27.88
		c4.025-7.73,13.628-14.814,17.638-24.466C123.563,225.725,124.47,223.406,127.36,223.07z M129.634,227.621
		c-3.939,4.407-3.888,12.803-9.103,15.932C124.321,238.999,123.878,230.21,129.634,227.621z"/>
	<g>
		<g>
			<g>
				<path fill="none" d="M262.453,36.041c-2.16-4.807-5.401-8.653-9.723-12.499"/>
				<g>
					<path fill="#50392C" d="M262.7,35.93c-0.72-0.968-4.938-5.489-5.731-6.038c-0.488-0.695-3.727-6.356-4.05-6.547
						c-0.194-0.289,5.598,3.864,6.117,4.712C259.921,28.642,262.908,35.897,262.7,35.93z"/>
				</g>
			</g>
		</g>
		<g>
			<g>
				<path fill="none" d="M252.734,37.001c-5.401-10.577-17.282-18.27-28.084-24.039"/>
				<g>
					<path fill="#50392C" d="M252.973,36.88c-0.906-2.726-11.76-12.374-13.996-13.268c-1.453-1.6-13.43-10.668-14.182-10.877
						c-0.569-0.51,14.182,6.804,15.656,8.527C242.919,21.855,253.924,36.312,252.973,36.88z"/>
				</g>
			</g>
		</g>
		<g>
			<g>
				<path fill="none" d="M240.854,37.001c-5.401-5.768-10.804-11.54-17.283-15.384"/>
				<g>
					<path fill="#50392C" d="M241.05,36.816c-1.295-0.943-8.501-6.562-9.62-7.426c-0.855-1.002-7.153-7.854-7.71-7.999
						c-0.302-0.421,8.616,4.748,9.461,5.86C234.25,28.079,241.112,36.788,241.05,36.816z"/>
				</g>
			</g>
		</g>
		<g>
			<g>
				<path fill="none" d="M260.292,55.272c-7.563-6.732-17.283-12.5-25.922-18.271"/>
				<g>
					<path fill="#50392C" d="M260.474,55.068c-1.803-1.26-12.392-7.672-14.175-8.584c-1.591-0.99-11.261-9.378-11.763-9.698
						c-0.495-0.33,11.644,6.298,13.121,7.28C249.29,44.834,260.637,54.916,260.474,55.068z"/>
				</g>
			</g>
		</g>
		<g>
			<g>
				<path fill="none" d="M238.692,49.503c-6.479-3.847-15.121-13.462-21.604-19.23"/>
				<g>
					<path fill="#50392C" d="M238.832,49.268c-2.013-0.342-11.397-7.101-12.682-8.417c-1.296-1.185-8.382-10.453-8.867-10.771
						c-0.342-0.446,9.528,7.528,10.639,8.633C228.886,40.019,238.492,49.638,238.832,49.268z"/>
				</g>
			</g>
		</g>
		<g>
			<g>
				<path fill="none" d="M228.968,49.503c-15.119-7.692-28.079-20.192-46.443-27.886"/>
				<g>
					<path fill="#50392C" d="M229.09,49.261c-3.589-0.907-21.939-11.88-24.742-13.779c-2.388-2.212-20.437-14.093-21.688-14.101
						c-0.747-0.917,20.733,9.335,22.91,11.589C207.966,34.856,228.739,49.777,229.09,49.261z"/>
				</g>
			</g>
		</g>
		<g>
			<g>
				<path fill="none" d="M232.208,39.888c-12.959-4.81-24.842-17.308-38.882-22.115"/>
				<g>
					<path fill="#50392C" d="M232.303,39.632c-3.175-0.083-18.764-8.697-20.998-10.392c-1.933-1.916-16.656-11.938-17.864-11.715
						c-0.563-0.957,17.446,7.259,19.149,9.247C214.433,28.574,231.827,40.397,232.303,39.632z"/>
				</g>
			</g>
		</g>
		<g>
			<g>
				<path fill="none" d="M233.292,37.001c-8.645-7.693-15.123-17.308-28.083-20.192"/>
				<g>
					<path fill="#50392C" d="M233.473,36.8c-2.046-1.222-12.553-10.223-14.344-11.314c-0.978-2.021-12.739-9.335-13.843-8.936
						c-0.517-0.922,14.355,4.323,15.401,6.643C222.502,24.329,233.363,36.932,233.473,36.8z"/>
				</g>
			</g>
		</g>
		<g>
			<g>
				<path fill="none" d="M233.292,39.888c-10.804-8.652-22.684-18.271-35.646-23.077"/>
				<g>
					<path fill="#50392C" d="M233.46,39.674c-2.396-1.598-16.323-10.822-18.651-12.082c-1.785-1.804-15.982-11.126-17.046-11.027
						c-0.604-0.771,16.68,6.631,18.346,8.572C218.291,26.26,233.547,39.603,233.46,39.674z"/>
				</g>
			</g>
		</g>
		<g>
			<g>
				<path fill="none" d="M224.65,41.811c-6.479-5.77-12.96-11.54-21.606-15.384"/>
				<g>
					<path fill="#50392C" d="M224.829,41.608c-1.542-0.987-10.247-6.773-11.667-7.561c-1.084-1.069-9.363-7.756-9.992-7.864
						c-0.406-0.412,10.383,4.338,11.474,5.527C216.031,32.455,224.909,41.561,224.829,41.608z"/>
				</g>
			</g>
		</g>
		<g>
			<g>
				<path fill="none" d="M218.168,40.847c-7.561-4.807-14.04-10.576-21.603-14.422"/>
				<g>
					<path fill="#50392C" d="M218.315,40.617c-1.656-0.595-10.725-5.471-12.047-6.421c-1.157-0.979-8.999-7.854-9.565-8.003
						c-0.386-0.384,9.942,4.624,11.021,5.649C208.867,32.747,218.255,40.677,218.315,40.617z"/>
				</g>
			</g>
		</g>
		<g>
			<g>
				<path fill="none" d="M199.807,34.118c1.082,0,5.401,2.884,2.16,1.922c-3.239-2.884-6.48-5.769-9.72-7.692"/>
				<g>
					<path fill="#50392C" d="M199.807,34.389c-0.326,0.188,4.36-0.47,2.648,2.441c-2.72-0.845-3.73-2.039-4.382-2.334
						c-0.683-0.78-5.338-6.119-5.679-6.375c-0.338-0.215,6.761,3.364,7.365,4.178c0.213,0.041,2.314,2.699,3.111,3.1
						C201.651,36.644,199.733,33.64,199.807,34.389z"/>
				</g>
			</g>
		</g>
		<g>
			<g>
				<path fill="none" d="M194.405,34.118c-4.32-2.884-7.56-5.768-10.801-9.617"/>
				<g>
					<path fill="#50392C" d="M194.558,33.892c-1.005-0.16-6.343-2.67-7.059-3.367c-0.814-0.544-3.591-5.98-3.678-6.194
						c-0.205-0.126,4.846,3.65,5.455,4.07C189.725,28.996,194.469,33.939,194.558,33.892z"/>
				</g>
			</g>
		</g>
		<g>
			<g>
				<path fill="none" d="M178.203,25.464c1.083,0.962,5.401,2.885,2.162,1.921c-5.402-3.845-9.725-7.692-15.121-10.576"/>
				<g>
					<path fill="#50392C" d="M178.025,25.666c0.396,0.205,1.197,0.571,2.254,0.966c0.243,0.474,1.73-0.174,1.116,1.379
						c-0.828,0.097-1.636-0.292-2.216-0.677c-2.408-1.316-4.761-2.679-5.362-3.104c-1.026-0.985-7.886-7.502-8.431-7.653
						c-0.343-0.393,9.063,4.342,9.955,5.339c0.525,0.406,2.854,2.497,5.063,4.463c0.652,0.922,0.921-0.272,0.516,1.507l-1.459-1.068
						C178.57,26.199,178.021,25.662,178.025,25.666z"/>
				</g>
			</g>
		</g>
		<g>
			<g>
				<path fill="none" d="M173.885,26.424c5.4,1.923-7.561-5.768-10.803-7.693"/>
				<g>
					<path fill="#50392C" d="M173.793,26.68c0.066-0.057,1.412,0.195,1.15-0.156c-0.587-0.373-1.453-0.728-2.288-1.083
						c-1.681-0.702-3.375-1.368-3.811-1.607c-0.803-0.462-5.346-5.184-5.614-5.33c-0.252-0.165,6.243,2.432,6.985,2.922
						c0.374,0.237,2.023,1.574,3.533,2.946c0.461,0.988,2.129,0.696,1.339,2.787C174.078,26.949,173.863,26.655,173.793,26.68z"/>
				</g>
			</g>
		</g>
		<g>
			<g>
				<path fill="none" d="M196.566,23.541c-3.239-1.923-5.4-3.847-8.645-4.809"/>
				<g>
					<path fill="#50392C" d="M196.706,23.308c-0.745-0.03-4.707-1.101-5.226-1.377c-0.384-0.31-3.145-3.438-3.472-3.457
						c-0.204-0.186,4.387,0.61,4.866,1.069C193.376,19.869,196.695,23.318,196.706,23.308z"/>
				</g>
			</g>
		</g>
		<g>
			<g>
				<path fill="none" d="M207.367,26.424c-12.962-3.846-25.921-9.615-37.805-15.384"/>
				<g>
					<path fill="#50392C" d="M207.444,26.166c-2.726-0.307-18.246-4.606-20.622-5.744c-2.346-0.833-16.483-9.215-17.117-9.615
						c-0.713-0.248,15.841,6.183,17.922,6.951C189.575,18.881,207.347,26.355,207.444,26.166z"/>
				</g>
			</g>
		</g>
		<g>
			<g>
				<path fill="none" d="M183.604,26.424c-8.645-5.768-18.36-11.538-28.083-15.384"/>
				<g>
					<path fill="#50392C" d="M183.757,26.2c-1.966-0.973-13.252-6.496-15.078-7.302c-1.567-1.011-12.368-7.981-13.044-8.104
						c-0.522-0.387,12.685,4.511,14.18,5.577C171.506,17.086,183.837,26.113,183.757,26.2z"/>
				</g>
			</g>
		</g>
		<g>
			<g>
				<path fill="none" d="M169.562,25.464c-5.399-2.884-11.881-5.769-17.28-7.692"/>
				<g>
					<path fill="#50392C" d="M169.691,25.224c-1.289-0.327-8.449-2.434-9.566-2.805c-0.997-0.443-7.356-4.816-7.74-4.899
						c-0.332-0.183,7.783,1.822,8.736,2.317C162.139,20.194,169.739,25.174,169.691,25.224z"/>
				</g>
			</g>
		</g>
		<g>
			<g>
				<path fill="none" d="M167.401,29.311c0,0-7.563-3.846-10.798-4.81"/>
				<g>
					<path fill="#50392C" d="M167.526,29.067c-0.872-0.06-5.559-0.948-6.256-1.18c-0.619-0.278-4.274-3.629-4.586-3.645
						c-0.205-0.166,5.084,0.756,5.66,1.094C162.972,25.59,167.542,29.05,167.526,29.067z"/>
				</g>
			</g>
		</g>
		<g>
			<g>
				<path fill="none" d="M159.844,29.311c-8.643-5.769-19.439-9.615-29.165-13.461"/>
				<g>
					<path fill="#50392C" d="M159.993,29.085c-1.983-1.064-13.594-5.727-15.562-6.24c-1.741-0.714-13.05-7.056-13.634-7.242
						c-0.555-0.253,12.865,3.872,14.516,4.615C147.151,20.596,160.176,28.846,159.993,29.085z"/>
				</g>
			</g>
		</g>
		<g>
			<g>
				<path fill="none" d="M156.603,29.311c-6.48-4.81-14.043-8.652-21.605-11.538"/>
				<g>
					<path fill="#50392C" d="M156.763,29.092c-1.524-0.812-10.243-4.792-11.681-5.284c-1.215-0.702-9.458-6.19-9.974-6.284
						c-0.418-0.278,9.895,2.976,11.092,3.755C147.593,21.706,156.898,28.961,156.763,29.092z"/>
				</g>
			</g>
		</g>
		<g>
			<g>
				<path fill="none" d="M153.362,19.694c-6.478-2.884-14.04-4.808-20.522-6.731"/>
				<g>
					<path fill="#50392C" d="M153.474,19.447c-1.484-0.338-9.78-2.017-11.111-2.255c-1.229-0.318-9.042-4.38-9.435-4.484
						c-0.39-0.121,8.939,1.441,10.099,1.797C144.244,14.71,153.548,19.335,153.474,19.447z"/>
				</g>
			</g>
		</g>
		<g>
			<g>
				<path fill="none" d="M139.322,18.733"/>
				<g>
					<path fill="#50392C" d="M139.322,18.733L139.322,18.733L139.322,18.733z"/>
				</g>
			</g>
		</g>
		<g>
			<g>
				<path fill="none" d="M123.119,15.849c2.16,0.962,3.241,1.923,4.32,2.884c-6.479-0.961-14.043-3.846-20.521-6.731"/>
				<g>
					<path fill="#50392C" d="M123.009,16.096c0.421,0.136,1.4,0.368,2.547,0.958c0.569,0.291,1.194,0.667,1.807,1.088
						c0.181,2.082-1.257,0.468-1.829,0.874c-3.146-0.176-6.195-0.863-7.034-1.08c-1.719-0.237-11.056-5.93-11.455-6.177
						c-0.47-0.115,10.689,3.294,12.111,3.483c0.695,0.215,3.925,1.57,7.133,2.403L127.472,18c-1.184,2.355-0.805,0.16-1.271,0.477
						c-0.533-0.517-1.055-0.969-1.533-1.311C123.705,16.479,123,16.111,123.009,16.096z"/>
				</g>
			</g>
		</g>
		<g>
			<g>
				<path fill="none" d="M131.76,23.541c-10.8-2.884-20.521-7.693-30.243-11.54"/>
				<g>
					<path fill="#50392C" d="M131.832,23.278c-2.179-0.094-14.636-3.134-16.525-4.037c-1.814-0.723-13.094-7.263-13.671-7.485
						c-0.56-0.245,12.893,4.135,14.511,4.836C117.688,17.496,131.731,23.457,131.832,23.278z"/>
				</g>
			</g>
		</g>
		<g>
			<g>
				<path fill="none" d="M144.723,19.694c-7.563-3.846-16.201-6.731-24.841-10.577"/>
				<g>
					<path fill="#50392C" d="M144.845,19.452c-1.782-0.566-11.896-3.625-13.537-4.117c-1.54-0.501-10.867-6.24-11.303-6.46
						c-0.466-0.167,10.754,3.322,12.162,3.823C133.606,13.121,144.917,19.344,144.845,19.452z"/>
				</g>
			</g>
		</g>
		<g>
			<g>
				<path fill="none" d="M139.322,18.733c-10.801-3.846-21.604-9.615-32.404-13.461"/>
				<g>
					<path fill="#50392C" d="M139.414,18.477c-2.327-0.381-15.529-4.567-17.54-5.51c-1.874-0.913-14.159-7.782-14.846-7.942
						c-0.6-0.332,14.021,4.392,15.739,5.315C124.482,11.26,139.339,18.603,139.414,18.477z"/>
				</g>
			</g>
		</g>
		<g>
			<g>
				<path fill="none" d="M125.279,16.81c-8.64-1.922-19.441-6.731-28.08-9.615"/>
				<g>
					<path fill="#50392C" d="M125.337,16.545c-1.996,0.018-13.531-2.399-15.28-3.15c-1.67-0.62-12.202-6.292-12.756-6.451
						c-0.523-0.221,12.024,3.163,13.522,3.785C112.279,11.514,125.243,16.734,125.337,16.545z"/>
				</g>
			</g>
		</g>
		<g>
			<g>
				<path fill="none" d="M107.998,12.963c-4.32-1.923-9.722-3.846-14.04-5.768"/>
				<g>
					<path fill="#50392C" d="M108.108,12.716c-1.084-0.103-7.018-1.194-7.941-1.473c-0.883-0.257-5.857-4.166-6.09-4.293
						c-0.26-0.087,6.223,1.407,7.011,1.681C101.874,8.908,108.131,12.686,108.108,12.716z"/>
				</g>
			</g>
		</g>
		<g>
			<g>
				<path fill="none" d="M100.436,12.002c-6.479-0.962-12.961-3.847-20.522-5.769"/>
				<g>
					<path fill="#50392C" d="M100.477,11.733c-1.425,0.243-9.938-0.731-11.212-1.229c-1.204-0.406-8.843-4.451-9.272-4.533
						c-0.395-0.147,8.88,1.416,9.971,1.852C91.032,8.385,100.388,11.903,100.477,11.733z"/>
				</g>
			</g>
		</g>
		<g>
			<g>
				<path fill="none" d="M102.596,12.963c-9.721-2.884-18.36-6.73-28.082-8.652"/>
				<g>
					<path fill="#50392C" d="M102.675,12.704c-1.978-0.19-13.313-2.704-15.061-3.277C86.027,8.76,75.22,4.054,74.584,4.048
						c-0.537-0.266,12.204,1.968,13.713,2.693C89.84,7.313,102.643,12.767,102.675,12.704z"/>
				</g>
			</g>
		</g>
		<g>
			<g>
				<path fill="none" d="M102.596,17.772c-12.959-5.77-24.841-8.654-38.883-12.5"/>
				<g>
					<path fill="#50392C" d="M102.708,17.524c-2.64-0.937-17.998-5.241-20.537-5.685c-2.316-0.664-17.606-6.656-18.36-6.825
						C63.074,4.781,80.511,8.42,82.687,9.11C84.998,9.435,102.829,17.303,102.708,17.524z"/>
				</g>
			</g>
		</g>
		<g>
			<g>
				<path fill="none" d="M71.276,11.04c-4.321-0.961-7.562-1.922-11.883-2.885"/>
				<g>
					<path fill="#50392C" d="M71.333,10.776c-0.865,0.186-5.831,0.25-6.593,0.099c-0.708-0.143-5.04-2.938-5.282-2.981
						c-0.229-0.066,5.227,0.092,5.878,0.28C65.986,8.359,71.321,10.792,71.333,10.776z"/>
				</g>
			</g>
		</g>
		<g>
			<g>
				<path fill="none" d="M72.353,12.002c-5.398,0.962-15.12-2.884-22.681-4.808"/>
				<g>
					<path fill="#50392C" d="M72.307,11.735c-1.376,1.197-10.897,0.386-12.279-0.123c-1.402-0.32-9.809-4.62-10.276-4.675
						c-0.413-0.185,9.669,1.633,10.862,1.966C61.769,9.612,72.193,12.523,72.307,11.735z"/>
				</g>
			</g>
		</g>
		<g>
			<g>
				<path fill="none" d="M62.634,16.81c-8.642-2.885-16.203-5.77-24.843-6.731"/>
				<g>
					<path fill="#50392C" d="M62.719,16.553c-1.744-0.247-11.703-2.247-13.251-2.598c-1.374-0.551-11.041-4.224-11.631-4.144
						c-0.496-0.24,10.855,0.8,12.23,1.444C51.5,11.595,62.742,16.53,62.719,16.553z"/>
				</g>
			</g>
		</g>
		<g>
			<g>
				<path fill="none" d="M47.512,12.963c-9.722-2.884-21.603-4.809-32.404-5.768"/>
				<g>
					<path fill="#50392C" d="M47.59,12.704c-2.234-0.391-15.004-2.021-17.068-2.128c-1.888-0.374-14.709-3.675-15.369-3.649
						c-0.625-0.155,13.786,0.45,15.598,0.886C32.636,7.854,47.666,12.525,47.59,12.704z"/>
				</g>
			</g>
		</g>
		<g>
			<g>
				<path fill="none" d="M30.23,12.963c-8.641,0-17.28,0-27.002,0"/>
				<g>
					<path fill="#50392C" d="M30.23,12.692c-1.804,0.359-12.37,1.595-14.08,1.653c-1.613,0.056-12.402-1.653-12.908-1.653
						c-0.507,0,11.23-1.112,12.718-1.112C17.448,11.58,30.23,12.692,30.23,12.692z"/>
				</g>
			</g>
		</g>
		<g>
			<g>
				<path fill="none" d="M14.028,12.963c-5.399,0-11.88,0-17.281,1.923"/>
				<g>
					<path fill="#50392C" d="M14.028,12.692c-1.195,0.31-7.957,1.711-8.974,1.947c-0.96-0.055-7.992-0.287-8.388-0.01
						c-0.417-0.045,6.929-2.86,8.011-2.728C5.71,11.673,14.056,12.633,14.028,12.692z"/>
				</g>
			</g>
		</g>
		<g>
			<g>
				<path fill="none" d="M68.032,11.04C57.233,6.232,45.35,4.311,33.47,4.311"/>
				<g>
					<path fill="#50392C" d="M68.143,10.792c-2.329-0.893-15.792-3.723-18.025-3.666C48.153,6.57,34.249,3.833,33.492,4.04
						C32.794,3.802,48.358,3.711,50.35,4.369C52.528,4.156,68.331,10.432,68.143,10.792z"/>
				</g>
			</g>
		</g>
		<g>
			<g>
				<path fill="none" d="M75.593,6.232c-7.561-3.847-16.202-5.77-24.841-5.77"/>
				<g>
					<path fill="#50392C" d="M75.716,5.991c-1.721-0.665-11.447-2.856-13.04-2.839c-1.363-0.482-11.313-3.137-11.909-2.96
						c-0.522-0.215,10.857-0.37,12.316,0.228C64.718,0.307,75.893,5.733,75.716,5.991z"/>
				</g>
			</g>
		</g>
		<g>
			<g>
				<path fill="none" d="M97.199,8.155c-8.643-1.921-15.123-4.809-23.763-6.729"/>
				<g>
					<path fill="#50392C" d="M97.255,7.892c-1.672,0.056-11.376-1.429-12.861-1.939C83.026,5.461,74.02,1.218,73.507,1.166
						c-0.455-0.188,10.278,1.562,11.555,2.099C86.327,3.796,97.202,7.994,97.255,7.892z"/>
				</g>
			</g>
		</g>
		<g>
			<g>
				<path fill="none" d="M103.677,12.002c-5.401-3.847-12.961-5.769-19.441-6.73"/>
				<g>
					<path fill="#50392C" d="M103.834,11.782c-1.376-0.725-9.036-2.966-10.33-3.027c-1.072-0.407-8.745-3.795-9.217-3.751
						c-0.4-0.191,8.751,0.562,9.897,1.072C95.539,6.05,104.055,11.526,103.834,11.782z"/>
				</g>
			</g>
		</g>
		<g>
			<g>
				<path fill="none" d="M112.32,12.963c2.158-0.962,2.158,0.961,4.319-0.962c-5.4-1.922-11.881-3.847-17.283-4.808"/>
				<g>
					<path fill="#50392C" d="M112.43,13.211c0.29-0.089,1.027-0.661,2.139-0.499c0.525,0.002,0.956-0.249,1.354-0.721l0.309-0.276
						l0.076-0.067c0.334,1.608,0.026,0.434,0.07,0.787l-0.237-0.044l-0.952-0.177c-2.538-0.509-5.063-0.931-5.749-1.1
						c-1.217-0.487-9.536-4.167-10.023-4.187c-0.428-0.181,9.487,0.938,10.661,1.49c0.606,0.17,3.407,1.311,5.995,2.517
						c2.64,3.082-2.043,2.374-2.155,2.251C113.04,13.019,112.441,13.274,112.43,13.211z"/>
				</g>
			</g>
		</g>
		<g>
			<g>
				<path fill="none" d="M119.88,12.963c-9.723-2.884-19.442-5.768-29.164-9.617"/>
				<g>
					<path fill="#50392C" d="M119.958,12.704c-2.055-0.266-13.942-2.547-15.813-3.129c-1.783-0.571-12.795-6.289-13.313-6.473
						c-0.526-0.186,12.399,3.216,13.966,3.771C106.37,7.444,119.958,12.683,119.958,12.704z"/>
				</g>
			</g>
		</g>
		<g>
			<g>
				<path fill="none" d="M110.158,12.963c-6.48-2.884-14.042-4.809-21.602-6.73"/>
				<g>
					<path fill="#50392C" d="M110.269,12.716c-1.552-0.376-10.223-2.149-11.627-2.356c-1.273-0.346-9.575-4.307-10.006-4.387
						c-0.414-0.134,9.409,1.295,10.628,1.689C100.558,7.826,110.354,12.588,110.269,12.716z"/>
				</g>
			</g>
		</g>
		<g>
			<g>
				<path fill="none" d="M155.521,24.501c-6.48-2.884-14.043-5.768-20.523-7.691"/>
				<g>
					<path fill="#50392C" d="M155.632,24.252c-1.49-0.311-9.863-2.405-11.178-2.78c-1.196-0.453-8.924-4.846-9.365-4.92
						c-0.393-0.185,9.057,1.775,10.187,2.277C146.466,19.185,155.669,24.203,155.632,24.252z"/>
				</g>
			</g>
		</g>
		<g>
			<g>
				<line fill="none" x1="169.562" y1="28.35" x2="170.645" y2="29.311"/>
				<g>
					<path fill="#50392C" d="M169.383,28.553c0.311-0.205,1.557-0.752,1.662-0.735c0.102,0.016-0.604,1.677-0.584,1.694
						c0.021,0.018-1.188,0.433-1.248,0.379C169.155,29.837,169.383,28.553,169.383,28.553z"/>
				</g>
			</g>
		</g>
		<g>
			<g>
				<path fill="none" d="M169.562,28.35c-6.479-6.732-15.12-11.54-23.761-14.425"/>
				<g>
					<path fill="#50392C" d="M169.758,28.16c-1.506-1.339-10.768-6.996-12.437-7.521c-1.27-0.947-10.752-6.951-11.415-6.966
						c-0.465-0.398,11.315,3.405,12.63,4.484C160.269,18.577,170.05,27.926,169.758,28.16z"/>
				</g>
			</g>
		</g>
		<g>
			<g>
				<path fill="none" d="M189.006,32.194c-6.481-2.883-12.962-6.729-18.361-9.614"/>
				<g>
					<path fill="#50392C" d="M189.114,31.946c-1.407-0.187-9.256-2.745-10.427-3.385c-1.124-0.558-7.562-6.031-7.906-6.216
						c-0.34-0.191,8.109,3.166,9.094,3.715C180.827,26.676,189.064,32.005,189.114,31.946z"/>
				</g>
			</g>
		</g>
		<g>
			<g>
				<path fill="none" d="M193.327,27.386c-2.161-0.961-4.32-2.885-5.401-3.845"/>
				<g>
					<path fill="#50392C" d="M193.438,27.139c-0.502,0.214-3.502-0.16-3.889-0.459c-0.427-0.214-1.382-3.261-1.438-3.337
						c-0.093-0.048,2.794,0.94,3.061,1.098C191.373,24.688,193.351,27.159,193.438,27.139z"/>
				</g>
			</g>
		</g>
		<g>
			<g>
				<path fill="none" d="M220.329,37.963c-12.962-1.922-25.924-10.577-37.804-15.383"/>
				<g>
					<path fill="#50392C" d="M220.368,37.694c-2.849,0.617-18.483-4.041-20.729-5.478c-2.251-1.063-16.146-9.759-16.988-9.88
						c-0.632-0.524,15.968,6.239,17.922,7.259C202.342,31.19,220.051,38.501,220.368,37.694z"/>
				</g>
			</g>
		</g>
		<g>
			<g>
				<path fill="none" d="M186.848,31.234c-4.323-2.884-9.725-5.77-15.124-8.654"/>
				<g>
					<path fill="#50392C" d="M186.997,31.008c-1.177-0.391-7.607-2.819-8.615-3.244c-0.91-0.462-6.221-5.273-6.519-5.419
						c-0.289-0.167,6.916,2.455,7.761,2.945C180.522,25.687,187.049,30.962,186.997,31.008z"/>
				</g>
			</g>
		</g>
		<g>
			<g>
				<path fill="none" d="M180.365,28.35c-5.402-0.964-9.725-3.849-14.04-6.732"/>
				<g>
					<path fill="#50392C" d="M180.415,28.082c-1.046,0.332-7.433-0.624-8.358-1.294c-0.968-0.394-5.393-5.197-5.574-5.393
						c-0.252-0.099,6.057,2.585,6.779,2.896C173.827,24.939,180.254,28.268,180.415,28.082z"/>
				</g>
			</g>
		</g>
		<g>
			<g>
				<path fill="none" d="M210.608,38.926c-7.565-1.923-14.042-5.769-20.524-8.653"/>
				<g>
					<path fill="#50392C" d="M210.676,38.663c-1.513,0.106-10.243-1.826-11.53-2.554c-1.243-0.553-8.542-5.908-8.938-6.081
						c-0.377-0.189,8.887,2.97,9.959,3.504C201.16,34.26,210.559,38.832,210.676,38.663z"/>
				</g>
			</g>
		</g>
		<g>
			<g>
				<path fill="none" d="M225.729,47.579c-4.317-3.846-7.561-6.732-11.88-10.577"/>
				<g>
					<path fill="#50392C" d="M225.909,47.378c-1.031-0.438-6.503-3.656-7.293-4.279c-0.747-0.592-4.357-6.094-4.582-6.292
						c-0.223-0.199,5.683,3.569,6.337,4.15C221.022,41.54,225.909,47.378,225.909,47.378z"/>
				</g>
			</g>
		</g>
		<g>
			<g>
				<path fill="none" d="M238.692,50.463c-8.642-3.847-16.2-8.653-23.763-14.424"/>
				<g>
					<path fill="#50392C" d="M238.801,50.216c-1.854-0.312-12.155-4.344-13.646-5.408c-1.564-0.776-9.715-8.605-10.048-8.974
						c-0.452-0.219,10.011,5.843,11.344,6.517C227.583,43.361,238.685,50.352,238.801,50.216z"/>
				</g>
			</g>
		</g>
		<g>
			<g>
				<path fill="none" d="M245.171,47.579c-5.401-0.962-10.801-3.846-14.042-7.692"/>
				<g>
					<path fill="#50392C" d="M245.217,47.312c-1.087,0.346-7.693-0.664-8.684-1.378c-1.201-0.341-5.249-5.916-5.19-6.217
						c-0.278,0.031,5.604,3.577,6.438,3.735C238.329,44.117,245.054,47.515,245.217,47.312z"/>
				</g>
			</g>
		</g>
		<g>
			<g>
				<path fill="none" d="M260.292,54.308c-3.241,1.924-19.438-13.461-25.922-19.229"/>
				<g>
					<path fill="#50392C" d="M260.153,54.076c-2.257,1.709-13.558-6.363-14.966-7.515c-1.607-1.201-10.164-11.264-10.622-11.672
						c-0.443-0.412,10.846,8.329,12.244,9.418C247.881,45.597,259.758,56.221,260.153,54.076z"/>
				</g>
			</g>
		</g>
		<g>
			<g>
				<path fill="none" d="M247.33,44.695c-9.721-3.849-18.361-9.617-27.001-14.425"/>
				<g>
					<path fill="#50392C" d="M247.43,44.443c-2.043-0.299-13.425-4.545-15.089-5.631c-1.624-0.891-11.356-8.485-11.865-8.769
						c-0.495-0.293,11.612,5.408,13.046,6.257C234.85,37.35,247.304,44.614,247.43,44.443z"/>
				</g>
			</g>
		</g>
		<g>
			<g>
				<path fill="none" d="M199.807,29.311c-8.642-0.961-16.2-6.73-23.763-9.615"/>
				<g>
					<path fill="#50392C" d="M199.837,29.039c-1.761,0.667-11.897-1.779-13.302-2.766c-1.419-0.709-9.783-6.797-10.38-6.829
						c-0.394-0.391,10.271,3.581,11.445,4.268C188.656,24.81,199.582,29.604,199.837,29.039z"/>
				</g>
			</g>
		</g>
		<g>
			<g>
				<path fill="none" d="M170.645,20.657c1.079,0,2.161,0.96,2.161,0.96"/>
				<g>
					<path fill="#50392C" d="M170.645,20.927c-0.011-0.388,1.554-1.315,1.802-1.171c0.325,0.054,0.24,2.081,0.178,2.063
						c0-0.02-1.361,0.378-1.382,0.428C171.25,22.173,170.787,20.952,170.645,20.927z"/>
				</g>
			</g>
		</g>
		<g>
			<g>
				<path fill="none" d="M210.608,22.58c5.397,0,10.798,0.962,15.121,2.884"/>
				<g>
					<path fill="#50392C" d="M210.608,22.851c0.978-0.457,7.238-1.138,8.29-0.891c1.085,0.011,6.579,3.534,6.709,3.749
						c0.249-0.052-6.325-1.017-7.126-1.008C217.755,24.395,210.672,22.726,210.608,22.851z"/>
				</g>
			</g>
		</g>
		<g>
			<g>
				<path fill="none" d="M213.849,20.657c-10.803-2.884-23.765-6.732-33.48-11.54"/>
				<g>
					<path fill="#50392C" d="M213.917,20.394c-2.379-0.191-16.079-2.925-18.233-3.684c-2.161-0.45-14.7-7.402-15.178-7.828
						c-0.637-0.088,13.926,4.731,15.826,5.122C198.096,14.76,213.873,20.483,213.917,20.394z"/>
				</g>
			</g>
		</g>
		<g>
			<g>
				<path fill="none" d="M204.128,25.464c-5.4-0.963-10.802-3.847-16.203-5.769"/>
				<g>
					<path fill="#50392C" d="M204.174,25.196c-1.15,0.256-8.095-0.651-9.109-1.159c-0.976-0.378-6.705-4.489-7.039-4.595
						c-0.307-0.143,7.116,1.593,7.956,1.983C196.777,21.978,204.069,25.355,204.174,25.196z"/>
				</g>
			</g>
		</g>
		<g>
			<g>
				<path fill="none" d="M193.327,24.501c-3.242-0.96-15.124-6.729-21.603-8.652"/>
				<g>
					<path fill="#50392C" d="M193.404,24.241c-1.585-0.039-10.465-2.64-11.825-3.123c-1.25-0.575-9.242-5.506-9.768-5.524
						c-0.391-0.285,9.56,2.296,10.696,2.915C183.712,19.002,193.353,24.445,193.404,24.241z"/>
				</g>
			</g>
		</g>
		<g>
			<g>
				<path fill="none" d="M180.365,19.694c-4.32,0-19.441-6.731-27.003-9.615"/>
				<g>
					<path fill="#50392C" d="M180.365,19.423c-1.924,0.636-13.096-2.281-14.747-2.943c-1.645-0.569-11.614-6.486-12.144-6.648
						c-0.485-0.237,11.518,3.438,12.974,4.001C167.845,14.546,180.222,20.188,180.365,19.423z"/>
				</g>
			</g>
		</g>
		<g>
			<g>
				<path fill="none" d="M146.884,12.963c-10.803-1.923-20.524-5.768-30.245-8.652"/>
				<g>
					<path fill="#50392C" d="M146.93,12.698c-2.119,0.099-14.441-1.781-16.348-2.497c-1.816-0.551-13.269-5.98-13.847-6.144
						c-0.563-0.192,12.841,2.888,14.463,3.438C132.767,8.236,146.849,12.875,146.93,12.698z"/>
				</g>
			</g>
		</g>
		<g>
			<g>
				<path fill="none" d="M137.161,13.924c-9.722-1.922-19.441-4.808-29.163-7.692"/>
				<g>
					<path fill="#50392C" d="M137.213,13.658c-1.999-0.125-13.827-1.63-15.71-2.09c-1.755-0.449-12.877-5.437-13.411-5.592
						c-0.538-0.154,12.353,2.407,13.938,2.863C123.601,9.306,137.197,13.634,137.213,13.658z"/>
				</g>
			</g>
		</g>
		<g>
			<g>
				<path fill="none" d="M118.799,14.888c-10.802-4.809-21.601-7.693-33.483-10.577"/>
				<g>
					<path fill="#50392C" d="M118.909,14.639c-2.296-0.758-15.55-4.313-17.727-4.687c-1.966-0.608-15.106-5.801-15.783-5.9
						c-0.638-0.221,14.468,2.533,16.336,3.184C103.739,7.511,119.018,14.454,118.909,14.639z"/>
				</g>
			</g>
		</g>
		<g>
			<g>
				<path fill="none" d="M83.155,12.002c-8.641-2.884-17.281-3.847-25.922-4.808"/>
				<g>
					<path fill="#50392C" d="M83.239,11.745c-1.818-0.349-12.045-1.538-13.693-1.565c-1.512-0.238-11.75-3.248-12.268-3.252
						c-0.5-0.108,11.057,0.2,12.529,0.497C71.354,7.407,83.332,11.561,83.239,11.745z"/>
				</g>
			</g>
		</g>
		<g>
			<g>
				<path fill="none" d="M65.874,10.079c-8.641-1.923-17.279-3.846-25.922-3.846"/>
				<g>
					<path fill="#50392C" d="M65.934,9.814C64.137,9.73,53.85,8.871,52.236,8.737c-1.465-0.37-11.689-2.91-12.268-2.774
						C39.443,5.788,51.03,5.529,52.493,5.984C53.992,6.111,65.963,9.762,65.934,9.814z"/>
				</g>
			</g>
		</g>
		<g>
			<g>
				<path fill="none" d="M53.992,10.079c-10.799,0-22.681,0-33.481,0"/>
				<g>
					<path fill="#50392C" d="M53.992,9.808c-2.236,0.359-15.339,1.595-17.457,1.654c-2,0.055-15.378-1.654-16.005-1.654
						c-0.628,0,13.926-1.112,15.77-1.112C38.144,8.696,53.992,9.808,53.992,9.808z"/>
				</g>
			</g>
		</g>
		<g>
			<g>
				<path fill="none" d="M42.112,12.963c-11.88,0-24.842-0.962-36.724-0.962"/>
				<g>
					<path fill="#50392C" d="M42.112,12.692c-2.439,0.391-16.875,1.229-19.198,1.143C20.73,13.74,6.12,11.688,5.411,11.731
						c-0.698-0.06,15.325-0.822,17.348-0.668C24.782,11.219,42.1,12.769,42.112,12.692z"/>
				</g>
			</g>
		</g>
		<g>
			<g>
				<path fill="none" d="M8.629,12.002c-4.321,0-8.642,0.962-12.962,2.885"/>
				<g>
					<path fill="#50392C" d="M8.629,11.729c-0.961,0.507-5.892,2.17-6.583,2.479c-0.634,0.28-6.171,0.321-6.482,0.429
						c-0.289,0.096,4.971-2.836,5.754-3.09C2.096,11.22,8.707,11.771,8.629,11.729z"/>
				</g>
			</g>
		</g>
		<g>
			<g>
				<path fill="none" d="M7.548,9.118c-4.32,5.77-11.881,8.654-19.441,9.615"/>
				<g>
					<path fill="#50392C" d="M7.331,8.955c-0.293,1.54-6.682,8.062-8.429,8.289c-1.315,0.922-10.462,1.379-10.818,1.218
						c-0.278,0.25,8.673-2.966,9.572-3.702C-0.917,14.999,7.56,9.462,7.331,8.955z"/>
				</g>
			</g>
		</g>
	</g>
	<g>
		<g>
			<g>
				<path fill="none" d="M258.102,40.259c-2.16-4.807-5.401-8.653-9.723-12.498"/>
				<g>
					<path fill="#50392C" d="M258.349,40.148c-0.72-0.968-4.937-5.488-5.731-6.038c-0.488-0.695-3.726-6.355-4.05-6.546
						c-0.194-0.289,5.596,3.864,6.117,4.712C255.57,32.862,258.557,40.115,258.349,40.148z"/>
				</g>
			</g>
		</g>
		<g>
			<g>
				<path fill="none" d="M248.383,41.222c-5.4-10.577-17.282-18.271-28.084-24.039"/>
				<g>
					<path fill="#50392C" d="M248.621,41.099c-0.905-2.726-11.761-12.374-13.994-13.267c-1.455-1.6-13.43-10.669-14.182-10.878
						c-0.569-0.511,14.182,6.804,15.655,8.527C238.569,26.073,249.575,40.532,248.621,41.099z"/>
				</g>
			</g>
		</g>
		<g>
			<g>
				<path fill="none" d="M236.5,41.222c-5.399-5.768-10.801-11.54-17.279-15.385"/>
				<g>
					<path fill="#50392C" d="M236.7,41.036c-1.294-0.943-8.5-6.563-9.62-7.425c-0.857-1.002-7.154-7.855-7.71-7.999
						c-0.302-0.421,8.616,4.748,9.458,5.86C229.9,32.298,236.761,41.008,236.7,41.036z"/>
				</g>
			</g>
		</g>
		<g>
			<g>
				<path fill="none" d="M255.942,59.493c-7.563-6.733-17.282-12.501-25.923-18.271"/>
				<g>
					<path fill="#50392C" d="M256.124,59.289c-1.802-1.261-12.391-7.672-14.175-8.584c-1.592-0.99-11.26-9.378-11.763-9.698
						c-0.495-0.33,11.645,6.298,13.119,7.279C244.939,49.054,256.287,59.137,256.124,59.289z"/>
				</g>
			</g>
		</g>
		<g>
			<g>
				<path fill="none" d="M234.342,53.721c-6.48-3.846-15.121-13.462-21.604-19.229"/>
				<g>
					<path fill="#50392C" d="M234.481,53.488c-2.013-0.342-11.397-7.101-12.682-8.418c-1.296-1.186-8.382-10.452-8.867-10.77
						c-0.342-0.447,9.525,7.528,10.639,8.633C224.537,44.238,234.141,53.858,234.481,53.488z"/>
				</g>
			</g>
		</g>
		<g>
			<g>
				<path fill="none" d="M224.618,53.721c-15.121-7.691-28.08-20.192-46.443-27.885"/>
				<g>
					<path fill="#50392C" d="M224.74,53.479c-3.589-0.908-21.939-11.881-24.742-13.779c-2.388-2.212-20.435-14.094-21.688-14.101
						c-0.747-0.917,20.734,9.335,22.91,11.588C203.617,39.077,224.389,53.997,224.74,53.479z"/>
				</g>
			</g>
		</g>
		<g>
			<g>
				<path fill="none" d="M227.859,44.105c-12.96-4.809-24.841-17.308-38.881-22.115"/>
				<g>
					<path fill="#50392C" d="M227.954,43.853c-3.174-0.083-18.765-8.698-20.999-10.392c-1.933-1.916-16.655-11.938-17.863-11.715
						c-0.564-0.958,17.445,7.258,19.148,9.246C210.083,32.794,227.477,44.617,227.954,43.853z"/>
				</g>
			</g>
		</g>
		<g>
			<g>
				<path fill="none" d="M228.941,41.222c-8.645-7.693-15.122-17.308-28.083-20.192"/>
				<g>
					<path fill="#50392C" d="M229.123,41.019c-2.044-1.221-12.553-10.223-14.344-11.313c-0.978-2.021-12.74-9.335-13.842-8.936
						c-0.518-0.922,14.354,4.323,15.399,6.642C218.152,28.549,229.012,41.153,229.123,41.019z"/>
				</g>
			</g>
		</g>
		<g>
			<g>
				<path fill="none" d="M228.941,44.105c-10.804-8.649-22.684-18.27-35.646-23.076"/>
				<g>
					<path fill="#50392C" d="M229.11,43.894c-2.396-1.599-16.323-10.822-18.651-12.082c-1.784-1.804-15.985-11.126-17.046-11.028
						c-0.605-0.77,16.68,6.631,18.346,8.573C213.94,30.479,229.197,43.823,229.11,43.894z"/>
				</g>
			</g>
		</g>
		<g>
			<g>
				<path fill="none" d="M220.299,46.031c-6.478-5.77-12.958-11.54-21.604-15.385"/>
				<g>
					<path fill="#50392C" d="M220.478,45.828c-1.542-0.987-10.247-6.772-11.668-7.562c-1.083-1.068-9.362-7.755-9.99-7.863
						c-0.407-0.412,10.382,4.338,11.472,5.527C211.68,36.675,220.558,45.781,220.478,45.828z"/>
				</g>
			</g>
		</g>
		<g>
			<g>
				<path fill="none" d="M213.819,45.067c-7.562-4.808-14.04-10.576-21.603-14.422"/>
				<g>
					<path fill="#50392C" d="M213.964,44.837c-1.656-0.596-10.725-5.47-12.047-6.421c-1.157-0.98-9-7.855-9.565-8.004
						c-0.386-0.384,9.942,4.625,11.021,5.65C204.517,36.967,213.905,44.896,213.964,44.837z"/>
				</g>
			</g>
		</g>
		<g>
			<g>
				<path fill="none" d="M195.457,38.338c1.081,0,5.401,2.884,2.16,1.921c-3.239-2.883-6.479-5.768-9.72-7.69"/>
				<g>
					<path fill="#50392C" d="M195.457,38.609c-0.326,0.188,4.36-0.469,2.648,2.44c-2.72-0.844-3.73-2.038-4.382-2.333
						c-0.683-0.781-5.338-6.12-5.679-6.375c-0.34-0.215,6.761,3.363,7.365,4.178c0.213,0.04,2.313,2.699,3.111,3.1
						C197.299,40.864,195.38,37.86,195.457,38.609z"/>
				</g>
			</g>
		</g>
		<g>
			<g>
				<path fill="none" d="M190.054,38.338c-4.32-2.884-7.563-5.768-10.801-9.616"/>
				<g>
					<path fill="#50392C" d="M190.208,38.112c-1.005-0.16-6.343-2.671-7.061-3.368c-0.812-0.543-3.588-5.98-3.676-6.193
						c-0.204-0.127,4.846,3.65,5.457,4.068C185.375,33.217,190.119,38.157,190.208,38.112z"/>
				</g>
			</g>
		</g>
		<g>
			<g>
				<path fill="none" d="M173.853,29.682c1.082,0.963,5.4,2.886,2.16,1.921c-5.401-3.845-9.722-7.691-15.12-10.575"/>
				<g>
					<path fill="#50392C" d="M173.675,29.886c0.395,0.205,1.198,0.571,2.253,0.965c0.244,0.475,1.73-0.173,1.116,1.379
						c-0.828,0.098-1.636-0.292-2.22-0.675c-2.403-1.317-4.757-2.679-5.361-3.104c-1.023-0.985-7.886-7.502-8.427-7.653
						c-0.344-0.393,9.063,4.341,9.954,5.338c0.525,0.407,2.854,2.499,5.06,4.463c0.651,0.923,0.925-0.271,0.52,1.508l-1.462-1.068
						C174.219,30.417,173.671,29.883,173.675,29.886z"/>
				</g>
			</g>
		</g>
		<g>
			<g>
				<path fill="none" d="M169.535,30.645c5.4,1.923-7.561-5.769-10.803-7.694"/>
				<g>
					<path fill="#50392C" d="M169.444,30.9c0.065-0.058,1.411,0.194,1.149-0.157c-0.587-0.372-1.456-0.728-2.286-1.083
						c-1.682-0.701-3.377-1.366-3.811-1.606c-0.805-0.462-5.349-5.185-5.614-5.331c-0.254-0.165,6.239,2.432,6.984,2.922
						c0.373,0.238,2.022,1.575,3.532,2.947c0.462,0.986,2.128,0.695,1.337,2.787C169.727,31.167,169.512,30.875,169.444,30.9z"/>
				</g>
			</g>
		</g>
		<g>
			<g>
				<path fill="none" d="M192.216,27.761c-3.241-1.923-5.398-3.847-8.644-4.81"/>
				<g>
					<path fill="#50392C" d="M192.359,27.527c-0.745-0.029-4.711-1.101-5.228-1.378c-0.382-0.309-3.143-3.438-3.473-3.455
						c-0.205-0.186,4.389,0.61,4.865,1.068C189.027,24.09,192.345,27.539,192.359,27.527z"/>
				</g>
			</g>
		</g>
		<g>
			<g>
				<path fill="none" d="M203.018,30.645c-12.964-3.847-25.923-9.615-37.806-15.384"/>
				<g>
					<path fill="#50392C" d="M203.092,30.384c-2.724-0.306-18.247-4.606-20.62-5.743c-2.347-0.833-16.484-9.216-17.118-9.615
						c-0.713-0.249,15.837,6.183,17.922,6.95C185.224,23.099,202.997,30.576,203.092,30.384z"/>
				</g>
			</g>
		</g>
		<g>
			<g>
				<path fill="none" d="M179.256,30.645c-8.645-5.769-18.359-11.539-28.083-15.384"/>
				<g>
					<path fill="#50392C" d="M179.406,30.418c-1.964-0.972-13.25-6.495-15.078-7.301c-1.566-1.011-12.367-7.982-13.042-8.103
						c-0.523-0.388,12.684,4.509,14.179,5.577C167.156,21.307,179.487,30.333,179.406,30.418z"/>
				</g>
			</g>
		</g>
		<g>
			<g>
				<path fill="none" d="M165.215,29.682c-5.401-2.884-11.88-5.768-17.283-7.691"/>
				<g>
					<path fill="#50392C" d="M165.341,29.444c-1.29-0.327-8.45-2.434-9.566-2.804c-0.998-0.442-7.357-4.815-7.742-4.898
						c-0.331-0.183,7.783,1.822,8.738,2.317C157.789,24.414,165.388,29.394,165.341,29.444z"/>
				</g>
			</g>
		</g>
		<g>
			<g>
				<path fill="none" d="M163.05,33.529c0,0-7.563-3.847-10.798-4.809"/>
				<g>
					<path fill="#50392C" d="M163.175,33.288c-0.872-0.06-5.559-0.949-6.256-1.18c-0.618-0.278-4.274-3.629-4.585-3.646
						c-0.208-0.165,5.083,0.756,5.66,1.096C158.622,29.811,163.193,33.268,163.175,33.288z"/>
				</g>
			</g>
		</g>
		<g>
			<g>
				<path fill="none" d="M155.491,33.529c-8.639-5.768-19.438-9.615-29.161-13.462"/>
				<g>
					<path fill="#50392C" d="M155.642,33.303c-1.983-1.063-13.593-5.726-15.562-6.239c-1.743-0.714-13.049-7.056-13.633-7.241
						c-0.557-0.254,12.862,3.871,14.515,4.614C142.8,24.816,155.826,33.065,155.642,33.303z"/>
				</g>
			</g>
		</g>
		<g>
			<g>
				<path fill="none" d="M152.252,33.529c-6.479-4.809-14.038-8.653-21.603-11.538"/>
				<g>
					<path fill="#50392C" d="M152.412,33.311c-1.523-0.811-10.242-4.791-11.68-5.283c-1.215-0.702-9.46-6.191-9.974-6.284
						c-0.417-0.278,9.894,2.976,11.09,3.754C143.243,25.924,152.547,33.182,152.412,33.311z"/>
				</g>
			</g>
		</g>
		<g>
			<g>
				<path fill="none" d="M149.012,23.914c-6.48-2.884-14.043-4.808-20.525-6.731"/>
				<g>
					<path fill="#50392C" d="M149.123,23.667c-1.485-0.339-9.779-2.017-11.112-2.254c-1.227-0.318-9.039-4.38-9.433-4.484
						c-0.39-0.122,8.939,1.439,10.099,1.796C139.893,18.931,149.198,23.556,149.123,23.667z"/>
				</g>
			</g>
		</g>
		<g>
			<g>
				<path fill="none" d="M134.971,22.951"/>
				<g>
					<path fill="#50392C" d="M134.971,22.951L134.971,22.951L134.971,22.951z"/>
				</g>
			</g>
		</g>
		<g>
			<g>
				<path fill="none" d="M118.77,20.067c2.16,0.963,3.24,1.924,4.321,2.884c-6.479-0.96-14.045-3.845-20.522-6.73"/>
				<g>
					<path fill="#50392C" d="M118.659,20.315c0.421,0.137,1.4,0.369,2.547,0.959c0.57,0.29,1.195,0.665,1.807,1.087
						c0.182,2.082-1.258,0.467-1.829,0.874c-3.146-0.175-6.195-0.863-7.032-1.081c-1.721-0.236-11.058-5.93-11.457-6.177
						c-0.47-0.114,10.69,3.294,12.111,3.484c0.695,0.215,3.926,1.57,7.132,2.403l1.185,0.354c-1.185,2.356-0.804,0.16-1.271,0.478
						c-0.533-0.517-1.055-0.97-1.533-1.312C119.354,20.7,118.648,20.332,118.659,20.315z"/>
				</g>
			</g>
		</g>
		<g>
			<g>
				<path fill="none" d="M127.41,27.761c-10.8-2.885-20.521-7.694-30.243-11.54"/>
				<g>
					<path fill="#50392C" d="M127.482,27.499c-2.18-0.094-14.637-3.135-16.526-4.038c-1.813-0.723-13.094-7.262-13.671-7.485
						c-0.559-0.245,12.892,4.136,14.511,4.837C113.337,21.716,127.38,27.678,127.482,27.499z"/>
				</g>
			</g>
		</g>
		<g>
			<g>
				<path fill="none" d="M140.373,23.914c-7.563-3.847-16.201-6.731-24.844-10.578"/>
				<g>
					<path fill="#50392C" d="M140.495,23.672c-1.782-0.566-11.896-3.624-13.536-4.118c-1.541-0.5-10.868-6.239-11.304-6.459
						c-0.466-0.167,10.755,3.322,12.162,3.821C129.255,17.34,140.568,23.565,140.495,23.672z"/>
				</g>
			</g>
		</g>
		<g>
			<g>
				<path fill="none" d="M134.971,22.951c-10.801-3.843-21.603-9.615-32.404-13.461"/>
				<g>
					<path fill="#50392C" d="M135.063,22.696c-2.326-0.382-15.526-4.567-17.541-5.511c-1.872-0.912-14.157-7.781-14.844-7.942
						c-0.599-0.332,14.021,4.393,15.738,5.315C120.129,15.481,134.989,22.823,135.063,22.696z"/>
				</g>
			</g>
		</g>
		<g>
			<g>
				<path fill="none" d="M120.928,21.03c-8.639-1.921-19.442-6.73-28.082-9.615"/>
				<g>
					<path fill="#50392C" d="M120.987,20.766c-1.996,0.017-13.53-2.4-15.28-3.15c-1.67-0.621-12.202-6.292-12.756-6.452
						c-0.523-0.221,12.024,3.164,13.523,3.786C107.928,15.734,120.89,20.955,120.987,20.766z"/>
				</g>
			</g>
		</g>
		<g>
			<g>
				<path fill="none" d="M103.648,17.183c-4.321-1.922-9.724-3.847-14.04-5.768"/>
				<g>
					<path fill="#50392C" d="M103.757,16.937c-1.082-0.103-7.019-1.194-7.941-1.474c-0.884-0.257-5.857-4.167-6.09-4.293
						c-0.26-0.087,6.223,1.408,7.012,1.682C97.525,13.128,103.781,16.907,103.757,16.937z"/>
				</g>
			</g>
		</g>
		<g>
			<g>
				<path fill="none" d="M96.086,16.221c-6.479-0.962-12.961-3.847-20.522-5.768"/>
				<g>
					<path fill="#50392C" d="M96.126,15.954c-1.425,0.243-9.938-0.732-11.211-1.229c-1.205-0.406-8.844-4.451-9.273-4.533
						c-0.395-0.147,8.88,1.416,9.971,1.852C86.682,12.605,96.038,16.121,96.126,15.954z"/>
				</g>
			</g>
		</g>
		<g>
			<g>
				<path fill="none" d="M98.248,17.183c-9.721-2.884-18.362-6.73-28.083-8.652"/>
				<g>
					<path fill="#50392C" d="M98.325,16.923c-1.978-0.192-13.313-2.704-15.061-3.277c-1.586-0.665-12.395-5.372-13.029-5.377
						c-0.537-0.266,12.204,1.969,13.713,2.693C85.49,11.534,98.292,16.985,98.325,16.923z"/>
				</g>
			</g>
		</g>
		<g>
			<g>
				<path fill="none" d="M98.248,21.993c-12.958-5.771-24.841-8.655-38.882-12.501"/>
				<g>
					<path fill="#50392C" d="M98.357,21.744c-2.639-0.937-17.998-5.24-20.538-5.685c-2.316-0.665-17.605-6.656-18.359-6.825
						C58.723,9.002,76.16,12.64,78.337,13.33C80.648,13.654,98.478,21.523,98.357,21.744z"/>
				</g>
			</g>
		</g>
		<g>
			<g>
				<path fill="none" d="M66.926,15.261c-4.322-0.961-7.561-1.923-11.883-2.885"/>
				<g>
					<path fill="#50392C" d="M66.983,14.994c-0.865,0.186-5.831,0.25-6.593,0.1c-0.709-0.143-5.04-2.938-5.282-2.981
						c-0.229-0.066,5.226,0.091,5.877,0.279C61.635,12.58,66.971,15.012,66.983,14.994z"/>
				</g>
			</g>
		</g>
		<g>
			<g>
				<path fill="none" d="M68.003,16.221c-5.398,0.962-15.12-2.885-22.682-4.808"/>
				<g>
					<path fill="#50392C" d="M67.956,15.955c-1.376,1.197-10.897,0.385-12.278-0.124c-1.402-0.318-9.81-4.619-10.277-4.675
						c-0.414-0.184,9.669,1.633,10.862,1.967C57.419,13.83,67.843,16.742,67.956,15.955z"/>
				</g>
			</g>
		</g>
		<g>
			<g>
				<path fill="none" d="M58.284,21.03c-8.642-2.886-16.203-5.769-24.844-6.73"/>
				<g>
					<path fill="#50392C" d="M58.369,20.773c-1.744-0.247-11.703-2.247-13.251-2.598c-1.375-0.551-11.041-4.223-11.632-4.144
						c-0.495-0.24,10.856,0.801,12.23,1.444C47.15,15.816,58.392,20.749,58.369,20.773z"/>
				</g>
			</g>
		</g>
		<g>
			<g>
				<path fill="none" d="M43.162,17.183c-9.723-2.884-21.603-4.809-32.404-5.768"/>
				<g>
					<path fill="#50392C" d="M43.239,16.923c-2.234-0.392-15.003-2.021-17.067-2.129c-1.889-0.374-14.709-3.675-15.37-3.648
						c-0.625-0.155,13.786,0.449,15.599,0.885C28.286,12.074,43.316,16.746,43.239,16.923z"/>
				</g>
			</g>
		</g>
		<g>
			<g>
				<path fill="none" d="M25.88,17.183c-8.64,0-17.281,0-27.002,0"/>
				<g>
					<path fill="#50392C" d="M25.88,16.912c-1.803,0.36-12.371,1.595-14.08,1.654c-1.613,0.055-12.402-1.654-12.908-1.654
						c-0.508,0,11.23-1.112,12.717-1.112S25.88,16.912,25.88,16.912z"/>
				</g>
			</g>
		</g>
		<g>
			<g>
				<path fill="none" d="M9.68,17.183c-5.4,0-11.881,0-17.282,1.923"/>
				<g>
					<path fill="#50392C" d="M9.68,16.912c-1.195,0.311-7.958,1.711-8.974,1.947c-0.963-0.057-7.994-0.286-8.39-0.01
						c-0.417-0.045,6.929-2.859,8.012-2.729C1.359,15.892,9.707,16.854,9.68,16.912z"/>
				</g>
			</g>
		</g>
		<g>
			<g>
				<path fill="none" d="M63.684,15.261C52.883,10.453,41,8.531,29.12,8.531"/>
				<g>
					<path fill="#50392C" d="M63.793,15.012c-2.33-0.894-15.793-3.724-18.026-3.666C43.803,10.79,29.898,8.051,29.141,8.26
						c-0.697-0.237,14.867-0.328,16.858,0.328C48.178,8.376,63.98,14.652,63.793,15.012z"/>
				</g>
			</g>
		</g>
		<g>
			<g>
				<path fill="none" d="M71.245,10.453c-7.561-3.847-16.202-5.771-24.841-5.771"/>
				<g>
					<path fill="#50392C" d="M71.366,10.211c-1.721-0.664-11.448-2.856-13.041-2.838c-1.362-0.484-11.313-3.137-11.908-2.961
						c-0.523-0.216,10.857-0.37,12.316,0.228C60.367,4.528,71.542,9.954,71.366,10.211z"/>
				</g>
			</g>
		</g>
		<g>
			<g>
				<path fill="none" d="M92.848,12.376c-8.643-1.921-15.123-4.81-23.763-6.729"/>
				<g>
					<path fill="#50392C" d="M92.905,12.109c-1.672,0.056-11.376-1.427-12.86-1.938c-1.369-0.492-10.375-4.734-10.888-4.786
						C68.702,5.197,79.435,6.947,80.71,7.483C81.977,8.017,92.851,12.212,92.905,12.109z"/>
				</g>
			</g>
		</g>
		<g>
			<g>
				<path fill="none" d="M99.327,16.221c-5.402-3.847-12.961-5.768-19.441-6.731"/>
				<g>
					<path fill="#50392C" d="M99.485,16c-1.376-0.724-9.039-2.966-10.331-3.027c-1.072-0.406-8.744-3.793-9.217-3.75
						c-0.399-0.191,8.751,0.561,9.896,1.071C91.191,10.271,99.705,15.747,99.485,16z"/>
				</g>
			</g>
		</g>
		<g>
			<g>
				<path fill="none" d="M107.967,17.183c2.16-0.962,2.16,0.96,4.322-0.962c-5.401-1.921-11.882-3.847-17.284-4.808"/>
				<g>
					<path fill="#50392C" d="M108.08,17.432c0.29-0.089,1.027-0.663,2.139-0.499c0.525,0.002,0.956-0.248,1.355-0.721l0.308-0.276
						l0.076-0.068c0.334,1.609,0.025,0.435,0.07,0.787l-0.237-0.043l-0.951-0.176c-2.538-0.509-5.063-0.931-5.75-1.1
						c-1.217-0.489-9.537-4.168-10.022-4.187c-0.428-0.181,9.486,0.938,10.661,1.49c0.605,0.17,3.406,1.31,5.994,2.517
						c2.641,3.082-2.043,2.373-2.155,2.251C108.689,17.238,108.09,17.494,108.08,17.432z"/>
				</g>
			</g>
		</g>
		<g>
			<g>
				<path fill="none" d="M115.529,17.183c-9.721-2.884-19.441-5.768-29.163-9.617"/>
				<g>
					<path fill="#50392C" d="M115.605,16.923c-2.053-0.267-13.94-2.548-15.811-3.13C98.01,13.222,87,7.504,86.482,7.319
						c-0.527-0.185,12.397,3.217,13.964,3.771C102.019,11.664,115.608,16.903,115.605,16.923z"/>
				</g>
			</g>
		</g>
		<g>
			<g>
				<path fill="none" d="M105.808,17.183c-6.481-2.884-14.043-4.809-21.603-6.73"/>
				<g>
					<path fill="#50392C" d="M105.918,16.937c-1.552-0.377-10.224-2.15-11.627-2.356c-1.274-0.348-9.574-4.307-10.006-4.387
						c-0.413-0.134,9.411,1.294,10.628,1.688C96.208,12.046,106.003,16.806,105.918,16.937z"/>
				</g>
			</g>
		</g>
		<g>
			<g>
				<path fill="none" d="M151.17,28.722c-6.479-2.884-14.042-5.769-20.521-7.692"/>
				<g>
					<path fill="#50392C" d="M151.282,28.473c-1.489-0.311-9.862-2.407-11.178-2.78c-1.195-0.454-8.924-4.846-9.364-4.92
						c-0.394-0.184,9.056,1.775,10.186,2.278C142.117,23.405,151.32,28.422,151.282,28.473z"/>
				</g>
			</g>
		</g>
		<g>
			<g>
				<line fill="none" x1="165.215" y1="32.57" x2="166.294" y2="33.529"/>
				<g>
					<path fill="#50392C" d="M165.034,32.771c0.311-0.204,1.556-0.752,1.661-0.735c0.102,0.016-0.604,1.677-0.584,1.694
						c0.021,0.017-1.188,0.433-1.248,0.378C164.804,34.057,165.034,32.771,165.034,32.771z"/>
				</g>
			</g>
		</g>
		<g>
			<g>
				<path fill="none" d="M165.215,32.57c-6.482-6.732-15.121-11.54-23.766-14.426"/>
				<g>
					<path fill="#50392C" d="M165.409,32.381c-1.507-1.339-10.767-6.998-12.438-7.521c-1.27-0.947-10.752-6.951-11.419-6.968
						c-0.461-0.398,11.319,3.406,12.635,4.484C155.918,22.797,165.699,32.146,165.409,32.381z"/>
				</g>
			</g>
		</g>
		<g>
			<g>
				<path fill="none" d="M184.656,36.413c-6.481-2.884-12.962-6.731-18.361-9.615"/>
				<g>
					<path fill="#50392C" d="M184.765,36.166c-1.409-0.186-9.258-2.745-10.429-3.384c-1.123-0.559-7.56-6.031-7.906-6.217
						c-0.339-0.191,8.109,3.165,9.095,3.715C176.476,30.897,184.713,36.226,184.765,36.166z"/>
				</g>
			</g>
		</g>
		<g>
			<g>
				<path fill="none" d="M188.975,31.605c-2.16-0.96-4.319-2.884-5.399-3.845"/>
				<g>
					<path fill="#50392C" d="M189.086,31.356c-0.501,0.214-3.501-0.159-3.888-0.458c-0.428-0.213-1.381-3.261-1.438-3.338
						c-0.092-0.048,2.796,0.94,3.062,1.099C187.021,28.909,189,31.379,189.086,31.356z"/>
				</g>
			</g>
		</g>
		<g>
			<g>
				<path fill="none" d="M215.976,42.182c-12.958-1.921-25.922-10.577-37.802-15.383"/>
				<g>
					<path fill="#50392C" d="M216.017,41.915c-2.849,0.617-18.483-4.041-20.728-5.478c-2.252-1.063-16.146-9.759-16.992-9.881
						c-0.629-0.525,15.972,6.239,17.925,7.258C197.991,35.41,215.702,42.721,216.017,41.915z"/>
				</g>
			</g>
		</g>
		<g>
			<g>
				<path fill="none" d="M182.496,35.454c-4.321-2.884-9.722-5.771-15.122-8.655"/>
				<g>
					<path fill="#50392C" d="M182.647,35.228c-1.178-0.392-7.607-2.82-8.615-3.243c-0.913-0.462-6.222-5.273-6.521-5.419
						c-0.289-0.167,6.917,2.455,7.762,2.944C176.172,29.904,182.7,35.183,182.647,35.228z"/>
				</g>
			</g>
		</g>
		<g>
			<g>
				<path fill="none" d="M176.013,32.57c-5.401-0.964-9.722-3.848-14.039-6.732"/>
				<g>
					<path fill="#50392C" d="M176.064,32.302c-1.046,0.333-7.435-0.624-8.358-1.294c-0.967-0.394-5.392-5.196-5.574-5.393
						c-0.252-0.099,6.057,2.585,6.778,2.896C169.477,29.158,175.904,32.489,176.064,32.302z"/>
				</g>
			</g>
		</g>
		<g>
			<g>
				<path fill="none" d="M206.257,43.146c-7.562-1.923-14.037-5.77-20.523-8.654"/>
				<g>
					<path fill="#50392C" d="M206.326,42.883c-1.514,0.106-10.243-1.826-11.53-2.554c-1.242-0.553-8.542-5.907-8.938-6.081
						c-0.376-0.189,8.887,2.969,9.958,3.504C196.809,38.48,206.208,43.051,206.326,42.883z"/>
				</g>
			</g>
		</g>
		<g>
			<g>
				<path fill="none" d="M221.378,51.799c-4.319-3.846-7.56-6.732-11.882-10.577"/>
				<g>
					<path fill="#50392C" d="M221.559,51.596c-1.032-0.438-6.504-3.655-7.294-4.279c-0.747-0.59-4.357-6.093-4.582-6.292
						c-0.222-0.198,5.683,3.569,6.337,4.151C216.671,45.758,221.559,51.596,221.559,51.596z"/>
				</g>
			</g>
		</g>
		<g>
			<g>
				<path fill="none" d="M234.342,54.684c-8.643-3.847-16.2-8.652-23.763-14.425"/>
				<g>
					<path fill="#50392C" d="M234.45,54.437c-1.853-0.313-12.152-4.343-13.645-5.409c-1.564-0.775-9.718-8.605-10.047-8.973
						c-0.452-0.219,10.01,5.843,11.343,6.517C223.232,47.579,234.334,54.572,234.45,54.437z"/>
				</g>
			</g>
		</g>
		<g>
			<g>
				<path fill="none" d="M240.821,51.799c-5.4-0.962-10.802-3.846-14.041-7.693"/>
				<g>
					<path fill="#50392C" d="M240.867,51.532c-1.085,0.346-7.695-0.664-8.684-1.377c-1.201-0.341-5.249-5.917-5.19-6.216
						c-0.277,0.031,5.604,3.577,6.439,3.735C233.978,48.336,240.704,51.733,240.867,51.532z"/>
				</g>
			</g>
		</g>
		<g>
			<g>
				<path fill="none" d="M255.942,58.528c-3.241,1.923-19.441-13.461-25.923-19.229"/>
				<g>
					<path fill="#50392C" d="M255.803,58.296c-2.259,1.709-13.56-6.362-14.967-7.515c-1.607-1.2-10.163-11.263-10.621-11.672
						c-0.444-0.412,10.845,8.33,12.243,9.419C243.531,49.815,255.411,60.441,255.803,58.296z"/>
				</g>
			</g>
		</g>
		<g>
			<g>
				<path fill="none" d="M242.978,48.915c-9.72-3.848-18.36-9.616-27.002-14.424"/>
				<g>
					<path fill="#50392C" d="M243.08,48.663c-2.043-0.299-13.425-4.545-15.091-5.631c-1.623-0.892-11.354-8.486-11.862-8.769
						c-0.496-0.294,11.612,5.408,13.045,6.256C230.5,41.569,242.954,48.832,243.08,48.663z"/>
				</g>
			</g>
		</g>
		<g>
			<g>
				<path fill="none" d="M195.457,33.529c-8.642-0.96-16.2-6.731-23.763-9.615"/>
				<g>
					<path fill="#50392C" d="M195.487,33.26c-1.761,0.667-11.896-1.779-13.302-2.767c-1.418-0.708-9.782-6.796-10.38-6.828
						c-0.394-0.391,10.271,3.581,11.445,4.268C184.307,29.03,195.231,33.824,195.487,33.26z"/>
				</g>
			</g>
		</g>
		<g>
			<g>
				<path fill="none" d="M166.294,24.876c1.079,0,2.161,0.961,2.161,0.961"/>
				<g>
					<path fill="#50392C" d="M166.294,25.148c-0.01-0.388,1.556-1.316,1.802-1.172c0.327,0.055,0.241,2.082,0.18,2.063
						c0-0.019-1.36,0.379-1.385,0.427C166.9,26.394,166.436,25.169,166.294,25.148z"/>
				</g>
			</g>
		</g>
		<g>
			<g>
				<path fill="none" d="M206.257,26.798c5.401,0,10.802,0.963,15.121,2.884"/>
				<g>
					<path fill="#50392C" d="M206.257,27.071c0.98-0.458,7.239-1.139,8.294-0.892c1.084,0.011,6.578,3.535,6.708,3.75
						c0.251-0.053-6.324-1.017-7.122-1.008C213.405,28.616,206.322,26.944,206.257,27.071z"/>
				</g>
			</g>
		</g>
		<g>
			<g>
				<path fill="none" d="M209.497,24.876c-10.801-2.883-23.763-6.732-33.48-11.54"/>
				<g>
					<path fill="#50392C" d="M209.567,24.614c-2.379-0.191-16.078-2.926-18.232-3.686c-2.162-0.45-14.702-7.401-15.179-7.827
						c-0.637-0.088,13.926,4.731,15.824,5.123C193.747,18.979,209.523,24.702,209.567,24.614z"/>
				</g>
			</g>
		</g>
		<g>
			<g>
				<path fill="none" d="M199.779,29.682c-5.401-0.962-10.804-3.846-16.203-5.768"/>
				<g>
					<path fill="#50392C" d="M199.825,29.417c-1.151,0.256-8.096-0.652-9.112-1.159c-0.975-0.379-6.703-4.49-7.037-4.596
						c-0.306-0.143,7.116,1.593,7.957,1.982C192.429,26.199,199.718,29.576,199.825,29.417z"/>
				</g>
			</g>
		</g>
		<g>
			<g>
				<path fill="none" d="M188.975,28.722c-3.241-0.961-15.122-6.729-21.602-8.653"/>
				<g>
					<path fill="#50392C" d="M189.053,28.46c-1.584-0.038-10.465-2.639-11.825-3.122c-1.253-0.575-9.242-5.505-9.767-5.525
						c-0.392-0.284,9.56,2.297,10.696,2.916C179.363,23.221,189.002,28.666,189.053,28.46z"/>
				</g>
			</g>
		</g>
		<g>
			<g>
				<path fill="none" d="M176.013,23.914c-4.319,0-19.438-6.731-27.001-9.615"/>
				<g>
					<path fill="#50392C" d="M176.013,23.643c-1.923,0.637-13.094-2.281-14.746-2.943c-1.645-0.57-11.614-6.485-12.144-6.649
						c-0.485-0.235,11.518,3.438,12.974,4.002C163.495,18.764,175.87,24.407,176.013,23.643z"/>
				</g>
			</g>
		</g>
		<g>
			<g>
				<path fill="none" d="M142.532,17.183c-10.801-1.922-20.524-5.768-30.242-8.652"/>
				<g>
					<path fill="#50392C" d="M142.58,16.916c-2.119,0.099-14.441-1.781-16.348-2.497c-1.815-0.55-13.269-5.98-13.847-6.143
						c-0.563-0.193,12.841,2.887,14.464,3.438C128.416,12.454,142.496,17.094,142.58,16.916z"/>
				</g>
			</g>
		</g>
		<g>
			<g>
				<path fill="none" d="M132.81,18.144c-9.722-1.921-19.441-4.808-29.162-7.69"/>
				<g>
					<path fill="#50392C" d="M132.861,17.878c-1.997-0.125-13.825-1.63-15.705-2.09c-1.759-0.448-12.882-5.436-13.414-5.591
						c-0.537-0.154,12.353,2.406,13.939,2.863C119.25,13.526,132.847,17.854,132.861,17.878z"/>
				</g>
			</g>
		</g>
		<g>
			<g>
				<path fill="none" d="M114.449,19.108c-10.801-4.809-21.601-7.693-33.483-10.577"/>
				<g>
					<path fill="#50392C" d="M114.559,18.859c-2.295-0.759-15.551-4.313-17.727-4.687c-1.968-0.608-15.108-5.802-15.783-5.901
						c-0.638-0.221,14.467,2.534,16.337,3.185C99.387,11.731,114.668,18.674,114.559,18.859z"/>
				</g>
			</g>
		</g>
		<g>
			<g>
				<path fill="none" d="M78.805,16.221c-8.64-2.885-17.281-3.847-25.922-4.808"/>
				<g>
					<path fill="#50392C" d="M78.889,15.963c-1.818-0.349-12.045-1.538-13.693-1.565c-1.512-0.238-11.75-3.249-12.268-3.252
						c-0.501-0.108,11.056,0.2,12.528,0.497C67.004,11.627,78.982,15.781,78.889,15.963z"/>
				</g>
			</g>
		</g>
		<g>
			<g>
				<path fill="none" d="M61.524,14.299c-8.641-1.923-17.28-3.846-25.922-3.846"/>
				<g>
					<path fill="#50392C" d="M61.583,14.035c-1.797-0.085-12.084-0.943-13.698-1.077c-1.465-0.37-11.689-2.91-12.268-2.775
						c-0.525-0.176,11.061-0.435,12.525,0.021C49.642,10.329,61.613,13.981,61.583,14.035z"/>
				</g>
			</g>
		</g>
		<g>
			<g>
				<path fill="none" d="M49.642,14.299c-10.799,0-22.682,0-33.481,0"/>
				<g>
					<path fill="#50392C" d="M49.642,14.028c-2.236,0.36-15.339,1.595-17.457,1.654c-2,0.056-15.378-1.654-16.005-1.654
						c-0.627,0,13.926-1.112,15.77-1.112C33.793,12.917,49.642,14.028,49.642,14.028z"/>
				</g>
			</g>
		</g>
		<g>
			<g>
				<path fill="none" d="M37.762,17.183c-11.88,0-24.841-0.962-36.724-0.962"/>
				<g>
					<path fill="#50392C" d="M37.762,16.912c-2.44,0.391-16.875,1.228-19.199,1.144c-2.184-0.096-16.794-2.147-17.502-2.104
						c-0.699-0.06,15.325-0.822,17.348-0.67C20.431,15.437,37.749,16.988,37.762,16.912z"/>
				</g>
			</g>
		</g>
		<g>
			<g>
				<path fill="none" d="M4.278,16.221c-4.321,0-8.642,0.962-12.962,2.886"/>
				<g>
					<path fill="#50392C" d="M4.278,15.95c-0.961,0.507-5.892,2.17-6.583,2.477c-0.635,0.28-6.171,0.321-6.482,0.429
						c-0.288,0.098,4.971-2.837,5.755-3.089C-2.254,15.441,4.358,15.992,4.278,15.95z"/>
				</g>
			</g>
		</g>
		<g>
			<g>
				<path fill="none" d="M3.198,13.336c-4.32,5.771-11.882,8.655-19.441,9.615"/>
				<g>
					<path fill="#50392C" d="M2.98,13.175c-0.293,1.539-6.682,8.063-8.428,8.29c-1.315,0.922-10.462,1.379-10.819,1.218
						c-0.278,0.25,8.673-2.965,9.572-3.703C-5.267,19.22,3.209,13.683,2.98,13.175z"/>
				</g>
			</g>
		</g>
	</g>
</g>
</svg>
