<svg xmlns="http://www.w3.org/2000/svg" viewBox="0 0 22.95 7.16"><defs><style>.cls-1{fill:#fff;}</style></defs><title>w4</title><g id="圖層_2" data-name="圖層 2"><g id="圖層_1-2" data-name="圖層 1"><path class="cls-1" d="M2.6,6.65C3.83,5.24,5.34,3.52,7.3,3.19c2.77-.46,2.48,1.64,4.53,2.08,1.11.24,1.93-.43,2.82-.95C17,3,18.36,3.46,20.3,5.41a1.56,1.56,0,0,0,2.2-2.2C20.69,1.39,19.86.11,17,.3A7.66,7.66,0,0,0,14.09,1c-.41.2-.88.8-1.3.85-1,.14.38.26-1-.47C10,.36,8.68-.37,6.48.2A12.31,12.31,0,0,0,.4,4.46C-.91,6,1.28,8.16,2.6,6.65Z"/></g></g></svg>