<svg xmlns="http://www.w3.org/2000/svg" viewBox="0 0 19.06 6.58"><defs><style>.cls-1{fill:#fff;}</style></defs><title>w6</title><g id="圖層_2" data-name="圖層 2"><g id="圖層_1-2" data-name="圖層 1"><path class="cls-1" d="M1.66,4.42c2.32-.59,4.09-3.14,5.67,0a1.35,1.35,0,0,0,1.83.48,7.17,7.17,0,0,1,4.28-1.24c1.65.2,2.23,1.53,3.31,2.54C18,7.38,19.9,5.5,18.64,4.32c-1.51-1.41-2.25-2.9-4.48-3.24A9.66,9.66,0,0,0,7.81,2.61l1.83.48C8.88,1.57,8.23.27,6.39,0,4.13-.25,3,1.33,1,1.84a1.34,1.34,0,0,0,.71,2.58Z"/></g></g></svg>