<?xml version="1.0" encoding="utf-8"?>
<!-- Generator: Adobe Illustrator 23.0.3, SVG Export Plug-In . SVG Version: 6.00 Build 0)  -->
<svg version="1.1" id="圖層_1" xmlns="http://www.w3.org/2000/svg" xmlns:xlink="http://www.w3.org/1999/xlink" x="0px" y="0px"
	 viewBox="0 0 728 140" style="enable-background:new 0 0 728 140;" xml:space="preserve">
<style type="text/css">
	.st0{fill:none;stroke:#000000;stroke-width:4;stroke-linecap:round;}
</style>
<g>
	<g>
		<path class="st0" d="M10.3,56.3c20.7-36.9,73.1-36.8,93.4,0"/>
		<polygon points="57.2,121.6 67,129.5 57.3,10 47.5,129.5 		"/>
		<g>
			<path d="M68.7,82.1l3.6,31.9c15.3,0.4,26.4-13.5,26.6-31.9C99,82.1,68.7,82.1,68.7,82.1z"/>
			<path d="M68,75.9h30.7c0,0,0,0,0,0c-0.1-1-0.3-1.9-0.4-2.9H67.7L68,75.9z"/>
			<path d="M98.8,77.5H68.2l0.3,2.9H99C99,79.5,98.9,78.5,98.8,77.5z"/>
			<path d="M98,71.3c-4-19.4-18.6-34.7-34.4-35.1l3.9,35.1L98,71.3z"/>
		</g>
		<g>
			<path d="M15.9,75.9h30.7l0.3-2.9H16.4C16.2,73.9,16,74.9,15.9,75.9z"/>
			<path d="M47.1,71.3l3.9-35c-15.8,0.4-30.4,15.7-34.4,35H47.1z"/>
			<path d="M15.6,82.1c0.3,18.5,11.3,32.3,26.7,32l3.6-32C45.9,82.1,15.6,82.1,15.6,82.1z"/>
			<path d="M46.4,77.5H15.8c-0.1,1-0.1,2-0.2,2.9h30.4L46.4,77.5z"/>
		</g>
	</g>
	<g>
		<g>
			<path d="M123.6,69.5c-0.2,0.3-0.3,0.6-0.4,0.8c-1.3,2.8-3.2,5.4-5.7,7.9l-3.6-2.4l1.3-1.3c2-2.1,3.6-4.3,4.7-6.8L123.6,69.5z
				 M133.5,36.9v29.8h-17.3V36.9H133.5z M129.4,40.6h-9.2v4.6h9.2V40.6z M120.2,53.8h9.2v-5h-9.2C120.2,48.8,120.2,53.8,120.2,53.8z
				 M120.2,62.9h9.2v-5.4h-9.2C120.2,57.5,120.2,62.9,120.2,62.9z M131.1,78.1c-1.2-3.1-2.8-5.9-4.9-8.6l3.6-2
				c2.2,2.7,3.9,5.6,5.3,8.5L131.1,78.1z M148.6,54.8c-2.9,5.1-6.8,9.9-11.9,14.5l-2.9-4c3.4-2.8,6.2-5.4,8.2-8s4.1-5.6,6.3-9.4
				h-12.9v-4h13.2v-8.7h4.4V44h4v4h-4v24.3v0.6c0,1.7-0.3,2.9-1,3.7c-0.7,0.8-2.1,1.1-4.3,1.1h-5.8l-1-4.3l6.2,0.2
				c1,0,1.5-0.5,1.5-1.5L148.6,54.8L148.6,54.8z"/>
			<path d="M161.8,36.4h40.6v41.9h-4v-1.9h-32.6v1.9h-4L161.8,36.4L161.8,36.4z M193,57.3l1.5,1.6l1.9,2.2l-3,1.9l-1.3-1.6h-0.8v2.2
				h5.7v2.9h-5.7v1.2v0.5c0,1.2-0.3,2-0.8,2.6c-0.5,0.5-1.6,0.8-3.3,0.8h-5.1l-0.9-3l4.8,0.2c1.1,0,1.6-0.5,1.6-1.4v-0.9h-20v-2.9
				h20v-1.9l-8.7,0.3l-10.3,0.2l-0.7-3.3l6,0.1l6-0.1v-1.6h-11V46.2h11v-1.5h-12.4v-3h12.4v-1.8h-14v33.1h32.6V39.8h-14.9v1.8h13.4
				v3h-13.5v1.5h11.7v11.1L193,57.3L193,57.3z M175.5,71.8l-1.5-2c-0.4-0.6-0.9-1.1-1.4-1.6l-0.3-0.3l3.1-1.4l1.5,1.4
				c0.4,0.4,0.9,1,1.4,1.6c0.1,0.1,0.2,0.2,0.3,0.4L175.5,71.8z M172.4,48.8v1.9h7.4v-1.9H172.4z M172.4,52.7v2h7.4v-2H172.4z
				 M183.4,48.8v1.9h8v-1.9H183.4z M183.4,52.7v2h8v-2H183.4z M183.4,57.3V59l3.9,0l2.9-0.1l-1.2-1.5
				C189,57.3,183.4,57.3,183.4,57.3z"/>
			<path d="M215.5,57.2l-4.1-2.9c-0.5-0.3-1.4-0.9-2.6-1.6c-0.3-0.2-0.8-0.5-1.4-0.8l2.8-3.6l4,2.1c1.1,0.6,2.4,1.5,4.2,2.7
				L215.5,57.2z M219.7,62.8c-0.5,1.2-1,2.1-1.3,2.8c-2.4,5.2-4.8,9.3-7.2,12.3l-3.6-3.8c2.4-3,4.8-7,7.1-11.8
				c0.3-0.7,0.7-1.6,1.3-2.6L219.7,62.8z M217.7,44.8l-4.1-2.9c-1.1-0.7-2.4-1.6-4.1-2.5l2.7-3.7l4.1,2.2c0.7,0.3,1.7,1,3.3,2
				c0.2,0.2,0.5,0.4,0.9,0.6L217.7,44.8z M219.5,58v-4.2h12.1v-8.1H222v-4.1h9.6v-6.4h4.5v6.4h12.1v4.1h-12.1v8.1h13.8V58h-14.3
				c-1.9,5-4,9.4-6.3,13.1c0.9-0.1,1.7-0.2,2.2-0.2c4.5-0.4,8-0.8,10.5-1.4l-1.9-3.4l-2.3-3.9l3.9-1.6c2.5,3.4,5.2,7.9,8,13.7
				c0.2,0.4,0.4,0.9,0.7,1.5L246,78l-1-2.2c-0.4-0.9-0.7-1.7-1.1-2.3c-6.4,1.2-14.4,2.1-24,2.7l-1.1-4.9l3,0l1.9-0.1
				c2.8-4.4,5.2-8.8,7-13.2C230.7,58,219.5,58,219.5,58z"/>
			<path d="M277.9,35.3v5.2c0,2.3,0.8,5.8,2.3,10.4s3.4,8.6,5.8,11.8c1.9,2.6,4.1,5.1,6.8,7.6c2.7,2.4,4.1,3.7,4.4,3.7l-3.2,4.2
				c-0.5,0-2.4-1.7-5.7-5c-3.4-3.3-5.9-6.5-7.6-9.7c-1.7-3.1-3.3-6.8-4.6-11.1c-1.4,5.1-3,9.2-4.7,12.2c-1.7,3-4.3,6-7.8,9.1
				c-3.5,3-5.6,4.5-6.2,4.5l-3.1-4.2c0.4,0,1.9-1,4.5-3c2.6-2,4.8-4.3,6.7-6.9c2.3-3.1,4.2-6.7,5.5-10.9c1.3-4.1,2-8.2,2-12.1v-5.9
				C272.8,35.3,277.9,35.3,277.9,35.3z"/>
			<path d="M325.8,51.1l0.3,2.7c0.1,1.2,0.3,2.2,0.5,2.8h17v4.2h-15.9l0.8,2.2c1.2,3,2.7,5.4,4.4,7.3s3.1,2.9,4.1,2.9
				c0.7,0,1.2-0.5,1.5-1.5s0.7-3,1.2-5.9L344,68c-0.5,3.2-1.2,5.7-2.2,7.4c-0.9,1.7-2.2,2.6-3.8,2.6c-2.5,0-5-1.3-7.5-3.8
				c-2.5-2.5-4.6-6-6.2-10.3l-1.2-3.2h-13.7V72l6.4-1.6c2.9-0.7,5.3-1.4,7.2-2v4.3c-5.9,2.2-12.8,4-20.7,5.6l-1.5-4.7l2.6-0.4
				l1.6-0.3V37.3h36v13.8C341.1,51.1,325.8,51.1,325.8,51.1z M336.6,41.4h-27v5.7h27V41.4z M309.6,51.1v5.4h12.7
				c-0.3-1.2-0.5-2.2-0.5-2.8l-0.3-2.7H309.6z"/>
			<path d="M367.1,54h-13.6v24.3h-4.3V36.7h17.9V54z M362.8,40.4h-9.4v3.1h9.4V40.4z M353.5,50.3h9.4v-3.5h-9.4V50.3z M359.4,56.8
				h19.2v17.8h-19.2V56.8z M374.5,60.3h-10.9v3.3h10.9V60.3z M374.5,67h-10.9v3.9h10.9V67z M383.2,73.4c1.1,0,1.6-0.5,1.6-1.5V54
				h-14V36.7h18.3v35.5v0.6c0,1.7-0.3,2.9-0.9,3.6c-0.6,0.8-1.8,1.1-3.5,1.1h-4.4l-1.1-4.4L383.2,73.4z M375,43.5h9.8v-3.1H375V43.5
				z M384.8,46.9H375v3.5h9.8V46.9z"/>
			<path d="M435.8,37.3v35.2v0.6c0,1.7-0.3,2.9-1,3.7c-0.7,0.7-2.1,1.1-4.3,1.1H423l-1-4.5l7.5,0.2c0.7,0,1.1-0.1,1.3-0.3
				c0.2-0.2,0.3-0.6,0.3-1.3V41.6h-35.8v-4.3H435.8z M427.2,45.9v4.2h-30.4v-4.2H427.2z M398.7,54.4h25.4v15.2h-25.4V54.4z
				 M419.6,58.4h-16.5v7.2h16.5V58.4z"/>
			<path d="M449.4,57.2l-4.1-2.9c-0.5-0.3-1.4-0.9-2.6-1.6c-0.3-0.2-0.8-0.5-1.4-0.8l2.8-3.6l4,2.1c1.1,0.6,2.4,1.5,4.2,2.7
				L449.4,57.2z M453.5,62.8c-0.5,1.2-1,2.1-1.3,2.8c-2.4,5.2-4.8,9.3-7.2,12.3l-3.6-3.8c2.4-3,4.8-7,7.1-11.8
				c0.3-0.7,0.7-1.6,1.3-2.6L453.5,62.8z M451.5,44.8l-4.1-2.9c-1.1-0.7-2.4-1.6-4.1-2.5l2.7-3.7l4.1,2.2c0.7,0.3,1.7,1,3.3,2
				c0.2,0.2,0.5,0.4,0.9,0.6L451.5,44.8z M453.4,58v-4.2h12.1v-8.1h-9.6v-4.1h9.6v-6.4h4.5v6.4h12.1v4.1H470v8.1h13.8V58h-14.3
				c-1.9,5-4,9.4-6.3,13.1c0.9-0.1,1.7-0.2,2.2-0.2c4.5-0.4,8-0.8,10.5-1.4l-1.9-3.4l-2.3-3.9l3.9-1.6c2.5,3.4,5.2,7.9,8,13.7
				c0.2,0.4,0.4,0.9,0.7,1.5l-4.5,2.2l-1-2.2c-0.4-0.9-0.7-1.7-1.1-2.3c-6.4,1.2-14.4,2.1-24,2.7l-1.1-4.9l3,0l1.9-0.1
				c2.8-4.4,5.2-8.8,7-13.2C464.5,58,453.4,58,453.4,58z"/>
			<path d="M512.3,35.2l4.4,0.6l-0.7,3.5l-0.7,2.8h15.7v4.4h-3.6c-0.5,7.8-2.4,14.5-5.8,20.1c1.3,1.7,2.6,3,3.6,3.9s3,2.2,5.8,3.8
				l-2.7,4c-3.4-2-6.6-4.7-9.5-8c-2.8,3-5.9,5.4-9.2,7.2l-1.9,1l-2.9-4c5.1-2.3,8.8-4.8,11.3-7.5c-2.2-3.2-4.1-7.6-5.7-13.2
				l-0.9,1.4l-1.3,1.8l-2.9-4v3.1h-10.1v14.3l4.7-2.2c2-1,4.3-2.3,6.9-3.9v4.9c-4.8,2.9-9.6,5.4-14.5,7.4c-0.8,0.3-1.8,0.7-3.1,1.3
				l-1-4.7l1.6-0.6l1.3-0.6V51.9h10.1V41.7H489v-4.1h16.3v15C508.5,48.7,510.9,42.9,512.3,35.2z M513.7,46.4l-0.2,0.5l-0.2,0.6
				c1.3,7.2,3,12.4,5.2,15.6c1.1-1.8,1.9-3.8,2.6-6c0.7-2.2,1.3-5.8,1.8-10.7L513.7,46.4L513.7,46.4z"/>
			<path d="M558.7,71.5v6.8h-4.6v-6.8h-19.3v-4h19.3v-3.3h-14.5V51.8h14.5V49h-9.5v-6.5h-8.9v-3.9h8.9v-3.4h4.5v3.4h14.4v-3.4h4.5
				v3.4h9v3.9h-9V49h-9.4v2.8h14.6v12.4h-14.6v3.3h19.2v4H558.7z M554.1,55.6H544v4.8h10.1V55.6z M563.5,42.5h-14.4v3h14.4V42.5z
				 M568.9,55.6h-10.2v4.8h10.2V55.6z"/>
			<path d="M590.7,66.6c-0.2,0.1-0.3,0.2-0.4,0.2c-2.5,1.6-4.6,2.7-6.2,3.3l-2.4-4.1c4.6-1.4,8.3-3.4,11.1-6h-11.2v-3.8h7.7V42.1
				h-6.8v-3.8h6.8v-3.1h4.4v3.1h18.9v-3.1h4.4v3.1h7.1v3.8H617v14.2h7.7v3.8h-11.2c3.4,2.7,7.2,4.6,11.3,5.6l-2,4.2
				c-1.9-0.7-4.2-1.7-6.8-3.2v3h-10.5v3.6h17.1V77h-38.5v-3.7H601v-3.6h-10.3L590.7,66.6L590.7,66.6z M601,65.9v-4h4.4v4h9.2
				c-2.3-1.6-4.6-3.6-6.6-5.8h-9.9c-1.5,1.8-3.2,3.5-5.2,5c-0.3,0.2-0.7,0.5-1.2,0.9H601z M593.6,56.3h18.9v-2.7h-18.9V56.3z
				 M593.7,44.5h18.9v-2.4h-18.9V44.5z M593.7,50.3h18.9v-2.6h-18.9V50.3z"/>
			<path d="M638.8,72.8c-1.4-4.1-2.6-6.8-3.6-8.3l4.3-1.6c1.3,2.6,2.4,5.2,3.3,8l0.7,2h4.1v-12h-16.9v-4.1h16.9v-5.2h-10.3v-2.1
				l-3,1.6l-3.5,1.7l-2.5-4.2c8.8-3.7,15.2-8.1,19.2-13.1h4.1c5.4,5.1,12.1,9.4,19.9,12.9l-2.7,4.1l-3.1-1.5c-1.6-0.8-2.6-1.4-3-1.7
				v2.4h-10.4v5.2h16.9v4.1h-16.9v12h4.1c1.5-3.3,2.9-6.7,4.1-10.2l4.3,1.7c-0.2,0.4-0.3,0.8-0.4,1.1c-1,2.8-2,5.3-3.1,7.3h9v4.1
				h-40.5v-4.1L638.8,72.8L638.8,72.8z M649.8,39.5c-3.1,3.3-6.2,5.9-9.3,7.9H660C656.6,45.2,653.2,42.6,649.8,39.5z"/>
			<path d="M677,48.8l-1.9-4.1c8.4-3.2,14.8-6.3,19.2-9.4h4.5c5.6,3.4,12.1,6.4,19.3,9l-1.7,4.2l-1.4-0.6v12.2h-36.3V48.1L677,48.8z
				 M679.7,47.7h34.5l-4.5-2l-4.5-2.2v2.2h-16.5v-2.3C686.3,44.7,683.3,46.2,679.7,47.7z M680.7,62.4H713v15.9h-4.3v-1.5h-23.6v1.5
				h-4.4L680.7,62.4L680.7,62.4z M694.6,50.9h-11.8V57h11.8V50.9z M685.1,68.1h23.6v-2.6h-23.6V68.1z M685.1,73.6h23.6v-2.8h-23.6
				V73.6z M688.5,56.9l-1.4-2.4c-0.6-1-1-1.7-1.4-2.2l2.7-1.5c0.6,0.6,1.2,1.3,1.7,2.1l1.5,2.2L688.5,56.9z M696.8,38.6
				c-1.8,1.3-3.6,2.4-5.4,3.2c-0.3,0.1-0.7,0.3-1.1,0.6h13.1C701,41.2,698.8,40,696.8,38.6z M711,50.9h-12.3V57H711V50.9z
				 M701.9,54.9c0.2-0.2,0.7-0.8,1.5-1.9l1.5-2.2l3,1.5l-1.5,2.5c-0.6,0.9-1,1.6-1.3,2L701.9,54.9z"/>
		</g>
		<g>
			<path d="M130.7,108.2c-0.3,0.9-0.7,1.7-1.4,2.4c-0.6,0.7-1.5,1.3-2.5,1.7s-2.3,0.6-3.9,0.6c-2.6,0-4.6-0.7-6-2
				c-1.4-1.4-2.1-3.4-2.1-6v-1.7h3.7v1.2c0,0.8,0.1,1.5,0.2,2.2c0.1,0.7,0.4,1.3,0.7,1.7s0.8,0.9,1.4,1.1c0.6,0.3,1.3,0.4,2.2,0.4
				c1.7,0,2.8-0.5,3.5-1.4c0.6-0.9,0.9-2.1,0.9-3.6V84.7h3.7v20.8C131.1,106.4,131,107.3,130.7,108.2z"/>
			<path d="M156.4,110.3c-1.9,1.8-4.6,2.7-8.1,2.7c-3.6,0-6.3-0.8-8.3-2.5c-2-1.7-3-4.4-3-8.1V84.7h3.7v17.7c0,2.5,0.7,4.4,2,5.6
				c1.3,1.3,3.2,1.9,5.7,1.9c2.3,0,4.1-0.6,5.4-1.9c1.2-1.3,1.8-3.2,1.8-5.6V84.7h3.7v17.7C159.2,105.9,158.2,108.5,156.4,110.3z"/>
			<path d="M174.5,84.7c4.3,0,7.5,1.1,9.8,3.3s3.4,5.5,3.4,9.9c0,2.3-0.3,4.4-0.8,6.2c-0.5,1.8-1.3,3.3-2.4,4.5s-2.5,2.2-4.1,2.8
				c-1.7,0.6-3.7,1-6,1H165V84.7H174.5z M174.8,109.2c0.4,0,0.9,0,1.5-0.1s1.3-0.2,2-0.5c0.7-0.2,1.4-0.6,2.1-1.1
				c0.7-0.5,1.3-1.1,1.8-1.9s1-1.8,1.3-3s0.5-2.7,0.5-4.4c0-1.7-0.2-3.1-0.5-4.4c-0.3-1.3-0.9-2.4-1.6-3.3s-1.7-1.6-2.8-2.1
				s-2.6-0.7-4.3-0.7h-6.2v21.5C168.7,109.2,174.8,109.2,174.8,109.2z"/>
			<path d="M196.1,84.7v27.7h-3.7V84.7H196.1z"/>
			<path d="M219,88.6c-1.4-1-3.1-1.5-5-1.5c-1.7,0-3.1,0.3-4.2,0.9c-1.2,0.6-2.1,1.5-2.9,2.5c-0.8,1-1.3,2.2-1.7,3.6
				c-0.4,1.3-0.5,2.7-0.5,4.2c0,1.6,0.2,3.1,0.5,4.5s0.9,2.6,1.7,3.7s1.7,1.9,2.9,2.5s2.6,0.9,4.3,0.9c1.2,0,2.3-0.2,3.2-0.6
				c0.9-0.4,1.8-1,2.4-1.7s1.2-1.6,1.6-2.5s0.6-2,0.7-3.2h3.7c-0.4,3.5-1.6,6.2-3.6,8.1s-4.8,2.9-8.4,2.9c-2.1,0-4-0.4-5.6-1.1
				c-1.6-0.7-2.9-1.7-4-3c-1.1-1.3-1.9-2.8-2.4-4.6s-0.8-3.6-0.8-5.7s0.3-3.9,0.9-5.7s1.4-3.3,2.5-4.6c1.1-1.3,2.5-2.4,4.1-3.1
				s3.5-1.1,5.6-1.1c1.4,0,2.8,0.2,4.1,0.6s2.4,1,3.4,1.7s1.8,1.7,2.5,2.8c0.7,1.1,1.1,2.4,1.3,3.9h-3.7
				C221.4,91,220.5,89.5,219,88.6z"/>
			<path d="M234.1,84.7v27.7h-3.7V84.7H234.1z"/>
			<path d="M251.9,84.7l10.8,27.7h-4.1l-3-8.3h-11.7l-3.1,8.3h-3.8l10.8-27.7C247.8,84.7,251.9,84.7,251.9,84.7z M254.4,100.9
				L249.8,88h-0.1l-4.7,12.9H254.4z"/>
			<path d="M269.1,84.7v24.6h14.6v3.1h-18.3V84.7H269.1z"/>
			<path d="M310.7,84.7c2.6,0,4.7,0.6,6.2,1.9s2.2,3.1,2.2,5.3c0,1.7-0.4,3.2-1.1,4.4c-0.8,1.3-2,2.1-3.7,2.6V99
				c0.8,0.2,1.5,0.4,2,0.8c0.5,0.4,0.9,0.8,1.2,1.3c0.3,0.5,0.5,1.1,0.7,1.7c0.1,0.6,0.3,1.3,0.3,1.9c0.1,0.7,0.1,1.4,0.1,2.1
				c0,0.7,0.1,1.4,0.2,2.1c0.1,0.7,0.3,1.3,0.4,1.9c0.2,0.6,0.5,1.1,0.9,1.6H316c-0.3-0.3-0.4-0.7-0.5-1.2c-0.1-0.5-0.1-1-0.2-1.6
				c0-0.6-0.1-1.3-0.1-2s-0.1-1.4-0.2-2.1c-0.1-0.7-0.2-1.3-0.4-1.9c-0.2-0.6-0.4-1.1-0.7-1.6c-0.3-0.5-0.8-0.8-1.3-1.1
				s-1.3-0.4-2.2-0.4h-9v11.8h-3.7V84.7H310.7z M311.5,97.2c0.8-0.1,1.5-0.4,2-0.8c0.6-0.4,1-0.9,1.4-1.5c0.3-0.6,0.5-1.5,0.5-2.5
				c0-1.4-0.4-2.5-1.2-3.4s-2-1.3-3.8-1.3h-9.1v9.7h7.7C309.9,97.4,310.7,97.3,311.5,97.2z"/>
			<path d="M343.3,84.7v3.1h-15.4v8.8h14.4v3.1h-14.4v9.6h15.5v3.1h-19.2V84.7H343.3z"/>
			<path d="M366,84.7v3.1h-14.5v8.8h12.7v3.1h-12.7v12.7h-3.7V84.7H366z"/>
			<path d="M369.4,93c0.6-1.7,1.4-3.3,2.5-4.6c1.1-1.3,2.5-2.4,4.1-3.2s3.6-1.2,5.8-1.2s4.1,0.4,5.8,1.2s3,1.9,4.1,3.2
				c1.1,1.3,1.9,2.9,2.5,4.6c0.6,1.7,0.8,3.6,0.8,5.4s-0.3,3.7-0.8,5.4c-0.6,1.7-1.4,3.3-2.5,4.6c-1.1,1.3-2.5,2.4-4.1,3.2
				c-1.7,0.8-3.6,1.2-5.8,1.2s-4.1-0.4-5.8-1.2c-1.7-0.8-3-1.9-4.1-3.2c-1.1-1.3-1.9-2.9-2.5-4.6c-0.6-1.7-0.8-3.6-0.8-5.4
				S368.8,94.8,369.4,93z M372.8,102.6c0.4,1.4,0.9,2.6,1.7,3.7c0.8,1.1,1.8,2,3,2.6c1.2,0.7,2.7,1,4.3,1s3.1-0.3,4.3-1
				c1.2-0.7,2.2-1.5,3-2.6c0.8-1.1,1.3-2.3,1.7-3.7c0.4-1.4,0.5-2.7,0.5-4.1c0-1.4-0.2-2.8-0.5-4.1s-0.9-2.6-1.7-3.7
				c-0.8-1.1-1.8-2-3-2.6s-2.7-1-4.3-1s-3.1,0.3-4.3,1s-2.2,1.5-3,2.6s-1.3,2.3-1.7,3.7s-0.5,2.7-0.5,4.1
				C372.2,99.9,372.4,101.3,372.8,102.6z"/>
			<path d="M412.5,84.7c2.6,0,4.7,0.6,6.2,1.9s2.2,3.1,2.2,5.3c0,1.7-0.4,3.2-1.1,4.4c-0.8,1.3-2,2.1-3.7,2.6V99
				c0.8,0.2,1.5,0.4,2,0.8c0.5,0.4,0.9,0.8,1.2,1.3c0.3,0.5,0.5,1.1,0.7,1.7c0.1,0.6,0.3,1.3,0.3,1.9c0.1,0.7,0.1,1.4,0.1,2.1
				c0,0.7,0.1,1.4,0.2,2.1c0.1,0.7,0.3,1.3,0.4,1.9c0.2,0.6,0.5,1.1,0.9,1.6h-4.1c-0.3-0.3-0.4-0.7-0.5-1.2c-0.1-0.5-0.1-1-0.2-1.6
				c0-0.6-0.1-1.3-0.1-2s-0.1-1.4-0.2-2.1c-0.1-0.7-0.2-1.3-0.4-1.9c-0.2-0.6-0.4-1.1-0.7-1.6c-0.3-0.5-0.8-0.8-1.3-1.1
				s-1.3-0.4-2.2-0.4h-9v11.8h-3.7V84.7H412.5z M413.3,97.2c0.8-0.1,1.5-0.4,2-0.8c0.6-0.4,1-0.9,1.4-1.5c0.3-0.6,0.5-1.5,0.5-2.5
				c0-1.4-0.4-2.5-1.2-3.4s-2-1.3-3.8-1.3h-9.1v9.7h7.7C411.7,97.4,412.5,97.3,413.3,97.2z"/>
			<path d="M431.1,84.7l8.7,23.2l8.8-23.2h5v27.7h-3.5v-23H450l-8.6,23h-3.1l-8.6-23h-0.1v23h-3.5V84.7H431.1z"/>
			<path d="M488.6,84.7v3.1h-14.5v8.8h12.7v3.1h-12.7v12.7h-3.7V84.7H488.6z"/>
			<path d="M492,93c0.6-1.7,1.4-3.3,2.5-4.6c1.1-1.3,2.5-2.4,4.1-3.2c1.7-0.8,3.6-1.2,5.8-1.2s4.1,0.4,5.8,1.2
				c1.7,0.8,3,1.9,4.1,3.2c1.1,1.3,1.9,2.9,2.5,4.6c0.6,1.7,0.8,3.6,0.8,5.4s-0.3,3.7-0.8,5.4c-0.6,1.7-1.4,3.3-2.5,4.6
				s-2.5,2.4-4.1,3.2c-1.7,0.8-3.6,1.2-5.8,1.2s-4.1-0.4-5.8-1.2c-1.7-0.8-3-1.9-4.1-3.2s-1.9-2.9-2.5-4.6c-0.6-1.7-0.8-3.6-0.8-5.4
				S491.4,94.8,492,93z M495.4,102.6c0.4,1.4,0.9,2.6,1.7,3.7c0.8,1.1,1.8,2,3,2.6c1.2,0.7,2.7,1,4.3,1s3.1-0.3,4.3-1
				c1.2-0.7,2.2-1.5,3-2.6c0.8-1.1,1.3-2.3,1.7-3.7c0.4-1.4,0.5-2.7,0.5-4.1c0-1.4-0.2-2.8-0.5-4.1s-0.9-2.6-1.7-3.7
				c-0.8-1.1-1.8-2-3-2.6s-2.7-1-4.3-1s-3.1,0.3-4.3,1s-2.2,1.5-3,2.6s-1.3,2.3-1.7,3.7s-0.5,2.7-0.5,4.1
				C494.9,99.9,495,101.3,495.4,102.6z"/>
			<path d="M541.4,110.3c-1.9,1.8-4.6,2.7-8.1,2.7c-3.6,0-6.3-0.8-8.3-2.5c-2-1.7-3-4.4-3-8.1V84.7h3.7v17.7c0,2.5,0.7,4.4,2,5.6
				c1.3,1.3,3.2,1.9,5.7,1.9c2.3,0,4.1-0.6,5.4-1.9c1.2-1.3,1.8-3.2,1.8-5.6V84.7h3.7v17.7C544.2,105.9,543.3,108.5,541.4,110.3z"/>
			<path d="M554,84.7l14.6,22.4h0.1V84.7h3.5v27.7h-4l-14.5-22.2h-0.1v22.2H550V84.7H554z"/>
			<path d="M587.5,84.7c4.3,0,7.5,1.1,9.8,3.3s3.4,5.5,3.4,9.9c0,2.3-0.3,4.4-0.8,6.2c-0.5,1.8-1.3,3.3-2.4,4.5
				c-1.1,1.2-2.5,2.2-4.1,2.8c-1.7,0.6-3.7,1-6,1H578V84.7H587.5z M587.8,109.2c0.4,0,0.9,0,1.5-0.1s1.3-0.2,2-0.5
				c0.7-0.2,1.4-0.6,2.1-1.1s1.3-1.1,1.8-1.9c0.5-0.8,1-1.8,1.3-3s0.5-2.7,0.5-4.4c0-1.7-0.2-3.1-0.5-4.4s-0.9-2.4-1.6-3.3
				s-1.7-1.6-2.8-2.1c-1.2-0.5-2.6-0.7-4.3-0.7h-6.2v21.5C581.7,109.2,587.8,109.2,587.8,109.2z"/>
			<path d="M616.9,84.7l10.8,27.7h-4.1l-3-8.3h-11.7l-3.1,8.3H602l10.8-27.7C612.8,84.7,616.9,84.7,616.9,84.7z M619.4,100.9
				L614.8,88h-0.1l-4.7,12.9H619.4z"/>
			<path d="M627.4,87.7v-3.1h22.1v3.1h-9.2v24.6h-3.7V87.7H627.4z"/>
			<path d="M656.4,84.7v27.7h-3.7V84.7H656.4z"/>
			<path d="M661.9,93c0.6-1.7,1.4-3.3,2.5-4.6c1.1-1.3,2.5-2.4,4.1-3.2c1.7-0.8,3.6-1.2,5.8-1.2s4.1,0.4,5.8,1.2
				c1.7,0.8,3,1.9,4.1,3.2c1.1,1.3,1.9,2.9,2.5,4.6c0.6,1.7,0.8,3.6,0.8,5.4s-0.3,3.7-0.8,5.4c-0.6,1.7-1.4,3.3-2.5,4.6
				s-2.5,2.4-4.1,3.2c-1.7,0.8-3.6,1.2-5.8,1.2s-4.1-0.4-5.8-1.2c-1.7-0.8-3-1.9-4.1-3.2s-1.9-2.9-2.5-4.6c-0.6-1.7-0.8-3.6-0.8-5.4
				S661.4,94.8,661.9,93z M665.3,102.6c0.4,1.4,0.9,2.6,1.7,3.7c0.8,1.1,1.8,2,3,2.6c1.2,0.7,2.7,1,4.3,1s3.1-0.3,4.3-1
				c1.2-0.7,2.2-1.5,3-2.6c0.8-1.1,1.3-2.3,1.7-3.7c0.4-1.4,0.5-2.7,0.5-4.1c0-1.4-0.2-2.8-0.5-4.1s-0.9-2.6-1.7-3.7
				c-0.8-1.1-1.8-2-3-2.6s-2.7-1-4.3-1s-3.1,0.3-4.3,1s-2.2,1.5-3,2.6s-1.3,2.3-1.7,3.7s-0.5,2.7-0.5,4.1
				C664.8,99.9,664.9,101.3,665.3,102.6z"/>
			<path d="M695.9,84.7l14.6,22.4h0.1V84.7h3.5v27.7h-4l-14.5-22.2h-0.1v22.2H692V84.7H695.9z"/>
		</g>
	</g>
</g>
</svg>
