<?xml version="1.0" encoding="utf-8"?>
<!-- Generator: Adobe Illustrator 23.0.3, SVG Export Plug-In . SVG Version: 6.00 Build 0)  -->
<svg version="1.1" id="圖層_1" xmlns="http://www.w3.org/2000/svg" xmlns:xlink="http://www.w3.org/1999/xlink" x="0px" y="0px"
	 viewBox="0 0 53 208.3" style="enable-background:new 0 0 53 208.3;" xml:space="preserve">
<style type="text/css">
	.st0{opacity:0.5;}
	.st1{fill:none;stroke:#000000;stroke-width:1.04;stroke-miterlimit:10;}
	.st2{fill:#B8193F;}
	.st3{fill:none;stroke:#B8193F;stroke-width:1.04;stroke-miterlimit:10;}
</style>
<g>
	<g id="圖層_1-2_1_">
		<path d="M42.5,5.1c0,0,1.7,1.7,2.7,2.8c-0.1,0.3-0.4,0.5-0.7,0.5H30.3l-0.2-0.9H41L42.5,5.1z M50.4,3.5c-0.2,0.3-0.6,0.6-1,0.6
			v19.8c0,2.4-0.5,3.8-4,4.2c-0.1-1.1-0.3-2-0.8-2.5s-1.2-1-2.7-1.3v-0.4c0,0,3.5,0.3,4.1,0.3c0.5,0,0.6-0.2,0.6-0.7v-20H31
			l-0.2-0.8h15.6l1.3-1.9L50.4,3.5z M42.3,22c0,0.2-1.3,0.9-2.2,0.9h-0.5v-2.4h-5V23c0,0.3-1.1,1.1-2.2,1.1H32V10.8l2.7,1.4h4.6
			l1.2-1.7l2.6,2.5c-0.2,0.3-0.6,0.5-0.9,0.6L42.3,22z M39.7,19.7V13h-5v6.7H39.7z"/>
		<path d="M38.9,49.9c0.6,0.2,0.9,0.8,0.9,1.4c0,1.4-1,2.2-4.5,2.2h-2.2c-2.2,0-2.7-0.6-2.7-3V39l2.9,1.4H36v-6.6h-5.7l-0.2-0.9h5.7
			l1.2-1.6l2.5,2.4c-0.2,0.3-0.5,0.5-0.9,0.6v7.6c0,0.3-1.3,1-2.2,1H36v-1.6h-3v8.3c0,0.4,0.1,0.6,0.7,0.6H37c0.3,0,0.5-0.2,0.6-0.4
			c0.4-1.2,0.7-2.4,1-3.7h0.3L38.9,49.9z M49.3,37.5c-0.5,4.7-1.5,8.8-3.5,12.2c1.5,1.9,3.6,3.4,5.9,4.4l-0.1,0.3
			c-1.3,0.4-2,1.4-2.3,3.1c-2.2-1.4-3.9-3.4-5-5.7c-2,2.5-4.8,4.4-8.6,5.7l-0.1-0.3c3.3-1.8,6-4.5,7.7-7.8c-0.9-2.9-1.5-5.8-1.8-8.8
			c-0.8,1.5-1.9,3-3.1,4.2l-0.3-0.3c1.6-3.5,3.1-9,3.7-14.4l3.8,1.1c-0.1,0.4-0.5,0.7-0.9,0.7c-0.4,1.7-0.9,3.3-1.5,4.9h4.2l1.4-2.3
			c0,0,1.6,1.6,2.6,2.7c-0.1,0.3-0.3,0.5-0.6,0.5L49.3,37.5z M43,37.5c-0.3,0.8-0.7,1.6-1,2.3c0.4,2.6,1.2,5.2,2.4,7.5
			c1.2-2.9,1.8-6.2,2-9.8H43z"/>
		<path d="M42.6,86.7c-0.1,0.3-0.4,0.5-1.1,0.6c2.2,1.8,6.7,3,10,3.2V91c-1,0.4-1.7,1.8-1.8,3c-3.6-1.1-6.9-3.5-8.5-6.4
			c-2.1,2.8-7.1,5.7-11.6,7l-0.1-0.4c3.3-1.6,6.8-4.5,8.5-7h-5.2l-0.2-0.9h2.8l1.1-1.6c0,0,1.1,1,1.8,1.8c0.2-0.3,0.4-0.7,0.5-1.1
			l0.3,0.1v-4.6h-6c0.2,2-0.3,3.5-1.1,4c-0.5,0.4-1.3,0.4-1.8-0.2c-0.1-0.2-0.2-0.4-0.3-0.6c-0.2-0.9,0.1-1.8,0.9-2.3
			c0.7-0.5,1.5-1.9,1.4-3.4h0.3c0.2,0.6,0.3,1.1,0.4,1.6H39v-2.4h-6.7l-0.2-0.8h13.6l1.3-2c0,0,1.5,1.4,2.5,2.4
			c-0.1,0.3-0.3,0.5-0.6,0.5h-7.1v2.4h6.1l1.3-1.7l2.3,2.8c-0.2,0.3-0.6,0.4-0.9,0.4c-0.8,1.1-1.8,2.1-2.8,3l-0.2-0.2l0.1-0.6
			C47.6,84,47.4,84,47.2,84h-4.6l-0.2-0.8h2.4l1-1.5c0,0,1.1,1,1.9,1.8c0.1-0.9,0.3-1.8,0.3-2.6h-6.3v4c0,0.1-0.8,0.6-2.2,0.6h-0.3
			L42.6,86.7l-0.1-0.5h2.9l1.1-1.6c0,0,1.2,1.1,2.1,2c-0.1,0.3-0.3,0.5-0.6,0.5h-5.3L42.6,86.7z M45.9,92.7l2.6,2.4
			c-0.2,0.3-0.6,0.6-1,0.6v2.4c0,1.9-0.4,3.1-3.3,3.4c-0.1-0.9-0.2-1.6-0.6-2s-0.9-0.8-2.1-1v-0.4c0,0,2.4,0.2,3,0.2
			c0.4,0,0.5-0.2,0.5-0.5v-2.7h-4.5v6.7c0,0.1-0.8,0.6-2.2,0.6h-0.5V95H33l-0.2-0.8h11.9L45.9,92.7z M36.7,81.8c0,0,1.1,1.1,1.8,1.8
			c0,0.3-0.3,0.5-0.6,0.5h-4.4l-0.2-0.8h2.4L36.7,81.8z M42.1,89.8c0,0,1.3,1.2,2.1,2.1c-0.1,0.3-0.3,0.5-0.6,0.5h-6.8l-0.2-0.8h4.3
			L42.1,89.8z"/>
		<path d="M38.2,117.7c0,0,1.2,1.5,1.9,2.5c0,0.3-0.3,0.5-0.6,0.5l0,0h-3v5.8c1.1-0.3,2.2-0.5,3.3-0.8v0.4c-2.8,1.8-5.8,3.4-8.8,4.8
			c-0.1,0.3-0.3,0.6-0.6,0.7l-1-3.7c0.4-0.1,0.9-0.1,1.4-0.2v-10.5l2.5,0.3c0,0.3-0.3,0.5-0.6,0.6v9.3l1.3-0.3v-12.6h-0.9v0.7
			c0,0.2-0.7,0.9-1.9,0.9h-0.4v-10.8l2.6,1.3h2.9l1.1-1.6l2.4,2.3c-0.2,0.3-0.5,0.5-0.9,0.6v7c0,0.2-1.2,0.7-2,0.7h-0.4v-1.1l0,0
			v5.4h0.6L38.2,117.7z M33.2,113.5h3.3v-6.2h-3.3V113.5z M49.1,126.2c0,0,1.7,1.8,2.6,3c-0.1,0.3-0.3,0.5-0.6,0.5h-8.2v1.2
			c0,0.2-0.8,1.1-2.2,1.1h-0.4v-26.4l3,1.4h4.2l1.4-2.3c0,0,1.6,1.6,2.5,2.7c0,0.3-0.3,0.5-0.6,0.5h-7.7v5.7h4.1l1.2-1.7l2.6,2.5
			c-0.2,0.3-0.6,0.5-0.9,0.6v7.8c0,0.2-1.3,0.9-2.2,0.9h-0.6v-1.6H43v6.8h4.7L49.1,126.2z M43,114.3v6.9h4.3v-6.8L43,114.3z"/>
		<path d="M39.2,134.9c0,0,1.5,1.5,2.4,2.5c-0.1,0.3-0.3,0.5-0.6,0.5H29.8l-0.2-0.9h4.5v-3.3l3.3,0.4c0,0.4-0.2,0.6-0.8,0.8v2.2h1.2
			L39.2,134.9z M39.2,147.6l2.2,2.1c-0.2,0.2-0.5,0.4-0.8,0.5v7.4c0,2-0.3,3.1-2.7,3.4c0-0.7-0.1-1.4-0.4-2
			c-0.4-0.5-0.9-0.8-1.5-0.9v-0.4c0,0,1.6,0.1,2,0.1s0.4-0.1,0.4-0.5v-2c-0.3,0.6-1,0.8-1.6,0.1c0-0.5,0-1-0.1-1.6
			c-0.7,0.5-1.7,1.1-2.9,1.8c-0.1,0.3-0.3,0.5-0.6,0.6l-0.9-2.8v7c0,0.2-0.6,0.8-1.7,0.8h-0.3v-13.4l2.4,1.2h1.4
			c0.1-0.9,0.1-1.8,0.1-2.6h-1.5v0.7c0,0.2-0.9,0.7-1.6,0.7h-0.4v-9.1l2.6,0.3c0,0.3-0.3,0.6-0.6,0.6v6h5.6v-5.8
			c-0.2,0.3-0.5,0.4-0.8,0.3c-0.2,0.4-0.5,0.8-0.7,1.2c1.6,1.6,0.8,3.7-0.5,2.9c-0.2-0.5-0.4-0.9-0.7-1.4c-0.7,0.8-1.6,1.5-2.5,2.1
			l-0.3-0.4c0.7-0.9,1.3-1.9,1.8-3c-0.5-0.6-1-1.1-1.6-1.6l0.3-0.1c0.7,0.1,1.3,0.3,1.9,0.5c0.3-0.6,0.5-1.3,0.7-2.1l2.4,1.4v-1.1
			l2.6,0.3c0,0.3-0.3,0.6-0.6,0.6v7.1c0,0.2-0.9,0.7-1.6,0.7h-0.4v-1h-1.7c-0.2,0.9-0.4,1.7-0.7,2.6h2.4L39.2,147.6z M32.4,153.1
			c0.3,0,0.9,0,1.5-0.1c0.1-0.9,0.2-2.1,0.2-3.2h-1.7V153.1z M36.2,150.6c1,0.6,1.8,1.4,2.3,2.5v-3.3h-2.8c-0.3,1.1-0.6,2.2-1,3.2
			l1.9-0.1c-0.2-0.7-0.4-1.4-0.7-2.1L36.2,150.6z M49.7,156.4c0,0,1.2,1.4,2,2.4c0,0.3-0.3,0.5-0.6,0.5l0,0h-6.8v1
			c0,0.2-0.7,0.9-1.9,0.9H42V144c-0.4,0.6-0.8,1.2-1.3,1.8l-0.3-0.2c1.3-3.8,2.2-7.8,2.6-11.8l3.3,1c-0.1,0.4-0.5,0.7-0.9,0.6
			c-0.4,1.4-0.8,2.9-1.3,4.2l0.6,0.3H46c0.5-2,0.9-3.9,1.1-5.9l3,1.1c-0.1,0.4-0.4,0.7-0.8,0.6c-0.8,1.5-1.7,2.9-2.8,4.3h1.8
			l1.1-1.8c0,0,1.2,1.3,2,2.2c-0.1,0.3-0.3,0.5-0.6,0.5h-2.7v4.9h0.3l0.9-1.8c0,0,1.1,1.3,1.8,2.2c0,0.3-0.3,0.5-0.6,0.5h-2.4v5.1
			h0.4l1-1.8c0,0,1.1,1.3,1.8,2.2c0,0.3-0.3,0.5-0.6,0.5h-2.5v5.9h0.4L49.7,156.4z M44.3,140.8v4.9h1.6v-4.9H44.3z M46,146.5h-1.7
			v5.1h1.6v-5.1H46z M44.3,158.4h1.6v-5.9h-1.6V158.4z"/>
		<path d="M20.1,61.7c0,0,1.8,1.7,2.9,2.9c0,0.3-0.3,0.5-0.6,0.5H11.1C10.5,66.4,9.8,67.8,9,69l0.5,0.3h7l1.3-1.9l2.8,2.7
			c-0.3,0.4-0.6,0.6-1.1,0.7v12c0,2.3-0.4,3.7-3.6,4.1c-0.1-1.1-0.2-2-0.6-2.5c-0.4-0.5-0.9-0.9-2.1-1.2v-0.4c0,0,2.4,0.2,3,0.2
			c0.4,0,0.5-0.2,0.5-0.6v-3.1H9.3v6.5c0,0.2-0.9,1-2.2,1H6.5V72.3c-1.4,1.7-3.1,3.1-5,4.3l-0.2-0.3c3-2.9,5.3-7.1,6.8-11.2H1.9
			l-0.2-0.9h6.6c0.6-1.6,1-3.3,1.3-5l3.7,1.4c-0.1,0.4-0.3,0.6-0.9,0.6c-0.3,1-0.7,2-1.1,3h7L20.1,61.7z M9.3,70.1v3.7h7.5v-3.7H9.3
			z M16.8,78.3v-3.8H9.3v3.8H16.8z"/>
		<path d="M7.3,105.7c0,0.3-1.2,0.9-2.2,0.9H4.6v-8.3c-0.8,1.2-1.8,2.3-2.9,3.2l-0.3-0.2c1.6-3.1,3.4-8,4.4-12.8l3.7,1.7
			c-0.1,0.4-0.5,0.7-0.9,0.6c-0.5,1.3-1.1,2.6-1.7,3.8L8,95.1c-0.1,0.3-0.4,0.5-0.7,0.5V105.7z M5.4,106.8c1,3.8-0.1,6.3-1.4,7.2
			c-0.6,0.5-1.5,0.4-2-0.2c-0.1-0.2-0.2-0.4-0.3-0.6c-0.2-0.9,0.2-1.9,1-2.3c1.4-0.9,2.3-2.4,2.4-4.1H5.4z M17.5,112.1
			c0.7,0.4,0.9,0.7,0.9,1.3c0,1.4-1.1,2-5.3,2h-2.8c-2.5,0-3-0.5-3-2.8v-6.4l3.3,0.4c0,0.4-0.3,0.7-0.7,0.7v4.6
			c0,0.4,0.1,0.5,0.9,0.5h2.5c0.9,0,1.7,0,2.1,0c0.3,0,0.5-0.1,0.7-0.4c0.4-1,0.8-2,1-3.1h0.3L17.5,112.1z M8.2,98.7
			c1.2-2.5,2.3-6.3,2.9-10.1l3.7,1.5c-0.1,0.4-0.5,0.6-0.9,0.6c-0.2,0.6-0.4,1.1-0.6,1.6h6.2l1.4-1.8l2.4,3
			c-0.2,0.2-0.6,0.4-0.9,0.4c-1,1.1-2.1,2-3.3,2.8l-0.2-0.2c0.3-0.9,0.5-2.3,0.7-3.4h-6.8c-1,2.2-2.5,4.2-4.4,5.8L8.2,98.7z
			 M17.1,102.1c0,2.3-0.4,3.6-3.2,4c-0.1-1.1-0.1-1.8-0.4-2.4c-0.4-0.6-1-1-1.7-1.1v-0.4c0,0,1.9,0.2,2.3,0.2c0.3,0,0.4-0.1,0.4-0.4
			v-4.4c-0.2,0.1-0.4,0.2-0.7,0.2c-1.2,2.8-2.9,4.7-4.8,5.8l-0.3-0.3c1.1-1.7,2.1-4.6,2.6-7.6l3.2,1.4v-3.7l3.4,0.4
			c0,0.4-0.4,0.7-0.8,0.7C17.1,94.5,17.1,102.1,17.1,102.1z M10.6,105.1c6.5,0.8,4.6,6.9,2.2,4.9c-0.4-1.7-1.2-3.4-2.4-4.7
			L10.6,105.1z M17.2,106.9c8,1.7,6,9.2,3.2,6.8c-0.5-2.5-1.7-4.7-3.4-6.6L17.2,106.9z M17.7,96.1c7.1,2.9,4.8,9.5,2.3,7
			c-0.3-2.3-1.5-4.9-2.6-6.8L17.7,96.1z"/>
		<path d="M13.5,134.5c-0.2,1.9-0.8,3.8-1.7,5.4c3.1,1.5,7.1,1.9,11.2,1.9v0.4c-1.1,0.5-1.8,1.6-2,3.2c-4.2-0.6-7.8-1.6-10.4-4
			c-1.8,1.8-4.5,3.2-8.8,4L1.7,145c3.7-1.5,6-3.2,7.4-5.3c-0.9-1.1-1.5-2.4-2-3.8l0.3-0.3c0.6,1.1,1.5,2.1,2.5,2.9
			c0.6-1.3,1-2.7,1.1-4.2H7.2v0.8c0,0.3-1.2,1.1-2.3,1.1H4.6v-13.1l2.8,1.4h3.5v-3.3H2.2L2,120.3h16.1l1.6-2.5c0,0,1.8,1.7,2.9,2.9
			c-0.1,0.3-0.3,0.5-0.6,0.5h-8.3v3.3h3.6l1.2-1.7l2.6,2.5c-0.2,0.3-0.5,0.6-0.9,0.7v9.2c0,0.2-1.4,0.9-2.3,0.9h-0.5v-1.7
			L13.5,134.5z M7.2,125.5v3.6h3.7v-3.6C10.9,125.5,7.2,125.5,7.2,125.5z M10.8,133.7c0-0.7,0.1-1.5,0.1-2.3V130H7.2v3.7H10.8z
			 M17.4,133.7V130h-3.8v1.3c0,0.8,0,1.6-0.1,2.4H17.4z M13.6,125.5v3.6h3.8v-3.6C17.4,125.5,13.6,125.5,13.6,125.5z"/>
		<path d="M20.1,149.5c0,0,1.8,1.7,2.9,2.9c0,0.3-0.3,0.5-0.6,0.5H11.1c-0.6,1.3-1.3,2.6-2.1,3.9l0.5,0.3h7l1.3-1.9l2.8,2.7
			c-0.3,0.4-0.6,0.6-1.1,0.7v12c0,2.3-0.4,3.7-3.6,4.1c-0.1-1.1-0.2-2-0.6-2.5c-0.4-0.5-0.9-0.9-2.1-1.2v-0.4c0,0,2.4,0.2,3,0.2
			c0.4,0,0.5-0.2,0.5-0.6v-3.1H9.3v6.5c0,0.2-0.9,1-2.2,1H6.5v-14.4c-1.4,1.7-3.1,3.1-5,4.3l-0.2-0.3c3-2.9,5.2-7.1,6.7-11.2H1.9
			l-0.2-0.9h6.6c0.6-1.6,1-3.3,1.3-5l3.7,1.4c-0.1,0.4-0.3,0.6-0.9,0.6c-0.3,1-0.7,2-1.1,3h7L20.1,149.5z M9.3,157.9v3.7h7.5v-3.7
			H9.3z M16.8,166.2v-3.8H9.3v3.8H16.8z"/>
		<path d="M21.9,185c-0.3,0.3-0.6,0.5-1,0.6c-0.2,9.5-0.7,15.1-2.1,16.7c-0.9,1.1-1.9,1.5-3.7,1.5c0-1.1-0.1-2-0.6-2.5
			s-1.6-1.1-3-1.4v-0.4c1.4,0.1,3.5,0.3,4.1,0.3c0.4,0,0.7-0.1,0.9-0.4c0.9-0.9,1.3-6.5,1.5-14.4h-5.6c-0.5,7.8-2.2,14.5-10.7,19
			l-0.2-0.4c6.3-5.2,7.7-11.5,8.1-18.6H2.8l-0.2-0.8h7.1c0.1-2.4,0.1-4.9,0.1-7.5l3.8,0.4c0,0.5-0.3,0.7-0.8,0.8
			c0,2.1,0,4.2-0.2,6.3H18l1.5-1.9L21.9,185z"/>
		<circle cx="40.6" cy="66.5" r="1.9"/>
		<g class="st0">
			<line class="st1" x1="13.2" y1="3.3" x2="13.2" y2="53.5"/>
			<line class="st1" x1="9.6" y1="3.1" x2="16.8" y2="3.1"/>
			<line class="st1" x1="9.6" y1="53.5" x2="16.8" y2="53.5"/>
		</g>
		<g class="st0">
			<line class="st1" x1="40.2" y1="167.9" x2="40.2" y2="203.5"/>
			<line class="st1" x1="36.2" y1="167.7" x2="44.3" y2="167.7"/>
			<line class="st1" x1="36.2" y1="203.5" x2="44.3" y2="203.5"/>
		</g>
	</g>
</g>
<title>slogen</title>
<g>
	<g id="圖層_1-2_9_">
		<path class="st2" d="M42.2,4.3c0,0,1.7,1.7,2.7,2.8c-0.1,0.3-0.4,0.5-0.7,0.5H30l-0.2-0.9h10.9L42.2,4.3z M50.1,2.7
			c-0.2,0.3-0.6,0.6-1,0.6v19.8c0,2.4-0.5,3.8-4,4.2c-0.1-1.1-0.3-2-0.8-2.5s-1.2-1-2.7-1.3v-0.4c0,0,3.5,0.3,4.1,0.3
			c0.5,0,0.6-0.2,0.6-0.7v-20H30.7l-0.2-0.8h15.6L47.4,0L50.1,2.7z M42,21.2c0,0.2-1.3,0.9-2.2,0.9h-0.5v-2.4h-5v2.5
			c0,0.3-1.1,1.1-2.2,1.1h-0.4V10l2.7,1.4H39l1.2-1.7l2.6,2.5c-0.2,0.3-0.6,0.5-0.9,0.6L42,21.2z M39.4,18.9v-6.7h-5v6.7H39.4z"/>
		<path class="st2" d="M38.6,49.1c0.6,0.2,0.9,0.8,0.9,1.4c0,1.4-1,2.2-4.5,2.2h-2.2c-2.2,0-2.7-0.6-2.7-3V38.2l2.9,1.4h2.7V33H30
			l-0.2-0.9h5.7l1.2-1.6l2.5,2.4c-0.2,0.3-0.5,0.5-0.9,0.6v7.6c0,0.3-1.3,1-2.2,1h-0.4v-1.6h-3v8.3c0,0.4,0.1,0.6,0.7,0.6h3.3
			c0.3,0,0.5-0.2,0.6-0.4c0.4-1.2,0.7-2.4,1-3.7h0.3L38.6,49.1z M49,36.7c-0.5,4.7-1.5,8.8-3.5,12.2c1.5,1.9,3.6,3.4,5.9,4.4
			l-0.1,0.3C50,54,49.3,55,49,56.7c-2.2-1.4-3.9-3.4-5-5.7c-2,2.5-4.8,4.4-8.6,5.7l-0.1-0.3c3.3-1.8,6-4.5,7.7-7.8
			c-0.9-2.9-1.5-5.8-1.8-8.8c-0.8,1.5-1.9,3-3.1,4.2l-0.3-0.3c1.6-3.5,3.1-9,3.7-14.4l3.8,1.1c-0.1,0.4-0.5,0.7-0.9,0.7
			c-0.4,1.7-0.9,3.3-1.5,4.9h4.2l1.4-2.3c0,0,1.6,1.6,2.6,2.7c-0.1,0.3-0.3,0.5-0.6,0.5L49,36.7z M42.7,36.7c-0.3,0.8-0.7,1.6-1,2.3
			c0.4,2.6,1.2,5.2,2.4,7.5c1.2-2.9,1.8-6.2,2-9.8H42.7z"/>
		<path class="st2" d="M42.3,85.9c-0.1,0.3-0.4,0.5-1.1,0.6c2.2,1.8,6.7,3,10,3.2v0.5c-1,0.4-1.7,1.8-1.8,3
			c-3.6-1.1-6.9-3.5-8.5-6.4c-2.1,2.8-7.1,5.7-11.6,7l-0.1-0.4c3.3-1.6,6.8-4.5,8.5-7h-5.2l-0.2-0.9h2.8l1.1-1.6c0,0,1.1,1,1.8,1.8
			c0.2-0.3,0.4-0.7,0.5-1.1l0.3,0.1v-4.6h-6c0.2,2-0.3,3.5-1.1,4c-0.5,0.4-1.3,0.4-1.8-0.2c-0.1-0.2-0.2-0.4-0.3-0.6
			c-0.2-0.9,0.1-1.8,0.9-2.3c0.7-0.5,1.5-1.9,1.4-3.4h0.3c0.2,0.6,0.3,1.1,0.4,1.6h6.1v-2.4H32L31.8,76h13.6l1.3-2
			c0,0,1.5,1.4,2.5,2.4c-0.1,0.3-0.3,0.5-0.6,0.5h-7.1v2.4h6.1l1.3-1.7l2.3,2.8c-0.2,0.3-0.6,0.4-0.9,0.4c-0.8,1.1-1.8,2.1-2.8,3
			l-0.2-0.2l0.1-0.6c-0.1,0.2-0.3,0.2-0.5,0.2h-4.6l-0.2-0.8h2.4l1-1.5c0,0,1.1,1,1.9,1.8c0.1-0.9,0.3-1.8,0.3-2.6h-6.3v4
			c0,0.1-0.8,0.6-2.2,0.6h-0.3L42.3,85.9l-0.1-0.5h2.9l1.1-1.6c0,0,1.2,1.1,2.1,2c-0.1,0.3-0.3,0.5-0.6,0.5h-5.3L42.3,85.9z
			 M45.6,91.9l2.6,2.4c-0.2,0.3-0.6,0.6-1,0.6v2.4c0,1.9-0.4,3.1-3.3,3.4c-0.1-0.9-0.2-1.6-0.6-2s-0.9-0.8-2.1-1v-0.4
			c0,0,2.4,0.2,3,0.2c0.4,0,0.5-0.2,0.5-0.5v-2.7h-4.5v6.7c0,0.1-0.8,0.6-2.2,0.6h-0.5v-7.4h-4.8l-0.2-0.8h11.9L45.6,91.9z M36.4,81
			c0,0,1.1,1.1,1.8,1.8c0,0.3-0.3,0.5-0.6,0.5h-4.4L33,82.5h2.4L36.4,81z M41.8,89c0,0,1.3,1.2,2.1,2.1c-0.1,0.3-0.3,0.5-0.6,0.5
			h-6.8l-0.2-0.8h4.3L41.8,89z"/>
		<path class="st2" d="M37.9,116.9c0,0,1.2,1.5,1.9,2.5c0,0.3-0.3,0.5-0.6,0.5l0,0h-3v5.8c1.1-0.3,2.2-0.5,3.3-0.8v0.4
			c-2.8,1.8-5.8,3.4-8.8,4.8c-0.1,0.3-0.3,0.6-0.6,0.7l-1-3.7c0.4-0.1,0.9-0.1,1.4-0.2v-10.5l2.5,0.3c0,0.3-0.3,0.5-0.6,0.6v9.3
			l1.3-0.3v-12.6h-0.9v0.7c0,0.2-0.7,0.9-1.9,0.9h-0.4v-10.8l2.6,1.3H36l1.1-1.6l2.4,2.3c-0.2,0.3-0.5,0.5-0.9,0.6v7
			c0,0.2-1.2,0.7-2,0.7h-0.4v-1.1l0,0v5.4h0.6L37.9,116.9z M32.9,112.7h3.3v-6.2h-3.3C32.9,106.5,32.9,112.7,32.9,112.7z
			 M48.8,125.4c0,0,1.7,1.8,2.6,3c-0.1,0.3-0.3,0.5-0.6,0.5h-8.2v1.2c0,0.2-0.8,1.1-2.2,1.1H40v-26.4l3,1.4h4.2l1.4-2.3
			c0,0,1.6,1.6,2.5,2.7c0,0.3-0.3,0.5-0.6,0.5h-7.7v5.7h4.1l1.2-1.7l2.6,2.5c-0.2,0.3-0.6,0.5-0.9,0.6v7.8c0,0.2-1.3,0.9-2.2,0.9H47
			v-1.6h-4.3v6.8h4.7L48.8,125.4z M42.7,113.5v6.9H47v-6.8L42.7,113.5z"/>
		<path class="st2" d="M38.9,134.1c0,0,1.5,1.5,2.4,2.5c-0.1,0.3-0.3,0.5-0.6,0.5H29.5l-0.2-0.9h4.5v-3.3l3.3,0.4
			c0,0.4-0.2,0.6-0.8,0.8v2.2h1.2L38.9,134.1z M38.9,146.8l2.2,2.1c-0.2,0.2-0.5,0.4-0.8,0.5v7.4c0,2-0.3,3.1-2.7,3.4
			c0-0.7-0.1-1.4-0.4-2c-0.4-0.5-0.9-0.8-1.5-0.9v-0.4c0,0,1.6,0.1,2,0.1s0.4-0.1,0.4-0.5v-2c-0.3,0.6-1,0.8-1.6,0.1
			c0-0.5,0-1-0.1-1.6c-0.7,0.5-1.7,1.1-2.9,1.8c-0.1,0.3-0.3,0.5-0.6,0.6l-0.9-2.8v7c0,0.2-0.6,0.8-1.7,0.8H30V147l2.4,1.2h1.4
			c0.1-0.9,0.1-1.8,0.1-2.6h-1.5v0.7c0,0.2-0.9,0.7-1.6,0.7h-0.4v-9.1l2.6,0.3c0,0.3-0.3,0.6-0.6,0.6v6H38V139
			c-0.2,0.3-0.5,0.4-0.8,0.3c-0.2,0.4-0.5,0.8-0.7,1.2c1.6,1.6,0.8,3.7-0.5,2.9c-0.2-0.5-0.4-0.9-0.7-1.4c-0.7,0.8-1.6,1.5-2.5,2.1
			l-0.3-0.4c0.7-0.9,1.3-1.9,1.8-3c-0.5-0.6-1-1.1-1.6-1.6L33,139c0.7,0.1,1.3,0.3,1.9,0.5c0.3-0.6,0.5-1.3,0.7-2.1l2.4,1.4v-1.1
			l2.6,0.3c0,0.3-0.3,0.6-0.6,0.6v7.1c0,0.2-0.9,0.7-1.6,0.7H38v-1h-1.7c-0.2,0.9-0.4,1.7-0.7,2.6H38L38.9,146.8z M32.1,152.3
			c0.3,0,0.9,0,1.5-0.1c0.1-0.9,0.2-2.1,0.2-3.2h-1.7C32.1,149,32.1,152.3,32.1,152.3z M35.9,149.8c1,0.6,1.8,1.4,2.3,2.5V149h-2.8
			c-0.3,1.1-0.6,2.2-1,3.2l1.9-0.1c-0.2-0.7-0.4-1.4-0.7-2.1L35.9,149.8z M49.4,155.6c0,0,1.2,1.4,2,2.4c0,0.3-0.3,0.5-0.6,0.5l0,0
			H44v1c0,0.2-0.7,0.9-1.9,0.9h-0.4v-17.2c-0.4,0.6-0.8,1.2-1.3,1.8l-0.3-0.2c1.3-3.8,2.2-7.8,2.6-11.8l3.3,1
			c-0.1,0.4-0.5,0.7-0.9,0.6c-0.4,1.4-0.8,2.9-1.3,4.2l0.6,0.3h1.3c0.5-2,0.9-3.9,1.1-5.9l3,1.1c-0.1,0.4-0.4,0.7-0.8,0.6
			c-0.8,1.5-1.7,2.9-2.8,4.3H48l1.1-1.8c0,0,1.2,1.3,2,2.2c-0.1,0.3-0.3,0.5-0.6,0.5h-2.7v4.9h0.3l0.9-1.8c0,0,1.1,1.3,1.8,2.2
			c0,0.3-0.3,0.5-0.6,0.5h-2.4v5.1h0.4l1-1.8c0,0,1.1,1.3,1.8,2.2c0,0.3-0.3,0.5-0.6,0.5h-2.5v5.9h0.4L49.4,155.6z M44,140v4.9h1.6
			V140H44z M45.7,145.7H44v5.1h1.6v-5.1H45.7z M44,157.6h1.6v-5.9H44V157.6z"/>
		<path class="st2" d="M19.8,60.9c0,0,1.8,1.7,2.9,2.9c0,0.3-0.3,0.5-0.6,0.5H10.8c-0.6,1.3-1.3,2.7-2.1,3.9l0.5,0.3h7l1.3-1.9
			l2.8,2.7c-0.3,0.4-0.6,0.6-1.1,0.7v12c0,2.3-0.4,3.7-3.6,4.1c-0.1-1.1-0.2-2-0.6-2.5c-0.4-0.5-0.9-0.9-2.1-1.2V82
			c0,0,2.4,0.2,3,0.2c0.4,0,0.5-0.2,0.5-0.6v-3.1H9V85c0,0.2-0.9,1-2.2,1H6.2V71.5c-1.4,1.7-3.1,3.1-5,4.3L1,75.5
			c3-2.9,5.3-7.1,6.8-11.2H1.6l-0.2-0.9H8c0.6-1.6,1-3.3,1.3-5l3.7,1.4c-0.1,0.4-0.3,0.6-0.9,0.6c-0.3,1-0.7,2-1.1,3h7L19.8,60.9z
			 M9,69.3V73h7.5v-3.7H9z M16.5,77.5v-3.8H9v3.8H16.5z"/>
		<path class="st2" d="M7,104.9c0,0.3-1.2,0.9-2.2,0.9H4.3v-8.3c-0.8,1.2-1.8,2.3-2.9,3.2l-0.3-0.2c1.6-3.1,3.4-8,4.4-12.8l3.7,1.7
			c-0.1,0.4-0.5,0.7-0.9,0.6c-0.5,1.3-1.1,2.6-1.7,3.8l1.1,0.5c-0.1,0.3-0.4,0.5-0.7,0.5L7,104.9z M5.1,106c1,3.8-0.1,6.3-1.4,7.2
			c-0.6,0.5-1.5,0.4-2-0.2c-0.1-0.2-0.2-0.4-0.3-0.6c-0.2-0.9,0.2-1.9,1-2.3c1.4-0.9,2.3-2.4,2.4-4.1H5.1z M17.2,111.3
			c0.7,0.4,0.9,0.7,0.9,1.3c0,1.4-1.1,2-5.3,2H10c-2.5,0-3-0.5-3-2.8v-6.4l3.3,0.4c0,0.4-0.3,0.7-0.7,0.7v4.6c0,0.4,0.1,0.5,0.9,0.5
			H13c0.9,0,1.7,0,2.1,0c0.3,0,0.5-0.1,0.7-0.4c0.4-1,0.8-2,1-3.1h0.3L17.2,111.3z M7.9,97.9c1.2-2.5,2.3-6.3,2.9-10.1l3.7,1.5
			c-0.1,0.4-0.5,0.6-0.9,0.6c-0.2,0.6-0.4,1.1-0.6,1.6h6.2l1.4-1.8l2.4,3c-0.2,0.2-0.6,0.4-0.9,0.4c-1,1.1-2.1,2-3.3,2.8l-0.2-0.2
			c0.3-0.9,0.5-2.3,0.7-3.4h-6.8c-1,2.2-2.5,4.2-4.4,5.8L7.9,97.9z M16.8,101.3c0,2.3-0.4,3.6-3.2,4c-0.1-1.1-0.1-1.8-0.4-2.4
			c-0.4-0.6-1-1-1.7-1.1v-0.4c0,0,1.9,0.2,2.3,0.2c0.3,0,0.4-0.1,0.4-0.4v-4.4C14,96.9,13.8,97,13.5,97c-1.2,2.8-2.9,4.7-4.8,5.8
			l-0.3-0.3c1.1-1.7,2.1-4.6,2.6-7.6l3.2,1.4v-3.7l3.4,0.4c0,0.4-0.4,0.7-0.8,0.7V101.3z M10.3,104.3c6.5,0.8,4.6,6.9,2.2,4.9
			c-0.4-1.7-1.2-3.4-2.4-4.7L10.3,104.3z M16.9,106.1c8,1.7,6,9.2,3.2,6.8c-0.5-2.5-1.7-4.7-3.4-6.6L16.9,106.1z M17.4,95.3
			c7.1,2.9,4.8,9.5,2.3,7c-0.3-2.3-1.5-4.9-2.6-6.8L17.4,95.3z"/>
		<path class="st2" d="M13.2,133.7c-0.2,1.9-0.8,3.8-1.7,5.4c3.1,1.5,7.1,1.9,11.2,1.9v0.4c-1.1,0.5-1.8,1.6-2,3.2
			c-4.2-0.6-7.8-1.6-10.4-4c-1.8,1.8-4.5,3.2-8.8,4l-0.1-0.4c3.7-1.5,6-3.2,7.4-5.3c-0.9-1.1-1.5-2.4-2-3.8l0.3-0.3
			c0.6,1.1,1.5,2.1,2.5,2.9c0.6-1.3,1-2.7,1.1-4.2H6.9v0.8c0,0.3-1.2,1.1-2.3,1.1H4.3v-13.1l2.8,1.4h3.5v-3.3H1.9l-0.2-0.9h16.1
			l1.6-2.5c0,0,1.8,1.7,2.9,2.9c-0.1,0.3-0.3,0.5-0.6,0.5h-8.3v3.3H17l1.2-1.7l2.6,2.5c-0.2,0.3-0.5,0.6-0.9,0.7v9.2
			c0,0.2-1.4,0.9-2.3,0.9h-0.5v-1.7L13.2,133.7z M6.9,124.7v3.6h3.7v-3.6C10.6,124.7,6.9,124.7,6.9,124.7z M10.5,132.9
			c0-0.7,0.1-1.5,0.1-2.3v-1.4H6.9v3.7H10.5z M17.1,132.9v-3.7h-3.8v1.3c0,0.8,0,1.6-0.1,2.4H17.1z M13.3,124.7v3.6h3.8v-3.6
			C17.1,124.7,13.3,124.7,13.3,124.7z"/>
		<path class="st2" d="M19.8,148.7c0,0,1.8,1.7,2.9,2.9c0,0.3-0.3,0.5-0.6,0.5H10.8c-0.6,1.3-1.3,2.6-2.1,3.9l0.5,0.3h7l1.3-1.9
			l2.8,2.7c-0.3,0.4-0.6,0.6-1.1,0.7v12c0,2.3-0.4,3.7-3.6,4.1c-0.1-1.1-0.2-2-0.6-2.5c-0.4-0.5-0.9-0.9-2.1-1.2v-0.4
			c0,0,2.4,0.2,3,0.2c0.4,0,0.5-0.2,0.5-0.6v-3.1H9v6.5c0,0.2-0.9,1-2.2,1H6.2v-14.4c-1.4,1.7-3.1,3.1-5,4.3L1,163.4
			c3-2.9,5.2-7.1,6.7-11.2H1.6l-0.2-0.9H8c0.6-1.6,1-3.3,1.3-5l3.7,1.4c-0.1,0.4-0.3,0.6-0.9,0.6c-0.3,1-0.7,2-1.1,3h7L19.8,148.7z
			 M9,157.1v3.7h7.5v-3.7H9z M16.5,165.4v-3.8H9v3.8H16.5z"/>
		<path class="st2" d="M21.6,184.2c-0.3,0.3-0.6,0.5-1,0.6c-0.2,9.5-0.7,15.1-2.1,16.7c-0.9,1.1-1.9,1.5-3.7,1.5
			c0-1.1-0.1-2-0.6-2.5s-1.6-1.1-3-1.4v-0.4c1.4,0.1,3.5,0.3,4.1,0.3c0.4,0,0.7-0.1,0.9-0.4c0.9-0.9,1.3-6.5,1.5-14.4h-5.6
			c-0.5,7.8-2.2,14.5-10.7,19l-0.2-0.4c6.3-5.2,7.7-11.5,8.1-18.6H2.5l-0.2-0.8h7.1c0.1-2.4,0.1-4.9,0.1-7.5l3.8,0.4
			c0,0.5-0.3,0.7-0.8,0.8c0,2.1,0,4.2-0.2,6.3h5.4l1.5-1.9L21.6,184.2z"/>
		<circle class="st2" cx="40.3" cy="65.7" r="1.9"/>
		<g class="st0">
			<line class="st3" x1="12.9" y1="2.5" x2="12.9" y2="52.7"/>
			<line class="st3" x1="9.3" y1="2.3" x2="16.5" y2="2.3"/>
			<line class="st3" x1="9.3" y1="52.7" x2="16.5" y2="52.7"/>
		</g>
		<g class="st0">
			<line class="st3" x1="39.9" y1="167.1" x2="39.9" y2="202.7"/>
			<line class="st3" x1="35.9" y1="166.9" x2="44" y2="166.9"/>
			<line class="st3" x1="35.9" y1="202.7" x2="44" y2="202.7"/>
		</g>
	</g>
</g>
</svg>
