<?xml version="1.0" encoding="utf-8"?>
<!-- Generator: Adobe Illustrator 26.3.1, SVG Export Plug-In . SVG Version: 6.00 Build 0)  -->
<svg version="1.1" id="圖層_1" xmlns="http://www.w3.org/2000/svg" xmlns:xlink="http://www.w3.org/1999/xlink" x="0px" y="0px"
	 viewBox="0 0 242.6 51" style="enable-background:new 0 0 242.6 51;" xml:space="preserve">
<style type="text/css">
	.st0{fill:#FFFFFF;}
</style>
<path class="st0" d="M215.2,47.2c12,0,21.8-9.8,21.7-21.7l0,0c0-12-9.7-21.7-21.7-21.7H27.7C15.7,3.8,6,13.5,6,25.5l0,0
	c0,12,9.7,21.7,21.7,21.7H215.2z M82.1,17.6v-4h2.5v4h2.6V20h-2.6v3.8c0.7-0.3,1.5-0.7,2.2-1.1v2.4c-0.7,0.4-1.5,0.7-2.2,1.1v6.4
	c0,1.6-0.8,2.4-2.5,2.4H80l-0.5-2.4c0.6,0.1,1.2,0.1,1.8,0.1c0.6,0,0.9-0.3,0.9-0.8v-4.8c-0.9,0.3-1.8,0.7-2.7,0.9l-0.6-2.3
	c1.1-0.3,2.2-0.6,3.3-1V20h-3v-2.4H82.1z M99.4,32.8c0,1.5-0.8,2.3-2.5,2.3h-2.8l-0.6-2.2c1,0.1,1.8,0.1,2.6,0.1
	c0.6,0,0.9-0.3,0.9-1v-1.8c-1.9,0.5-3.9,0.9-6.2,1.3l-0.6-2.1c2.5-0.4,4.8-0.8,6.8-1.3v-4.4h-7v1.1c1.9,0.3,3.8,0.7,5.5,1.2
	l-0.8,1.9c-1.5-0.5-3.1-0.9-4.7-1.2V29c0,2.6-0.7,4.6-2.1,6.3l-1.8-1.7c1-1.2,1.4-2.7,1.5-4.4v-7.6h11.8V32.8z M98.8,14.3v6.2H88.1
	v-6.2H98.8z M96.4,16.4h-5.8v2.1h5.8V16.4z M106.1,29.1c-0.5,1.8-1.1,3.4-1.9,4.8l-1.8-1.1c0.9-1.3,1.5-2.6,1.8-4L106.1,29.1z
	 M107.2,15.5v-1.9h2.3v1.9h4v2.1h-4V19h3.5v2h-9.7v-2h3.9v-1.4h-4.7v-2.1H107.2z M113.7,25.7v2.1h-4.5v7.4H107v-7.4h-4.4v-2.1H113.7
	z M112.2,22.4v2.1h-8.2v-2.1H112.2z M113.4,31.8l-1.9,0.9c-0.4-1.4-0.9-2.5-1.4-3.6l1.9-0.6C112.5,29.5,112.9,30.6,113.4,31.8z
	 M119.2,20.8c0,1.5-0.1,3-0.2,4.3c1,3.5,2.6,6.2,5,8.3l-1.6,1.9c-1.8-1.8-3.1-3.9-4.1-6.3c-0.7,2.6-2.3,4.7-4.8,6.4l-1.5-1.8
	c2.1-1.5,3.5-3.4,4.2-5.6c0.5-1.8,0.8-4.2,0.8-7.2H119.2z M117.6,14.1c-0.1,1.1-0.3,2.1-0.5,3h6v1.5c-0.3,2-0.7,3.9-1.1,5.9
	l-2.2-0.6c0.4-1.3,0.8-2.8,1.1-4.5h-4.2c-0.5,1.9-1.2,3.5-2,4.6l-1.8-1.3c1.3-2.1,2.2-5,2.6-8.8L117.6,14.1z M137.7,13.6v2.8h8.8
	v2.4h-8.8v2.8h6.2v2.1c-1.2,2.4-3,4.6-5.3,6.4c1,0.5,2.1,1,3.3,1.4c1.7,0.6,3.4,1.1,5.3,1.5l-1.4,2.2c-2-0.5-3.9-1.2-5.8-2
	c-1.3-0.5-2.4-1.1-3.5-1.8c-2.6,1.6-5.7,2.8-9.3,3.8l-1.4-2.2c3.4-0.7,6.2-1.8,8.6-3.1c-1.2-0.9-2.2-1.9-3-3c-0.8-1-1.4-2.1-1.7-3.2
	h-1.6v-2.3h7.1v-2.8h-8.8v-2.4h8.8v-2.8H137.7z M141.1,23.9h-9c0.4,1,1,2,1.8,2.8c0.8,0.8,1.6,1.6,2.6,2.2
	C138.5,27.4,140,25.8,141.1,23.9z M149.9,35l-0.5-2.3c0.6,0.1,1.2,0.1,1.7,0.1c0.5,0,0.8-0.3,0.8-0.9v-4.6c-0.8,0.3-1.6,0.6-2.4,0.8
	l-0.6-2.5c1-0.2,2-0.5,3-0.8v-4.7h-2.6v-2.3h2.6v-3.9h2.4v3.9h2.2v2.3h-2.2V24c0.7-0.3,1.5-0.7,2.2-1v2.5c-0.7,0.3-1.4,0.7-2.2,1
	v6.2c0,1.6-0.8,2.4-2.4,2.4H149.9z M165.3,24.7v-1.5h2.4v1.5h2.6V27h-2.6v5.7c0,1.6-0.8,2.4-2.4,2.4h-3l-0.5-2.3
	c1,0.1,1.8,0.2,2.7,0.2c0.6,0,0.8-0.3,0.8-0.8V27h-8.4v-2.3H165.3z M164.7,13.8v2.1h5.2v2.3h-5.2v2h4.6v2.2h-11.4v-2.2h4.4v-2h-5.1
	v-2.3h5.1v-2.1H164.7z M162.3,31.2l-1.9,1.4c-0.6-1.1-1.4-2.4-2.5-3.7l2-1.2C160.9,28.9,161.8,30.1,162.3,31.2z"/>
</svg>
