<svg xmlns="http://www.w3.org/2000/svg" viewBox="0 0 180.65 54.7"><defs><style>.cls-1{fill:#090405;}</style></defs><title>資產 3</title><g id="圖層_2" data-name="圖層 2"><g id="圖層_1-2" data-name="圖層 1"><path class="cls-1" d="M9.61,46.68c.93,3.34,3,5.52,3.95,5.52.53,0,1-.51,1.33-1.94a.46.46,0,0,1,.46-.4.57.57,0,0,1,.59.53c0,.27-.51,2.87-2.32,2.87s-4.1-3.06-5-6.59H3.4c0,1.61,0,3.3,0,4.78A46.75,46.75,0,0,0,8.07,50a.67.67,0,0,1,.19,0,.48.48,0,0,1,.47.47.5.5,0,0,1-.36.44A68.1,68.1,0,0,1,.53,53.19a.51.51,0,0,1-.09-1l2-.46c0-3.78,0-9.23,0-11.54A1.66,1.66,0,0,1,4.2,38.52c1.27,0,2.64,0,4,0s2.71,0,4,0c1.9.06,1.9.93,1.9,2.24,0,1.88,0,2.07-5,2.07a19.72,19.72,0,0,0,.36,3H15a.42.42,0,0,1,.46.44.43.43,0,0,1-.46.44ZM3.38,41.92c.87,0,1.75,0,2.62,0,2.24,0,4.38,0,5.92-.08C13,41.84,13,41.5,13,40.61s-.08-1.2-1.12-1.21-2.47,0-3.72,0-2.51,0-3.57,0c-.8,0-1.25.44-1.25,1.08Zm5,3.89a25.17,25.17,0,0,1-.4-3c-1.52,0-3.13,0-4.65,0v3Z"/><path class="cls-1" d="M21,53.44c.13-3.53.11-9.64.13-13.74,0-1.63,1.27-1.63,3-1.63.65,0,1.31,0,1.67,0a1.43,1.43,0,0,1,1.56,1.29c0,.53,0,1.18,0,1.8,0,.44,0,.87,0,1.25C27.31,44,26.13,44,23.76,44c-.55,0-1.14,0-1.63,0v1.92c0,2.2,0,4.84-.08,7.57a.48.48,0,0,1-.53.47.46.46,0,0,1-.51-.44Zm5.45-12.81c0-1.67,0-1.75-2.15-1.75s-2.18.09-2.18,1.75Zm-4.33.76v1.75c.49,0,1.31,0,2,0,2.22,0,2.26,0,2.26-1.78Zm7.65,10.29c-.55,0-1.06.06-1.58.06s-.89,0-1.37-.06c-1.1-.08-1.76-.7-1.78-1.54v-.82c0-.87,0-1.88.06-2.66a1.63,1.63,0,0,1,1.69-1.5c.57,0,1.06,0,1.56,0s1,0,1.46,0a1.59,1.59,0,0,1,1.63,1.4c.06.72.08,1.59.08,2.41,0,.42,0,.8,0,1.14A1.64,1.64,0,0,1,29.78,51.68Zm.8-4.82c0-.91-.93-.93-2.07-.93-.47,0-1,0-1.44,0a1,1,0,0,0-1.08.89c0,.27,0,.68,0,1.1h4.65ZM25.94,48.7v.89c0,1.1.28,1.29,2.35,1.29,1.2,0,2.28,0,2.32-1V48.7ZM33.08,44c-.82,0-1.59,0-2,0-1.21-.06-1.65-.7-1.67-1.5,0-.36,0-.78,0-1.21,0-.63,0-1.27,0-1.84s.55-1.25,1.52-1.29c.36,0,1.06,0,1.75,0,.51,0,1,0,1.31,0,1.39.06,1.78.82,1.78,1.54,0,3.23,0,6.72,0,9.59,0,.91,0,1.73,0,2.39,0,1.16-.4,2.2-2.52,2.2-1.52,0-1.67-.19-1.67-.57a.47.47,0,0,1,.46-.49h.08a8.22,8.22,0,0,0,1.25.11c.91,0,1.35-.32,1.37-1.37,0-.25,0-.59,0-6.38V43.93C34.28,44,33.67,44,33.08,44Zm1.67-3.34c0-1.75-.19-1.75-2.2-1.75-2.26,0-2.26,0-2.26,1.75Zm-4.46.76c0,1.77,0,1.78,2.35,1.78.78,0,1.65,0,2.15,0,0-.65,0-1.23,0-1.75Z"/><path class="cls-1" d="M55.64,51.2v0c0,1.25-.72,2.39-3.3,2.39a11.36,11.36,0,0,1-1.84-.15.54.54,0,0,1-.47-.55.47.47,0,0,1,.47-.49h.09a10.75,10.75,0,0,0,1.78.17c1.35,0,2.18-.4,2.18-1.54,0-3.13,0-6.87-.08-10.06,0-1-.46-1.48-1.61-1.5-.87,0-2,0-3.21,0-2.68,0-5.81,0-7.55,0a.46.46,0,0,1,0-.91c1.75,0,4.14,0,6.45,0,1.71,0,3.36,0,4.71,0a2.08,2.08,0,0,1,2.26,2.07c.06,3.17.06,6.21.09,8.73ZM43.21,42.53a.43.43,0,0,1-.44-.44.43.43,0,0,1,.44-.46h8.14a.41.41,0,0,1,.42.44.42.42,0,0,1-.44.46Zm6,7.57c-.51,0-1.27.06-2,.06s-1.5,0-2-.06a1.61,1.61,0,0,1-1.67-1.58c0-.34,0-.78,0-1.21s0-.91,0-1.31a1.61,1.61,0,0,1,1.65-1.48c.55,0,1.29,0,2,0s1.5,0,2.07,0c1.12,0,1.71.65,1.75,1.44,0,.4,0,.83,0,1.27s0,.85,0,1.25A1.66,1.66,0,0,1,49.19,50.1Zm.8-3.8c0-1-.68-1-2.49-1-.78,0-1.59,0-2,0-1.06.06-1.08.68-1.08,2,0,1.92.08,1.92,3.09,1.92,2.33,0,2.49-.08,2.49-1.78C50,47.06,50,46.63,50,46.3Z"/><path class="cls-1" d="M64.88,51.26c-2,0-3.08-.25-3.09-1.8,0-.59,0-1.29,0-2,0-.91,0-1.84,0-2.62a1.54,1.54,0,0,1,1.67-1.44h.44l1.76,0c.59,0,.89-.21.93-.8a9.92,9.92,0,0,0,0-1.06,9.56,9.56,0,0,0,0-1c-.06-.78-.66-.78-1.58-.78l-2.79,0a.46.46,0,0,1,0-.91c.63,0,1.23,0,1.82,0s1.2,0,1.78,0c1,0,1.73.49,1.77,1.5,0,.28,0,.65,0,1,0,.51,0,1,0,1.4a1.5,1.5,0,0,1-1.71,1.54l-1.73,0c-.78,0-1.33,0-1.37.87S62.74,47,62.74,48c0,.42,0,.82,0,1.21,0,1,.8,1.08,2.24,1.08s2.6-.11,2.6-1.9a.45.45,0,0,1,.47-.47.51.51,0,0,1,.55.46v.06C68.62,50.92,66.93,51.26,64.88,51.26Zm10.31-8.77a14.37,14.37,0,0,1-2.13,6.91,10.89,10.89,0,0,0,4.21,3.17.5.5,0,0,1,.32.47.58.58,0,0,1-.55.59,10.15,10.15,0,0,1-4.56-3.44,11.09,11.09,0,0,1-5,3.61.54.54,0,0,1-.57-.51.52.52,0,0,1,.38-.47,10.08,10.08,0,0,0,4.61-3.4,14.39,14.39,0,0,1-2.24-5.77c-1,1.92-1.39,2.09-1.65,2.09a.45.45,0,0,1-.47-.42.51.51,0,0,1,.13-.32,16.37,16.37,0,0,0,3.09-6.89.5.5,0,0,1,.49-.42.51.51,0,0,1,.53.47,19.72,19.72,0,0,1-1.14,3.46l6.09,0a.46.46,0,0,1,0,.91Zm-4.82,0a13.1,13.1,0,0,0,2.11,6.11,13.5,13.5,0,0,0,1.73-6.11Z"/><path class="cls-1" d="M90.48,38.58a1.24,1.24,0,0,0-.83-.46,1.1,1.1,0,0,0-.82.47c-2.28,2.58-6.42,5.3-7,5.3a.49.49,0,0,1-.49-.51.52.52,0,0,1,.32-.47,22,22,0,0,0,6.47-5,1.84,1.84,0,0,1,1.4-.66,2.12,2.12,0,0,1,1.46.65,24.57,24.57,0,0,0,6.55,4.5.51.51,0,0,1,.3.47.55.55,0,0,1-.53.55C96.75,43.42,92.74,40.84,90.48,38.58ZM90.14,47c-1.69,0-3.42,0-4.67,0-1.84,0-1.84-.89-1.84-2.35,0-1,.06-2.05,1.78-2.07,1.27,0,3.3,0,5.22,0,1.23,0,2.43,0,3.36,0s1.71.57,1.73,1.37c0,.27,0,.55,0,.85,0,1.29,0,2.14-1.77,2.2C92.89,47,91.53,47,90.14,47Zm-1-3.78c-1.37,0-2.68,0-3.53,0-1.1,0-1.1.59-1.1,1.65,0,.68,0,1.33,1.12,1.35.87,0,2.16,0,3.51,0Zm3.66,10.29c-.93,0-2.09,0-3.23,0s-2.24,0-3.11,0c-1.86-.06-1.86-1-1.86-2.71,0-.42,0-.84,0-1.2,0-.84.53-1.42,1.8-1.44.89,0,2.07,0,3.23,0s2.35,0,3.23,0a1.65,1.65,0,0,1,1.77,1.44c0,.34,0,.72,0,1.1s0,.91,0,1.27C94.62,52.93,94,53.5,92.84,53.54Zm.89-3.09c0-.8,0-1.5-1.08-1.5l-4.18,0c-.72,0-1.38,0-1.88,0a.93.93,0,0,0-1,.93c0,.17,0,.38,0,.57Zm-8.16.72c0,.27,0,.51,0,.72,0,.85.51.87,4,.87,1.14,0,2.3,0,3.09-.06,1.06,0,1.06-.66,1.06-1.54ZM87.43,46a.31.31,0,0,1-.3-.17A9.56,9.56,0,0,0,86,44.39a.31.31,0,0,1-.08-.21c0-.19.25-.38.49-.38s1.56,1.42,1.56,1.73A.55.55,0,0,1,87.43,46Zm-.15-4.73a.38.38,0,0,1-.4-.4.39.39,0,0,1,.4-.4h4.9a.38.38,0,0,1,.4.4.39.39,0,0,1-.4.4Zm3.91,5a.14.14,0,0,1,0-.11.11.11,0,0,1,0-.08A19.49,19.49,0,0,0,92.32,44a.32.32,0,0,1,.32-.21.55.55,0,0,1,.55.47,15,15,0,0,1-1.27,2.09c2.75,0,2.9,0,2.9-1.52,0-1-.06-1.48-1.1-1.52s-2.3,0-3.66,0V46.3Z"/><path class="cls-1" d="M113.81,48.06a12.2,12.2,0,0,0,5.09,2.45.44.44,0,0,1,.38.44.53.53,0,0,1-.55.53,12.7,12.7,0,0,1-6-3.42h-3.06a16.7,16.7,0,0,1-6,3.61.47.47,0,0,1-.47-.49.44.44,0,0,1,.32-.44,15.56,15.56,0,0,0,4.92-2.68l-4.76,0a.39.39,0,0,1-.4-.4.39.39,0,0,1,.4-.42l5.64,0a12.72,12.72,0,0,0,1.08-1.18c-.87,0-1.75,0-2.54,0C106,46,106,45.12,106,44c0-1.4,0-2.37,1.73-2.43,1.12,0,2.33,0,3.57,0s2.47,0,3.59,0c1.65,0,1.67.95,1.67,2.2s-.1,2.26-1.69,2.32c-1.06,0-2.3,0-3.53,0,0,0,0,.06,0,.09-.28.38-.59.74-.89,1.08h.78l7.63,0a.39.39,0,0,1,.4.4.39.39,0,0,1-.4.42Zm-.06-8v.68a.45.45,0,0,1-.47.42.45.45,0,0,1-.49-.42V40.1H109.5v.68a.5.5,0,0,1-1,0V40.1l-4.59,0c-.34,0-.49-.19-.49-.4a.46.46,0,0,1,.49-.46l4.59,0v-.82a.5.5,0,0,1,1,0v.82h3.28v-.82a.44.44,0,0,1,.49-.42.43.43,0,0,1,.47.42v.82l4.76,0a.43.43,0,1,1,0,.85ZM111,50.89c-1.41,3.72-5.58,3.82-5.71,3.82a.45.45,0,0,1-.49-.47.44.44,0,0,1,.42-.46c2.41-.19,4-1.12,4.78-2.87l-2.62,0a.42.42,0,0,1,0-.84h2.9a8.26,8.26,0,0,0,.17-1.06.44.44,0,0,1,.47-.4.45.45,0,0,1,.49.44,7.36,7.36,0,0,1-.17,1h2.49a1.25,1.25,0,0,1,1.44,1.39v.21c-.11,1.29-.36,2.71-2.41,2.71a6.13,6.13,0,0,1-1.42-.19.46.46,0,0,1-.36-.46.41.41,0,0,1,.42-.44.54.54,0,0,1,.17,0,4.17,4.17,0,0,0,1.18.21c1.06,0,1.46-.7,1.46-2,0-.51-.23-.65-.76-.65Zm4.59-7.42c0-.7-.1-1.18-1-1.2-1,0-2.2,0-3.36,0s-2.32,0-3.34,0-1,.53-1,1.2Zm-8.73.66c0,.87.15,1.23,1.08,1.25s2.11,0,3.3,0,2.39,0,3.4,0c.66,0,.95-.23.95-1.25Z"/><path class="cls-1" d="M123.39,52.61a.49.49,0,0,1,.19-.36,6.8,6.8,0,0,0,1.63-2.49.41.41,0,0,1,.42-.3c.25,0,.53.19.53.44,0,.49-1.48,3.15-2.28,3.15A.48.48,0,0,1,123.39,52.61Zm5-4.12v2.56c0,.36,0,1,0,1.46,0,.89-.27,1.71-1.56,1.71-.65,0-1.33-.08-1.33-.59,0-.23.15-.47.36-.47l.08,0a3.9,3.9,0,0,0,.82.11c.66,0,.68-.21.68-1.61,0-1,0-2.49,0-3.19l-3.4,0a.41.41,0,0,1-.42-.4.39.39,0,0,1,.42-.4h7a.38.38,0,0,1,.4.4.39.39,0,0,1-.4.4Zm-3.72-4.65a.4.4,0,0,1-.44-.4.39.39,0,0,1,.42-.38l2.79,0v-1.8l-3.17,0a.4.4,0,0,1-.42-.42.39.39,0,0,1,.42-.4l3.17,0V38.7a.5.5,0,0,1,1,0l0,1.8,2.79,0a.41.41,0,1,1,0,.82l-2.79,0v1.8l2.32,0a.38.38,0,0,1,.42.38.38.38,0,0,1-.42.4ZM125,46.2a.4.4,0,0,1-.44-.4.41.41,0,0,1,.44-.4h5.16a.38.38,0,0,1,.4.4.39.39,0,0,1-.4.4Zm5.5,5.18a4.42,4.42,0,0,0-1.16-1.44.33.33,0,0,1-.13-.25c0-.19.23-.34.46-.34a3.26,3.26,0,0,1,1.69,1.79.5.5,0,0,1-.47.51A.43.43,0,0,1,130.47,51.38Zm4.94-4.94a10.55,10.55,0,0,0,4.44,7,.48.48,0,0,1,.25.42.55.55,0,0,1-.55.55c-.8,0-3.53-2.64-4.52-6a8.08,8.08,0,0,1-4.92,6.17.76.76,0,0,1-.28.06.51.51,0,0,1-.53-.49.47.47,0,0,1,.36-.46c4.71-1.67,4.73-7.31,4.73-7.92s0-1.18,0-1.63v0a.49.49,0,0,1,.53-.46.5.5,0,0,1,.55.49c0,.49,0,1.33-.06,1.94v.09ZM132.29,45a.53.53,0,0,1-.44.25.47.47,0,0,1-.49-.44.43.43,0,0,1,.09-.28,15.84,15.84,0,0,0,2.16-5.77.44.44,0,0,1,.47-.36.49.49,0,0,1,.53.46,16.86,16.86,0,0,1-.66,2.54c1.31,0,2.77,0,3.95,0,1,0,1.61.49,1.61,1.23A11.23,11.23,0,0,1,138,46a.6.6,0,0,1-.51.3.45.45,0,0,1-.47-.42.41.41,0,0,1,.08-.25,11.64,11.64,0,0,0,1.35-2.79c0-.32-.23-.53-.78-.53l-3.19,0h-.83A13.46,13.46,0,0,1,132.29,45Z"/><path class="cls-1" d="M148.91,39.78v.91l1,0c.72,0,1.06.32,1.06.78a1.27,1.27,0,0,1-.25.72c-1.86,2.89-6.13,4-6.32,4a.44.44,0,0,1-.42-.44.4.4,0,0,1,.32-.4,11.6,11.6,0,0,0,3.51-1.48,10.66,10.66,0,0,0-1.27-.66.28.28,0,0,1-.19-.27.51.51,0,0,1,.47-.46,7.75,7.75,0,0,1,1.67.89A4.25,4.25,0,0,0,150,41.57c0-.15-.13-.21-.3-.21l-2.37,0c-1.9,1.71-2.77,1.9-2.87,1.9a.42.42,0,0,1-.42-.44.32.32,0,0,1,.21-.32,8.05,8.05,0,0,0,2.73-2,.49.49,0,0,1,.38-.19.42.42,0,0,1,.4.34l.32,0V38.47a.4.4,0,0,1,.44-.42.41.41,0,0,1,.44.42V39l2.32,0a.38.38,0,1,1,0,.76Zm3.82,4a3.85,3.85,0,0,1,.57.36,22,22,0,0,0,6.4,3.3.46.46,0,0,1,.32.46.51.51,0,0,1-.49.53,24.71,24.71,0,0,1-6.76-3.66,1.27,1.27,0,0,0-.78-.34,1.06,1.06,0,0,0-.7.32,21.81,21.81,0,0,1-6.83,3.89.49.49,0,0,1-.49-.49.43.43,0,0,1,.34-.44,19.39,19.39,0,0,0,6.43-3.57,1.8,1.8,0,0,1,1.21-.55,1.46,1.46,0,0,1,.47.08.48.48,0,0,1-.15-.34.36.36,0,0,1,.32-.36,10.39,10.39,0,0,0,2-.55c-.63-.55-1.39-1.25-1.39-1.58a.43.43,0,0,1,.44-.38.36.36,0,0,1,.32.15,6.42,6.42,0,0,0,1.44,1.42c.85-.47,2-1.56,2-2,0-.15-.15-.25-.46-.25l-4,0a.37.37,0,0,1-.36-.42.37.37,0,0,1,.36-.4c3.59,0,3.91,0,4.33,0,.78,0,1.12.4,1.12.85s-1,1.86-2.24,2.62a9.22,9.22,0,0,0,3.49,1.25.41.41,0,0,1,.38.44.47.47,0,0,1-.46.47A9.59,9.59,0,0,1,155.29,43a10.56,10.56,0,0,1-2.45.8Zm1.33,8.47c.68-.38,2.09-1.14,2.88-1.69a.44.44,0,0,1,.27-.08.5.5,0,0,1,.49.47c0,.3-.13.47-2.94,1.77a11.1,11.1,0,0,0,4.46.87.45.45,0,0,1,.46.46.56.56,0,0,1-.63.51c-.68,0-5.24-.15-7.35-3.61-.85,0-1.75,0-2.66,0,0,.51,0,1.31,0,2,1.08-.27,2.11-.53,2.87-.76a.25.25,0,0,1,.11,0,.4.4,0,0,1,.36.42.39.39,0,0,1-.3.38,53.24,53.24,0,0,1-7,1.73.46.46,0,0,1-.49-.46.49.49,0,0,1,.44-.47c1-.15,2.07-.36,3.07-.59,0-1.8,0-3.78,0-5.09,0-.78.53-1.39,1.73-1.41h1.61l0-.93c0-.29.25-.42.51-.42a.44.44,0,0,1,.49.42l0,.93h1.71c1.75,0,1.75.72,1.75,2.49,0,1.46-.13,1.84-3.23,1.84A4.67,4.67,0,0,0,154,52.31Zm.93-3.8c0-.15,0-.3,0-.42,0-.42-.21-.68-.91-.7s-1.56,0-2.37,0c-2.24,0-2.56,0-2.6.87,0,.08,0,.17,0,.27Zm-5.92.65V50.3c.65,0,1.33,0,2,0,1.18,0,2.28,0,3.08-.06s.87-.44.87-1.14Z"/><path class="cls-1" d="M173.24,39.38a1.24,1.24,0,0,0-.83-.46,1.1,1.1,0,0,0-.82.47c-2.28,2.58-6.42,5.3-7,5.3a.49.49,0,0,1-.49-.51.51.51,0,0,1,.32-.47,22,22,0,0,0,6.47-5,1.83,1.83,0,0,1,1.4-.66,2.12,2.12,0,0,1,1.46.65,24.58,24.58,0,0,0,6.55,4.5.51.51,0,0,1,.3.47.55.55,0,0,1-.53.55C179.51,44.22,175.5,41.64,173.24,39.38Zm-.34,8.45c-1.69,0-3.42,0-4.67,0-1.84,0-1.84-.89-1.84-2.35,0-1,.06-2,1.78-2.07,1.27,0,3.3,0,5.22,0,1.23,0,2.43,0,3.36,0s1.71.57,1.73,1.37c0,.27,0,.55,0,.85,0,1.29,0,2.14-1.77,2.2C175.65,47.81,174.29,47.83,172.9,47.83Zm-1-3.78c-1.37,0-2.68,0-3.53,0-1.1,0-1.1.59-1.1,1.65,0,.68,0,1.33,1.12,1.35.87,0,2.16,0,3.51,0Zm3.66,10.29c-.93,0-2.09,0-3.23,0s-2.24,0-3.11,0c-1.86-.06-1.86-1-1.86-2.71,0-.42,0-.83,0-1.2,0-.83.53-1.42,1.8-1.44.89,0,2.07,0,3.23,0s2.35,0,3.23,0a1.65,1.65,0,0,1,1.77,1.44c0,.34,0,.72,0,1.1s0,.91,0,1.27C177.38,53.73,176.79,54.3,175.6,54.34Zm.89-3.09c0-.8,0-1.5-1.08-1.5l-4.18,0c-.72,0-1.38,0-1.88,0a.93.93,0,0,0-1,.93c0,.17,0,.38,0,.57Zm-8.16.72c0,.27,0,.51,0,.72,0,.85.51.87,4,.87,1.14,0,2.3,0,3.09-.06,1.06,0,1.06-.66,1.06-1.54Zm1.86-5.14a.31.31,0,0,1-.3-.17,9.6,9.6,0,0,0-1.16-1.46.31.31,0,0,1-.08-.21c0-.19.25-.38.49-.38s1.56,1.42,1.56,1.73A.55.55,0,0,1,170.19,46.82ZM170,42.1a.38.38,0,0,1-.4-.4.39.39,0,0,1,.4-.4h4.9a.38.38,0,0,1,.4.4.39.39,0,0,1-.4.4Zm3.91,5a.14.14,0,0,1,0-.11.11.11,0,0,1,0-.08,19.48,19.48,0,0,0,1.16-2.16.32.32,0,0,1,.32-.21A.55.55,0,0,1,176,45a15,15,0,0,1-1.27,2.09c2.75,0,2.9,0,2.9-1.52,0-1-.06-1.48-1.1-1.52s-2.3,0-3.66,0v3.06Z"/><path class="cls-1" d="M36.39,12.94c2.2-.56,7.08-1.3,9.15-.18s.8,2.25-.33,3.58a19,19,0,0,1-3.42,3.11c-1.25.9-1,3.39.88,3.23A49.27,49.27,0,0,0,51.3,21.2c2.1-.56,1.21-3.79-.9-3.25a43.92,43.92,0,0,1-7.73,1.26l.88,3.23c2.82-2,9.19-7.08,6.19-11.1-1.31-1.75-4.13-1.94-6.12-2a13.23,13.23,0,0,0-7.73,2.38.66.66,0,0,0,.51,1.2Z"/><path class="cls-1" d="M56.44,10.24c-2,1.43-4.33,4-2.82,6.6,1.34,2.3,4.56,1.79,6-.12a3.27,3.27,0,0,0-2-5.21,3.82,3.82,0,0,0-4.69,3.43c0,2.05,3.12,2,3.19,0,0-.09,0-.13.2-.18a2.31,2.31,0,0,1,.57-.12c.31,0,.24.21.22,0,0,.07,0,.12-.16.28-.36.32-.9.41-1.1,0-.51-1.07.92-2.75,1.54-3.47s-.17-1.71-.91-1.18Z"/><path class="cls-1" d="M63.89,11.34c-1.17,2.79-.78,6.48.14,9.31.61,1.89,3.6,1.08,3-.82a31.51,31.51,0,0,1-1.17-4.24c-.25-1.41-.25-2.84-.51-4.25-.15-.82-1.2-.6-1.45,0Z"/><path class="cls-1" d="M73.66,11.45A27.32,27.32,0,0,1,81.9,9.51l-.8-1.39c-2,4.75-4.25,9.44-6.1,14.26-.84,2.17,2.77,3.22,3.53,1,1.6-4.78,2.84-9.69,4.27-14.53A.94.94,0,0,0,81.65,7.7a28.68,28.68,0,0,0-8.42,2.72c-.56.28-.16,1.27.43,1Z"/><path class="cls-1" d="M96.5,1.52c2.62,1.78,5.83,2.16,8.86,2.88a64.91,64.91,0,0,0,9.46,1.82c2.07.18,2.32-2.92.47-3.5a71.42,71.42,0,0,0-10.38-2C102.1.3,99.47-.36,96.66.24a.71.71,0,0,0-.17,1.29Z"/><path class="cls-1" d="M109.16,6c-3.25,1.2-3.45,4.14-3.76,7.22-.21,2.09-.42,4.08-2.57,4.94a5.08,5.08,0,0,1-4.47-.43c-2.46-1.29-5.24,1.93-3.07,4,3.11,2.93,8.07,2.37,11-.48a7.66,7.66,0,0,0,2.34-5.18c.16-2.94-1.54-6.76,1-9.18.35-.34,0-1-.5-.86Z"/><path class="cls-1" d="M116.47,15.74a6.5,6.5,0,0,0,.84-3.83c0-.53-.82-.85-1.08-.29a38.78,38.78,0,0,0-3,13H116c.13-4.79.24-9.57,1.75-14.18.23-.72.51-2.1,1.1-2.6q.72-1.73,3,.19l-.77,1.08c-.89,2-3.36,4-4.94,5.52a2.4,2.4,0,0,0,1,4,38.24,38.24,0,0,0,13.65,2.26c3.38-.07,3.25-4.83,0-5.16-4.17-.42-8.25-1-12.39-1.69l1.42,3.49c2-2.83,6.08-7.32,5.93-11.06-.11-2.7-2.48-4.09-5-3.36-7.31,2.07-8.07,15.7-7.59,21.55.14,1.77,2.84,1.83,2.8,0a66.42,66.42,0,0,1,1.29-12.53h-1.12L116,15.52c-.11.3.37.5.51.22Z"/><path class="cls-1" d="M133.41,5.12l.4,1.37,2.74-.36,4.57-.6-.46-3.36c-10.34,4.33-6.85,17.72-9.58,26.06-1,3,4.07,4.36,4.7,1.3,1.46-7.09-3.39-21.09,5.79-24.05a1.71,1.71,0,0,0-.91-3.3c-2.76.52-7.27.22-8.93,2.84a1.12,1.12,0,0,0,0,1.15l.32.49a1,1,0,0,0,1.16.47l.45-.15a.94.94,0,0,0-.25-1.84Z"/><path class="cls-1" d="M133.2,15.05c.46.41,4.67-1.26,5.46-1.48a51.86,51.86,0,0,1,5.9-1.39c2.31-.34,1.22-4.36-1.37-3.26-3.1,1.32-6.34,2.31-9.46,3.62-1.28.54-2.55,1.54-1.75,3.07a.63.63,0,0,0,.54.31h.31a.52.52,0,0,0,.36-.88Z"/></g></g></svg>