<?xml version="1.0" encoding="utf-8"?>
<!-- Generator: Adobe Illustrator 13.0.0, SVG Export Plug-In . SVG Version: 6.00 Build 14948)  -->
<!DOCTYPE svg PUBLIC "-//W3C//DTD SVG 1.1//EN" "http://www.w3.org/Graphics/SVG/1.1/DTD/svg11.dtd">
<svg version="1.1" id="圖層_1" xmlns="http://www.w3.org/2000/svg" xmlns:xlink="http://www.w3.org/1999/xlink" x="0px" y="0px"
	 width="728px" height="140px" viewBox="0 0 728 140" enable-background="new 0 0 728 140" xml:space="preserve">
<g>
	<g>
		<path fill="none" stroke="#FFFFFF" stroke-width="4" stroke-linecap="round" d="M10.288,56.301
			c20.723-36.883,73.101-36.821,93.42,0"/>
		<polygon fill="#FFFFFF" points="57.174,121.648 67.012,129.487 57.267,10.002 47.521,129.487 		"/>
		<g>
			<path fill="#FFFFFF" d="M68.741,82.066l3.594,31.91c15.298,0.373,26.37-13.467,26.648-31.91H68.741z"/>
			<path fill="#FFFFFF" d="M68.042,75.862H98.72c-0.003-0.008-0.003-0.015-0.003-0.022c-0.113-0.979-0.282-1.945-0.446-2.914H67.71
				L68.042,75.862z"/>
			<path fill="#FFFFFF" d="M98.837,77.5H68.226l0.329,2.933h30.443C98.983,79.467,98.914,78.487,98.837,77.5z"/>
			<path fill="#FFFFFF" d="M97.978,71.291C94.018,51.92,79.349,36.6,63.582,36.219l3.949,35.073L97.978,71.291z"/>
		</g>
		<g>
			<path fill="#FFFFFF" d="M15.917,75.869H46.59l0.333-2.939H16.364C16.198,73.902,16.028,74.875,15.917,75.869z"/>
			<path fill="#FFFFFF" d="M47.106,71.292l3.94-35.003c-15.75,0.38-30.403,15.668-34.38,35.003H47.106z"/>
			<path fill="#FFFFFF" d="M15.641,82.07c0.258,18.477,11.329,32.346,26.653,31.979l3.598-31.979H15.641z"/>
			<path fill="#FFFFFF" d="M46.406,77.504H15.794c-0.079,0.983-0.148,1.967-0.167,2.929h30.449L46.406,77.504z"/>
		</g>
	</g>
	<g>
		<g>
			<path fill="#FFFFFF" d="M123.557,69.479c-0.156,0.313-0.281,0.577-0.375,0.795c-1.341,2.775-3.244,5.396-5.707,7.859
				l-3.603-2.433l1.263-1.263c1.996-2.059,3.571-4.32,4.725-6.783L123.557,69.479z M133.475,36.872v29.753h-17.262V36.872H133.475z
				 M129.405,40.567h-9.169v4.632h9.169V40.567z M120.235,53.807h9.169v-4.959h-9.169V53.807z M120.235,62.93h9.169v-5.428h-9.169
				V62.93z M131.135,78.133c-1.185-3.088-2.807-5.941-4.865-8.561l3.556-2.012c2.152,2.744,3.93,5.582,5.333,8.514L131.135,78.133z
				 M148.585,54.836c-2.869,5.053-6.846,9.871-11.929,14.455l-2.9-3.977c3.431-2.775,6.175-5.426,8.233-7.952
				c2.058-2.526,4.147-5.646,6.269-9.356h-12.912v-4.023h13.239v-8.748h4.351v8.748h4.023v4.023h-4.023v24.326v0.562
				c0,1.684-0.343,2.907-1.029,3.673c-0.687,0.764-2.105,1.146-4.257,1.146h-5.801l-1.029-4.257l6.222,0.188
				c1.029,0,1.544-0.484,1.544-1.451V54.836z"/>
			<path fill="#FFFFFF" d="M161.812,36.357h40.559v41.916h-4.023v-1.871h-32.56v1.871h-3.976V36.357z M193.015,57.315l1.451,1.638
				l1.918,2.245l-2.994,1.918l-1.263-1.638h-0.795v2.152h5.661v2.9h-5.661v1.217v0.514c0,1.154-0.257,2.004-0.772,2.551
				c-0.515,0.545-1.629,0.818-3.345,0.818h-5.099l-0.936-3.041l4.771,0.188c1.061,0,1.591-0.453,1.591-1.357v-0.889h-19.976v-2.9
				h19.976V61.76l-8.701,0.327l-10.339,0.187l-0.702-3.32l6.035,0.094l5.988-0.094v-1.638h-11.041V46.182h11.041v-1.544h-12.351
				v-3.041h12.351v-1.778h-14.035V72.94h32.56V39.819h-14.876v1.778h13.426v3.041h-13.473v1.544h11.695v11.134H193.015z
				 M175.519,71.817l-1.497-2.012c-0.405-0.562-0.873-1.091-1.403-1.591l-0.281-0.28l3.088-1.403l1.497,1.403
				c0.405,0.405,0.873,0.952,1.403,1.638c0.062,0.094,0.171,0.234,0.327,0.421L175.519,71.817z M172.431,48.801v1.918h7.392v-1.918
				H172.431z M172.431,52.73v1.965h7.392V52.73H172.431z M183.425,48.801v1.918h8.046v-1.918H183.425z M183.425,52.73v1.965h8.046
				V52.73H183.425z M183.425,57.315v1.638l3.883-0.047l2.9-0.094l-1.169-1.497H183.425z"/>
			<path fill="#FFFFFF" d="M215.505,57.222l-4.117-2.854c-0.499-0.343-1.373-0.889-2.62-1.638c-0.343-0.187-0.811-0.467-1.403-0.842
				l2.76-3.602l3.977,2.058c1.06,0.593,2.448,1.481,4.164,2.667L215.505,57.222z M219.668,62.836
				c-0.53,1.154-0.952,2.09-1.263,2.807c-2.401,5.178-4.803,9.293-7.204,12.35l-3.556-3.836c2.433-3.025,4.803-6.971,7.111-11.836
				c0.312-0.686,0.733-1.559,1.263-2.619L219.668,62.836z M217.704,44.778l-4.117-2.9c-1.061-0.717-2.417-1.56-4.07-2.526
				l2.713-3.695l4.117,2.199c0.655,0.343,1.746,1.013,3.274,2.011c0.218,0.156,0.53,0.359,0.936,0.608L217.704,44.778z
				 M219.528,58.018v-4.211h12.069v-8.094h-9.637v-4.116h9.637v-6.362h4.538v6.362h12.117v4.116h-12.117v8.094h13.801v4.211h-14.315
				c-1.903,5.021-3.993,9.371-6.269,13.051c0.904-0.093,1.653-0.155,2.246-0.187c4.522-0.374,8.015-0.826,10.479-1.356l-1.918-3.369
				l-2.339-3.883l3.883-1.59c2.495,3.368,5.161,7.938,8,13.707c0.187,0.405,0.437,0.904,0.749,1.496l-4.491,2.152l-0.982-2.245
				c-0.375-0.936-0.749-1.716-1.123-2.339c-6.394,1.185-14.394,2.089-23.999,2.713l-1.123-4.912l3.041,0.047l1.918-0.094
				c2.838-4.428,5.161-8.826,6.97-13.191H219.528z"/>
			<path fill="#FFFFFF" d="M277.946,35.281v5.24c0,2.277,0.764,5.754,2.292,10.432s3.446,8.623,5.754,11.836
				c1.871,2.588,4.132,5.106,6.783,7.555c2.651,2.448,4.132,3.672,4.444,3.672l-3.228,4.211c-0.468,0-2.378-1.661-5.731-4.982
				c-3.353-3.32-5.902-6.541-7.648-9.66c-1.747-3.119-3.275-6.83-4.584-11.134c-1.404,5.146-2.971,9.224-4.702,12.233
				c-1.731,3.01-4.343,6.027-7.836,9.053c-3.493,3.024-5.551,4.537-6.175,4.537l-3.134-4.211c0.437,0,1.934-1.014,4.491-3.04
				c2.557-2.027,4.803-4.319,6.736-6.877c2.339-3.118,4.164-6.744,5.474-10.876c1.31-4.133,1.965-8.164,1.965-12.094v-5.895H277.946
				z"/>
			<path fill="#FFFFFF" d="M325.838,51.094l0.328,2.666c0.124,1.248,0.279,2.168,0.467,2.76h17.029v4.164h-15.906l0.842,2.246
				c1.248,2.963,2.729,5.395,4.444,7.297s3.072,2.854,4.07,2.854c0.687,0,1.185-0.506,1.497-1.52
				c0.312-1.014,0.701-2.986,1.17-5.918l4.21,2.339c-0.53,3.243-1.248,5.723-2.152,7.438c-0.904,1.715-2.167,2.572-3.789,2.572
				c-2.464,0-4.951-1.263-7.462-3.789c-2.511-2.525-4.561-5.957-6.151-10.291l-1.169-3.229h-13.66v11.274l6.408-1.591
				c2.869-0.717,5.256-1.388,7.158-2.012v4.305c-5.863,2.15-12.756,4.022-20.678,5.613l-1.544-4.725l2.573-0.375l1.59-0.327V37.293
				h35.976v13.801H325.838z M336.645,41.363h-27.039v5.708h27.039V41.363z M309.605,51.094v5.426h12.678
				c-0.281-1.246-0.453-2.167-0.516-2.76l-0.327-2.666H309.605z"/>
			<path fill="#FFFFFF" d="M367.088,53.994h-13.613v24.279h-4.305V36.731h17.918V53.994z M362.83,40.38h-9.355v3.134h9.355V40.38z
				 M353.475,50.345h9.355v-3.462h-9.355V50.345z M359.415,56.754h19.228v17.777h-19.228V56.754z M374.479,60.309h-10.9v3.322h10.9
				V60.309z M374.479,67.046h-10.9v3.883h10.9V67.046z M383.18,73.361c1.061,0,1.591-0.499,1.591-1.497v-17.87h-14.034V36.731
				h18.338v35.507v0.608c0,1.653-0.288,2.861-0.865,3.626c-0.577,0.764-1.754,1.146-3.531,1.146h-4.352l-1.076-4.444L383.18,73.361z
				 M374.993,43.515h9.777V40.38h-9.777V43.515z M384.771,46.883h-9.777v3.462h9.777V46.883z"/>
			<path fill="#FFFFFF" d="M435.844,37.34v35.227v0.561c0,1.715-0.344,2.947-1.029,3.696c-0.688,0.748-2.121,1.122-4.305,1.122
				h-7.531l-1.029-4.537l7.484,0.234c0.687,0,1.131-0.102,1.334-0.305c0.202-0.203,0.304-0.647,0.304-1.334V41.597h-35.788V37.34
				H435.844z M427.235,45.9v4.164h-30.36V45.9H427.235z M398.652,54.415h25.449v15.204h-25.449V54.415z M419.609,58.438h-16.467
				v7.205h16.467V58.438z"/>
			<path fill="#FFFFFF" d="M449.352,57.222l-4.117-2.854c-0.499-0.343-1.373-0.889-2.619-1.638
				c-0.344-0.187-0.812-0.467-1.404-0.842l2.76-3.602l3.977,2.058c1.061,0.593,2.448,1.481,4.164,2.667L449.352,57.222z
				 M453.515,62.836c-0.53,1.154-0.952,2.09-1.263,2.807c-2.402,5.178-4.803,9.293-7.205,12.35l-3.555-3.836
				c2.432-3.025,4.803-6.971,7.11-11.836c0.312-0.686,0.733-1.559,1.263-2.619L453.515,62.836z M451.55,44.778l-4.116-2.9
				c-1.061-0.717-2.418-1.56-4.07-2.526l2.713-3.695l4.117,2.199c0.654,0.343,1.746,1.013,3.274,2.011
				c0.218,0.156,0.53,0.359,0.936,0.608L451.55,44.778z M453.375,58.018v-4.211h12.068v-8.094h-9.637v-4.116h9.637v-6.362h4.538
				v6.362h12.116v4.116h-12.116v8.094h13.801v4.211h-14.315c-1.902,5.021-3.992,9.371-6.269,13.051
				c0.904-0.093,1.653-0.155,2.245-0.187c4.522-0.374,8.016-0.826,10.479-1.356l-1.918-3.369l-2.339-3.883l3.883-1.59
				c2.494,3.368,5.161,7.938,8,13.707c0.187,0.405,0.436,0.904,0.748,1.496l-4.491,2.152l-0.982-2.245
				c-0.374-0.936-0.749-1.716-1.122-2.339c-6.395,1.185-14.395,2.089-24,2.713l-1.122-4.912l3.04,0.047l1.919-0.094
				c2.838-4.428,5.161-8.826,6.97-13.191H453.375z"/>
			<path fill="#FFFFFF" d="M512.26,35.234l4.398,0.562l-0.749,3.462l-0.702,2.76h15.719v4.397h-3.648
				c-0.5,7.767-2.418,14.472-5.754,20.116c1.34,1.653,2.557,2.963,3.648,3.93s3.01,2.229,5.754,3.789l-2.713,3.977
				c-3.4-2.027-6.565-4.709-9.497-8.047c-2.838,3.025-5.91,5.411-9.216,7.158l-1.871,0.982l-2.854-4.023
				c5.083-2.308,8.842-4.818,11.273-7.531c-2.245-3.213-4.132-7.609-5.66-13.193l-0.889,1.404l-1.264,1.777l-2.9-4.023v3.135
				h-10.057V70.18l4.725-2.245c1.965-0.967,4.256-2.276,6.877-3.93v4.865c-4.772,2.9-9.622,5.364-14.549,7.392
				c-0.781,0.312-1.811,0.732-3.088,1.264l-1.029-4.726l1.59-0.562l1.264-0.607V51.889h10.059V41.69H489.01v-4.07h16.326v14.97
				C508.549,48.66,510.857,42.875,512.26,35.234z M513.711,46.415l-0.188,0.515l-0.188,0.562c1.279,7.204,3.025,12.413,5.24,15.625
				c1.06-1.809,1.94-3.82,2.643-6.034c0.701-2.215,1.318-5.771,1.848-10.667H513.711z"/>
			<path fill="#FFFFFF" d="M558.654,71.49v6.783h-4.584V71.49h-19.32v-3.977h19.32v-3.275h-14.502V51.842h14.502v-2.807h-9.45v-6.55
				h-8.889v-3.883h8.889v-3.368h4.538v3.368h14.361v-3.368h4.538v3.368h8.981v3.883h-8.981v6.55h-9.403v2.807h14.643v12.396h-14.643
				v3.275h19.181v3.977H558.654z M554.07,55.631h-10.059v4.818h10.059V55.631z M563.52,42.485h-14.361v3.041h14.361V42.485z
				 M568.899,55.631h-10.245v4.818h10.245V55.631z"/>
			<path fill="#FFFFFF" d="M590.688,66.578c-0.156,0.094-0.28,0.172-0.374,0.234c-2.495,1.59-4.569,2.697-6.222,3.32l-2.433-4.069
				c4.554-1.403,8.265-3.399,11.134-5.988h-11.228v-3.789h7.673V42.064h-6.783v-3.789h6.783v-3.088h4.443v3.088h18.854v-3.088h4.443
				v3.088h7.111v3.789h-7.111v14.222h7.672v3.789h-11.227c3.43,2.683,7.203,4.554,11.32,5.614l-2.012,4.21
				c-1.934-0.655-4.194-1.731-6.783-3.228v2.994h-10.479v3.555h17.075v3.742h-38.454v-3.742h16.935v-3.555h-10.339V66.578z
				 M601.026,65.923v-3.976h4.444v3.976h9.216c-2.339-1.622-4.554-3.571-6.643-5.848h-9.918c-1.466,1.81-3.196,3.462-5.192,4.959
				c-0.313,0.219-0.702,0.515-1.17,0.889H601.026z M593.635,56.286h18.9v-2.714h-18.9V56.286z M593.682,44.497h18.854v-2.433
				h-18.854V44.497z M593.682,50.345h18.854v-2.62h-18.854V50.345z"/>
			<path fill="#FFFFFF" d="M638.814,72.753c-1.436-4.054-2.62-6.83-3.556-8.327l4.257-1.59c1.31,2.588,2.417,5.239,3.322,7.952
				l0.654,1.965h4.07V60.73h-16.889v-4.117h16.889v-5.192h-10.292v-2.105l-3.041,1.591l-3.462,1.684l-2.479-4.21
				c8.764-3.711,15.156-8.093,19.18-13.146h4.07c5.426,5.115,12.068,9.419,19.928,12.912l-2.713,4.07l-3.088-1.498
				c-1.559-0.811-2.572-1.371-3.04-1.684v2.386h-10.433v5.192h16.936v4.117h-16.936v12.022h4.117
				c1.496-3.274,2.869-6.674,4.117-10.198l4.303,1.73c-0.188,0.438-0.327,0.812-0.42,1.123c-0.998,2.838-2.043,5.287-3.135,7.345
				h8.982v4.07h-40.514v-4.07H638.814z M649.761,39.492c-3.149,3.306-6.237,5.926-9.263,7.86h19.461
				C656.56,45.199,653.16,42.58,649.761,39.492z"/>
			<path fill="#FFFFFF" d="M677.021,48.848l-1.918-4.07c8.358-3.15,14.768-6.269,19.227-9.356h4.539
				c5.645,3.369,12.068,6.378,19.273,9.029l-1.73,4.21l-1.404-0.607v12.163h-36.256V48.053L677.021,48.848z M679.688,47.678h34.478
				l-4.537-1.965l-4.539-2.198v2.151h-16.467v-2.338C686.315,44.731,683.337,46.182,679.688,47.678z M680.717,62.367h32.279v15.906
				h-4.304v-1.544h-23.624v1.544h-4.352V62.367z M694.611,50.859h-11.836v6.176h11.836V50.859z M685.068,68.121h23.624v-2.572
				h-23.624V68.121z M685.068,73.643h23.624v-2.808h-23.624V73.643z M688.529,56.941l-1.402-2.434
				c-0.563-0.967-1.029-1.684-1.404-2.151l2.714-1.45c0.593,0.593,1.169,1.279,1.73,2.059l1.497,2.152L688.529,56.941z
				 M696.764,38.603c-1.84,1.279-3.649,2.355-5.427,3.228c-0.281,0.125-0.655,0.312-1.123,0.562h13.099
				C701.005,41.238,698.822,39.975,696.764,38.603z M710.984,50.859h-12.35v6.176h12.35V50.859z M701.909,54.93
				c0.249-0.188,0.733-0.811,1.45-1.871l1.497-2.152l2.994,1.497l-1.497,2.526c-0.562,0.904-0.998,1.559-1.311,1.965L701.909,54.93z
				"/>
		</g>
		<g>
			<path fill="#FFFFFF" d="M130.688,108.172c-0.271,0.904-0.724,1.711-1.357,2.421c-0.634,0.71-1.474,1.278-2.521,1.704
				c-1.047,0.426-2.347,0.64-3.897,0.64c-2.586,0-4.577-0.678-5.973-2.034c-1.396-1.356-2.094-3.352-2.094-5.984v-1.703h3.688v1.161
				c0,0.8,0.064,1.536,0.194,2.207c0.129,0.671,0.355,1.253,0.678,1.743c0.323,0.49,0.775,0.871,1.356,1.142
				c0.581,0.271,1.324,0.406,2.229,0.406c1.679,0,2.835-0.452,3.468-1.356c0.633-0.903,0.95-2.117,0.95-3.641V84.655h3.688v20.766
				C131.095,106.351,130.959,107.268,130.688,108.172z"/>
			<path fill="#FFFFFF" d="M156.361,110.283c-1.884,1.77-4.568,2.653-8.051,2.653c-3.562,0-6.342-0.846-8.342-2.538
				c-2-1.691-3-4.384-3-8.077V84.655h3.688v17.665c0,2.479,0.657,4.357,1.971,5.637c1.314,1.277,3.208,1.917,5.683,1.917
				c2.345,0,4.129-0.64,5.354-1.917c1.224-1.279,1.836-3.158,1.836-5.637V84.655h3.688v17.666
				C159.187,105.859,158.245,108.514,156.361,110.283z"/>
			<path fill="#FFFFFF" d="M174.535,84.655c4.262,0,7.542,1.085,9.841,3.254s3.448,5.474,3.448,9.915
				c0,2.324-0.258,4.385-0.775,6.179c-0.517,1.795-1.317,3.306-2.402,4.532s-2.467,2.162-4.146,2.809
				c-1.679,0.645-3.667,0.968-5.966,0.968h-9.492V84.655H174.535z M174.846,109.218c0.413,0,0.929-0.032,1.548-0.097
				s1.277-0.22,1.974-0.465c0.697-0.246,1.387-0.602,2.071-1.066c0.684-0.465,1.297-1.098,1.839-1.898s0.987-1.802,1.335-3.003
				c0.348-1.201,0.522-2.655,0.522-4.36c0-1.652-0.162-3.133-0.484-4.438c-0.323-1.305-0.852-2.415-1.587-3.332
				s-1.684-1.615-2.845-2.093s-2.593-0.717-4.296-0.717h-6.193v21.469H174.846z"/>
			<path fill="#FFFFFF" d="M196.14,84.655v27.656h-3.688V84.655H196.14z"/>
			<path fill="#FFFFFF" d="M219.049,88.564c-1.407-0.98-3.078-1.472-5.014-1.472c-1.652,0-3.065,0.31-4.239,0.931
				c-1.175,0.619-2.143,1.453-2.904,2.498c-0.762,1.047-1.323,2.241-1.684,3.584c-0.361,1.344-0.542,2.738-0.542,4.184
				c0,1.576,0.181,3.068,0.542,4.476s0.922,2.635,1.684,3.681s1.736,1.879,2.923,2.499s2.607,0.93,4.259,0.93
				c1.213,0,2.291-0.2,3.233-0.601c0.942-0.399,1.755-0.954,2.439-1.664s1.22-1.555,1.607-2.536s0.62-2.04,0.697-3.175h3.678
				c-0.361,3.484-1.562,6.195-3.601,8.133s-4.827,2.905-8.363,2.905c-2.143,0-4.014-0.368-5.614-1.104
				c-1.601-0.735-2.931-1.749-3.991-3.041c-1.06-1.291-1.855-2.814-2.386-4.57s-0.795-3.642-0.795-5.656
				c0-2.014,0.285-3.906,0.854-5.675s1.403-3.312,2.502-4.63c1.099-1.316,2.467-2.355,4.106-3.117s3.517-1.144,5.634-1.144
				c1.445,0,2.813,0.193,4.104,0.58c1.291,0.387,2.439,0.954,3.446,1.702s1.846,1.684,2.517,2.806
				c0.671,1.123,1.11,2.42,1.317,3.892h-3.678C221.366,91.017,220.456,89.545,219.049,88.564z"/>
			<path fill="#FFFFFF" d="M234.115,84.655v27.656h-3.688V84.655H234.115z"/>
			<path fill="#FFFFFF" d="M251.895,84.655l10.802,27.656h-4.065l-3.02-8.313h-11.693l-3.098,8.313h-3.756l10.764-27.656H251.895z
				 M254.45,100.905l-4.607-12.919h-0.078l-4.685,12.919H254.45z"/>
			<path fill="#FFFFFF" d="M269.07,84.655v24.563h14.636v3.094h-18.323V84.655H269.07z"/>
			<path fill="#FFFFFF" d="M310.694,84.655c2.636,0,4.696,0.646,6.183,1.938s2.229,3.062,2.229,5.308
				c0,1.68-0.382,3.152-1.144,4.418c-0.763,1.266-1.984,2.131-3.664,2.596v0.077c0.801,0.155,1.452,0.413,1.955,0.774
				c0.504,0.361,0.904,0.794,1.201,1.297c0.297,0.504,0.516,1.065,0.658,1.685c0.142,0.62,0.252,1.265,0.329,1.937
				c0.052,0.671,0.09,1.355,0.116,2.052c0.025,0.697,0.09,1.382,0.193,2.052c0.104,0.672,0.252,1.311,0.445,1.918
				c0.193,0.606,0.484,1.143,0.871,1.606h-4.104c-0.259-0.284-0.434-0.671-0.523-1.161c-0.09-0.491-0.148-1.04-0.174-1.646
				c-0.026-0.607-0.053-1.259-0.078-1.956s-0.104-1.382-0.232-2.053c-0.104-0.671-0.232-1.31-0.387-1.917
				c-0.155-0.606-0.4-1.136-0.736-1.588c-0.336-0.451-0.775-0.813-1.317-1.084s-1.266-0.407-2.17-0.407h-8.99v11.813h-3.688V84.655
				H310.694z M311.467,97.211c0.775-0.129,1.453-0.381,2.035-0.756c0.58-0.375,1.045-0.879,1.395-1.512
				c0.348-0.634,0.522-1.455,0.522-2.463c0-1.396-0.388-2.533-1.162-3.412s-2.027-1.319-3.758-1.319h-9.143v9.656h7.671
				C309.879,97.405,310.692,97.341,311.467,97.211z"/>
			<path fill="#FFFFFF" d="M343.285,84.655v3.094h-15.41v8.813h14.365v3.094h-14.365v9.563h15.526v3.094h-19.214V84.655H343.285z"/>
			<path fill="#FFFFFF" d="M366.008,84.655v3.094h-14.48v8.813h12.699v3.094h-12.699v12.656h-3.688V84.655H366.008z"/>
			<path fill="#FFFFFF" d="M369.362,93.045c0.556-1.744,1.388-3.287,2.499-4.629c1.11-1.344,2.492-2.415,4.146-3.216
				s3.577-1.201,5.772-1.201s4.119,0.4,5.772,1.201s3.034,1.872,4.146,3.216c1.11,1.342,1.943,2.885,2.499,4.629
				c0.556,1.742,0.833,3.557,0.833,5.442s-0.277,3.7-0.833,5.442c-0.556,1.744-1.389,3.287-2.499,4.63
				c-1.111,1.343-2.492,2.408-4.146,3.196c-1.653,0.787-3.577,1.181-5.772,1.181s-4.119-0.394-5.772-1.181
				c-1.653-0.788-3.035-1.854-4.146-3.196c-1.111-1.343-1.943-2.886-2.499-4.63c-0.556-1.742-0.833-3.557-0.833-5.442
				S368.807,94.787,369.362,93.045z M372.759,102.609c0.361,1.356,0.929,2.576,1.703,3.662c0.774,1.084,1.769,1.956,2.981,2.615
				c1.213,0.658,2.658,0.987,4.336,0.987s3.123-0.329,4.336-0.987c1.213-0.659,2.207-1.531,2.98-2.615
				c0.775-1.086,1.343-2.306,1.704-3.662c0.361-1.355,0.542-2.73,0.542-4.126c0-1.395-0.181-2.771-0.542-4.126
				s-0.929-2.576-1.704-3.661c-0.773-1.085-1.768-1.956-2.98-2.615s-2.658-0.988-4.336-0.988s-3.123,0.329-4.336,0.988
				s-2.207,1.53-2.981,2.615s-1.342,2.306-1.703,3.661s-0.542,2.731-0.542,4.126C372.217,99.879,372.397,101.254,372.759,102.609z"
				/>
			<path fill="#FFFFFF" d="M412.507,84.655c2.636,0,4.696,0.646,6.183,1.938s2.229,3.062,2.229,5.308
				c0,1.68-0.382,3.152-1.144,4.418c-0.763,1.266-1.984,2.131-3.664,2.596v0.077c0.801,0.155,1.452,0.413,1.955,0.774
				c0.504,0.361,0.904,0.794,1.201,1.297c0.297,0.504,0.516,1.065,0.658,1.685c0.142,0.62,0.252,1.265,0.329,1.937
				c0.052,0.671,0.09,1.355,0.116,2.052c0.025,0.697,0.09,1.382,0.193,2.052c0.104,0.672,0.252,1.311,0.445,1.918
				c0.193,0.606,0.484,1.143,0.871,1.606h-4.104c-0.259-0.284-0.434-0.671-0.523-1.161c-0.09-0.491-0.148-1.04-0.174-1.646
				c-0.026-0.607-0.053-1.259-0.078-1.956s-0.104-1.382-0.232-2.053c-0.104-0.671-0.232-1.31-0.387-1.917
				c-0.155-0.606-0.4-1.136-0.736-1.588c-0.336-0.451-0.775-0.813-1.317-1.084s-1.266-0.407-2.17-0.407h-8.99v11.813h-3.688V84.655
				H412.507z M413.279,97.211c0.775-0.129,1.453-0.381,2.035-0.756c0.58-0.375,1.045-0.879,1.395-1.512
				c0.348-0.634,0.522-1.455,0.522-2.463c0-1.396-0.388-2.533-1.162-3.412s-2.027-1.319-3.758-1.319h-9.143v9.656h7.671
				C411.691,97.405,412.505,97.341,413.279,97.211z"/>
			<path fill="#FFFFFF" d="M431.127,84.655l8.713,23.241l8.752-23.241h5.033v27.656h-3.5V89.303h-0.077l-8.622,23.009h-3.133
				l-8.622-23.009h-0.077v23.009h-3.5V84.655H431.127z"/>
			<path fill="#FFFFFF" d="M488.648,84.655v3.094h-14.481v8.813h12.7v3.094h-12.7v12.656h-3.688V84.655H488.648z"/>
			<path fill="#FFFFFF" d="M492.002,93.045c0.555-1.744,1.389-3.287,2.499-4.629c1.11-1.344,2.492-2.415,4.146-3.216
				c1.652-0.801,3.577-1.201,5.772-1.201s4.119,0.4,5.772,1.201c1.652,0.801,3.035,1.872,4.146,3.216
				c1.11,1.342,1.943,2.885,2.499,4.629c0.555,1.742,0.833,3.557,0.833,5.442s-0.278,3.7-0.833,5.442
				c-0.556,1.744-1.389,3.287-2.499,4.63s-2.493,2.408-4.146,3.196c-1.653,0.787-3.577,1.181-5.772,1.181s-4.12-0.394-5.772-1.181
				c-1.653-0.788-3.035-1.854-4.146-3.196s-1.944-2.886-2.499-4.63c-0.556-1.742-0.833-3.557-0.833-5.442
				S491.446,94.787,492.002,93.045z M495.398,102.609c0.361,1.356,0.929,2.576,1.703,3.662c0.774,1.084,1.768,1.956,2.98,2.615
				c1.213,0.658,2.659,0.987,4.337,0.987s3.123-0.329,4.336-0.987c1.213-0.659,2.206-1.531,2.981-2.615
				c0.773-1.086,1.342-2.306,1.703-3.662c0.361-1.355,0.542-2.73,0.542-4.126c0-1.395-0.181-2.771-0.542-4.126
				s-0.93-2.576-1.703-3.661c-0.775-1.085-1.769-1.956-2.981-2.615s-2.658-0.988-4.336-0.988s-3.124,0.329-4.337,0.988
				s-2.206,1.53-2.98,2.615s-1.342,2.306-1.703,3.661s-0.542,2.731-0.542,4.126C494.856,99.879,495.037,101.254,495.398,102.609z"/>
			<path fill="#FFFFFF" d="M541.389,110.283c-1.883,1.77-4.567,2.653-8.051,2.653c-3.562,0-6.342-0.846-8.342-2.538
				c-2-1.691-3-4.384-3-8.077V84.655h3.688v17.665c0,2.479,0.656,4.357,1.971,5.637c1.314,1.277,3.209,1.917,5.684,1.917
				c2.344,0,4.129-0.64,5.354-1.917c1.224-1.279,1.836-3.158,1.836-5.637V84.655h3.688v17.666
				C544.215,105.859,543.273,108.514,541.389,110.283z"/>
			<path fill="#FFFFFF" d="M553.957,84.655l14.583,22.427h0.063V84.655h3.5v27.656h-4.03l-14.455-22.194h-0.077v22.194h-3.5V84.655
				H553.957z"/>
			<path fill="#FFFFFF" d="M587.514,84.655c4.262,0,7.542,1.085,9.841,3.254s3.448,5.474,3.448,9.915
				c0,2.324-0.258,4.385-0.775,6.179c-0.516,1.795-1.316,3.306-2.402,4.532c-1.084,1.227-2.467,2.162-4.145,2.809
				c-1.68,0.645-3.668,0.968-5.967,0.968h-9.492V84.655H587.514z M587.825,109.218c0.413,0,0.929-0.032,1.548-0.097
				s1.277-0.22,1.975-0.465c0.696-0.246,1.387-0.602,2.07-1.066s1.297-1.098,1.84-1.898c0.541-0.801,0.986-1.802,1.335-3.003
				s0.522-2.655,0.522-4.36c0-1.652-0.162-3.133-0.484-4.438s-0.852-2.415-1.587-3.332s-1.685-1.615-2.845-2.093
				c-1.162-0.478-2.594-0.717-4.297-0.717h-6.193v21.469H587.825z"/>
			<path fill="#FFFFFF" d="M616.871,84.655l10.803,27.656h-4.065l-3.021-8.313h-11.692l-3.098,8.313h-3.756l10.765-27.656H616.871z
				 M619.427,100.905l-4.607-12.919h-0.077l-4.686,12.919H619.427z"/>
			<path fill="#FFFFFF" d="M627.427,87.749v-3.094h22.118v3.094h-9.216v24.563h-3.688V87.749H627.427z"/>
			<path fill="#FFFFFF" d="M656.424,84.655v27.656h-3.688V84.655H656.424z"/>
			<path fill="#FFFFFF" d="M661.908,93.045c0.555-1.744,1.389-3.287,2.499-4.629c1.11-1.344,2.492-2.415,4.146-3.216
				c1.652-0.801,3.577-1.201,5.772-1.201s4.119,0.4,5.772,1.201c1.652,0.801,3.035,1.872,4.146,3.216
				c1.11,1.342,1.943,2.885,2.499,4.629c0.555,1.742,0.833,3.557,0.833,5.442s-0.278,3.7-0.833,5.442
				c-0.556,1.744-1.389,3.287-2.499,4.63s-2.493,2.408-4.146,3.196c-1.653,0.787-3.577,1.181-5.772,1.181s-4.12-0.394-5.772-1.181
				c-1.653-0.788-3.035-1.854-4.146-3.196s-1.944-2.886-2.499-4.63c-0.556-1.742-0.833-3.557-0.833-5.442
				S661.353,94.787,661.908,93.045z M665.305,102.609c0.361,1.356,0.929,2.576,1.703,3.662c0.774,1.084,1.768,1.956,2.98,2.615
				c1.213,0.658,2.659,0.987,4.337,0.987s3.123-0.329,4.336-0.987c1.213-0.659,2.206-1.531,2.981-2.615
				c0.773-1.086,1.342-2.306,1.703-3.662c0.361-1.355,0.542-2.73,0.542-4.126c0-1.395-0.181-2.771-0.542-4.126
				s-0.93-2.576-1.703-3.661c-0.775-1.085-1.769-1.956-2.981-2.615s-2.658-0.988-4.336-0.988s-3.124,0.329-4.337,0.988
				s-2.206,1.53-2.98,2.615s-1.342,2.306-1.703,3.661s-0.542,2.731-0.542,4.126C664.763,99.879,664.943,101.254,665.305,102.609z"/>
			<path fill="#FFFFFF" d="M695.913,84.655l14.583,22.427h0.063V84.655h3.5v27.656h-4.03l-14.454-22.194h-0.078v22.194h-3.5V84.655
				H695.913z"/>
		</g>
	</g>
</g>
</svg>
