<svg xmlns="http://www.w3.org/2000/svg" viewBox="0 0 389.68 273.84"><defs><style>.cls-1{fill:#fff;}</style></defs><title>資產 1</title><g id="圖層_2" data-name="圖層 2"><g id="圖層_1-2" data-name="圖層 1"><path class="cls-1" d="M138.29,158.82c-6.31-7.68-15.66-11-25.28-12.1-6-.67-12.1-.33-18.16-.24-6.22.09-12.42-.24-18.61-.77a238.47,238.47,0,0,1-34.73-6.08c-6.07-1.45-12.08-3.11-18.15-4.57S11,131.88,4.92,132.69c-3.61.48-7,5.19-3.39,8.19,8.79,7.39,22,9.91,33,12.45a205,205,0,0,0,34.81,5.35c11.91.67,23.25-.89,35-2.43,10.4-1.35,22.39-1.9,30.38,6.14,2.34,2.36,5.62-1.11,3.58-3.58Z"/><path class="cls-1" d="M21.82,226.26c18.13-11.85,35.1-29,45.23-48.25,5.55-10.56,8.22-22.35,14.89-32.36,6.41-9.63,15-17.48,21.81-26.79,2-2.78-1.89-6.34-4.62-4.62a88.18,88.18,0,0,0-24.88,23.71c-6.83,9.67-9.83,21.11-14,32-8.3,21.75-25.34,36.83-40.33,53.82-1.12,1.27.33,3.5,1.91,2.47Z"/><path class="cls-1" d="M85.48,171.35c-1.76,4.8-2.14,10.19-2.81,15.23s-1.33,10.29-1.73,15.47-.76,10.32-1,15.48c-.24,4.86-1.06,10.39,2.32,14.26l6.33-4.88A12.62,12.62,0,0,0,87,225a2.87,2.87,0,0,0-4,0,12.51,12.51,0,0,0-1.43,1.91c-2.36,3.83,3.26,8.36,6.33,4.88,3.38-3.83,2.61-9.42,2.54-14.26-.07-5.16-.11-10.32-.07-15.48s0-10.31,0-15.47.36-10.25-.52-15.23c-.42-2.41-3.68-1.88-4.37,0Z"/><path class="cls-1" d="M89.24,176.39c3-.62,7.62-3,10.06-.42s2.76,8.56,3.23,11.86c1.25,8.76.54,17.71-.33,26.46s-1.83,17.39-2.74,26.09c-.48,4.5-1,9-1.43,13.51-.41,4.3-1.37,9,1.07,12.79a3.34,3.34,0,0,0,5.19.67c3.65-3.92,3.35-10,3.76-15,.43-5.3.84-10.6,1.25-15.89.88-11.21,2.15-22.48,2.3-33.73.13-9.49-.37-20.8-5.51-29.14-4.24-6.88-13.5-4.75-18.4.2a1.59,1.59,0,0,0,1.53,2.63Z"/><path class="cls-1" d="M89.52,197.16c3.39.09,6.6-.36,10,.14,3.12.46,5.89,1.75,8.85.2a2.77,2.77,0,0,0,1-3.73c-3.38-6.07-16.17-3.65-20.89-.47a2.09,2.09,0,0,0,1,3.86Z"/><path class="cls-1" d="M89.18,211.28a39.83,39.83,0,0,1,9.1-2.62c2.91-.49,5.43-.46,8.13-1.78a2.55,2.55,0,0,0,0-4.38c-6.29-3.27-14.51.73-19.67,4.59a2.42,2.42,0,0,0,2.44,4.18Z"/><path class="cls-1" d="M154,154.43a97,97,0,0,0,21.31,3c4.15.09,15.16,1.38,15.58-4.9.45-6.83-10.14-4.29-14-4a172.73,172.73,0,0,1-22.1.06c-3.38-.21-4.05,5.08-.8,5.88Z"/><path class="cls-1" d="M153.42,159.18c-4.56,13.27-4.21,27.2-3.19,41,.52,7.07,1.06,14.13,1.08,21.22,0,3.27-.06,6.53-.37,9.78-.18,1.9-.47,3.79-.78,5.67-.08.49-.49,4.74-.62,4.81l2.31-.3-.53-.12a2.53,2.53,0,0,0-3.07,1.74,4,4,0,0,0,3.8,5.07c4.18.25,5.83-4,6.67-7.4,2.15-8.51,1.93-17.63,1.17-26.31-1.56-17.77-6-36.16-1.58-53.83.79-3.19-3.83-4.41-4.89-1.35Z"/><path class="cls-1" d="M157.9,184.37c5.62-1.95,11.31-3.71,17-5.4,4.88-1.45,11.75-2,15.38-5.87a3,3,0,0,0-1.29-4.88c-5.35-1.62-11.87,1.91-16.77,3.84a152.18,152.18,0,0,0-16.29,7.68c-2.49,1.34-.79,5.58,2,4.63Z"/><path class="cls-1" d="M170.55,187.94c-.55,3.81-1,7.63-1.15,11.47-.16,3.63-.69,7.63,1.37,10.78a3.08,3.08,0,0,0,5.54-.72c1.15-3.22,0-6.74-.39-10.06a104.29,104.29,0,0,1-.55-10.82c0-2.67-4.42-3.47-4.83-.65Z"/><path class="cls-1" d="M171.66,197.2c3.65-2.23,8.76-2.62,12.24.23v-4.66c-2.2,2.21-4.24,4.56-6.25,7-1.76,2.1-3.51,4.09-3.69,6.9a2.37,2.37,0,0,0,3,2.26c2.78-.6,4.65-3,6.43-5.11,2-2.29,3.91-4.58,5.72-7,1.08-1.44.21-3.67-1.18-4.51-5.79-3.51-13.67-2.81-18,2.72-.91,1.18.22,3.15,1.72,2.23Z"/><path class="cls-1" d="M170.76,213.93c-.38,5.69-2.08,10.85-3.89,16.21-1.35,4,5.22,6.87,6.89,2.91,2.69-6.36,3-13,1.75-19.75-.51-2.83-4.58-1.93-4.75.64Z"/><path class="cls-1" d="M180,218.37c-1.4,3.35-4.25,5.88-4.8,9.59a8.61,8.61,0,0,0,4.25,8.71c7.29,4.19,15.41-1.71,17.46-8.92a3.3,3.3,0,0,0-4.79-3.69c-1.81,1-6.8,6.43-9.28,4.85-2-1.24,1.77-7.49,2.28-9.14,1-3.35-3.83-4.45-5.11-1.41Z"/><path class="cls-1" d="M186.9,213.92c1.84,4.51,4.43,9.63,9.13,11.76a3.81,3.81,0,0,0,4.85-1,3.73,3.73,0,0,0-.29-4.93c-3-2.58-6.62-4.49-8.85-7.9-1.54-2.36-6-.89-4.84,2Z"/><path class="cls-1" d="M195.37,208.28c2.72,4.62,8.44,10.64,14.41,9.2a2.94,2.94,0,0,0,1.29-4.88c-1.78-1.61-4.12-2.15-6.22-3.23a20.78,20.78,0,0,1-5.62-4.07c-1.94-2-5.28.57-3.86,3Z"/><path class="cls-1" d="M169.48,139.75c4.25,4.64,9.28,8.48,13.36,13.35a149.51,149.51,0,0,1,11.33,16c6.93,10.92,13.2,22.26,21.2,32.47a117.88,117.88,0,0,0,29.51,26.59c10.65,6.83,23.57,13.17,36.28,14.59,3.75.42,4.85-5.18,1.86-6.87-5.69-3.22-11.81-5.73-17.58-8.82a165.11,165.11,0,0,1-45.27-35.89c-8.29-9.42-15.07-20-22.67-30-6.81-8.91-15.39-20.33-26.19-24.56-1.87-.73-3,1.88-1.83,3.14Z"/><path class="cls-1" d="M189.7,134.09c6.7,3.52,15.2,6,22.77,6.08a2.21,2.21,0,0,0,1.1-4.08c-6.6-3.72-15.21-5.74-22.79-6a2.17,2.17,0,0,0-1.09,4Z"/><path class="cls-1" d="M219.58,169.76q-3.43,7.89-6.23,16c-1.87,5.48-4,10.92-4.2,16.77-.14,3.29,4.41,4.26,6,1.63,2.9-4.76,4.13-10.22,5.56-15.55,1.49-5.55,2.76-11.15,3.77-16.81.49-2.75-3.61-5.08-4.91-2.07Z"/><path class="cls-1" d="M266.46,136.2c-7.28,8.72-14.48,17.51-22,26.05a3.07,3.07,0,0,0,2.14,5.18c1.84,0,3.1,18.43,3.36,20.54.44,3.56.83,7.12,1.4,10.66.59,3.71.87,7.5,3.54,10.32a2.67,2.67,0,0,0,4.16-.54c2.07-4.16.77-9.17.11-13.6-.79-5.29-1.81-10.55-2.71-15.82-1-5.78-1.16-18.2-9.85-17.63l2.62,4.56c6.71-9.15,13.72-18.08,20.64-27.07,1.5-2-1.85-4.56-3.44-2.65Z"/><path class="cls-1" d="M251.29,175.78c7.46-1.43,14.67-4.58,21.94-6.79,3.91-1.19,7.85-2.31,11.79-3.41,3.21-.9,7.67-2.94,11-2.31,5.82,1.09,4.58,13.49,4.35,17.68a63.11,63.11,0,0,1-1.65,11.23A39.73,39.73,0,0,1,297.1,198a5.53,5.53,0,0,1-.84,1.76q-1.45,1.48,1.65.57c-2.91-2.84-8.39,0-7.06,4.11a8.14,8.14,0,0,0,10.37,5.24c5.49-1.7,6.88-8.13,7.87-13.05,2.07-10.31,2.56-22.87-1.5-32.79-1.57-3.84-4.42-7.23-8.59-8.32-5.31-1.38-11.05,1-16.06,2.55-5.88,1.8-11.69,3.82-17.45,6-5.46,2-11.25,3.92-16.21,7a2.62,2.62,0,0,0,2,4.77Z"/><path class="cls-1" d="M266.34,189.81a27.21,27.21,0,0,0-.58,8.56c.26,2.57.58,5.77,3.1,7.07a2.3,2.3,0,0,0,3.33-1.35c.75-2.22-.54-4.29-1.08-6.44a22.67,22.67,0,0,1-.53-7.26c.18-2.41-3.71-2.94-4.22-.57Z"/><path class="cls-1" d="M269.82,190.63c2.4-1.2,5.44-2.43,8.18-2.44l-.72-.62q-.14.87-.3,1.74c-.23,1.21-.48,2.41-.81,3.59a10.44,10.44,0,0,1-3.32,5.67c-1.68,1.3-3.87,1.37-5.58,2.63a3.48,3.48,0,0,0-.69,5.37c3.53,3.87,9.4,1.56,12.51-1.73,3.44-3.63,4.48-8.53,4.78-13.36.21-3.46.32-8.41-4.15-9-4.24-.55-9,2.83-12,5.42-1.56,1.35.43,3.54,2.09,2.71Z"/><path class="cls-1" d="M319.43,152.8c.24,6.29,6,14.81,13.14,13.08,1.92-.46,2.08-2.65,1.05-4-1.53-2-3.59-3.08-5.52-4.62a20.39,20.39,0,0,1-4.45-5.63c-1.12-1.87-4.31-1.15-4.22,1.14Z"/><path class="cls-1" d="M345.16,147.18c1.75,7.32-6.74,13.15-12,16.42-5.93,3.66-13,6.78-20,7.4l.81,6c9.56-2,19-4.73,28.38-7.36,4.44-1.24,8.91-2.41,13.33-3.75,4.56-1.38,9.8-2.59,13.71-5.41a3.18,3.18,0,0,0-1.59-5.87c-4.58-.21-9.28,1.46-13.64,2.71-4.7,1.35-9.34,2.9-14,4.38-9.33,3-18.69,5.86-27.82,9.38-3.61,1.39-2.28,6.89,1.63,5.91,9.67-2.43,18.53-5.43,26.6-11.5,6.2-4.67,11.73-11.9,8.17-19.82-.92-2-4-.56-3.51,1.48Z"/><path class="cls-1" d="M320.85,192c-1.2,3.63-.5,7.29-.07,11,.47,4.06.88,8.13,1.2,12.21a168.42,168.42,0,0,1,.2,23.11c-.46,7.7-1.4,15.36-2.45,23-.43,3.11-1.17,6.13.29,9.08a5.65,5.65,0,0,0,6.74,3.16c4.46-1.52,4.83-11.5,5.37-15.18a132.43,132.43,0,0,0,1.2-23.14,179.8,179.8,0,0,0-2.2-22.81c-1.07-6.73-2.1-16.3-7.31-21.21a1.79,1.79,0,0,0-3,.78Z"/><path class="cls-1" d="M324.4,206.91c2.11-1.61,4.2-3.22,6.19-5s5.16-5.73,7.7-6.13l-2.23-.29c3.9,2.1,5.53,9.38,6.29,13.3a70.32,70.32,0,0,1,.84,14.84,142.2,142.2,0,0,0,.07,15.75c.44,4.83,1,11.76,5,15a3.94,3.94,0,0,0,6.62-2.74c.33-3.78-1.65-7.64-2.25-11.38a100.13,100.13,0,0,1-1-12.32c-.26-7.48-.41-15.08-2.47-22.33-1.41-4.93-4.77-13.89-10.4-15.29-3.22-.8-5.27,2-7.28,4.07-3.14,3.24-6.23,6.46-9.12,9.91-1.1,1.32.4,3.82,2,2.59Z"/><path class="cls-1" d="M327.1,214.19c6.71,2.24,16.7,2.1,21.3-4.11,1.26-1.71-.44-4.31-2.42-4.22-3,.14-5.7,1.51-8.58,2.32a51.5,51.5,0,0,1-9.72,1.78,2.16,2.16,0,0,0-.57,4.22Z"/><path class="cls-1" d="M337,232.81c2.57-.51,5.05-2.6,7.11-4.17,2.31-1.77,4.58-3.57,6.73-5.53,2.59-2.36-.79-6.81-3.77-4.89-2.44,1.58-4.75,3.33-7.05,5.11-2.06,1.6-4.68,3.44-5.83,5.81a2.53,2.53,0,0,0,2.82,3.67Z"/><path class="cls-1" d="M365.72,191.29c-3.2,6.49-3.34,15.41,2.72,20.3a3.24,3.24,0,0,0,5.07-3.91c-2.05-4.58-3.62-9-2.11-14,1-3.31-4.11-5.6-5.68-2.4Z"/><path class="cls-1" d="M382,178.1c-.7,12.18-1.64,24.39-3,36.51-.54,4.94-1,10-2.23,14.86-1.08,4.09-3,6.8-5.56,10.1-3.18,4.17,2.07,8.31,6,7.76,12-1.71,12.08-19,12.36-28a251.17,251.17,0,0,0-2.13-42c-.44-3.23-5.26-2.2-5.43.73Z"/><path class="cls-1" d="M74.63,3.52c7.88,5.24,17.8,8.1,26.67,11.19,6.26,2.18,18.41,6.65,23.82.67.91-1,1-3-.47-3.62-3.42-1.58-7.42-1-11.1-1.81-4.23-.87-8.4-2.12-12.54-3.33C92.72,4.17,84.2.94,75.58,0c-2-.21-2.35,2.57-.95,3.51Z"/><path class="cls-1" d="M104,17.68q-2.13,3.65-4.35,7.26c-1.34,2.19-3.29,4.44-2.94,7.13.25,1.89,2,3.26,3.87,2.22,2.38-1.32,3-3.77,3.93-6.17,1.09-2.74,2.19-5.47,3.33-8.19,1.08-2.56-2.35-4.8-3.85-2.25Z"/><path class="cls-1" d="M87.54,32.73c3.89,2.08,8.56,2.8,12.86,3.62,4.76.91,9.52,1.75,14.32,2.46L113,32.42a19.82,19.82,0,0,1-10.36,5.74c-3.27.66-6.89-.15-9.56,2.19a2.14,2.14,0,0,0-.33,2.56c2.27,4.21,8.59,3.32,12.49,2.41a27.39,27.39,0,0,0,13.16-7.5c1.85-1.86,1.26-5.93-1.69-6.39-4.86-.75-9.73-1.35-14.61-1.93C97.53,29,92.6,28.19,88,29.08a2,2,0,0,0-.48,3.65Z"/><path class="cls-1" d="M102.88,48.77c-.67,2.7-1.88,5.21-2.64,7.89C99.57,59,98.48,61.56,99.09,64a2.1,2.1,0,0,0,3,1.24c5.25-2.68,5.15-11,5-15.93-.09-2.36-3.62-3-4.22-.57Z"/><path class="cls-1" d="M83.39,17.92q-.53,12.64-1,25.28-.23,6.32-.48,12.64c-.11,2.86-.59,5.91,1.51,8.18,4,4.27,12.28,3.14,17.33,2.28,3.63-.62,7.14-1.66,10.7-2.54,3.26-.81,6.75-1.06,9.8-2.49,1.68-.79,1.73-3.74,0-4.51-4.88-2.17-10.83-.45-15.83.7-2.94.67-5.83,1.54-8.83,1.93-1.52.2-7.13,1.07-8.32-.38-.38-.46-.18-4.12-.21-4.74-.07-1.58-.14-3.16-.21-4.74-.15-3.69-.26-7.37-.39-11.06q-.34-10.27-.63-20.54a1.73,1.73,0,0,0-3.46,0Z"/><path class="cls-1" d="M129.09,27.14a114.33,114.33,0,0,0-5.41,13.22c-1.33,4-3.5,8.92-2.31,13.1.57,2,3,2,4.07.53,2.41-3.21,2.53-8.32,3.59-12.15A108.5,108.5,0,0,1,133.51,29c1-2.51-3.24-4.33-4.42-1.86Z"/><path class="cls-1" d="M142.45,35.51a30.21,30.21,0,0,0-14.45,1c-2.72.87-2.41,5.42.7,5.2,4.35-.3,8.73-.61,13.06-1.12,2.6-.31,3.81-4.5.68-5.05Z"/><path class="cls-1" d="M125.2,55.1c4.86-.14,10.27.39,14.77-1.68,1.32-.61.84-2.58-.39-2.95-4.57-1.36-9.74-.05-14.38.48-2.58.3-2.73,4.22,0,4.15Z"/><path class="cls-1" d="M111.49,73.8c-3.06,5.25-7.26,16.48-2.16,21.6a2,2,0,0,0,3.34-.88c.89-2.72-.24-5.6-.29-8.42a25.59,25.59,0,0,1,2.1-10.56c.84-2-1.83-3.73-3-1.74Z"/><path class="cls-1" d="M111.49,77.94a47.75,47.75,0,0,0,9.4-2.11l5.15-1.54c1.33-.4,3.4-1.52,4.78-1.41,6.42.5,1.76,13-.39,15.73-1.33,1.66-.17,4.71,2.28,3.91,7.75-2.5,8.54-15.08,5.08-21.32-2.06-3.71-5.68-3.86-9.37-2.77C122.55,70.18,116,72,110.72,75.08c-1.24.72-.79,3,.78,2.86Z"/><path class="cls-1" d="M116.91,78.29c-1.69,3.73-2.19,9.24,1.19,12.22a1.51,1.51,0,0,0,2.5-1.46c-1-3.44-2.27-6-1.09-9.67.49-1.5-1.93-2.58-2.6-1.09Z"/><path class="cls-1" d="M125.19,75.47a20.76,20.76,0,0,1-.92,6.81c-.62,2.07-1.73,4-2.29,6a1.82,1.82,0,0,0,3,1.76c3.91-3.62,3.9-10.16,2.76-15a1.31,1.31,0,0,0-2.56.35Z"/><path class="cls-1" d="M97.45,90.16,95.28,91c-2.36.51-1.55,3.69.53,3.91,9.51,1,19.16.92,28.55,2.91,6.93,1.47,17.89,5.65,23.08-1.11,1.39-1.81-.16-4.39-2-5-3.76-1.16-8.08.23-12.05-.28-4.22-.53-8.37-1.43-12.61-1.81A99.26,99.26,0,0,0,95.28,91l2.25,2.92,1.41-1.83a1.23,1.23,0,0,0-1.49-1.93Z"/><path class="cls-1" d="M169.34,18c0,6.19-.59,12.81.75,18.89.55,2.51,3.89,1.63,4.15-.56.71-6-.57-12.36-1.13-18.33-.22-2.37-3.77-2.47-3.76,0Z"/><path class="cls-1" d="M171.93,27.08c3.3,3.28,8.18,4.79,12.51,2.61a1.62,1.62,0,0,0-.81-3c-3.46,0-6.77-.18-9.79-2.07a1.58,1.58,0,0,0-1.91,2.47Z"/><path class="cls-1" d="M149,49.2a68.24,68.24,0,0,0,22.75,1.13c5.71-.73,15.52-1.71,18.92-7a2,2,0,0,0-1.22-3c-2.89-.51-5.33.67-8.07,1.51a82.06,82.06,0,0,1-9.72,2.47,66.32,66.32,0,0,1-21.42.33c-2.9-.43-4.25,3.88-1.25,4.52Z"/><path class="cls-1" d="M172,46.78c-.44,5.5-.85,11-1.17,16.5-.06,1,.17,3.12-.23,3.93l.14.66-2,.48a18.11,18.11,0,0,0-6.35,2.93c-1.58,1.12-1.56,3.82.57,4.35C168,76.91,177.17,77,177.7,70c.29-3.87-.92-8.36-1.41-12.21s-1-7.59-1.53-11.38c-.24-1.68-2.67-1.11-2.79.38Z"/><path class="cls-1" d="M169,55.66c-5.65,1.48-12.61,5.76-13.19,12.13-.16,1.72,2.06,2.25,3.15,1.3,1.8-1.57,3.14-3.61,4.9-5.26a16.56,16.56,0,0,1,6.38-3.65c2.86-.9,1.69-5.28-1.25-4.52Z"/><path class="cls-1" d="M168.82,59.63c4.34.27,8.52.74,12.71-.64a1.86,1.86,0,0,0,0-3.55c-4.19-1.39-8.37-.91-12.71-.64a2.42,2.42,0,0,0,0,4.84Z"/><path class="cls-1" d="M196.84,38.78a27.55,27.55,0,0,1,11.9-4.39c.25,0,3.74-.4,3.79-.16s-1.55,1.39-1.68,1.51l-5.31,4.76c-3.34,3-6.59,6.08-9.82,9.2-2.95,2.84-6.19,5.18-6.76,9.4-.26,1.94,1.94,2.87,3.45,2.63,3.31-.53,5.26-3.31,7.42-5.67s4.32-4.64,6.41-7c2.45-2.78,4.8-5.65,7.2-8.47,1.44-1.69,4-3.82,4.42-6.08.71-4.2-4.45-5-7.39-4.73a31.3,31.3,0,0,0-15.62,5.63c-2,1.42-.17,4.76,2,3.38Z"/><path class="cls-1" d="M189.94,46.87a146.65,146.65,0,0,0,13.91,5.06c4.21,1.33,9.2,3.63,13.63,2.67a2.13,2.13,0,0,0,.93-3.53c-3-3.29-8.71-4.15-12.92-5.11a73.59,73.59,0,0,0-14.78-2c-1.43,0-2.22,2.25-.78,2.86Z"/><path class="cls-1" d="M185.94,72.93c-.09,5.24-.56,10.44-1.16,15.64-.49,4.22-2.34,9.41-.36,13.38a1.94,1.94,0,0,0,3,.39c3.29-3,3-8.84,3.26-13a93.9,93.9,0,0,0-.76-16.42c-.3-2.49-3.95-2.64-4,0Z"/><path class="cls-1" d="M186.27,74c1-3,5.32-4.09,8.24-3.44,2.51.56,2.42,1.9,2.72,4.31.24,1.92.37,3.84.46,5.78a80.19,80.19,0,0,1-.16,10.88c-.3,3.26-1.51,6.13.3,9.05a2.7,2.7,0,0,0,4.16.54c4-3.22,2.89-11.93,2.67-16.58s-.52-12.31-3.43-16.29c-3.86-5.26-16-.75-17.11,5.17a1.11,1.11,0,0,0,2.15.59Z"/><path class="cls-1" d="M188.06,84.57c2.43.15,5-.48,7.4-.59s4.91.19,6.92-1.11a2.52,2.52,0,0,0,0-4.31c-2.3-1.34-5.17-.74-7.68-.2s-5.46,1.16-7.61,2.64a1.94,1.94,0,0,0,1,3.58Z"/><path class="cls-1" d="M187.15,95c4.59.46,11.05.3,14.29-3.49a1.87,1.87,0,0,0-1.3-3.15c-2.23,0-4,.83-6.12,1.43a42.56,42.56,0,0,1-6.87,1.44,1.88,1.88,0,0,0,0,3.76Z"/><path class="cls-1" d="M188,105.71c4.47.57,10-.39,12.95-4.13,1.3-1.67.18-4.43-2.2-3.79-3.87,1-7.3,3-11.33,3.61-2.66.42-1.62,4,.58,4.3Z"/><path class="cls-1" d="M236,41.22c5.86.19,12-1.64,17.66-2.83,6.2-1.3,12.43-2.47,18.64-3.73,12.39-2.5,24.9-4.39,37.14-7.54,3.57-.92,2.94-6.82-.89-6.56-12.71.84-25.15,3.59-37.53,6.52-6.15,1.46-12.24,3.16-18.31,4.93-5.79,1.69-12.34,3.19-17.45,6.5a1.47,1.47,0,0,0,.74,2.72Z"/><path class="cls-1" d="M262.33,21c-2.19,6.86-1,15.45,3.69,21.05,1.31,1.57,3.59-.15,3.21-1.87-1.43-6.37-2.89-12.15-3.43-18.72a1.78,1.78,0,0,0-3.47-.47Z"/><path class="cls-1" d="M279.69,14.85c-2.2,9.55-4.6,20.07-3.15,29.88.32,2.19,4,2.14,4.37,0,1.67-9.64,1.11-19.66,2.32-29.4.25-2-3.09-2.44-3.55-.48Z"/><path class="cls-1" d="M226.78,62.42a6.66,6.66,0,0,1-2.45.66c-2.22.38-2.1,3.91,0,4.37,3.68.81,7.58.29,11.29-.09s7.34-.62,10.57-2.5c2-1.15,1.84-4.84-.69-5.26-3.69-.62-7.16.24-10.8,1s-7.51,1.17-10.91,2.76l2.74,3.56,1.58-1.29c1.53-1,.61-3.89-1.33-3.16Z"/><path class="cls-1" d="M231.63,81.14a87.3,87.3,0,0,0,15.67-4.44c3.5-1.33,2.2-6.62-1.57-5.7a90.92,90.92,0,0,0-16.05,5.51c-2.79,1.26-.67,5.11,2,4.63Z"/><path class="cls-1" d="M234.84,96.19c4.47-4.32,9.9-7.14,15.21-10.26,1.4-.82.93-3.53-.89-3.29-7.12.92-12.91,4.94-17.79,10.07-2.18,2.29,1.2,5.68,3.48,3.48Z"/><path class="cls-1" d="M279.44,51.76c-4.17,3.87-8.86,7.55-12.22,12.18-1.38,1.9,1.29,4.32,3.15,3.15,4.84-3,8.84-7.53,13-11.42,2.6-2.45-1.31-6.33-3.91-3.91Z"/><path class="cls-1" d="M272.56,65.92c6.82-2.07,13.61-4.15,20.35-6.49l-3.3-5.67A202,202,0,0,1,272,73.08c-3,2.85-6.06,5.6-9.16,8.33-3.27,2.88-7.07,5.39-9.43,9.11a3.18,3.18,0,0,0,3.56,4.63c4.1-1.3,7.29-4.3,10.51-7.05,3.51-3,6.84-6.17,10.06-9.49a199,199,0,0,0,17.45-20.74c1.69-2.3-1.15-6-3.83-5-6.88,2.73-13.62,5.68-20.38,8.68-2.48,1.1-.71,5.12,1.83,4.35Z"/><path class="cls-1" d="M252.84,72.64c10.43,3.24,20.84,6.54,31.36,9.51,9.94,2.81,20.72,7.11,31.14,7.21,2.84,0,4-4.05,1.47-5.44-9.16-4.94-20.64-6.4-30.69-8.74-10.66-2.48-21.38-4.63-32.09-6.84a2.23,2.23,0,0,0-1.18,4.3Z"/><path class="cls-1" d="M275.28,94.94C274,99,272.92,103.07,272,107.25c-.57,2.65-1.94,6.1-1,8.78.88,2.49,3,3.53,5.36,4.2,4.09,1.14,8.41,1.74,12.57,2.6,2.82.58,4.8-1.2,5.13-3.91.88-7.14,6.16-13,3.32-20.5-2.54-6.69-9.55-6.1-15.2-8.3-2.62-1-4.36,2.27-3.34,4.34,2.44,5,10.79,2.32,11.93,7.33.63,2.75-1,5.69-2.08,8.08a29.26,29.26,0,0,0-2.74,9l5.13-3.91-7.93-1.36c-1.56-.27-3.18-.64-4.76-.81l-1.1-.24q1.12.85.88-.5c1-1.65.66-6,.86-7.9.3-2.88.37-5.78.51-8.67.12-2.53-3.59-2.88-4.3-.58Z"/><path class="cls-1" d="M331,7.53c3,2.07,8.26,5.06,12.06,3.63,1.24-.46,2.18-2.31.88-3.34-1.58-1.25-3.5-1.59-5.42-2.11a53.33,53.33,0,0,1-5.92-2c-2.3-.92-3.42,2.55-1.6,3.79Z"/><path class="cls-1" d="M319.59,25.8c.2,7.08-.15,14.45,1.1,21.44.4,2.21,3.55,1.49,3.7-.5.52-6.9-.6-14-1.11-20.94-.17-2.34-3.76-2.4-3.69,0Z"/><path class="cls-1" d="M322.45,31.71c7.15-3.11,14.22-6.25,21.72-8.46q5.2-1.53,10.53-2.61c3.69-.75,8.77-2.39,12.47-1.4l-2.85-3.74c.4,3.84,1.2,8.47-.43,12.15-1.76,4,2.65,7.82,6.15,4.75,5.4-4.75,4.33-11.89,1.89-17.93-.95-2.34-3.3-3.62-5.7-2.32-3.46,1.88-8.52,2-12.33,2.93q-6,1.52-11.75,3.63A98.65,98.65,0,0,0,320.86,29a1.58,1.58,0,0,0,1.59,2.72Z"/><path class="cls-1" d="M337.6,30.15c-2.75,5.61-5.09,11.31-7.43,17.1-1.59,3.93-4.22,8.83.46,11.74,4.06,2.53,10.64,2.52,15.24,2.25,4.79-.29,10.58-1.16,13.61-5.21,1-1.29-.08-3.16-1.45-3.55-3.46-1-7.18.24-10.69.55a52.6,52.6,0,0,1-5.9.26c-1.86,0-4.54-.91-6.3-.6q-1.82-.69,0,1l.92-3.13,1.85-6.26c1.24-4.2,2.3-8.38,3.24-12.65.45-2.06-2.55-3.6-3.58-1.51Z"/><path class="cls-1" d="M338.11,33c3.19-.21,6.39-.25,9.59-.33l2.21-.05q1.51-.62,1.26,1c.48.94.16,3.06.11,4-.28,6-2.9,11.4-4.36,17.13-.5,2,1.88,4.33,3.78,2.91,7.28-5.48,9-15.76,7.16-24.31-2.19-10.21-13.33-4.26-20.08-2.77a1.23,1.23,0,0,0,.33,2.41Z"/><path class="cls-1" d="M314.9,52.43a104.85,104.85,0,0,1,30.89-4.5c7.16,0,18.94,2.37,23-5.55a2.84,2.84,0,0,0-3.17-4.12c-4.18.88-7.92,2.23-12.25,2.49s-8.81.42-13.2,1a102.94,102.94,0,0,0-26.62,7.46c-1.85.78-.53,3.8,1.36,3.23Z"/><path class="cls-1" d="M346.49,32.43c-2.71,7.48-5.91,15.1-6.72,23.07-.11,1.11,1.58,1.49,2.08.56,3.77-7.07,5.33-15.21,7.23-22.92a1.35,1.35,0,0,0-2.59-.71Z"/><path class="cls-1" d="M342.83,70.59A43.48,43.48,0,0,0,341,85.2c.13,4.06,0,9.33,4.09,11.42a2.3,2.3,0,0,0,3-.8c2.38-3.31.6-7.22,0-10.84a127.7,127.7,0,0,1-1.2-13.84,2.08,2.08,0,0,0-4.07-.55Z"/><path class="cls-1" d="M347.13,72.28a3.79,3.79,0,0,1,5.85-2,6.39,6.39,0,0,1,1.66,2.23,14.43,14.43,0,0,1,1.27,7.41c-.11,3.8-1.46,8.51.54,11.9a2.49,2.49,0,0,0,4.24,0c2.26-3.34,1.37-9.45,1.13-13.34s-1.06-7.79-4.08-10.38c-4.21-3.62-12.38-2.59-12.58,3.88a1,1,0,0,0,2,.27Z"/><path class="cls-1" d="M344.57,81.08a29.38,29.38,0,0,1,6.87-1.5c2-.2,4,0,5.86-.9a1.66,1.66,0,0,0,0-2.85c-4.14-2-10.05.88-13.68,3-1.16.69-.4,2.72.95,2.25Z"/><path class="cls-1" d="M345.17,89.69a60.4,60.4,0,0,0,12.72-1.75c2.48-.7,2.11-5-.63-4.68a60.56,60.56,0,0,0-12.53,3.19c-1.66.58-1.53,3.35.44,3.24Z"/><path class="cls-1" d="M343.05,101.17c5.41-.83,10.69-2.4,16.1-3.15l-2.76-4.74c-4.24,3.7-7.55,8.83-11.09,13.19-2.68,3.3-8,7.91-7.74,12.4a2.11,2.11,0,0,0,2.07,2.07c5.08-.2,9.11-6.67,12-10.28,3.57-4.46,7.45-9.25,9.5-14.63.72-1.9-1.55-4.28-3.49-3.49-5.05,2.08-10.41,3.36-15.5,5.35a1.69,1.69,0,0,0,.9,3.26Z"/><path class="cls-1" d="M355.56,103.21c2.62,1.51,5.26,2.95,7.9,4.42q1.85,1,3.67,2.13c.73.44,2.89,1.32,3.27,2.07l-.33-2.55.31-.35,2.28-.95-.56.07c-2.6.34-4.7,4.3-1.55,5.72,5,2.27,8-4,4-7.25-2.26-1.81-5.4-2.88-8-4a66.14,66.14,0,0,0-9.21-3.28,2.2,2.2,0,0,0-1.69,4Z"/></g></g></svg>