<?xml version="1.0" encoding="utf-8"?>
<!-- Generator: Adobe Illustrator 13.0.0, SVG Export Plug-In . SVG Version: 6.00 Build 14948)  -->
<!DOCTYPE svg PUBLIC "-//W3C//DTD SVG 1.0//EN" "http://www.w3.org/TR/2001/REC-SVG-20010904/DTD/svg10.dtd">
<svg version="1.0" id="圖層_1" xmlns="http://www.w3.org/2000/svg" xmlns:xlink="http://www.w3.org/1999/xlink" x="0px" y="0px"
	 width="233px" height="242px" viewBox="-10.357 -11.496 233 242" enable-background="new -10.357 -11.496 233 242"
	 xml:space="preserve">
<g>
	<path fill="#FFFFFF" d="M92.521,6.008c0,2.667,0,5.333,0,8c-3.658-0.658-3.836,2.164-7,2c3.498,5.84,2.687,9.125-2,13
		c4.624,1.659,7.625,5.833,5,12c6.017-0.351,9.138,2.195,9,8c3.35,0.938,6.304-3.59,8-1c-0.806,23.251-25.273,8.594-27-4
		c1.14-2.194,2.581-4.086,2-8c-2.052-10.35-19.758-8.359-17,5c1.537,3.13,4.991,4.342,8,6c0.741,10.082,2.574,21.013-5,23
		c-8.468,2.222-14.168-10.577-20-15c1.442-2.224,2.511-4.822,2-9c-9.147-17.167-27.104,9.497-8,13c2.623,9.5,4.745,24.215-4,26
		c-7.962,1.625-14.348-9.56-19-15c1.018-17.096-25.663-8.735-15,5c2.224,1.442,4.822,2.511,9,2c8.55,14.117,18.313,27.021,28,40
		c33.991-24.258,108.745-22.761,142,1c8.951-14.714,17.879-29.454,28-43c17.847-0.43,4.799-26.886-7-14
		c-0.594,29.447-38.949,21.742-23-6c5.068,0.737,6.188-2.479,9-4c3.926-21.132-25.523-11.935-15,3c-4.496,17.207-27.6,17.601-23-8
		c19.465-9.941-10.104-28.581-11-10c-0.213,4.393,2.728,4.353,4,9c-1.865,16.752-23.064,22.936-26,3c2.354-0.022,2.942,1.723,6,1
		c-0.845-6.51,3.183-8.15,9-8c-0.727-2.276-0.894-5.108-2-7c2.59-1.076,3.717-3.616,7-4c-0.021-4.315-4.981-3.685-5-8
		c0.83-2.503,2.737-3.927,3-7c-5.739,0.406-8.36-2.306-7-9c-3,0-6,0-9,0c0.261-2.928-2.263-3.072-2-6c-4.206-0.205-4.202,3.8-8,4
		c-1.317-2.017-3.283-3.384-6-4C102.453,4.607,99.45,7.271,92.521,6.008z"/>
	<path fill="#FFCB89" d="M103.96,0.008c2.717,0.616,4.683,1.983,6,4c3.8-0.2,3.796-4.205,8.001-4c-0.262,2.928,2.262,3.072,2,6
		c3,0,6,0,9,0c-1.359,6.694,1.262,9.406,7,9c-0.262,3.073-2.17,4.497-3,7c0.02,4.315,4.98,3.685,5,8c-3.283,0.384-4.41,2.924-7,4
		c1.107,1.892,1.273,4.724,2,7c-5.816-0.15-9.844,1.49-9,8c-3.057,0.723-3.646-1.022-6-1c2.936,19.936,24.135,13.752,26-3
		c-1.271-4.647-4.213-4.607-4-9c0.896-18.581,30.465,0.059,11,10c-4.6,25.601,18.504,25.207,23,8c-10.523-14.935,18.926-24.132,15-3
		c-2.813,1.521-3.932,4.737-9,4c-15.949,27.742,22.406,35.447,23,6c11.799-12.886,24.848,13.57,7,14
		c-10.121,13.546-19.049,28.286-28,43c-33.256-23.761-108.01-25.258-142.001-1c-9.688-12.979-19.45-25.883-28-40
		c-4.178,0.511-6.776-0.558-9-2c-10.663-13.735,16.018-22.096,15-5c4.652,5.44,11.038,16.625,19,15c8.745-1.785,6.623-16.5,4-26
		c-19.104-3.503-1.147-30.167,8-13c0.511,4.178-0.558,6.776-2,9c5.832,4.423,11.532,17.222,20,15c7.574-1.987,5.741-12.918,5-23
		c-3.009-1.658-6.463-2.87-8-6c-2.758-13.359,14.948-15.35,17-5c0.581,3.914-0.86,5.806-2,8c1.727,12.594,26.194,27.251,27,4
		c-1.696-2.59-4.65,1.938-8,1c0.138-5.805-2.983-8.351-9-8c2.625-6.167-0.376-10.341-5-12c4.687-3.875,5.498-7.16,2-13
		c3.164,0.164,3.342-2.658,7-2c0-2.667,0-5.333,0-8C99.889,7.271,102.892,4.607,103.96,0.008z"/>
	<path fill="none" d="M66.521,152.008c5.333,0,10.667,0,16,0c3.004,6.662,4.151,15.182,7,22c3.182-6.484,3.841-15.492,7-22
		c5.333,0,10.667,0,16,0c0,13.667,0,27.333,0,41c-3.667,0-7.333,0-11,0c0-7.667,0-15.333,0-23c-2.92,7.079-4.291,15.709-7,23
		c-3.333,0-6.667,0-10,0c-2.074-7.593-5.028-14.305-6-23c-2.322,5.678-0.342,15.658-1,23c-3.667,0-7.333,0-11,0
		C66.521,179.341,66.521,165.675,66.521,152.008z"/>
	<path fill="none" d="M161.521,152.008c0.604,2.396,1.438,4.563,1,8c-6.672,1.831-17.242,1.063-23,1c0,1.333,0,2.667,0,4
		c3.158,4.508,14.551,0.783,21,2c0,3,0,6,0,9c-7,0-14,0-21,0c0,2,0,4,0,6c5.678,2.322,15.658,0.342,23,1c0,3.333,0,6.667,0,10
		c-11.711-0.623-25.941,1.274-36-1c0-13,0-26,0-39C136.249,150.736,150.143,152.629,161.521,152.008z"/>
	<path fill="none" d="M175.521,152.008c3.965,0.369,9.582-0.917,12,1c0,13.333,0,26.667,0,40c-4,0-8,0-12,0
		C175.521,179.341,175.521,165.675,175.521,152.008z"/>
	<path fill="none" d="M38.521,153.008c4,0,8,0,12,0c0,13.333,0,26.667,0,40c-4,0-8,0-12,0
		C38.521,179.675,38.521,166.341,38.521,153.008z"/>
	<g>
		<g>
			<path fill="#FFCB89" d="M195.082,152.008c0.473-12.428,11.355-14.835,20-21c-5.799-5.201-12.299-9.701-17-16
				c-14.438,16.288-25.492,4.376-45-2c-25.084-8.197-53.086-9.193-80-2c-20.035,5.354-40.428,22.96-53,4
				c-4.804,6.529-11.933,10.734-16,18c10.187,4.416,22.109,8.527,22,21c-0.1,11.463-9.338,14.637-11,23
				c-5.962,30.002,17.178,46.565,37,46c13.235-0.377,25.542-10.561,38-10c9.542,0.43,12.85,6.708,21,12
				c13.545-24.66,36.742-2.967,58-3c24.359-0.037,41.908-21.839,35-48C202.137,166.639,194.713,161.703,195.082,152.008z
				 M49.083,196.008h-12v-40h12V196.008z M111.082,196.008h-11v-23c-2.92,7.079-4.291,15.709-7,23h-10
				c-2.074-7.593-5.028-14.305-6-23c-2.322,5.678-0.342,15.658-1,23h-11v-41h16c3.004,6.662,4.15,15.182,7,22
				c3.182-6.484,3.84-15.492,7-22h16V196.008z M161.082,163.008c-6.672,1.831-17.242,1.063-23,1v4c3.158,4.508,14.551,0.783,21,2v9
				h-21v6c5.678,2.322,15.658,0.342,23,1v10c-11.711-0.623-25.941,1.274-36-1v-39c9.729-2.271,23.621-0.379,35-1
				C160.686,157.404,161.52,159.57,161.082,163.008z M186.082,196.008h-12v-41c3.965,0.369,9.582-0.917,12,1V196.008z"/>
		</g>
	</g>
</g>
</svg>
