<?xml version="1.0" encoding="utf-8"?>
<!-- Generator: Adobe Illustrator 13.0.0, SVG Export Plug-In . SVG Version: 6.00 Build 14948)  -->
<!DOCTYPE svg PUBLIC "-//W3C//DTD SVG 1.0//EN" "http://www.w3.org/TR/2001/REC-SVG-20010904/DTD/svg10.dtd">
<svg version="1.0" id="圖層_1" xmlns="http://www.w3.org/2000/svg" xmlns:xlink="http://www.w3.org/1999/xlink" x="0px" y="0px"
	 width="262.5px" height="217px" viewBox="-19.857 17.004 262.5 217" enable-background="new -19.857 17.004 262.5 217"
	 xml:space="preserve">
<g>
	<path fill="#FFFFFF" d="M84.763,54.797c-1.896-3.593-3.126-7.854-3.8-12.669c-30.105,13.629-56.788-8.675-70.948-26.605
		C16.16,40.203,50.514,70.401,84.763,54.797z"/>
	<path fill="#FFFFFF" d="M170.913,42.128c-1.81,4.103-3.187,8.637-3.802,13.936c35.535,12.318,67.176-15.537,73.481-40.542
		C226.49,33.086,200.68,55.834,170.913,42.128z"/>
	<path fill="#FFFFFF" d="M134.917,191.579c1.413,0.188,3.409-0.206,3.603,1.2c-3.539,8.07-7.935,15.285-15.611,19.217
		c4.374,2.219,14.71,1.501,19.216,0c1.155-4.357-5.396-1.01-4.806-4.805c5.271-6.738,6.521-17.498,16.814-19.215
		c12.051,6.928-4.33,17.129-6.005,25.221c5.716-0.289,13.534,1.523,14.411-3.604c-1.744-0.655-6.207,1.404-6.004-1.2
		c2.939-6.668,10.211-9.006,9.607-19.216C158.9,180.662,141.273,185.545,134.917,191.579z"/>
	<path fill="#FFFFFF" d="M214.182,186.393c-1.924,4.727,5.188,0.418,4.805,3.604c-2.906,9.102-5.42,18.6-16.813,19.216
		c0.005-1.205-0.973-1.43-1.2-2.401c1.559-9.651,8.188-14.231,12.01-21.619c-4.359,0.045-9.48-0.672-10.81,2.402
		c1.693,7.318-10.394,11.211-7.205,24.021c8.896,5.512,16.247-4.411,24.021,2.401c12.209-2.611,21.393-14.627,16.813-30.023
		c-0.759,13.253-4.646,23.375-16.813,25.221C215.318,199.727,237.338,178.305,214.182,186.393z"/>
	<path fill="#FFCB89" d="M10.015,15.522c14.16,17.93,40.843,40.234,70.948,26.605c0.674,4.815,1.904,9.076,3.8,12.669
		C50.514,70.401,16.16,40.203,10.015,15.522z"/>
	<path fill="#FFCB89" d="M240.594,15.522c-6.307,25.004-37.947,52.859-73.48,40.542c0.613-5.299,1.99-9.833,3.801-13.936
		C200.68,55.834,226.49,33.086,240.594,15.522z"/>
	<path fill="#FFCB89" d="M68.657,163.844c0.591,7.396-3.974,9.639-7.206,13.211c-4.216-2.742,4.55-6.226,0-9.606
		c-27.949-7.13-26.575,25.466-37.23,39.632c8.774,4.368,25.023,4.8,31.226-2.4C55.804,229.811,8.7,203.829-1,221.491
		c0.157-13.029,16.302-10.44,24.02-21.618C33.791,184.271,34.367,151.758,68.657,163.844z"/>
	<path fill="#FFCB89" d="M98.888,184.372c-1.428,8.981-7.095,13.724-8.407,22.817c1.582,5.051,3.943-0.004,7.206,0
		c-4.289,8.276-29.66,9.955-36.029,1.201C61.135,188.111,80.361,181.652,98.888,184.372z M70.064,207.189
		c14.107,4.187,16.182-12.127,22.819-19.215C83.508,187.389,65.542,193.82,70.064,207.189z"/>
	<path fill="#FFCB89" d="M197.368,186.268c0.046,13.656-9.401,17.821-24.021,16.813c0.407,10.026,12.396,6.884,19.217,4.804
		c-3.765,4.871-9.814,9.518-18.017,7.206C153.885,209.268,176.63,169.866,197.368,186.268z M174.549,199.479
		c8.514,0.106,14.699-2.114,15.613-9.607C182.764,186.425,175.488,192.555,174.549,199.479z"/>
	<path fill="#FFCB89" d="M166.143,189.178c0.604,10.211-6.668,12.547-9.606,19.215c-0.203,2.605,4.26,0.545,6.004,1.201
		c-0.877,5.129-8.694,3.314-14.411,3.604c1.676-8.091,18.057-18.292,6.005-25.222c-10.293,1.719-11.544,12.478-16.813,19.217
		c-0.592,3.795,5.961,0.445,4.805,4.804c-4.506,1.501-14.842,2.219-19.216,0c7.678-3.933,12.073-11.146,15.612-19.216
		c-0.193-1.407-2.189-1.014-3.604-1.201C141.273,185.545,158.9,180.662,166.143,189.178z"/>
	<path fill="#FFCB89" d="M218.986,209.211c12.166-1.846,16.055-11.968,16.813-25.221c4.579,15.396-4.604,27.412-16.813,30.023
		c-7.772-6.813-15.125,3.109-24.021-2.402c-3.188-12.81,8.897-16.7,7.205-24.02c1.328-3.074,6.449-2.357,10.81-2.402
		c-3.822,7.388-10.451,11.968-12.01,21.619c0.229,0.973,1.204,1.196,1.2,2.401c11.396-0.616,13.907-10.114,16.813-19.216
		c0.384-3.186-6.729,1.123-4.805-3.604C237.338,178.305,215.318,199.727,218.986,209.211z"/>
	<path fill="#FFCB89" d="M124.037,38.327c0,8.869,0,17.737,0,26.605c-1.471,1.064-3.396,1.67-6.334,1.267
		c5.156,27.75,7.958,64.484-1.268,89.951c-8.36,0.759-13.438-1.766-17.737-5.068c2.574-30.868-16.84-39.749-27.872-57.011
		c-3.554,2.025,1.779,5.702,0,10.136c-1.485-0.206-1.068-2.311-1.267-3.801c-1.071-3.287-5.557,2.438-7.602-1.267
		c-1.429-6.074,4.832-4.458,6.334-7.601c0.331-3.709-2.864-3.893-2.534-7.602c-0.348-4.571,5.01-3.438,5.068-7.602
		c3.287,1.071-2.438,5.558,1.267,7.602C89.446,79.02,88.699,56.41,83.494,38.327C96.001,30.449,108.705,38.522,124.037,38.327z
		 M79.695,96.605c1.744-0.055,2.782,0.597,3.801,1.267c2.26-1.698,3.919-7.333,1.267-10.136c-1.267,0-2.534,0-3.8,0
		C79.216,89.37,79.708,93.24,79.695,96.605z"/>
	<path fill="#FFCB89" d="M168.379,39.594c-7.271,16.341-6.342,39.093,10.137,44.342c3.566-1.28-0.351-5.381,0-7.602
		c3.334,1.311,4.267,5.023,7.602,6.334c0.057,3.858-2.676,4.926-3.801,7.602c0.656,4.409,7.611,2.523,6.334,8.868
		c-3.281,3.215-8.572-2.927-7.602,5.068c-3.748-2.22,0.73-6.75,0-10.136c-12.77,15.948-30.217,27.219-29.139,57.011
		c-4.164,3.017-8.635,5.726-16.471,5.067c-10.678-24.476-6.752-59.994-2.533-88.685c-0.393-1.719-3.174-1.051-5.068-1.267
		c0.559-9.848-2.254-16.327-1.267-26.605C139.958,37.226,157.453,30.354,168.379,39.594z M167.111,97.873
		c5.336-0.199,5.596-6.223,3.802-10.136c-1.688,0-3.378,0-5.067,0C163.887,91.718,165.036,94.805,167.111,97.873z"/>
</g>
</svg>
