<?xml version="1.0" encoding="utf-8"?>
<!-- Generator: Adobe Illustrator 24.0.1, SVG Export Plug-In . SVG Version: 6.00 Build 0)  -->
<svg version="1.1" xmlns="http://www.w3.org/2000/svg" xmlns:xlink="http://www.w3.org/1999/xlink" x="0px" y="0px"
	 viewBox="0 0 283.5 283.5" style="enable-background:new 0 0 283.5 283.5;" xml:space="preserve">
<style type="text/css">
	.st0{fill:#005668;}
	.st1{fill:#FFD36A;}
	.st2{fill:#F4BD4D;}
</style>
<g id="圖層_1">
</g>
<g id="圖層_2">
	<path class="st0" d="M-354.6,169.1"/>
	<g id="XMLID_114_">
		<path id="XMLID_286_" class="st0" d="M-390.7,204.1c-2.4,0-4.4-1-4.5-1c-0.6-0.3-0.9-1.1-0.6-1.8c0.3-0.6,1.1-0.9,1.8-0.6
			c0.1,0,3.4,1.6,6,0c0.6-0.4,1.4-0.2,1.8,0.4c0.4,0.6,0.2,1.4-0.4,1.8C-388.1,203.9-389.5,204.1-390.7,204.1z"/>
	</g>
	<g id="XMLID_64_">
		<path id="XMLID_120_" class="st0" d="M-350,138.5c-2.8,0-5.6-0.7-8.4-2c-0.7-0.3-0.9-1.1-0.6-1.7c0.3-0.7,1.1-0.9,1.7-0.6
			c4.9,2.3,9.6,2.3,14.5,0c0.7-0.3,1.4,0,1.7,0.6c0.3,0.7,0,1.4-0.6,1.7C-344.4,137.9-347.2,138.5-350,138.5z"/>
	</g>
	<g>
		<path class="st1" d="M90.9,120.2c0,0-5.3-4.6-6.3,0c-1,4.6,0,27.2,3.2,29.2c3.2,2,9.1,11.9,9.8,15.3c0.7,3.3,2,13.3,4.6,16.6
			c2.7,3.3-34.5,17.3-41.2,24.6c-6.6,7.3,80.3,61.1,93.6,63.1c13.3,2,45.8-10,53.8-19.3c8-9.3,7.3-23.2,7.3-23.2l-29.2-21.9
			c0,0,5.3-15.9,8.6-19.9s16.6-23.9,15.3-29.9c-1.3-6-4.6-44.5-5.3-49.8c-0.7-5.3-4.6-29.9-11.3-35.8c-6.6-6-21.9-17.9-33.9-19.9
			c-11.9-2-46.5,15.9-51.1,19.3C104.2,71.7,90.9,120.2,90.9,120.2z"/>
		<path class="st0" d="M113,100.8c0,0,15.1-3.4,18.6-2.2c3.6,1.1,4.2,3.8,4.2,3.8L113,100.8z"/>
		<path class="st0" d="M192,98.8c0,0-15.1-3.4-18.6-2.2c-3.6,1.1-4.2,3.8-4.2,3.8L192,98.8z"/>
		<path class="st0" d="M108.6,60.7c0,0-14.5,5.8-18.9,15.3s-8.7,24.7-5.8,30.5s7.3,23.2,7.3,23.2c9.4-8,23.2-47.9,23.2-50.8
			s0-21.1,10.9-14.5s30.5,0,31.2-3.6c0.7-3.6,16-1.5,21.8,3.6s19.6,23.6,21.1,30c1.5,6.3,2.2,2,3.6-14s-2.9-22.5-10.9-27.6
			c-8-5.1-17.4-13.1-36.3-13.8C136.9,38.2,108.6,60.7,108.6,60.7z"/>
		<circle class="st0" cx="127" cy="117.9" r="2.5"/>
		<circle class="st0" cx="183.1" cy="115.2" r="2.5"/>
		<path class="st0" d="M149.1,132.7c0,0-6.5,3.4-5.9,6.2c0.6,2.8,1.7,5.3,2.9,5.1c1.3-0.3,17.3,0,17.3,0s4.8-2.8,2.5-5.6
			c-2.2-2.8-5.3-5.6-5.3-5.6l-4.2-11.8c0,0-3.9,0.3-4.8,1.7S149.1,132.7,149.1,132.7z"/>
		<path class="st2" d="M143.5,147.2c0,0-9.4,13.1-16.5,14.8"/>
		<path class="st2" d="M169.2,147.2c0,0,9.4,13.1,16.5,14.8"/>
	</g>
</g>
</svg>
