<?xml version="1.0" encoding="utf-8"?>
<!-- Generator: Adobe Illustrator 23.1.0, SVG Export Plug-In . SVG Version: 6.00 Build 0)  -->
<svg version="1.1" xmlns="http://www.w3.org/2000/svg" xmlns:xlink="http://www.w3.org/1999/xlink" x="0px" y="0px"
	 viewBox="0 0 283.5 283.5" style="enable-background:new 0 0 283.5 283.5;" xml:space="preserve">
<style type="text/css">
	.st0{fill:#005668;}
	.st1{fill:#FFD36A;}
</style>
<g id="圖層_1">
</g>
<g id="圖層_2">
	<path class="st0" d="M-1265,169.1"/>
	<g id="XMLID_114_">
		<path id="XMLID_286_" class="st0" d="M-1301.1,204.1c-2.4,0-4.4-1-4.5-1c-0.6-0.3-0.9-1.1-0.6-1.8c0.3-0.6,1.1-0.9,1.8-0.6
			c0.1,0,3.4,1.6,6,0c0.6-0.4,1.4-0.2,1.8,0.4c0.4,0.6,0.2,1.4-0.4,1.8C-1298.4,203.9-1299.9,204.1-1301.1,204.1z"/>
	</g>
	<g id="XMLID_64_">
		<path id="XMLID_120_" class="st0" d="M-1260.4,138.5c-2.8,0-5.6-0.7-8.4-2c-0.7-0.3-0.9-1.1-0.6-1.7c0.3-0.7,1.1-0.9,1.7-0.6
			c4.9,2.3,9.6,2.3,14.5,0c0.7-0.3,1.4,0,1.7,0.6c0.3,0.7,0,1.4-0.6,1.7C-1254.8,137.9-1257.6,138.5-1260.4,138.5z"/>
	</g>
	<g>
		<path class="st1" d="M109,102.7c0,0-4.5-6.7-7.4-5.6c-3,1.1-7.1,20-2.6,30.1c4.5,10,11.5,16.3,11.5,16.3l2.2,7.4v32.3
			c0,0-50.9,19.7-52.7,29.3s26.7,52.3,52.7,52.3s117.7,1.5,116.6-4.5c-1.1-5.9-3.7-15.2-5.9-15.2c-2.2,0-39-26.4-39-26.4
			s-7.1-3-6.7-5.2c0.4-2.2,8.5-21.2,8.5-21.2s18.6-7.8,24.5-21.5c5.9-13.7,11.9-39.3,11.9-43.8S218.5,97,218.5,97s3.7-12.1,3-18.1
			c-0.7-5.9-4.1-31.9-22.6-43.4c0,0-32.3-26-65.7,0c0,0-20.8,8.2-24.1,25.6C109,61.1,105,76.3,109,102.7z"/>
		<path class="st0" d="M164.9,122.8c0,0-7.6,3-7.3,6.2c0.3,3.2,1.2,6.2,2.7,6c1.5-0.2,19.3,2.1,19.3,2.1s5.7-2.6,3.5-6
			c-2.2-3.4-5.3-6.9-5.3-6.9l-3.3-13.7c0,0-4.4-0.2-5.5,1.3C167.8,113.3,164.9,122.8,164.9,122.8z"/>
		<path class="st0" d="M127.4,84.9c0,0,13-12.3,22.3-10.7s15.7,3.5,15.7,3.5s5,8.8,0,7.3s-20.3-4.6-29.2-2.3S127.4,84.9,127.4,84.9z
			"/>
		<path class="st0" d="M215.1,91.8c0,0-8.3-10.7-15.3-10.6c-7,0.1-12.1,0.7-12.1,0.7s-4.7,6-0.9,5.4c3.9-0.6,15.7-1,22,1.7
			C215.1,91.8,215.1,91.8,215.1,91.8z"/>
		<circle class="st0" cx="150" cy="103.6" r="2.5"/>
		<circle class="st0" cx="197.7" cy="106.1" r="2.5"/>
	</g>
</g>
</svg>
