<?xml version="1.0" encoding="utf-8"?>
<!-- Generator: Adobe Illustrator 23.1.0, SVG Export Plug-In . SVG Version: 6.00 Build 0)  -->
<svg version="1.1" xmlns="http://www.w3.org/2000/svg" xmlns:xlink="http://www.w3.org/1999/xlink" x="0px" y="0px"
	 viewBox="0 0 283.5 283.5" style="enable-background:new 0 0 283.5 283.5;" xml:space="preserve">
<style type="text/css">
	.st0{fill:#005668;}
	.st1{fill:#FFD36A;}
</style>
<g id="圖層_1">
</g>
<g id="圖層_2">
	<path class="st0" d="M-1568.5,169.1"/>
	<g id="XMLID_114_">
		<path id="XMLID_286_" class="st0" d="M-1604.6,204.1c-2.4,0-4.4-1-4.5-1c-0.6-0.3-0.9-1.1-0.6-1.8c0.3-0.6,1.1-0.9,1.8-0.6
			c0.1,0,3.4,1.6,6,0c0.6-0.4,1.4-0.2,1.8,0.4c0.4,0.6,0.2,1.4-0.4,1.8C-1601.9,203.9-1603.3,204.1-1604.6,204.1z"/>
	</g>
	<g id="XMLID_64_">
		<path id="XMLID_120_" class="st0" d="M-1563.9,138.5c-2.8,0-5.6-0.7-8.4-2c-0.7-0.3-0.9-1.1-0.6-1.7c0.3-0.7,1.1-0.9,1.7-0.6
			c4.9,2.3,9.6,2.3,14.5,0c0.7-0.3,1.4,0,1.7,0.6c0.3,0.7,0,1.4-0.6,1.7C-1558.3,137.9-1561.1,138.5-1563.9,138.5z"/>
	</g>
	<path class="st1" d="M106.6,116c0,0-6.1-3.9-6.1,0c0,3.9,4.3,25.1,6.1,28.1c1.7,3,1.7,11.7,4.8,16c3,4.3,15.1,18.6,15.1,18.6
		l4.8,17.3l-10.4,16l-45.4,12.6c0,0-12.1,20.3-3.5,26.8c8.7,6.5,179.2,16.3,179.2,16.3s4-38.3,4-41.4s-29.1-17.3-42.9-19.5
		c-13.8-2.2-25.1-17.7-25.1-17.7l2-19.1c0,0,3.7-4.2,4.6-7.2s3-12.3,3-12.3s2.3,2.6,3.9,0.7s9.5-14.6,9.9-18.3
		c0.4-3.7,5.6-12.3,5.1-18.6c-0.5-6.3-4.6-11.6-4.6-11.6l-8.3-16.3L172.9,42l-38.9,2.6l-25.4,34L100,97.6L106.6,116z"/>
	<path class="st0" d="M150.6,133.1c0,0-3.7,1.4-3.6,3c0.1,1.6,0.6,3,1.3,2.9c0.7-0.1,9.4,1,9.4,1s2.8-1.2,1.7-2.9
		c-1-1.7-2.6-3.4-2.6-3.4l-1.6-6.6c0,0-2.1-0.1-2.7,0.6C152,128.5,150.6,133.1,150.6,133.1z"/>
	<path class="st0" d="M187.3,39.7c0,0-25.6-20.4-45.2-13.6s-40.7,28.7-45.2,42.9s-13.7,28.8-11.4,37.9s16.4,44.8,16.4,44.8l8.9,4.7
		l-5.2-58.2c0,0,29.7,3.2,41.6-4.6c11.9-7.8,31.1-29.2,31.1-29.2s14.2,27,18.3,35.6c4.1,8.7,10.2,18.2,10.2,18.2l-2.6,14.6
		c0,0-4.9,19.3-7.2,18.8c-2.3-0.5-3.2,2.7-3.2,2.7l-5.7,8.4l10.2-1.1c0,0,24.2-30.6,24.2-37.9s-2.7-47.1-3.2-53
		c-0.5-5.9-12.3-20.1-13.7-20.1C204.2,50.6,187.3,39.7,187.3,39.7z"/>
	<circle class="st0" cx="131.3" cy="122.3" r="2.2"/>
	<circle class="st0" cx="178" cy="123.3" r="2.2"/>
	<path class="st0" d="M117.6,105.8c0,0,15.1-3.4,18.6-2.2c3.6,1.1,4.2,3.8,4.2,3.8L117.6,105.8z"/>
	<path class="st0" d="M191.6,107.8c0,0-15.1-3.4-18.6-2.2c-3.6,1.1-4.2,3.8-4.2,3.8L191.6,107.8z"/>
</g>
</svg>
