<?xml version="1.0" encoding="utf-8"?>
<!-- Generator: Adobe Illustrator 23.1.0, SVG Export Plug-In . SVG Version: 6.00 Build 0)  -->
<svg version="1.1" xmlns="http://www.w3.org/2000/svg" xmlns:xlink="http://www.w3.org/1999/xlink" x="0px" y="0px"
	 viewBox="0 0 283.5 283.5" style="enable-background:new 0 0 283.5 283.5;" xml:space="preserve">
<style type="text/css">
	.st0{fill:#005668;}
	.st1{fill:#FFD36A;}
	.st2{fill:#F4BD4D;}
	.st3{fill:#FFF1CF;}
</style>
<g id="圖層_1">
</g>
<g id="圖層_2">
	<path class="st0" d="M-658.1,169.1"/>
	<g id="XMLID_114_">
		<path id="XMLID_286_" class="st0" d="M-694.2,204.1c-2.4,0-4.4-1-4.5-1c-0.6-0.3-0.9-1.1-0.6-1.8c0.3-0.6,1.1-0.9,1.8-0.6
			c0.1,0,3.4,1.6,6,0c0.6-0.4,1.4-0.2,1.8,0.4c0.4,0.6,0.2,1.4-0.4,1.8C-691.5,203.9-692.9,204.1-694.2,204.1z"/>
	</g>
	<g id="XMLID_64_">
		<path id="XMLID_120_" class="st0" d="M-653.5,138.5c-2.8,0-5.6-0.7-8.4-2c-0.7-0.3-0.9-1.1-0.6-1.7c0.3-0.7,1.1-0.9,1.7-0.6
			c4.9,2.3,9.6,2.3,14.5,0c0.7-0.3,1.4,0,1.7,0.6c0.3,0.7,0,1.4-0.6,1.7C-647.9,137.9-650.7,138.5-653.5,138.5z"/>
	</g>
	<g>
		<path class="st1" d="M149.2,49.1c0,0-27.5,8.3-34.2,24.8s-9.9,33.6-9.9,33.6s-5,7.7-8.8,4.4c-3.9-3.3-12.7,2.2-11,7.7
			s3.3,26.4,7.7,30.8c4.4,4.4,8.8,3.9,8.8,3.9s-3.3,19.8-1.7,22.6c1.7,2.8,0.6,9.9,0.6,9.9l-15.6,22l-25.7,16.5
			c0,0-6.6,25.3,44.9,33.1s93.4-1.7,95.6-3.3s-1.7-16.5-8.8-20.4c-7.2-3.9-6.6-22.6-6.6-22.6s23.1-14.3,24.2-20.9
			c1.1-6.6,13.2-41.9,12.1-67.8c-1.1-25.9-7.2-55.1-11-58.9c-3.9-3.9-32.5-14.9-40.2-18.2C161.9,43,149.2,49.1,149.2,49.1z"/>
		<circle class="st0" cx="145.5" cy="127" r="2.5"/>
		<circle class="st0" cx="196.4" cy="132.3" r="2.5"/>
		<path class="st0" d="M163.9,147.5c0,0-6.5,3.4-5.9,6.2c0.6,2.8,1.7,5.3,2.9,5.1c1.3-0.3,17.3,0,17.3,0s4.8-2.8,2.5-5.6
			c-2.2-2.8-5.3-5.6-5.3-5.6l-4.2-11.8c0,0-3.9,0.3-4.8,1.7C165.6,138.8,163.9,147.5,163.9,147.5z"/>
		<path class="st2" d="M160.3,145c0,0-16.7,16.2-27.3,16.8"/>
		<path class="st2" d="M186.9,154.6c0,0,9.4,13.1,16.5,14.8"/>
		<path class="st0" d="M133.8,41.4c0,0-18.7,5-24.2,12.7S98,91.5,96.9,96.4c-1.1,5,5.5,27.5,7.7,30.3c2.2,2.8,5.9-18.7,10.7-27.5
			c4.7-8.8,8-21.5,9.2-27.5c1.1-6.1,24.8-22,29.7-21.5c5,0.6,19.8,3.9,29.2,7.2s17.6,6.1,20.9,11c3.3,5,16.5,55.1,16.5,55.1
			s0.6-0.6,2.8-13.8c2.2-13.2,1.8-28.6-2.7-39.1s-2.8-8.8-10-17.1s-25.3-6.6-34.7-12.1C166.8,35.9,133.8,41.4,133.8,41.4z"/>
		<path class="st0" d="M100.1,137.8c0,0-0.5,29.9,0,35.7c0.5,5.8,6.3,17.3,11.6,21.5c5.3,4.2,18.4,12.6,24.2,16.3
			c5.8,3.7,28.9,10,32.6,8.9c3.7-1.1,24.2-9.5,27.3-10.5s13.1-16.3,13.1-20c0-3.7-11.6,7.4-11.6,7.4s-3.7,5.8-8.4,4.7
			c-4.7-1.1-15.2,0-20-0.5c-4.7-0.5-13.7-2.1-18.9-3.7c-5.3-1.6-22.1-8.9-23.6-10c-1.6-1.1-7.9-2.5-12.6-8.6
			c-4.7-6.1-6.8-21.7-7.4-25.7C105.9,149.4,100.1,137.8,100.1,137.8z"/>
		<path class="st0" d="M127.4,95.9c0,0,11-0.5,13.1,0c2.1,0.5,23.1,10.5,23.1,10.5v5.8L127.4,95.9z"/>
		<path class="st0" d="M185.7,112.2c1.6-0.7,17.3-3.3,18.9-3.3s10.5,9.5,10.5,9.5s-7.4-1.6-8.9-2.6c-1.6-1.1-3.2,0-5.8,0
			S185.7,112.2,185.7,112.2z"/>
		<path class="st3" d="M213.6,133l-1.7-0.2c-0.4-5.9-7-11.1-15.5-12c-8.5-0.8-16,3-17.6,8.7l-0.6-0.9l-14.1-1.4l-0.7,0.7
			c-0.4-5.9-7-11.1-15.5-12c-8.5-0.8-16.1,3-17.6,8.7l-1.7-0.2c-0.4,0-0.8,0.2-0.9,0.6c0,0.4,0.3,0.7,0.7,0.8l1.6,0.2
			c-0.5,6.4,6.4,12.3,15.5,13.2c9,0.9,16.8-3.4,17.7-9.6l0,0l1.5-1.5l12.5,1.2l1.2,1.7l0,0c-0.3,6.3,6.6,12,15.5,12.9
			c9.1,0.9,17.1-3.5,17.8-9.9l1.6,0.2c0.4,0,0.8-0.2,0.9-0.6C214.4,133.4,214,133,213.6,133z M145.6,138.5
			c-8.5-0.8-14.9-6.3-14.3-12.3c0.6-5.9,7.9-10.1,16.4-9.2c8.5,0.8,14.9,6.3,14.3,12.3C161.5,135.2,154.1,139.3,145.6,138.5z
			 M194.1,143.3c-8.5-0.8-14.9-6.3-14.3-12.3c0.6-5.9,7.9-10.1,16.4-9.2c8.5,0.8,14.9,6.3,14.3,12.3
			C210,139.9,202.6,144.1,194.1,143.3z"/>
	</g>
</g>
</svg>
