<?xml version="1.0" encoding="utf-8"?>
<!-- Generator: Adobe Illustrator 23.1.0, SVG Export Plug-In . SVG Version: 6.00 Build 0)  -->
<svg version="1.1" xmlns="http://www.w3.org/2000/svg" xmlns:xlink="http://www.w3.org/1999/xlink" x="0px" y="0px"
	 viewBox="0 0 283.5 283.5" style="enable-background:new 0 0 283.5 283.5;" xml:space="preserve">
<style type="text/css">
	.st0{fill:#005668;}
	.st1{fill:#FFD36A;}
	.st2{fill:#F4BD4D;}
</style>
<g id="圖層_1">
</g>
<g id="圖層_2">
	<path class="st0" d="M-961.6,169.1"/>
	<g id="XMLID_114_">
		<path id="XMLID_286_" class="st0" d="M-997.7,204.1c-2.4,0-4.4-1-4.5-1c-0.6-0.3-0.9-1.1-0.6-1.8c0.3-0.6,1.1-0.9,1.8-0.6
			c0.1,0,3.4,1.6,6,0c0.6-0.4,1.4-0.2,1.8,0.4c0.4,0.6,0.2,1.4-0.4,1.8C-995,203.9-996.4,204.1-997.7,204.1z"/>
	</g>
	<g id="XMLID_64_">
		<path id="XMLID_120_" class="st0" d="M-956.9,138.5c-2.8,0-5.6-0.7-8.4-2c-0.7-0.3-0.9-1.1-0.6-1.7c0.3-0.7,1.1-0.9,1.7-0.6
			c4.9,2.3,9.6,2.3,14.5,0c0.7-0.3,1.4,0,1.7,0.6c0.3,0.7,0,1.4-0.6,1.7C-951.3,137.9-954.1,138.5-956.9,138.5z"/>
	</g>
	<g>
		<path class="st1" d="M99.2,80l-4.6,26.2c0,0-4.2-2-6.7-1.7c-2.5,0.3-9.8,8-6,17.5s7,24.5,10.2,25.2s7,2.5,7,2.5s0,24.6,4.6,30.9
			s9.5,11.9,9.5,11.9v7c0,0-36.5-4.9-43.2-4.2s-40.4,28.1-40,30.2c0.4,2.1,37.9,38.6,60,43.2c22.1,4.6,163.3-69.2,163.3-69.2
			l-17.2-16.5l-46.7-2.5l4.6-22.8c0,0,1.8-1.1,4.2-1.1c2.5,0,8.8-8.8,10.5-11.2c1.8-2.5,10.2-11.9,10.5-15.8
			c0.4-3.9,0.7-11.7-1.1-13.9c-1.8-2.2-3.5-4.7-5.3-4.7s-4.6,0.4-4.6,0.4l3.5-24.7c0,0-23.5-29.1-26.7-31.2
			c-3.2-2-31.3-6.9-45.3-2.4S99.2,80,99.2,80z"/>
		<circle class="st0" cx="117.6" cy="126.1" r="2.2"/>
		<circle class="st0" cx="177" cy="128.3" r="2.2"/>
		<path class="st0" d="M139.6,140c0,0-5.6,2.9-5.1,5.4c0.5,2.4,1.4,4.6,2.6,4.4c1.1-0.2,15,0,15,0s4.2-2.4,2.2-4.9
			c-2-2.5-4.6-4.9-4.6-4.9l-3.7-10.3c0,0-3.4,0.2-4.2,1.5S139.6,140,139.6,140z"/>
		<path class="st2" d="M131.3,148.3c0,0-10.6,10.3-17.3,10.7"/>
		<path class="st2" d="M159.7,148.3c0,0,10.6,10.3,17.3,10.7"/>
		<g id="XMLID_10_">
			<path id="XMLID_12_" class="st0" d="M210.5,98.2c0,0,6.1-26.8-5.9-45.2c-12.1-18.4-32.1-30.9-54.3-29s-41.8,17-47.4,31.4
				c-5.5,14.5-7.5,29.1-7.5,29.1S133,92.2,153.7,95c20.7,2.8,27.9,2.8,33.6,3.2C193.1,98.6,210.5,98.2,210.5,98.2z"/>
			<path id="XMLID_36_" class="st0" d="M70.2,103.8c6.9-4.6,21.6-15.2,25.2-19.3c0,0,37.6,7.7,58.4,10.5c20.7,2.8,27.9,2.8,33.6,3.2
				c0.4,0,0.8,0,1.2,0.1c-5.4,6.3-17.6,19.4-28.9,24.3c-15.2,6.5-28.5,3.7-42.2-4.3c-13.7-8-30.9-13.8-39.3-12.5
				c0,0-5.1,5.1-9.4,5.3C64.3,111.1,63.3,108.4,70.2,103.8z"/>
		</g>
		<path class="st0" d="M133.6,152.5c0,0-9.7,5-10.1,6.9c-0.3,1.9,0,6.6,0,6.6s7.2-4.7,10.1-5.7c2.8-0.9,11.3-1.1,11.3-1.1l19.2,6.8
			v-6.8l-8.2-5.2L133.6,152.5z"/>
	</g>
</g>
</svg>
