<?xml version="1.0" encoding="utf-8"?>
<!-- Generator: Adobe Illustrator 26.3.1, SVG Export Plug-In . SVG Version: 6.00 Build 0)  -->
<svg version="1.1" xmlns="http://www.w3.org/2000/svg" xmlns:xlink="http://www.w3.org/1999/xlink" x="0px" y="0px"
	 viewBox="0 0 283.5 283.5" style="enable-background:new 0 0 283.5 283.5;" xml:space="preserve">
<style type="text/css">
	.st0{fill:#005669;}
	.st1{fill:#FFD26A;}
	.st2{fill:#025568;}
	.st3{fill:#F3C258;}
</style>
<g id="圖層_1">
</g>
<g id="圖層_2">
</g>
<g id="圖層_3">
	<path class="st0" d="M145.9,52.5c0,0,1.3-11.9-25.2-13.3c-26.5-1.3-73,2.7-83.6,27.9s-18.6,55.7-18.6,67.7
		c0,11.9,10,45.8,19.2,53.8s31.2,11.3,39.2,16.6c8,5.3,6-121.4,15.3-124.1c9.3-2.7,42.5-15.9,51.8-4s34.5,49.1,34.5,45.1
		s1.3-11.9,0-26.5c-1.3-14.6-18.6-33.2-21.2-37.2S145.9,52.5,145.9,52.5z"/>
	<path class="st1" d="M103.5,64.4c0,0-26.5,11.9-29.2,21.2C71.6,95,65,138.8,61,144.1c-4,5.3-14.6,5.3-19.9,9.3s2.7,23.9,11.9,25.2
		c9.3,1.3,13.3,5.3,13.3,5.3s11.9,15.9,9.3,22.6c-2.7,6.6-19.9,22.6-33.2,25.2c-13.3,2.7-21.2-1.3-29.2,9.3
		c-8,10.6,268.8-0.7,266.1-12.6s-70.3-31.9-84.9-31.9c-14.6,0-18.6,5.3-18.6-6.6s6.6-59.7,2.7-74.3c-4-14.6-14.6-37.2-23.9-46.5
		C145.3,59.8,103.5,64.4,103.5,64.4z"/>
</g>
<g id="圖層_4">
	<circle class="st2" cx="116.1" cy="131.5" r="4.6"/>
	<circle class="st2" cx="161.2" cy="119.5" r="4.6"/>
	<path class="st2" d="M120.7,104.3c0,0-9.3-1.3-14.6,0c-5.3,1.3-10.6,5.3-14.6,9.3s-6.6,6.6-4,8c2.7,1.3,17.3-9.3,17.3-9.3
		L120.7,104.3z"/>
	<path class="st2" d="M160.5,89.7c0,0-13.3,9.3-13.3,10.6c0,1.3,0,6.6,1.3,4s6.6-2.7,10.6-4c4-1.3,6.6-4,6.6-5.3
		C165.8,93.6,160.5,89.7,160.5,89.7z"/>
	<path class="st2" d="M136.6,133.5c0,0,1.3,14.6,1.3,17.3c0,2.7-2.7,1.3-2.7,6.6s6.6,6.6,8,4c1.3-2.7,17.3,1.3,17.3-4
		s1.3-10.6-2.7-10.6s-6.6-9.3-13.3-15.9C138,124.2,136.6,133.5,136.6,133.5z"/>
	<path class="st3" d="M126,137.4c0,0-5.3,17.3-25.2,6.6c0,0,8,2.7,11.9,1.3c4-1.3,11.9-8,11.9-8"/>
	<path class="st3" d="M179.1,124.2c0,0-5.3,17.3-25.2,6.6c0,0,8,2.7,11.9,1.3s11.9-8,11.9-8"/>
</g>
</svg>
